<svg width="31" height="31" viewBox="0 0 31 31" fill="none" xmlns="http://www.w3.org/2000/svg">
<path d="M28.4167 0H2.58333C1.89819 0 1.24111 0.272172 0.756641 0.756641C0.272172 1.24111 0 1.89819 0 2.58333V28.4167C0 29.1018 0.272172 29.7589 0.756641 30.2434C1.24111 30.7278 1.89819 31 2.58333 31H28.4167C29.1018 31 29.7589 30.7278 30.2434 30.2434C30.7278 29.7589 31 29.1018 31 28.4167V2.58333C31 1.89819 30.7278 1.24111 30.2434 0.756641C29.7589 0.272172 29.1018 0 28.4167 0ZM24.5417 16.7917H16.7917V24.5417C16.7917 24.8842 16.6556 25.2128 16.4133 25.455C16.1711 25.6972 15.8426 25.8333 15.5 25.8333C15.1574 25.8333 14.8289 25.6972 14.5867 25.455C14.3444 25.2128 14.2083 24.8842 14.2083 24.5417V16.7917H6.45833C6.11576 16.7917 5.78722 16.6556 5.54499 16.4133C5.30275 16.1711 5.16667 15.8426 5.16667 15.5C5.16667 15.1574 5.30275 14.8289 5.54499 14.5867C5.78722 14.3444 6.11576 14.2083 6.45833 14.2083H14.2083V6.45833C14.2083 6.11576 14.3444 5.78722 14.5867 5.54499C14.8289 5.30275 15.1574 5.16667 15.5 5.16667C15.8426 5.16667 16.1711 5.30275 16.4133 5.54499C16.6556 5.78722 16.7917 6.11576 16.7917 6.45833V14.2083H24.5417C24.8842 14.2083 25.2128 14.3444 25.455 14.5867C25.6972 14.8289 25.8333 15.1574 25.8333 15.5C25.8333 15.8426 25.6972 16.1711 25.455 16.4133C25.2128 16.6556 24.8842 16.7917 24.5417 16.7917Z" fill="#1855B0"/>
</svg>
