<svg width="36" height="36" viewBox="0 0 36 36" fill="none" xmlns="http://www.w3.org/2000/svg">
<path d="M4.01509 10C13.0075 10 21.9925 10 31 10C31 10.1183 31 10.2145 31 10.318C31 15.3401 31 20.3622 31 25.3769C31 26.4346 30.4191 26.9967 29.3403 26.9967C29.0989 26.9967 28.8575 26.9967 28.6086 26.9967C28.5708 26.723 28.5482 26.4716 28.4954 26.2349C28.3596 25.6654 28.088 25.1698 27.6882 24.7334C27.6203 24.6521 27.5599 24.5263 27.5675 24.4228C27.7938 21.6862 26.7376 19.5338 24.4971 17.9214C24.3085 17.7809 24.2179 17.6552 24.2029 17.4185C23.9086 13.7721 20.4987 11.0281 16.7946 11.4349C13.5054 11.7973 10.9858 14.3564 10.767 17.5516C10.7594 17.6478 10.6915 17.7809 10.6086 17.8327C8.88852 18.9939 7.83236 20.5767 7.47779 22.6033C7.22129 24.0456 7.47779 25.4065 8.2171 26.6861C8.26236 26.76 8.30763 26.8266 8.34535 26.9006C8.35289 26.9154 8.35289 26.9375 8.35289 26.9745C8.285 26.9819 8.2171 26.9967 8.14166 26.9967C7.2741 26.9967 6.40654 27.0041 5.54652 26.9967C4.61106 26.9893 4 26.3902 4 25.4879C4 20.3992 4 15.3179 4 10.2293C4 10.1627 4.00754 10.0888 4.01509 10Z" fill="#1B56AE"/>
<path d="M10.5506 19C11.1065 22.4005 14.0585 24.5659 17.2688 24.6603C20.6279 24.762 23.8539 22.5822 24.4412 19.0509C25.8428 19.6612 27.2209 22.3642 26.9703 23.9555C26.4927 23.8828 26.0229 23.752 25.5452 23.7448C24.4099 23.7157 23.4703 24.1371 22.7655 24.9582C22.2488 25.5613 21.7476 26.1789 21.2543 26.7965C21.1369 26.9419 21.0116 27 20.8158 27C18.3728 26.9927 15.9299 27 13.4869 26.9927C13.3537 26.9927 13.1893 26.9491 13.1032 26.8692C11.9522 25.881 10.4253 25.7938 9.16463 26.6512C9.14114 26.6658 9.11765 26.6803 9.05501 26.7166C8.272 25.6921 7.90399 24.5513 8.02144 23.3015C8.17804 21.5359 9.03152 20.1262 10.5506 19Z" fill="#1B56AE"/>
<path d="M11.2335 6.02943C11.1958 6.63918 11.2487 7.20984 11.7094 7.63197C11.9738 7.87431 12.276 8.0072 12.631 8.01502C13.1296 8.02284 13.5224 7.81959 13.8321 7.42091C14.1418 7.01441 14.1191 6.52974 14.1267 6.02161C14.4515 6.02161 14.7612 6.02161 15.0709 6.02161C15.3806 6.02161 15.6903 6.02161 16.0303 6.02161C16.0454 6.27958 16.0529 6.5141 16.0831 6.74862C16.1738 7.43654 16.7252 7.9603 17.3748 8.0072C18.0925 8.05411 18.727 7.61634 18.8932 6.9206C18.9612 6.63918 18.9536 6.34212 18.9838 6.0138C19.286 6.0138 19.5957 6.0138 19.9054 6.0138C20.2151 6.0138 20.5248 6.0138 20.8874 6.0138C20.8874 6.18578 20.8874 6.34994 20.8874 6.50629C20.9025 7.374 21.5295 8.0072 22.3377 8.0072C23.1385 7.99939 23.7579 7.35837 23.773 6.5141C23.773 6.35776 23.773 6.20141 23.773 6.02943C24.4151 6.02943 25.042 6.02943 25.7068 6.02943C25.6614 6.65481 25.7294 7.24893 26.2431 7.67106C26.5226 7.90558 26.855 8.05411 27.21 7.99157C27.4895 7.94467 27.7992 7.86649 28.0107 7.69451C28.2373 7.51472 28.4186 7.22548 28.5168 6.95187C28.615 6.67827 28.5924 6.35776 28.6301 6.02161C29.1136 6.02161 29.6272 5.92781 30.1107 6.13106C30.5866 6.3343 30.9265 6.70953 30.9718 7.24111C31.0247 7.81959 30.9869 8.40589 30.9869 9C21.9978 9 13.0087 9 4.01959 9C4.01959 8.40589 3.96671 7.81959 4.0347 7.24893C4.11024 6.58446 4.6239 6.11542 5.27353 6.03725C5.63612 5.99816 6.00626 6.02943 6.41417 6.02943C6.41417 6.20923 6.40662 6.38121 6.41417 6.55319C6.43683 7.38182 7.05625 8.0072 7.84941 8.0072C8.63501 8.0072 9.26954 7.38182 9.29975 6.56101C9.3073 6.38903 9.29975 6.21705 9.29975 6.02943C9.94938 6.02943 10.5688 6.02943 11.2335 6.02943Z" fill="#1B56AE"/>
<path d="M11.0235 27.0001C12.1372 27.0079 13.0078 27.8941 12.9999 29.0078C12.9921 30.1214 12.0823 31.0155 10.9686 30.9998C9.87062 30.9841 8.99221 30.0744 9.00005 28.9686C9.01574 27.8706 9.91768 26.9922 11.0235 27.0001Z" fill="#1B56AE"/>
<path d="M27.9893 27C25.9928 27 24.0132 27 22 27C22.0503 26.9374 22.0839 26.881 22.1342 26.8371C22.5117 26.4676 22.8724 26.0793 23.2834 25.7285C24.0216 25.0771 24.9779 24.8579 26.0767 25.0896C27.184 25.3277 27.8131 25.9164 27.9977 26.762C28.006 26.8309 27.9893 26.9123 27.9893 27Z" fill="#1B56AE"/>
<path d="M25.401 30.848C25.8212 30.3125 26.2414 29.7859 26.6525 29.2593C26.9265 28.9111 27.1731 28.5541 27.4654 28.2328C27.5659 28.1167 27.7577 28.0364 27.913 28.0186C28.251 27.9829 28.589 28.0096 29 28.0096C28.8447 28.2596 28.7442 28.4559 28.6072 28.6255C27.8765 29.5717 27.1366 30.5267 26.3967 31.4639C25.9034 32.0887 25.2458 32.1691 24.6063 31.696C24.4602 31.5889 24.314 31.4818 24.1862 31.3568C23.9578 31.1426 23.9395 30.8302 24.1314 30.5981C24.314 30.3661 24.6246 30.3036 24.8986 30.4642C25.0539 30.5803 25.2092 30.7142 25.401 30.848Z" fill="#1B56AE"/>
<path d="M17.9931 5.52366C17.9931 5.83778 18.0009 6.15189 17.9931 6.46601C17.9775 6.80368 17.791 7 17.5033 7C17.2157 7 17.0136 6.80368 17.0058 6.46601C16.9981 5.82207 16.9981 5.17029 17.0058 4.52635C17.0136 4.20439 17.2313 3.99236 17.5111 4.00021C17.7832 4.00806 17.9775 4.21224 17.9931 4.52635C18.0086 4.85617 17.9931 5.19384 17.9931 5.52366Z" fill="#1B56AE"/>
<path d="M7.99653 5.50795C7.99653 5.82207 8.00433 6.13618 7.99653 6.44245C7.98873 6.78797 7.79372 7 7.48949 7C7.18527 7 7.00585 6.79583 7.00585 6.43459C6.99805 5.80636 6.99805 5.18598 7.00585 4.55775C7.00585 4.22008 7.21647 3.99234 7.50509 4.0002C7.79372 4.00805 7.98873 4.23578 7.99653 4.57346C8.00433 4.87972 7.99653 5.19384 7.99653 5.50795Z" fill="#1B56AE"/>
<path d="M12.9965 5.5157C12.9965 5.83764 13.0043 6.15959 12.9965 6.48153C12.9887 6.79562 12.8015 6.99193 12.5207 6.99978C12.2321 7.00763 12.0137 6.80347 12.0059 6.48938C11.998 5.83764 11.998 5.17805 12.0059 4.52631C12.0137 4.21222 12.2399 3.99235 12.5129 4.0002C12.7937 4.00806 12.9887 4.22007 12.9965 4.54986C12.9965 4.87181 12.9965 5.19375 12.9965 5.5157Z" fill="#1B56AE"/>
<path d="M22.0035 5.46859C22.0035 5.15445 21.9957 4.84031 22.0035 4.53403C22.0113 4.21204 22.2141 4 22.4949 4C22.7757 4 22.9863 4.2199 22.9941 4.53403C23.002 5.17801 23.002 5.82199 22.9941 6.46597C22.9863 6.79581 22.7835 7 22.4949 7C22.1985 7 22.0113 6.79581 22.0035 6.46597C21.9957 6.13613 22.0035 5.79843 22.0035 5.46859Z" fill="#1B56AE"/>
<path d="M27.9965 5.5C27.9965 5.82199 28.0043 6.14398 27.9965 6.46597C27.9887 6.79581 27.7937 7 27.5051 7C27.2165 7 27.0137 6.79581 27.0059 6.46597C26.998 5.82199 26.998 5.17801 27.0059 4.53403C27.0137 4.2199 27.2243 4 27.5051 4C27.7859 4 27.9887 4.2199 27.9965 4.54188C28.0043 4.85602 27.9965 5.17801 27.9965 5.5Z" fill="#1B56AE"/>
<path d="M22 28C21.7013 28.3144 21.4586 28.5765 21.2066 28.846C21.3653 28.9583 21.5239 29.0556 21.664 29.1604C21.916 29.3475 21.9533 29.6171 21.7666 29.8117C21.5706 30.0213 21.2159 30.0662 20.9265 29.8941C20.5625 29.6769 20.1705 29.4898 20.0398 29.1005C19.9091 28.6813 20.1145 28.3519 20.4505 28.0599C20.4878 28.0225 20.5718 28 20.6278 28C21.0666 28 21.4866 28 22 28Z" fill="#1B56AE"/>
<path d="M23.3046 17.9809C23.3348 21.1603 20.7595 23.7733 17.5499 23.796C14.3856 23.8262 11.765 21.2358 11.7423 18.0564C11.7197 14.8619 14.2874 12.2262 17.4442 12.2111C20.684 12.1884 23.2744 14.7335 23.3046 17.9809ZM16.0621 19.446C16.0697 19.5668 16.0772 19.6348 16.0772 19.7103C16.0772 20.239 16.0697 20.7676 16.0772 21.2962C16.0848 21.9533 16.4624 22.3309 17.1119 22.3384C17.4291 22.346 17.7538 22.346 18.071 22.3309C18.5166 22.3082 18.8715 21.991 18.947 21.553C18.9772 21.3567 18.9772 21.1603 18.9772 20.964C18.9772 20.4655 18.9772 19.9746 18.9772 19.446C19.6192 19.446 20.2309 19.446 20.8426 19.446C21.4694 19.4384 21.8621 19.0457 21.8697 18.4189C21.8772 18.1848 21.8697 17.9507 21.8697 17.709C21.8697 16.9085 21.5147 16.5535 20.7142 16.5535C20.1403 16.5535 19.5738 16.5535 18.9697 16.5535C18.9697 16.4176 18.9697 16.3194 18.9697 16.2137C18.9697 15.6926 18.9772 15.1791 18.9697 14.658C18.9546 14.0387 18.5694 13.6686 17.9501 13.6611C17.6707 13.6611 17.3837 13.6611 17.1043 13.6611C16.4699 13.6686 16.0923 14.0462 16.0772 14.6806C16.0697 15.0507 16.0772 15.4132 16.0772 15.7832C16.0772 16.0324 16.0772 16.2817 16.0772 16.5535C15.4202 16.5535 14.8085 16.5535 14.1968 16.5535C13.5926 16.5611 13.1923 16.9538 13.1772 17.5655C13.1697 17.8223 13.1772 18.0715 13.1772 18.3283C13.1772 19.0684 13.5473 19.446 14.2874 19.446C14.8689 19.4535 15.4504 19.446 16.0621 19.446Z" fill="#1B56AE"/>
<path d="M20.8849 18.4849C20.1297 18.4849 19.3896 18.4849 18.657 18.4849C18.151 18.4849 18 18.6359 18 19.1419C18 19.7763 18 20.4031 18 21.0375C18 21.1357 18 21.2414 18 21.3622C17.6753 21.3622 17.3807 21.3622 17.0484 21.3622C17.0409 21.2641 17.0333 21.1659 17.0333 21.0677C17.0333 20.4107 17.0333 19.7461 17.0333 19.0891C17.0333 18.6586 16.8596 18.4924 16.4292 18.4924C15.6966 18.4924 14.9565 18.4924 14.224 18.4849C14.2089 18.4849 14.1862 18.4773 14.1484 18.4622C14.1484 18.1677 14.1484 17.8581 14.1484 17.5258C14.8206 17.5258 15.4701 17.5258 16.1271 17.5258C16.2328 17.5258 16.331 17.5258 16.4367 17.5258C16.8445 17.5182 17.0182 17.3596 17.0182 16.9367C17.0258 16.2797 17.0182 15.6151 17.0182 14.9581C17.0182 14.8599 17.0182 14.7542 17.0182 14.6484C17.3505 14.6484 17.6526 14.6484 17.9849 14.6484C17.9849 14.9279 17.9849 15.1997 17.9849 15.4716C17.9849 15.9625 17.9773 16.4534 17.9849 16.9443C17.9924 17.3596 18.1586 17.5258 18.574 17.5258C19.2461 17.5258 19.9107 17.5258 20.5828 17.5258C20.6734 17.5258 20.7641 17.5333 20.8698 17.5409C20.8849 17.8505 20.8849 18.1451 20.8849 18.4849Z" fill="#1B56AE"/>
</svg>
