<svg width="43" height="43" viewBox="0 0 43 43" fill="none" xmlns="http://www.w3.org/2000/svg">
<path d="M8 31.7247C8 25.9674 8 20.2026 8 14.4453C8.1184 14.4453 8.23681 14.4527 8.35521 14.4527C16.0736 14.4527 23.7845 14.4527 31.5029 14.4527C31.6287 14.4527 31.7545 14.4527 31.8729 14.4527C31.8729 17.7458 31.8729 20.9871 31.8729 24.2505C29.3273 24.2431 27.2108 25.1681 25.5828 27.1144C23.9547 29.0606 23.4663 31.3251 23.9251 33.8485C23.7771 33.8485 23.6587 33.8485 23.5403 33.8485C19.2482 33.8485 14.9636 33.8485 10.6715 33.8485C10.5235 33.8485 10.3755 33.8411 10.2274 33.8263C9.16183 33.7375 8.28861 32.9679 8.0592 31.9171C8.0444 31.8505 8.0222 31.7839 8 31.7247ZM19.2038 22.2673C21.0909 22.2673 22.9779 22.2673 24.8576 22.2673C25.2128 22.2673 25.4348 22.0675 25.4422 21.7715C25.4496 21.4681 25.2128 21.2535 24.8502 21.2387C24.7984 21.2387 24.754 21.2387 24.7022 21.2387C21.0391 21.2387 17.376 21.2387 13.7203 21.2387C13.6241 21.2387 13.5205 21.2313 13.4243 21.2461C13.1357 21.2905 12.9581 21.5421 12.9951 21.8307C13.0321 22.1119 13.2319 22.2673 13.6019 22.2673C15.4742 22.2673 17.339 22.2673 19.2038 22.2673ZM16.9024 27.07C17.9606 27.07 19.0262 27.07 20.0845 27.07C20.6025 27.07 20.8615 26.885 20.8541 26.5372C20.8467 26.1968 20.6025 26.034 20.0919 26.034C17.968 26.034 15.8442 26.034 13.7203 26.034C13.6093 26.034 13.4983 26.034 13.3947 26.0562C13.1579 26.108 13.0099 26.256 12.9877 26.5076C12.9655 26.7666 13.0839 26.9516 13.3281 27.033C13.4391 27.07 13.5649 27.07 13.6759 27.07C14.7637 27.07 15.8368 27.07 16.9024 27.07Z" fill="#178B3E"/>
<path d="M8 11.0495C8.0592 10.8793 8.1036 10.7091 8.1702 10.5537C8.56981 9.62127 9.27283 9.05885 10.2866 9.02185C11.3967 8.97745 12.5067 9.01445 13.6685 9.01445C13.6685 9.25126 13.6685 9.48806 13.6685 9.72487C13.6685 10.0209 13.6611 10.3243 13.6759 10.6203C13.6907 10.9459 13.9127 11.1531 14.2013 11.1457C14.4751 11.1383 14.6897 10.9311 14.7045 10.6203C14.7193 10.2059 14.7119 9.78407 14.7119 9.36966C14.7119 9.26606 14.7119 9.15506 14.7119 9.02925C18.2048 9.02925 21.6607 9.02925 25.1758 9.02925C25.1758 9.37706 25.1758 9.73227 25.1758 10.0875C25.1758 10.2651 25.1684 10.4427 25.1832 10.6203C25.2054 10.9311 25.4052 11.1383 25.6864 11.1457C25.975 11.1531 26.2044 10.9385 26.2118 10.6203C26.2266 10.2059 26.2192 9.78407 26.2192 9.36966C26.2192 9.26606 26.2192 9.15506 26.2192 9.02925C26.345 9.02185 26.4412 9.01445 26.5374 9.01445C27.4698 9.01445 28.4022 9.01445 29.3347 9.01445C30.8665 9.02185 31.8877 10.0505 31.8877 11.5823C31.8877 12.1891 31.8877 12.7959 31.8877 13.4471C23.9177 13.4471 15.9626 13.4471 8 13.4471C8 12.6405 8 11.8413 8 11.0495Z" fill="#178B3E"/>
<path d="M24.7969 32.1416C24.7969 28.3527 27.8606 25.2891 31.6494 25.2891C35.4383 25.2891 38.502 28.3601 38.502 32.149C38.502 35.9305 35.4309 39.0016 31.642 39.0016C27.8532 38.9942 24.7895 35.9379 24.7969 32.1416ZM30.68 33.9917C29.9252 33.2368 29.2 32.5042 28.4748 31.7716C28.4304 31.7272 28.3934 31.6902 28.349 31.6458C28.0678 31.372 27.7644 31.3424 27.5423 31.557C27.3129 31.7864 27.3351 32.0824 27.6164 32.3636C28.4526 33.2072 29.2962 34.0509 30.1398 34.8945C30.569 35.3237 30.7762 35.3311 31.2128 34.9167C32.6115 33.5772 34.0101 32.2452 35.4087 30.9058C35.5937 30.7282 35.7861 30.5506 35.9563 30.3656C36.1413 30.1584 36.1265 29.8476 35.9341 29.6626C35.7491 29.4776 35.4753 29.4628 35.2607 29.633C35.1867 29.6848 35.1275 29.7514 35.0609 29.8106C34.1285 30.6986 33.1961 31.594 32.2637 32.482C31.7456 32.9852 31.2276 33.4736 30.68 33.9917Z" fill="#178B3E"/>
</svg>
