<svg width="27" height="27" viewBox="0 0 27 27" fill="none" xmlns="http://www.w3.org/2000/svg">
<path d="M13.9453 24.9934C13.9453 22.7933 13.9498 20.5932 13.9453 18.393C13.9453 18.2086 13.9948 18.0691 14.0983 17.9206C15.0746 16.5574 16.0374 15.1896 17.0183 13.8308C17.1353 13.6689 17.3107 13.5384 17.4817 13.4169C17.6302 13.3089 18.0441 13.5564 18.0486 13.7454C18.0486 15.2256 18.0486 16.7103 18.0531 18.1906C18.0531 18.3391 17.9811 18.3885 17.8641 18.447C17.0948 18.816 16.6763 19.5988 16.7753 20.4582C16.8698 21.2456 17.4952 21.9159 18.3006 22.0869C19.2409 22.2849 20.1812 21.763 20.5097 20.8586C20.8381 19.9543 20.4602 18.9465 19.6098 18.501C19.4434 18.411 19.3804 18.3256 19.3804 18.1321C19.3939 16.9578 19.3849 15.7835 19.3849 14.6092C19.3849 14.5372 19.3849 14.4652 19.3849 14.3573C19.4659 14.4022 19.5243 14.4292 19.5783 14.4652C22.2734 16.3459 23.9201 18.8925 24.433 22.1409C24.5365 22.8023 24.5275 23.4817 24.5635 24.152C24.577 24.4355 24.577 24.7189 24.586 25.0024C21.0406 24.9934 17.4907 24.9934 13.9453 24.9934ZM15.52 22.8428C15.88 22.8518 16.1994 22.5593 16.2039 22.2174C16.2129 21.8349 15.916 21.5155 15.547 21.511C15.1916 21.5065 14.8722 21.808 14.8722 22.1499C14.8722 22.5323 15.1556 22.8383 15.52 22.8428Z" fill="white"/>
<path d="M2.00295 24.9913C1.99845 23.9205 1.97596 22.8497 2.18292 21.7924C2.80831 18.5754 4.50902 16.0874 7.24004 14.2922C7.27603 14.2697 7.31653 14.2472 7.37952 14.2157C7.38402 14.2877 7.39301 14.3462 7.39301 14.4002C7.39301 15.588 7.39301 16.7802 7.39751 17.968C7.39751 18.1165 7.36602 18.184 7.20405 18.2245C5.7598 18.5754 4.73398 19.8532 4.69798 21.347C4.68898 21.7789 4.69798 22.2108 4.69798 22.6607C5.14341 22.6607 5.57083 22.6607 6.03425 22.6607C6.03425 22.5527 6.02975 22.4538 6.03425 22.3503C6.05225 21.8959 6.01175 21.4279 6.09724 20.987C6.29071 20.0017 7.23104 19.3628 8.22987 19.4753C9.1882 19.5833 9.93507 20.4021 9.95757 21.3784C9.96657 21.7789 9.95757 22.1838 9.95757 22.5977C10.412 22.5977 10.8439 22.5977 11.2758 22.5977C11.4018 21.1715 11.2983 19.8217 10.0566 18.8634C9.67412 18.5664 9.2107 18.3775 8.78327 18.139C8.76527 18.157 8.75178 18.175 8.73378 18.193C8.73378 18.103 8.73378 18.013 8.73378 17.9275C8.73378 16.5193 8.73378 15.1155 8.73828 13.7073C8.73828 13.6218 8.78327 13.5093 8.84626 13.4553C8.94974 13.3608 9.07122 13.3698 9.1792 13.4823C9.32768 13.6353 9.50765 13.7658 9.62912 13.9412C10.583 15.273 11.5323 16.6093 12.4771 17.9455C12.5446 18.0445 12.6076 18.1705 12.6076 18.2875C12.6166 20.4876 12.6121 22.6877 12.6121 24.8878C12.6121 24.9238 12.6076 24.9598 12.6031 25.0003C9.06672 24.9913 5.53484 24.9913 2.00295 24.9913Z" fill="white"/>
<path d="M18.9893 7.70051C18.9983 10.85 16.4428 13.41 13.2888 13.4145C10.1394 13.419 7.57482 10.8635 7.57032 7.71851C7.56582 4.57356 10.1259 2.00451 13.2753 2.00001C16.4203 1.99551 18.9803 4.54656 18.9893 7.70051Z" fill="white"/>
<path d="M14.7945 14.6406C14.2726 15.3785 13.7867 16.0534 13.2873 16.7598C12.7879 16.0579 12.3065 15.3785 11.7891 14.6496C12.8014 14.8431 13.7687 14.8566 14.7945 14.6406Z" fill="white"/>
<path d="M18.7002 19.6016C19.0241 19.6061 19.2851 19.8626 19.2851 20.1865C19.2896 20.5195 19.0196 20.7849 18.6867 20.7804C18.3537 20.7759 18.0928 20.5105 18.1018 20.173C18.1108 19.8491 18.3762 19.5971 18.7002 19.6016Z" fill="white"/>
</svg>
