<svg width="32" height="32" viewBox="0 0 32 32" fill="none" xmlns="http://www.w3.org/2000/svg">
<path d="M22.288 2C22.6916 2.08649 23.1048 2.13454 23.4989 2.26908C24.8923 2.74959 25.6419 3.76825 25.8437 5.20016C25.8918 5.5269 25.9014 5.87286 25.9014 6.19961C25.911 7.75644 25.911 9.31327 25.9014 10.8701C25.9014 11.0527 25.9494 11.1296 26.1224 11.1872C27.487 11.6581 28.3904 12.9171 28.3904 14.3586C28.4 17.059 28.4096 19.7498 28.3808 22.4503C28.3712 22.9788 28.2751 23.5362 28.0925 24.0263C27.66 25.1795 26.7567 25.7561 25.565 25.9291C25.4401 25.9483 25.3248 25.9579 25.171 25.9772C25.171 26.1213 25.171 26.2655 25.171 26.4C25.171 26.967 25.1806 27.534 25.1614 28.101C25.1422 28.6776 24.7097 29.1293 24.1331 29.1581C23.7103 29.1773 23.2874 29.1773 22.8646 29.1581C22.2592 29.1293 21.8363 28.6584 21.8267 28.0049C21.8171 27.3418 21.8267 26.6787 21.8267 25.9964C18.0788 25.9964 14.3404 25.9964 10.5829 25.9964C10.5829 26.0733 10.5733 26.1597 10.5733 26.2462C10.5733 26.8324 10.5829 27.4091 10.5733 27.9953C10.5637 28.7064 10.112 29.1581 9.40087 29.1581C9.04529 29.1581 8.68972 29.1677 8.34376 29.1581C7.69988 29.1485 7.2386 28.6968 7.22899 28.0529C7.21938 27.3706 7.22899 26.6883 7.22899 25.9964C6.89263 25.9195 6.56589 25.8618 6.24876 25.7753C5.0475 25.439 4.21142 24.4588 4.05766 23.2191C4.01922 22.9308 4 22.6425 4 22.3445C4 19.7018 4 17.059 4 14.4162C4 13.7243 4.15376 13.0708 4.54777 12.4846C4.9514 11.8792 5.49917 11.4371 6.1911 11.2161C6.39291 11.1488 6.46018 11.0623 6.46018 10.8413C6.45057 9.27483 6.45057 7.70839 6.46018 6.14194C6.46018 5.42119 6.53706 4.71004 6.85419 4.04695C7.41158 2.82647 8.43986 2.24025 9.74683 2.04805C9.84293 2.03844 9.93903 2.01922 10.0255 2C14.1098 2 18.2037 2 22.288 2ZM21.8171 15.0024C21.8171 14.6949 21.8075 14.4162 21.8171 14.1279C21.8844 12.5807 23.0087 11.2833 24.5271 11.0335C24.7482 10.995 24.7962 10.9278 24.7962 10.726C24.7866 9.16912 24.7962 7.61229 24.7866 6.05545C24.7866 5.76715 24.777 5.46924 24.7193 5.18094C24.5464 4.22954 24.0466 3.528 23.076 3.25892C22.6436 3.13399 22.1727 3.06672 21.721 3.06672C18.0211 3.0475 14.3116 3.05711 10.6117 3.05711C10.3715 3.05711 10.1312 3.06672 9.90059 3.10516C8.85309 3.25892 8.05545 3.73942 7.72871 4.78692C7.60378 5.20977 7.55573 5.67105 7.54612 6.11311C7.5269 7.53541 7.53651 8.9577 7.53651 10.38C7.53651 10.5722 7.48846 10.8028 7.57495 10.947C7.64222 11.0527 7.89208 11.0431 8.06506 11.0815C8.09389 11.0911 8.11311 11.1007 8.14194 11.1104C9.53541 11.514 10.4676 12.7249 10.506 14.1856C10.5156 14.4547 10.506 14.7237 10.506 15.0024C14.302 15.0024 18.0403 15.0024 21.8171 15.0024ZM16.1568 24.9008C18.9821 24.9008 21.7979 24.9008 24.6232 24.9008C24.8731 24.9008 25.123 24.8912 25.3632 24.8624C26.2666 24.7471 26.9008 24.2858 27.1315 23.392C27.2276 23.0076 27.2756 22.604 27.2756 22.21C27.2852 19.6249 27.2852 17.0494 27.2852 14.4643C27.2852 14.2817 27.2852 14.0895 27.2564 13.9069C27.0546 12.6095 25.738 11.7831 24.4791 12.1771C23.5277 12.475 22.9319 13.2918 22.9319 14.3393C22.9319 16.2902 22.9319 18.2506 22.9319 20.2015C22.9319 20.8742 22.7685 21.0376 22.1054 21.0376C18.1653 21.0376 14.2155 21.0376 10.2754 21.0376C9.6219 21.0376 9.45853 20.8742 9.45853 20.2303C9.45853 18.2699 9.45853 16.2998 9.45853 14.3393C9.45853 13.1381 8.61284 12.1867 7.49807 12.0906C6.18149 11.9753 5.12438 12.9555 5.11477 14.3105C5.10516 15.9058 5.11477 17.4915 5.11477 19.0867C5.11477 20.2976 5.10516 21.5085 5.12438 22.7193C5.1436 23.5458 5.4319 24.2473 6.21993 24.6317C6.68121 24.8624 7.19055 24.9008 7.69027 24.9008C10.4964 24.9008 13.3314 24.9008 16.1568 24.9008ZM10.5252 19.9132C14.2924 19.9132 18.0307 19.9132 21.769 19.9132C21.769 18.6447 21.769 17.3953 21.769 16.1364C18.0115 16.1364 14.2732 16.1364 10.5252 16.1364C10.5252 17.3953 10.5252 18.6447 10.5252 19.9132ZM22.903 25.9868C22.903 26.6787 22.903 27.3514 22.903 28.0337C23.2778 28.0337 23.643 28.0337 24.0082 28.0337C24.0082 27.3418 24.0082 26.6691 24.0082 25.9868C23.6334 25.9868 23.2778 25.9868 22.903 25.9868ZM9.4297 28.0433C9.4297 27.3418 9.4297 26.6691 9.4297 25.9964C9.0549 25.9964 8.69933 25.9964 8.32454 25.9964C8.32454 26.6883 8.32454 27.361 8.32454 28.0433C8.69933 28.0433 9.0549 28.0433 9.4297 28.0433Z" fill="white" stroke="white"/>
</svg>
