<svg width="31" height="31" viewBox="0 0 31 31" fill="none" xmlns="http://www.w3.org/2000/svg">
<path d="M30.9957 22.5436C30.915 22.8019 30.8585 23.0683 30.7616 23.3105C30.1884 24.7959 28.5738 25.6436 27.0481 25.2803C25.4577 24.9009 24.3517 23.4558 24.5454 21.8897C24.61 21.3488 24.7957 20.8079 25.046 20.3235C25.6514 19.1368 26.3134 17.9743 26.9835 16.8199C27.3306 16.2225 28.1298 16.2063 28.4931 16.7714C29.3569 18.1035 30.1642 19.4678 30.7374 20.9613C30.8423 21.2438 30.915 21.5345 31.0038 21.817C30.9957 22.0592 30.9957 22.3014 30.9957 22.5436Z" fill="#1855B0"/>
<path d="M19.0294 9.32065C19.1424 9.32065 19.2474 9.32065 19.3604 9.32065C22.0083 9.32065 24.6563 9.32065 27.3042 9.32872C28.3536 9.32872 29.1448 10.0472 29.1852 11.016C29.2336 12.0654 28.4425 12.8889 27.3445 12.8889C25.1326 12.897 22.9125 12.8889 20.7005 12.8889C20.5875 12.8889 20.4826 12.8889 20.2807 12.8889C21.3221 13.3087 21.8388 13.9868 21.6451 15.0605C21.5159 15.779 20.9911 16.2472 20.1273 16.4652C21.0477 16.7397 21.6128 17.3048 21.5966 18.2735C21.5805 19.21 21.0315 19.7589 20.1193 20.0253C20.9508 20.2029 21.4836 20.655 21.6531 21.4704C21.8549 22.4391 21.1849 23.3998 20.2081 23.5613C20.1273 23.5774 20.0466 23.5855 19.9659 23.5855C18.1333 23.5774 16.3008 23.6178 14.4682 23.5371C13.7659 23.5048 13.0635 23.2061 12.3854 22.9639C10.9969 22.4795 9.60026 22.0355 8.12292 21.9063C7.38021 21.8417 6.6375 21.8417 5.89479 21.8095C5.7737 21.8014 5.66068 21.8095 5.52344 21.8095C5.52344 17.6358 5.52344 13.4863 5.52344 9.28836C5.92708 9.28836 6.32266 9.3368 6.70208 9.28029C7.72734 9.13497 8.53464 8.59409 9.04323 7.69799C9.84245 6.30138 11.0292 5.67169 12.6276 5.67976C15.3482 5.69591 18.0607 5.68784 20.7813 5.68784C21.4513 5.68784 21.8711 6.10763 21.8146 6.70502C21.8065 6.80997 21.7661 6.92299 21.7258 7.01987C21.2656 8.11778 20.4664 8.84435 19.3281 9.18341C19.2232 9.2157 19.1182 9.23992 19.0133 9.26414C19.0214 9.28836 19.0214 9.3045 19.0294 9.32065Z" fill="#1855B0"/>
<path d="M0.0703125 23.0411C0.0703125 18.0924 0.0703125 13.168 0.0703125 8.22734C0.151042 8.21927 0.223698 8.20312 0.304427 8.20312C1.11172 8.20312 1.91901 8.20312 2.71823 8.20312C3.33177 8.20312 3.68698 8.55833 3.68698 9.17995C3.68698 13.4747 3.68698 17.7776 3.68698 22.0724C3.68698 22.6214 3.36406 23.0089 2.8474 23.025C1.93516 23.0573 1.02292 23.0411 0.0703125 23.0411Z" fill="#1855B0"/>
</svg>
