<svg width="28" height="28" viewBox="0 0 28 28" fill="none" xmlns="http://www.w3.org/2000/svg">
<path d="M28.0022 20.3592C27.9293 20.5925 27.8782 20.8331 27.7907 21.0519C27.273 22.3935 25.8147 23.1592 24.4365 22.831C23.0001 22.4883 22.0011 21.1831 22.1761 19.7685C22.2345 19.28 22.4022 18.7914 22.6282 18.3539C23.1751 17.2821 23.773 16.2321 24.3782 15.1894C24.6918 14.6498 25.4136 14.6352 25.7418 15.1456C26.522 16.3487 27.2511 17.581 27.7688 18.93C27.8636 19.1852 27.9293 19.4477 28.0095 19.7029C28.0022 19.9217 28.0022 20.1404 28.0022 20.3592Z" fill="#1855B0"/>
<path d="M17.1833 8.41361C17.2854 8.41361 17.3802 8.41361 17.4823 8.41361C19.874 8.41361 22.2656 8.41361 24.6573 8.4209C25.6052 8.4209 26.3198 9.06986 26.3563 9.94486C26.4 10.8928 25.6854 11.6365 24.6938 11.6365C22.6958 11.6438 20.6906 11.6365 18.6927 11.6365C18.5906 11.6365 18.4958 11.6365 18.3135 11.6365C19.2542 12.0157 19.7208 12.6282 19.5458 13.598C19.4292 14.2469 18.9552 14.6699 18.175 14.8667C19.0063 15.1147 19.5167 15.6251 19.5021 16.5001C19.4875 17.3459 18.9917 17.8417 18.1677 18.0824C18.9187 18.2428 19.4 18.6511 19.5531 19.3876C19.7354 20.2626 19.1302 21.1303 18.2479 21.2761C18.175 21.2907 18.1021 21.298 18.0292 21.298C16.374 21.2907 14.7188 21.3272 13.0635 21.2542C12.4292 21.2251 11.7948 20.9553 11.1823 20.7365C9.92812 20.299 8.66667 19.898 7.33229 19.7813C6.66146 19.723 5.99062 19.723 5.31979 19.6938C5.21042 19.6865 5.10833 19.6938 4.98438 19.6938C4.98438 15.924 4.98438 12.1761 4.98438 8.38444C5.34896 8.38444 5.70625 8.42819 6.04896 8.37715C6.975 8.2459 7.70417 7.75736 8.16354 6.94799C8.88542 5.68653 9.95729 5.11778 11.401 5.12507C13.8583 5.13965 16.3083 5.13236 18.7656 5.13236C19.3708 5.13236 19.75 5.51153 19.699 6.05111C19.6917 6.1459 19.6552 6.24799 19.6188 6.33549C19.2031 7.32715 18.4813 7.9834 17.4531 8.28965C17.3583 8.31882 17.2635 8.34069 17.1688 8.36257C17.176 8.38444 17.176 8.39903 17.1833 8.41361Z" fill="#1855B0"/>
<path d="M0.0625 20.8083C0.0625 16.3385 0.0625 11.8906 0.0625 7.42813C0.135417 7.42083 0.201042 7.40625 0.273958 7.40625C1.00312 7.40625 1.73229 7.40625 2.45417 7.40625C3.00833 7.40625 3.32917 7.72708 3.32917 8.28854C3.32917 12.1677 3.32917 16.0542 3.32917 19.9333C3.32917 20.4292 3.0375 20.7792 2.57083 20.7938C1.74687 20.8229 0.922917 20.8083 0.0625 20.8083Z" fill="#1855B0"/>
</svg>
