<svg width="22" height="22" viewBox="0 0 22 22" fill="none" xmlns="http://www.w3.org/2000/svg">
<path d="M19.5996 13.4009C19.5996 13.315 19.5996 13.2347 19.5996 13.1603C19.5996 11.8196 19.5996 10.4733 19.5996 9.13266C19.5996 9.06391 19.6053 8.98943 19.5938 8.92068C19.5595 8.73735 19.4449 8.62277 19.2558 8.62277C19.0668 8.62277 18.9522 8.73162 18.9178 8.92068C18.9063 8.99516 18.9121 9.07537 18.9121 9.15558C18.9121 12.7707 18.9121 16.3858 18.9121 20.0009C18.9121 20.2873 18.8491 20.5394 18.6371 20.74C18.385 20.9691 18.0813 21.0436 17.7605 20.9176C17.4168 20.7801 17.2449 20.5051 17.1991 20.1441C17.1876 20.0639 17.1933 19.9894 17.1933 19.9092C17.1933 17.2738 17.1933 14.6384 17.1933 11.9972C17.1933 11.9113 17.1933 11.8254 17.1933 11.728C16.9699 11.728 16.7522 11.728 16.5058 11.728C16.5058 11.8082 16.5058 11.8941 16.5058 11.9743C16.5058 14.6556 16.5058 17.3311 16.5058 20.0123C16.5058 20.2988 16.4428 20.5509 16.2251 20.7457C15.9673 20.9748 15.6694 21.0436 15.3485 20.9118C15.0048 20.7743 14.8329 20.4936 14.7928 20.1327C14.7871 20.0525 14.7871 19.978 14.7871 19.8978C14.7871 16.3113 14.7871 12.7248 14.7871 9.13839C14.7871 8.78891 14.6782 8.62277 14.4433 8.62277C14.2084 8.62277 14.0996 8.78318 14.0996 9.13266C14.0996 10.4733 14.0996 11.8196 14.0996 13.1603C14.0996 13.2405 14.0996 13.315 14.0996 13.3894C13.3204 13.5498 12.7303 13.0801 12.7303 12.3066C12.7303 11.5275 12.7188 10.7483 12.736 9.96912C12.7647 8.10141 14.0824 6.43422 15.8756 5.98735C18.2475 5.39724 20.6423 7.04724 20.9287 9.47641C20.9517 9.66547 20.9631 9.86027 20.9631 10.0551C20.9688 10.7597 20.9345 11.4702 20.9746 12.1748C21.0204 12.9368 20.5277 13.5269 19.5996 13.4009Z" fill="#1855B0"/>
<path d="M5.87206 13.4161C5.87206 13.3244 5.87206 13.2442 5.87206 13.1697C5.87206 12.0411 5.87206 10.9124 5.87206 9.78377C5.87206 9.47439 5.75747 9.31398 5.53403 9.30825C5.3106 9.30825 5.19028 9.46866 5.19028 9.77231C5.19028 13.2671 5.19028 16.7619 5.19028 20.2567C5.19028 20.3426 5.19601 20.4286 5.18456 20.5145C5.15018 20.778 4.92674 20.9728 4.66893 20.9671C4.41112 20.9614 4.19341 20.7666 4.16476 20.503C4.15903 20.4228 4.15903 20.3484 4.15903 20.2681C4.15903 17.5067 4.15903 14.751 4.15903 11.9895C4.15903 11.9036 4.15903 11.8176 4.15903 11.7202C3.92987 11.7202 3.71216 11.7202 3.47153 11.7202C3.47153 11.8062 3.47153 11.8864 3.47153 11.9723C3.47153 14.7338 3.47153 17.4895 3.47153 20.251C3.47153 20.3197 3.47153 20.3942 3.47153 20.4629C3.45435 20.7551 3.23664 20.9671 2.96164 20.9671C2.68664 20.9671 2.4632 20.7551 2.44601 20.4687C2.44028 20.3999 2.44601 20.3254 2.44601 20.2567C2.44601 16.8192 2.44601 13.3817 2.44601 9.94419C2.44601 9.89262 2.44601 9.84679 2.44601 9.79523C2.44601 9.46866 2.3257 9.30252 2.09653 9.30825C1.8731 9.31398 1.75851 9.47439 1.75851 9.78377C1.75851 10.9124 1.75851 12.0411 1.75851 13.1697C1.75851 13.2499 1.75851 13.3244 1.75851 13.4046C1.39185 13.4103 1.08247 13.1468 1.07674 12.7973C1.06528 11.5541 1.02518 10.3051 1.09393 9.06762C1.16268 7.727 2.27987 6.6671 3.60331 6.56971C4.93247 6.47231 6.15278 7.37179 6.46789 8.6895C6.51945 8.91293 6.55383 9.1421 6.55956 9.36554C6.57101 10.4713 6.56528 11.5827 6.56528 12.6885C6.55956 13.1067 6.3132 13.376 5.87206 13.4161Z" fill="#1855B0"/>
<path d="M16.8573 1.07031C17.9917 1.07604 18.9083 2.00417 18.9083 3.13854C18.9026 4.27292 17.9745 5.18958 16.8401 5.18958C15.7115 5.18385 14.7891 4.25573 14.7891 3.12135C14.7948 1.98698 15.7229 1.07031 16.8573 1.07031Z" fill="#1855B0"/>
<path d="M2.10159 4.14482C2.10732 3.19951 2.88076 2.4318 3.8318 2.43753C4.77712 2.44326 5.53909 3.22243 5.53337 4.17347C5.52764 5.10732 4.7542 5.8693 3.81462 5.8693C2.86357 5.8693 2.09587 5.09587 2.10159 4.14482Z" fill="#1855B0"/>
<path d="M14.112 3.61979C13.4016 2.90937 12.7312 2.24479 12.0724 1.57448C11.9578 1.4599 11.8432 1.41406 11.6828 1.41406C10.5198 1.41979 9.35677 1.41979 8.19375 1.41979C8.11927 1.41979 8.03906 1.41979 7.95312 1.41979C7.95312 1.19062 7.95312 0.978646 7.95312 0.732292C8.02188 0.732292 8.10208 0.732292 8.17656 0.732292C9.45417 0.732292 10.7318 0.732292 12.0094 0.726562C12.1469 0.726562 12.2443 0.766667 12.3474 0.864063C12.8917 1.41979 13.4474 1.96406 13.9917 2.51979C14.0604 2.58854 14.1062 2.70885 14.1177 2.81198C14.1234 3.06406 14.112 3.31615 14.112 3.61979Z" fill="#1855B0"/>
<path d="M12.0374 16.1719C11.3327 16.1719 10.6395 16.1719 9.94622 16.1719C9.38477 16.1719 8.81758 16.1661 8.25612 16.1776C8.15872 16.1776 8.03268 16.2292 7.96393 16.2979C7.32799 16.9224 6.69779 17.5583 6.06758 18.1885C6.01602 18.2401 5.96445 18.2859 5.88424 18.3604C5.88424 18.0339 5.87852 17.7417 5.88997 17.4552C5.88997 17.4036 5.94727 17.3406 5.98737 17.3005C6.55456 16.7276 7.12747 16.1547 7.70039 15.5875C7.75195 15.5359 7.83216 15.4901 7.89518 15.4901C9.27018 15.4844 10.6509 15.4844 12.0431 15.4844C12.0374 15.7135 12.0374 15.9313 12.0374 16.1719Z" fill="#1855B0"/>
<path d="M7.95312 2.10938C8.86406 2.10938 9.75208 2.10938 10.663 2.10938C10.663 2.32708 10.663 2.54479 10.663 2.77969C9.76354 2.77969 8.86406 2.77969 7.95312 2.77969C7.95312 2.55052 7.95312 2.32708 7.95312 2.10938Z" fill="#1855B0"/>
<path d="M10.6667 16.8672C10.6667 17.0906 10.6667 17.2969 10.6667 17.526C9.76146 17.526 8.86198 17.526 7.94531 17.526C7.94531 17.3141 7.94531 17.0964 7.94531 16.8672C8.85052 16.8672 9.75573 16.8672 10.6667 16.8672Z" fill="#1855B0"/>
<path d="M12.0359 2.78177C11.8125 2.78177 11.6063 2.78177 11.3828 2.78177C11.3828 2.56406 11.3828 2.34635 11.3828 2.11719C11.5891 2.11719 11.8068 2.11719 12.0359 2.11719C12.0359 2.32917 12.0359 2.54687 12.0359 2.78177Z" fill="#1855B0"/>
<path d="M11.375 16.8672C11.5927 16.8672 11.8047 16.8672 12.0339 16.8672C12.0339 17.0792 12.0339 17.2969 12.0339 17.526C11.8219 17.526 11.6042 17.526 11.375 17.526C11.375 17.3083 11.375 17.0906 11.375 16.8672Z" fill="#1855B0"/>
</svg>
