<svg width="27" height="27" viewBox="0 0 27 27" fill="none" xmlns="http://www.w3.org/2000/svg">
<path d="M24.0522 16.449C24.0522 16.3436 24.0522 16.2451 24.0522 16.1537C24.0522 14.5084 24.0522 12.8561 24.0522 11.2108C24.0522 11.1264 24.0593 11.035 24.0452 10.9506C24.003 10.7256 23.8624 10.585 23.6304 10.585C23.3983 10.585 23.2577 10.7186 23.2155 10.9506C23.2015 11.042 23.2085 11.1404 23.2085 11.2389C23.2085 15.6756 23.2085 20.1123 23.2085 24.549C23.2085 24.9006 23.1312 25.21 22.871 25.4561C22.5616 25.7373 22.189 25.8287 21.7952 25.674C21.3733 25.5053 21.1624 25.1678 21.1062 24.7248C21.0921 24.6264 21.0991 24.535 21.0991 24.4365C21.0991 21.2022 21.0991 17.9678 21.0991 14.7264C21.0991 14.6209 21.0991 14.5154 21.0991 14.3959C20.8249 14.3959 20.5577 14.3959 20.2554 14.3959C20.2554 14.4943 20.2554 14.5998 20.2554 14.6983C20.2554 17.9889 20.2554 21.2725 20.2554 24.5631C20.2554 24.9147 20.178 25.224 19.9108 25.4631C19.5944 25.7443 19.2288 25.8287 18.8351 25.667C18.4132 25.4983 18.2022 25.1537 18.153 24.7108C18.146 24.6123 18.146 24.5209 18.146 24.4225C18.146 20.0209 18.146 15.6193 18.146 11.2178C18.146 10.7889 18.0124 10.585 17.7241 10.585C17.4358 10.585 17.3022 10.7818 17.3022 11.2108C17.3022 12.8561 17.3022 14.5084 17.3022 16.1537C17.3022 16.2522 17.3022 16.3436 17.3022 16.435C16.346 16.6318 15.6218 16.0553 15.6218 15.1061C15.6218 14.1498 15.6077 13.1936 15.6288 12.2373C15.664 9.94513 17.2812 7.89903 19.4819 7.3506C22.3929 6.62638 25.3319 8.65138 25.6835 11.6326C25.7116 11.8647 25.7257 12.1037 25.7257 12.3428C25.7327 13.2076 25.6905 14.0795 25.7397 14.9443C25.796 15.8795 25.1913 16.6037 24.0522 16.449Z" fill="#1855B0"/>
<path d="M7.2091 16.4659C7.2091 16.3534 7.2091 16.2549 7.2091 16.1635C7.2091 14.7784 7.2091 13.3932 7.2091 12.0081C7.2091 11.6284 7.06847 11.4315 6.79425 11.4245C6.52004 11.4245 6.37238 11.6213 6.37238 11.994C6.37238 16.2831 6.37238 20.5721 6.37238 24.8612C6.37238 24.9667 6.37941 25.0721 6.36535 25.1776C6.32316 25.501 6.04894 25.7401 5.73254 25.7331C5.41613 25.726 5.14894 25.487 5.11379 25.1635C5.10676 25.0651 5.10676 24.9737 5.10676 24.8752C5.10676 21.4862 5.10676 18.1042 5.10676 14.7151C5.10676 14.6096 5.10676 14.5042 5.10676 14.3846C4.82551 14.3846 4.55832 14.3846 4.26301 14.3846C4.26301 14.4901 4.26301 14.5885 4.26301 14.694C4.26301 18.0831 4.26301 21.4651 4.26301 24.8542C4.26301 24.9385 4.26301 25.0299 4.26301 25.1143C4.24191 25.4729 3.97472 25.7331 3.63722 25.7331C3.29972 25.7331 3.02551 25.4729 3.00441 25.1213C2.99738 25.037 3.00441 24.9456 3.00441 24.8612C3.00441 20.6424 3.00441 16.4237 3.00441 12.2049C3.00441 12.1417 3.00441 12.0854 3.00441 12.0221C3.00441 11.6213 2.85676 11.4174 2.57551 11.4245C2.30129 11.4315 2.16066 11.6284 2.16066 12.0081C2.16066 13.3932 2.16066 14.7784 2.16066 16.1635C2.16066 16.262 2.16066 16.3534 2.16066 16.4518C1.71066 16.4588 1.33097 16.1354 1.32394 15.7065C1.30988 14.1807 1.26066 12.6479 1.34504 11.1292C1.42941 9.48384 2.80051 8.18306 4.42472 8.06353C6.05597 7.944 7.55363 9.04791 7.94035 10.6651C8.00363 10.9393 8.04582 11.2206 8.05285 11.4948C8.06691 12.8518 8.05988 14.2159 8.05988 15.5729C8.05285 16.0862 7.7505 16.4167 7.2091 16.4659Z" fill="#1855B0"/>
<path d="M20.6945 1.3125C22.0867 1.31953 23.2117 2.45859 23.2117 3.85078C23.2047 5.24297 22.0656 6.36797 20.6734 6.36797C19.2883 6.36094 18.1562 5.22187 18.1562 3.82969C18.1633 2.4375 19.3023 1.3125 20.6945 1.3125Z" fill="#1855B0"/>
<path d="M2.57816 5.08754C2.5852 3.92738 3.53441 2.9852 4.7016 2.99223C5.86176 2.99926 6.79691 3.95551 6.78988 5.1227C6.78285 6.26879 5.83363 7.20395 4.68051 7.20395C3.51332 7.20395 2.57113 6.25473 2.57816 5.08754Z" fill="#1855B0"/>
<path d="M17.3164 4.44141C16.4445 3.56953 15.6219 2.75391 14.8133 1.93125C14.6727 1.79062 14.532 1.73438 14.3352 1.73438C12.9078 1.74141 11.4805 1.74141 10.0531 1.74141C9.96172 1.74141 9.86328 1.74141 9.75781 1.74141C9.75781 1.46016 9.75781 1.2 9.75781 0.897656C9.84219 0.897656 9.94062 0.897656 10.032 0.897656C11.6 0.897656 13.168 0.897656 14.7359 0.890625C14.9047 0.890625 15.0242 0.939844 15.1508 1.05938C15.8188 1.74141 16.5008 2.40937 17.1688 3.09141C17.2531 3.17578 17.3094 3.32344 17.3234 3.45C17.3305 3.75937 17.3164 4.06875 17.3164 4.44141Z" fill="#1855B0"/>
<path d="M14.7721 19.8437C13.9072 19.8437 13.0564 19.8437 12.2057 19.8437C11.5166 19.8437 10.8205 19.8367 10.1314 19.8508C10.0119 19.8508 9.85723 19.9141 9.77285 19.9984C8.99238 20.7648 8.21895 21.5453 7.44551 22.3187C7.38223 22.382 7.31895 22.4383 7.22051 22.5297C7.22051 22.1289 7.21348 21.7703 7.22754 21.4187C7.22754 21.3555 7.29785 21.2781 7.34707 21.2289C8.04316 20.5258 8.74629 19.8227 9.44941 19.1266C9.51269 19.0633 9.61113 19.007 9.68848 19.007C11.376 19 13.0705 19 14.7791 19C14.7721 19.2812 14.7721 19.5484 14.7721 19.8437Z" fill="#1855B0"/>
<path d="M9.75781 2.58594C10.8758 2.58594 11.9656 2.58594 13.0836 2.58594C13.0836 2.85313 13.0836 3.12031 13.0836 3.40859C11.9797 3.40859 10.8758 3.40859 9.75781 3.40859C9.75781 3.12734 9.75781 2.85313 9.75781 2.58594Z" fill="#1855B0"/>
<path d="M13.0898 20.6953C13.0898 20.9695 13.0898 21.2227 13.0898 21.5039C11.9789 21.5039 10.875 21.5039 9.75 21.5039C9.75 21.2437 9.75 20.9766 9.75 20.6953C10.8609 20.6953 11.9719 20.6953 13.0898 20.6953Z" fill="#1855B0"/>
<path d="M14.7703 3.40937C14.4961 3.40937 14.243 3.40937 13.9688 3.40937C13.9688 3.14219 13.9688 2.875 13.9688 2.59375C14.2219 2.59375 14.4891 2.59375 14.7703 2.59375C14.7703 2.85391 14.7703 3.12109 14.7703 3.40937Z" fill="#1855B0"/>
<path d="M13.9609 20.6953C14.2281 20.6953 14.4883 20.6953 14.7695 20.6953C14.7695 20.9555 14.7695 21.2227 14.7695 21.5039C14.5094 21.5039 14.2422 21.5039 13.9609 21.5039C13.9609 21.2367 13.9609 20.9695 13.9609 20.6953Z" fill="#1855B0"/>
</svg>
