<svg width="46" height="46" viewBox="0 0 46 46" fill="none" xmlns="http://www.w3.org/2000/svg">
<path d="M45.9975 23.307C45.734 23.6304 45.3866 23.7142 44.9793 23.7023C44.0449 23.6783 43.1106 23.6903 42.0325 23.6903C42.2601 23.9179 42.4158 24.0616 42.5476 24.2174C42.8471 24.5528 42.847 24.9361 42.5596 25.2116C42.296 25.4632 41.9007 25.4512 41.6012 25.1637C41.0382 24.6246 40.4872 24.0736 39.9601 23.5226C39.6487 23.1992 39.6487 22.8637 39.9601 22.5283C40.4992 21.9653 41.0502 21.4263 41.6012 20.8872C41.9127 20.5878 42.296 20.5878 42.5596 20.8393C42.847 21.1148 42.8351 21.4862 42.5356 21.8336C42.4158 21.9773 42.2721 22.1091 42.0684 22.3247C42.308 22.3367 42.4637 22.3487 42.6075 22.3487C43.3981 22.3487 44.1887 22.3606 44.9793 22.3487C45.3866 22.3367 45.7459 22.4205 45.9855 22.7679C45.9975 22.9476 45.9975 23.1273 45.9975 23.307Z" fill="#1E1D1D"/>
<path d="M21.8712 46.005C21.7874 45.9811 21.7035 45.9451 21.6197 45.9332C21.2244 45.8493 21.0327 45.6097 21.0567 45.2025C21.0806 44.8431 21.3562 44.6035 21.7634 44.6035C22.1228 44.6035 22.4702 44.6514 22.8296 44.6514C23.2129 44.6514 23.5483 44.6993 23.704 45.1066C23.8597 45.5259 23.5962 45.7655 23.3087 46.005C22.8296 46.005 22.3504 46.005 21.8712 46.005Z" fill="#1E1D1D"/>
<path d="M25.0619 36.438C25.5291 36.438 25.9364 36.438 26.4035 36.438C26.4035 35.9229 26.4035 35.3839 26.4035 34.8448C26.4035 34.6652 26.3676 34.4376 26.4515 34.3178C26.6072 34.1141 26.8587 33.8626 27.0744 33.8626C27.29 33.8626 27.5176 34.1261 27.6973 34.3178C27.7811 34.4016 27.7452 34.6053 27.7452 34.749C27.7452 36.3901 27.7452 38.0312 27.7452 39.6843C27.7452 40.403 27.5296 40.6186 26.8108 40.6186C26.152 40.6186 25.4932 40.6186 24.8343 40.6186C23.8401 40.6186 23.7083 40.4869 23.7083 39.4687C23.7083 35.7313 23.7083 31.9939 23.7083 28.2565C23.7083 28.0648 23.7083 27.8612 23.6724 27.6815C23.6005 27.3461 23.3729 27.1664 23.0375 27.1664C22.7021 27.1664 22.4745 27.3461 22.4026 27.6815C22.3667 27.8492 22.3667 28.0409 22.3667 28.2205C22.3667 32.0059 22.3667 35.7792 22.3667 39.5645C22.3667 40.439 22.199 40.6186 21.3245 40.6186C20.6417 40.6186 19.9469 40.6186 19.2642 40.6186C18.5454 40.6186 18.3298 40.403 18.3298 39.6843C18.3298 36.474 18.3298 33.2517 18.3298 30.0413C18.3298 27.4898 18.3298 24.9264 18.3298 22.3749C18.3298 22.2072 18.3298 22.0395 18.3538 21.8837C18.4137 21.5004 18.6532 21.2968 19.0246 21.3088C19.3839 21.3207 19.6235 21.5244 19.6475 21.8837C19.6714 22.279 19.6595 22.6863 19.6595 23.1056C21.9354 23.1056 24.1395 23.1056 26.3676 23.1056C26.3676 20.2905 26.3676 17.4875 26.3676 14.6485C25.9483 14.6485 25.5291 14.6485 25.0619 14.6485C24.9301 15.2355 24.6666 15.7985 24.0916 16.086C23.7442 16.2537 23.325 16.3854 22.9417 16.3854C22.0073 16.3854 21.3844 15.7865 21.0011 14.6365C20.5818 14.6365 20.1506 14.6365 19.6834 14.6365C19.6834 15.6428 19.6834 16.625 19.6834 17.6073C19.6834 18.0505 19.6954 18.5057 19.6834 18.9489C19.6714 19.4401 19.4438 19.7036 19.0605 19.7275C18.6413 19.7515 18.4017 19.4999 18.3418 18.9968C18.3298 18.925 18.3298 18.8531 18.3178 18.7812C18.2579 18.7333 18.198 18.6734 18.1381 18.6255C18.0663 18.7692 18.0303 18.9489 17.9225 19.0687C16.1017 20.9015 14.269 22.7342 12.4482 24.555C11.7055 25.2977 10.6873 25.4175 9.87274 24.8904C8.79464 24.1837 8.62694 22.7342 9.52535 21.7759C10.1962 21.0692 10.8909 20.3984 11.5857 19.7156C13.3945 17.9068 15.2033 16.1099 17.0002 14.2891C17.6949 13.5824 18.4855 13.2111 19.4798 13.259C19.9829 13.2829 20.486 13.259 21.1329 13.259C21.0011 13.0314 20.9532 12.8756 20.8454 12.7678C20.1147 12.085 19.7194 11.2585 19.7194 10.2643C19.7194 9.48563 19.6834 8.69503 19.8511 7.95234C20.2105 6.3352 21.7318 5.31699 23.4088 5.46074C24.99 5.59251 26.2838 6.91018 26.4035 8.52732C26.4515 9.13824 26.4275 9.74917 26.4155 10.3601C26.3916 11.3064 25.9963 12.085 25.3254 12.7319C25.2176 12.8397 25.1458 12.9954 24.9781 13.247C25.6968 13.247 26.2478 13.259 26.8108 13.247C27.6613 13.223 28.392 13.5225 28.991 14.1214C30.3685 15.499 31.7341 16.8766 33.1117 18.2422C33.3872 18.5057 33.519 18.8052 33.3393 19.1645C33.1237 19.5838 32.6206 19.6437 32.2492 19.2723C31.7581 18.7932 31.2909 18.2901 30.7878 17.775C30.4764 18.1344 30.2008 18.4578 29.9014 18.8172C29.8894 18.8052 29.9613 18.889 30.0212 18.9609C31.5305 20.4702 33.0398 21.9796 34.5492 23.5009C34.6091 23.5608 34.6689 23.6326 34.7408 23.6806C35.0403 23.9082 35.3517 23.9082 35.6392 23.6566C35.9028 23.417 35.9267 23.0097 35.6632 22.7342C35.2679 22.303 34.8486 21.9077 34.4413 21.4884C34.058 21.0931 34.0101 20.7338 34.3096 20.4343C34.6091 20.1228 35.0044 20.1588 35.3997 20.5541C35.8069 20.9494 36.2142 21.3447 36.5975 21.7639C37.3881 22.6025 37.3881 23.8483 36.5975 24.6269C35.8069 25.4175 34.5731 25.4175 33.7346 24.6029C31.8899 22.7702 30.0571 20.9254 28.2124 19.0927C28.1045 18.9849 27.9848 18.877 27.7811 18.6854C27.7811 18.9609 27.7811 19.1406 27.7811 19.3083C27.7811 23.2853 27.7811 27.2622 27.7811 31.2392C27.7811 31.934 27.5775 32.2574 27.1343 32.2814C26.6671 32.2934 26.4395 31.9579 26.4395 31.2392C26.4395 29.1908 26.4395 27.1424 26.4395 25.0941C26.4395 24.9144 26.4395 24.7347 26.4395 24.5311C24.1994 24.5311 21.9834 24.5311 19.7433 24.5311C19.7433 28.52 19.7433 32.485 19.7433 36.462C20.1626 36.462 20.5818 36.462 21.061 36.462C21.061 36.3182 21.061 36.1505 21.061 35.9828C21.061 33.3235 21.049 30.6642 21.061 28.0049C21.061 26.6992 21.9594 25.8008 23.1693 25.8487C24.1276 25.8847 24.9421 26.6274 25.0499 27.5737C25.0739 27.7893 25.0859 28.0169 25.0859 28.2445C25.0859 30.82 25.0859 33.3834 25.0859 35.9589C25.0619 36.1026 25.0619 36.2703 25.0619 36.438ZM15.371 17.8109C13.7299 19.452 12.1128 21.0692 10.4956 22.6743C10.4597 22.7103 10.4118 22.7582 10.3878 22.8181C10.2201 23.1056 10.2321 23.3931 10.4597 23.6446C10.6873 23.8842 10.9748 23.9321 11.2743 23.7524C11.3821 23.6806 11.4899 23.5847 11.5737 23.4889C13.0711 21.9915 14.5684 20.4942 16.0658 18.9968C16.1497 18.913 16.2215 18.8291 16.2934 18.7453C15.9819 18.4218 15.6945 18.1344 15.371 17.8109ZM21.073 9.96478C20.9651 10.8512 21.3245 11.5939 22.0552 12.0012C22.774 12.4085 23.6364 12.3486 24.2833 11.8335C24.8703 11.3663 25.1218 10.7434 25.026 9.96478C23.6843 10.3361 22.3906 10.3481 21.073 9.96478ZM21.0849 8.51534C22.3307 9.00648 23.5646 9.03043 24.8104 8.58722C24.8942 8.55128 25.002 8.33566 24.9781 8.22785C24.7624 7.34142 23.876 6.74248 22.9177 6.80237C21.9834 6.85029 21.2167 7.55704 21.0849 8.51534ZM16.3533 16.7927C16.7007 17.1521 16.9882 17.4396 17.2757 17.7391C18.3298 16.9365 18.5933 16.1698 18.246 14.96C18.1861 15.0079 18.1262 15.0438 18.0663 15.0917C17.5033 15.6547 16.9283 16.2297 16.3533 16.7927ZM27.817 14.9839C27.5415 16.3256 27.8051 17.0443 28.7155 17.6672C29.0628 17.3797 29.3863 17.1042 29.6857 16.8646C29.0509 16.2297 28.4399 15.6188 27.817 14.9839ZM21.025 39.2411C20.9651 38.738 21.2167 38.1869 20.6896 37.8635C20.5219 37.7557 20.1626 37.7557 19.9949 37.8635C19.4798 38.1869 19.7313 38.738 19.6714 39.2411C20.1386 39.2411 20.5459 39.2411 21.025 39.2411ZM26.4035 39.2411C26.3436 38.738 26.6072 38.163 26.0442 37.8515C25.8645 37.7557 25.5171 37.7677 25.3494 37.8875C24.8703 38.2349 25.0979 38.7619 25.0739 39.2411C25.5411 39.2411 25.9483 39.2411 26.4035 39.2411ZM22.4385 13.5944C22.2708 14.2532 22.3427 14.7803 22.7021 14.924C22.9177 15.0079 23.2651 15.0079 23.4328 14.8881C23.9 14.5527 23.6843 14.0376 23.6963 13.5944C23.2411 13.5944 22.8338 13.5944 22.4385 13.5944Z" fill="#1E1D1D"/>
<path d="M3.92768 23.6907C2.94541 23.6907 1.96315 23.6907 0.980883 23.6907C0.813179 23.6907 0.633497 23.7027 0.501729 23.6308C0.202258 23.499 0.0465333 23.2355 0.106428 22.9001C0.178301 22.5288 0.453814 22.3491 0.825158 22.3491C1.67566 22.3371 2.52615 22.3491 3.37665 22.3491C3.55633 22.3491 3.73602 22.3491 4.04747 22.3491C3.83185 22.1215 3.6881 21.9897 3.55633 21.846C3.24488 21.5106 3.23291 21.1272 3.5204 20.8517C3.79591 20.5762 4.17923 20.5882 4.51464 20.9116C5.05369 21.4267 5.58076 21.9538 6.09585 22.4928C6.45522 22.8642 6.45522 23.1876 6.10783 23.547C5.58076 24.098 5.04171 24.637 4.49068 25.1641C4.16726 25.4755 3.75998 25.4755 3.49644 25.1881C3.23291 24.9125 3.23291 24.5412 3.53238 24.2297C3.67612 24.086 3.86778 23.9782 4.03549 23.8584C3.99955 23.7985 3.96362 23.7506 3.92768 23.6907Z" fill="#1E1D1D"/>
<path d="M39.0069 4.1722C39.7256 3.45347 40.3485 2.81859 40.9714 2.18371C41.0912 2.06392 41.199 1.94413 41.3188 1.83632C41.6422 1.54883 42.0016 1.53685 42.2771 1.80039C42.5646 2.0759 42.5646 2.45922 42.2531 2.79463C41.738 3.33368 41.199 3.86075 40.6719 4.37584C40.4563 4.57948 40.2287 4.77114 40.0011 4.9628C40.0251 5.01072 40.037 5.04665 40.061 5.09457C40.2646 5.09457 40.4563 5.09457 40.6599 5.09457C41.1151 5.10655 41.4026 5.37008 41.4146 5.7534C41.4266 6.13673 41.1271 6.42422 40.6839 6.4362C39.9173 6.44818 39.1626 6.44818 38.3959 6.4362C37.9048 6.42422 37.6652 6.17266 37.6652 5.66955C37.6533 4.92686 37.6533 4.1722 37.6652 3.42951C37.6652 2.98629 37.9407 2.68682 38.3241 2.67484C38.7074 2.67484 38.9829 2.96233 39.0069 3.40555C39.0188 3.63315 39.0069 3.83679 39.0069 4.1722Z" fill="#1E1D1D"/>
<path d="M7.0757 4.12619C7.0757 3.80276 7.06372 3.58714 7.0757 3.35955C7.09966 2.95226 7.39913 2.66477 7.77047 2.68873C8.12984 2.70071 8.40535 2.97622 8.41733 3.35955C8.42931 4.16213 8.42931 4.97669 8.41733 5.77927C8.40535 6.17457 8.16577 6.42613 7.75849 6.43811C6.95591 6.45009 6.14135 6.45009 5.33877 6.43811C4.94346 6.42613 4.67993 6.15062 4.66795 5.79125C4.65597 5.41991 4.94346 5.13241 5.35075 5.10846C5.56636 5.09648 5.79396 5.10846 6.14135 5.10846C5.53043 4.49754 5.00336 3.98245 4.48827 3.46736C4.26067 3.25174 4.03307 3.03612 3.82943 2.79654C3.52996 2.47311 3.51798 2.11375 3.78152 1.83823C4.05703 1.55074 4.45233 1.53876 4.77576 1.86219C5.47053 2.54498 6.15333 3.22778 6.83612 3.92255C6.88404 3.94651 6.94393 3.99442 7.0757 4.12619Z" fill="#1E1D1D"/>
<path d="M6.09915 40.9522C5.7877 40.9522 5.57208 40.9642 5.35646 40.9522C4.94918 40.9162 4.66169 40.6287 4.67367 40.2574C4.68565 39.8861 4.97314 39.6225 5.3924 39.6105C6.17102 39.5986 6.94965 39.5986 7.72827 39.6105C8.17149 39.6225 8.42305 39.8621 8.43503 40.3053C8.44701 41.0839 8.44701 41.8626 8.43503 42.6412C8.42305 43.0605 8.14753 43.3479 7.77619 43.3479C7.39287 43.3599 7.11735 43.0605 7.0934 42.6172C7.08142 42.4136 7.0934 42.21 7.0934 41.8745C6.37467 42.5933 5.75177 43.2282 5.12887 43.863C4.9971 43.9948 4.87731 44.1266 4.74554 44.2344C4.43409 44.4859 4.07473 44.4859 3.81119 44.2344C3.53568 43.9589 3.5237 43.5875 3.82317 43.2761C4.45805 42.6172 5.10491 41.9824 5.75177 41.3355C5.83562 41.2516 5.93145 41.1438 6.09915 40.9522Z" fill="#1E1D1D"/>
<path d="M40.0449 41.0622C40.6678 41.6731 41.2907 42.296 41.9136 42.9069C42.0333 43.0267 42.1531 43.1345 42.2609 43.2543C42.5724 43.5897 42.5724 43.9731 42.2849 44.2486C42.0094 44.5121 41.638 44.5121 41.3266 44.2007C40.7396 43.6257 40.1646 43.0387 39.5777 42.4637C39.422 42.308 39.2782 42.1403 39.0147 41.9965C39.0147 42.2122 39.0267 42.4158 39.0147 42.6314C38.9907 43.0746 38.7032 43.3621 38.3199 43.3502C37.9486 43.3382 37.685 43.0507 37.673 42.6314C37.6611 41.8528 37.6611 41.0742 37.673 40.2956C37.685 39.8523 37.9366 39.6128 38.3798 39.6008C39.1584 39.5888 39.937 39.5888 40.7157 39.6008C41.1349 39.6008 41.4224 39.8763 41.4224 40.2476C41.4344 40.607 41.1469 40.9065 40.7396 40.9304C40.536 40.9424 40.3204 40.9304 40.1167 40.9304C40.0808 40.9903 40.0568 41.0263 40.0449 41.0622Z" fill="#1E1D1D"/>
<path d="M38.7623 18.6929C38.7623 18.9325 38.7863 19.1721 38.7623 19.4117C38.7264 19.795 38.4988 20.0106 38.1155 20.0106C37.7322 20.0106 37.4806 19.807 37.4566 19.4236C37.4207 18.9325 37.4207 18.4414 37.4566 17.9502C37.4806 17.5669 37.7322 17.3633 38.1155 17.3633C38.4988 17.3633 38.7264 17.5909 38.7623 17.9742C38.7863 18.2138 38.7623 18.4534 38.7623 18.6929Z" fill="#1E1D1D"/>
<path d="M8.63733 21.3824C8.63733 21.622 8.66129 21.8615 8.63733 22.1011C8.6014 22.4844 8.3738 22.7001 7.99048 22.7001C7.60715 22.7001 7.3556 22.4964 7.33164 22.1131C7.2957 21.622 7.2957 21.1308 7.33164 20.6397C7.3556 20.2564 7.60715 20.0527 7.99048 20.0527C8.3738 20.0647 8.6014 20.2803 8.63733 20.6637C8.66129 20.9032 8.63733 21.1428 8.63733 21.3824Z" fill="#1E1D1D"/>
<path d="M8.63733 29.367C8.63733 29.6066 8.66129 29.8462 8.63733 30.0858C8.58942 30.4691 8.36182 30.6727 7.96652 30.6727C7.60715 30.6727 7.3556 30.4691 7.33164 30.1097C7.2957 29.6066 7.2957 29.0915 7.33164 28.5884C7.3556 28.229 7.60715 28.0254 7.96652 28.0254C8.34984 28.0254 8.58942 28.229 8.62536 28.6124C8.66129 28.8639 8.63733 29.1155 8.63733 29.367Z" fill="#1E1D1D"/>
<path d="M38.7899 26.6678C38.778 26.9433 38.7899 27.2069 38.742 27.4464C38.6821 27.8058 38.4426 27.9855 38.0832 27.9735C37.7358 27.9615 37.4962 27.7818 37.4723 27.4464C37.4363 26.9194 37.4363 26.3683 37.4723 25.8413C37.4962 25.5059 37.7717 25.3262 38.1071 25.3262C38.4426 25.3262 38.6821 25.4939 38.742 25.8413C38.7899 26.1288 38.778 26.4162 38.7899 26.6678Z" fill="#1E1D1D"/>
<path d="M8.63306 25.3746C8.63306 25.6142 8.65702 25.8537 8.63306 26.0933C8.59713 26.4766 8.35755 26.7042 7.9862 26.7042C7.61486 26.7042 7.35133 26.4886 7.32737 26.1053C7.30341 25.6142 7.29143 25.123 7.32737 24.6319C7.35133 24.2486 7.61486 24.0449 7.9862 24.0449C8.34557 24.0449 8.57317 24.2605 8.62108 24.6199C8.65702 24.8595 8.63306 25.123 8.63306 25.3746Z" fill="#1E1D1D"/>
<path d="M38.7623 22.6736C38.7623 22.9132 38.7743 23.1528 38.7623 23.3923C38.7264 23.7757 38.4868 24.0033 38.1155 24.0033C37.7441 24.0033 37.4806 23.7876 37.4566 23.4163C37.4207 22.9252 37.4207 22.434 37.4566 21.9429C37.4806 21.5596 37.7441 21.344 38.1155 21.3559C38.4988 21.3679 38.7264 21.5835 38.7623 21.9669C38.7863 22.1945 38.7623 22.434 38.7623 22.6736Z" fill="#1E1D1D"/>
<path d="M8.63733 17.3904C8.63733 17.63 8.66129 17.8696 8.63733 18.1091C8.6014 18.4925 8.36182 18.7201 7.99048 18.7201C7.61913 18.7201 7.3556 18.5044 7.33164 18.1331C7.2957 17.642 7.2957 17.1508 7.33164 16.6597C7.3556 16.2764 7.61913 16.0608 7.99048 16.0727C8.36182 16.0847 8.6014 16.3123 8.63733 16.6837C8.66129 16.9113 8.63733 17.1508 8.63733 17.3904Z" fill="#1E1D1D"/>
<path d="M37.4462 30.6713C37.4462 30.4318 37.4222 30.1922 37.4462 29.9526C37.4821 29.5573 37.7576 29.3057 38.129 29.3297C38.5123 29.3537 38.7519 29.5693 38.7639 29.9526C38.7758 30.4437 38.7639 30.9349 38.7279 31.426C38.692 31.7854 38.4284 31.989 38.0811 31.989C37.7097 31.989 37.4701 31.7614 37.4222 31.3901C37.3863 31.1505 37.4222 30.9109 37.4222 30.6713C37.4222 30.6713 37.4342 30.6713 37.4462 30.6713Z" fill="#1E1D1D"/>
<path d="M25.9099 45.7492C25.3709 45.7492 25.1193 45.5695 25.0594 45.1981C24.9995 44.8507 25.1552 44.5752 25.5026 44.4674C25.9698 44.3357 26.4609 44.2159 26.9401 44.144C27.2875 44.0961 27.551 44.2877 27.6468 44.6351C27.7427 44.9825 27.6109 45.282 27.2755 45.4018C26.7844 45.5575 26.2693 45.6533 25.9099 45.7492Z" fill="#1E1D1D"/>
<path d="M30.0786 3.2337C29.4557 2.91027 28.8807 2.65871 28.3656 2.31133C28.2339 2.21549 28.186 1.77228 28.2938 1.60457C28.4136 1.41291 28.7849 1.22125 28.9766 1.26917C29.5036 1.42489 30.0067 1.66447 30.4619 1.96394C30.6296 2.07175 30.7015 2.47903 30.6416 2.70663C30.5817 2.91027 30.2942 3.04203 30.0786 3.2337Z" fill="#1E1D1D"/>
<path d="M11.0596 7.43124C10.5205 7.43124 10.1492 6.90418 10.4007 6.52085C10.7002 6.0417 11.0716 5.61046 11.4669 5.20318C11.6945 4.97558 12.0658 4.98756 12.2694 5.23912C12.4132 5.43078 12.533 5.82608 12.4371 5.99378C12.1497 6.47294 11.7544 6.8922 11.371 7.31146C11.2872 7.39531 11.1195 7.40729 11.0596 7.43124Z" fill="#1E1D1D"/>
<path d="M36.92 37.5138C36.8361 37.7414 36.8241 37.8611 36.7642 37.957C36.5247 38.3523 36.2971 38.7596 36.0335 39.1309C35.8059 39.4543 35.4106 39.5022 35.1231 39.2866C34.8237 39.059 34.7278 38.7476 34.9195 38.4122C35.1471 38.0049 35.3627 37.5856 35.6622 37.2502C35.8179 37.0825 36.1653 36.9627 36.3929 37.0106C36.5965 37.0586 36.7523 37.358 36.92 37.5138Z" fill="#1E1D1D"/>
<path d="M9.4551 35.7949C9.56291 35.8908 9.80249 36.0225 9.93426 36.2262C10.1499 36.5616 10.3176 36.9329 10.4853 37.2923C10.6769 37.6756 10.5691 38.035 10.2457 38.2266C9.92228 38.4063 9.53895 38.3105 9.32333 37.9511C9.09574 37.5678 8.8921 37.1725 8.71241 36.7532C8.52075 36.2861 8.8322 35.8069 9.4551 35.7949Z" fill="#1E1D1D"/>
<path d="M15.5497 43.9851C15.3341 43.9132 15.2143 43.9012 15.1185 43.8413C14.7232 43.6018 14.3279 43.3622 13.9565 43.0867C13.6331 42.8591 13.5852 42.4758 13.7769 42.1763C13.9805 41.8648 14.3399 41.769 14.6753 41.9726C15.0706 42.2122 15.4898 42.4278 15.8252 42.7393C15.9929 42.895 16.0888 43.2544 16.0409 43.47C15.9929 43.6856 15.7055 43.8413 15.5497 43.9851Z" fill="#1E1D1D"/>
<path d="M21.141 1.51596C20.7218 1.53992 20.4103 1.31232 20.3624 0.91702C20.3265 0.533697 20.6139 0.222247 21.0931 0.174332C21.4884 0.126417 21.8957 0.09048 22.303 0.0785012C22.7222 0.0665224 23.0097 0.342036 23.0337 0.701401C23.0576 1.07275 22.7821 1.36024 22.3748 1.40815C21.9795 1.45607 21.5962 1.48003 21.141 1.51596Z" fill="#1E1D1D"/>
<path d="M38.3078 34.1395C38.1881 34.5228 38.0443 35.0379 37.8407 35.529C37.6969 35.8524 37.3735 35.9483 37.0381 35.8165C36.7147 35.6847 36.547 35.4212 36.6308 35.0618C36.7386 34.5947 36.8824 34.1395 37.0381 33.6962C37.1579 33.3608 37.4334 33.2051 37.7808 33.277C38.1521 33.3608 38.3318 33.6244 38.3078 34.1395Z" fill="#1E1D1D"/>
<path d="M13.6428 4.60011C13.535 4.50428 13.2595 4.37251 13.1996 4.18085C13.1397 3.96523 13.1756 3.60587 13.3194 3.46212C13.6907 3.10276 14.122 2.79131 14.5891 2.56371C14.7808 2.46788 15.1881 2.56371 15.3318 2.71943C15.4756 2.87516 15.5235 3.35431 15.4037 3.46212C14.9725 3.8694 14.4454 4.19283 13.9543 4.5522C13.9063 4.58813 13.8345 4.57615 13.6428 4.60011Z" fill="#1E1D1D"/>
<path d="M26.3017 1.76615C25.7986 1.67032 25.2715 1.61042 24.7684 1.46668C24.445 1.38282 24.3132 1.09533 24.3611 0.759925C24.409 0.40056 24.6606 0.160983 24.996 0.196919C25.5231 0.244835 26.0621 0.340665 26.5772 0.484412C26.8887 0.568264 27.0324 0.867735 26.9725 1.20314C26.9006 1.56251 26.6491 1.73021 26.3017 1.76615Z" fill="#1E1D1D"/>
<path d="M8.24154 32.0082C8.54101 32.0201 8.75663 32.2238 8.8285 32.5712C8.92433 32.9904 9.00819 33.4217 9.08006 33.8409C9.13995 34.2242 8.92433 34.5477 8.57695 34.6195C8.2056 34.6914 7.88217 34.5237 7.78634 34.1404C7.66656 33.6852 7.57072 33.206 7.51083 32.7389C7.47489 32.2956 7.76239 31.9962 8.24154 32.0082Z" fill="#1E1D1D"/>
<path d="M36.5252 7.94655C36.4054 8.07832 36.2617 8.36581 36.07 8.41373C35.8424 8.47362 35.4831 8.38977 35.3273 8.22206C35.0039 7.88666 34.7524 7.4674 34.5008 7.06012C34.3211 6.76065 34.381 6.4492 34.6565 6.2216C34.9201 6.00598 35.2675 5.98202 35.4711 6.2216C35.8424 6.66482 36.1419 7.16793 36.4653 7.64708C36.5013 7.695 36.4893 7.76687 36.5252 7.94655Z" fill="#1E1D1D"/>
<path d="M13.0233 40.9097C12.9155 41.0534 12.8196 41.317 12.64 41.3888C12.4483 41.4727 12.0889 41.4847 11.9452 41.3529C11.5379 41.0055 11.1666 40.5982 10.8791 40.155C10.7713 39.9873 10.8192 39.5681 10.9629 39.4123C11.1067 39.2566 11.5738 39.1608 11.6936 39.2686C12.1488 39.6639 12.5321 40.143 12.9274 40.5982C12.9754 40.6462 12.9754 40.742 13.0233 40.9097Z" fill="#1E1D1D"/>
<path d="M38.7507 14.8252C38.7507 15.0648 38.7627 15.2445 38.7507 15.4242C38.7148 15.7955 38.4872 15.9992 38.1398 16.0231C37.8044 16.0471 37.5289 15.8794 37.481 15.544C37.3971 15.0169 37.3492 14.4778 37.3612 13.9388C37.3612 13.5794 37.6367 13.3758 37.9961 13.3638C38.3435 13.3518 38.595 13.5435 38.6549 13.9029C38.7028 14.2383 38.7268 14.5617 38.7507 14.8252Z" fill="#1E1D1D"/>
<path d="M8.20711 12.0999C8.68626 12.0879 8.99771 12.4353 8.9498 12.8666C8.90188 13.2978 8.83001 13.7171 8.74616 14.1483C8.6623 14.5676 8.36283 14.7952 7.97951 14.7353C7.59619 14.6754 7.38057 14.3998 7.42848 13.9566C7.4764 13.5134 7.54827 13.0702 7.63212 12.627C7.704 12.3036 7.93159 12.1239 8.20711 12.0999Z" fill="#1E1D1D"/>
<path d="M37.2922 12.1016C37.1963 12.0058 36.9568 11.8501 36.837 11.6225C36.6453 11.2511 36.5375 10.8438 36.4057 10.4485C36.274 10.0413 36.4297 9.70584 36.7891 9.5621C37.1484 9.41835 37.4838 9.5621 37.6515 9.96938C37.8192 10.3647 37.963 10.772 38.0828 11.1912C38.2385 11.6943 37.939 12.1136 37.2922 12.1016Z" fill="#1E1D1D"/>
<path d="M33.9577 4.70091C33.9577 5.23996 33.4186 5.6113 33.0114 5.34777C32.5562 5.0483 32.1249 4.68893 31.7656 4.28165C31.6338 4.13791 31.6697 3.74261 31.7656 3.51501C31.8854 3.23949 32.2327 3.10773 32.4963 3.28741C32.9754 3.62282 33.4186 4.0301 33.8619 4.4254C33.9337 4.48529 33.9457 4.64102 33.9577 4.70091Z" fill="#1E1D1D"/>
<path d="M17.129 2.67673C16.9373 2.48507 16.6498 2.32935 16.6139 2.12571C16.566 1.89811 16.6618 1.49083 16.8295 1.395C17.3206 1.13146 17.8597 0.927823 18.4107 0.820013C18.6024 0.784077 18.9498 1.02365 19.0456 1.22729C19.1295 1.40698 19.0336 1.83822 18.8779 1.92207C18.3508 2.22154 17.7639 2.4132 17.129 2.67673Z" fill="#1E1D1D"/>
<path d="M32.7463 42.4164C32.6025 42.2967 32.315 42.1888 32.2551 41.9972C32.1833 41.7816 32.2192 41.4342 32.351 41.2665C32.6385 40.8951 33.0218 40.5837 33.3812 40.2842C33.6327 40.0686 33.9442 40.0806 34.2077 40.2842C34.4832 40.4998 34.579 40.8472 34.3754 41.0748C33.9801 41.53 33.5009 41.9133 33.0577 42.3206C33.0098 42.3685 32.914 42.3685 32.7463 42.4164Z" fill="#1E1D1D"/>
<path d="M9.49651 8.3418C10.0236 8.36575 10.359 8.74908 10.2272 9.14438C10.0595 9.64749 9.83192 10.1386 9.58036 10.6058C9.42464 10.9053 9.10121 10.9532 8.78976 10.8334C8.47831 10.7016 8.29863 10.4261 8.40644 10.1147C8.58612 9.59958 8.8257 9.09646 9.08923 8.61731C9.1611 8.46159 9.41266 8.38971 9.49651 8.3418Z" fill="#1E1D1D"/>
<path d="M29.4804 44.6905C29.2288 44.4389 28.9413 44.2712 28.8934 44.0556C28.8455 43.84 28.9653 43.4687 29.145 43.3369C29.5283 43.0374 29.9835 42.8098 30.4387 42.6541C30.6423 42.5822 31.0257 42.702 31.1694 42.8697C31.3012 43.0135 31.3371 43.4926 31.2173 43.5765C30.7022 43.9718 30.1153 44.2952 29.4804 44.6905Z" fill="#1E1D1D"/>
<path d="M19.7641 44.6579C19.776 45.2329 19.3927 45.5563 18.9495 45.4485C18.4823 45.3407 18.0391 45.185 17.5839 45.0172C17.2245 44.8855 17.0928 44.586 17.2006 44.2147C17.3084 43.8433 17.5959 43.6756 17.9553 43.7595C18.4344 43.8673 18.9136 44.011 19.3568 44.2147C19.5604 44.2985 19.6802 44.5621 19.7641 44.6579Z" fill="#1E1D1D"/>
</svg>
