<svg width="31" height="31" viewBox="0 0 31 31" fill="none" xmlns="http://www.w3.org/2000/svg">
<path d="M11.6544 26.6229C11.6544 23.2242 11.6544 19.874 11.6544 16.4833C11.3719 16.4833 11.0812 16.4833 10.7906 16.4833C10.2982 16.4833 9.80573 16.4833 9.31328 16.4833C8.69167 16.4753 8.28802 16.0797 8.28802 15.4661C8.28802 11.1471 8.28802 6.82812 8.28802 2.50104C8.28802 1.89557 8.69167 1.5 9.29713 1.5C12.1711 1.5 15.037 1.5 17.9109 1.5C18.5083 1.5 18.92 1.90365 18.9281 2.50104C18.9281 6.82812 18.9281 11.1633 18.9281 15.4904C18.9281 16.0716 18.5164 16.4753 17.9352 16.4833C17.1521 16.4914 16.369 16.4833 15.5617 16.4833C15.5617 19.2443 15.5617 21.9891 15.5617 24.7904C15.8846 23.8135 16.5143 23.2484 17.5234 23.2646C18.5164 23.2888 19.1138 23.8781 19.4125 24.863C19.7354 23.8297 20.3651 23.2323 21.4146 23.2646C22.3995 23.2969 22.9888 23.8781 23.2794 24.8711C23.3359 24.7177 23.3682 24.6208 23.4086 24.524C23.7234 23.6682 24.6195 23.1354 25.4914 23.2807C26.4198 23.4341 27.1302 24.1768 27.1464 25.0891C27.1706 26.5583 27.1544 28.0276 27.1544 29.5211C19.913 29.5211 12.6716 29.5211 5.41406 29.5211C5.41406 25.8398 5.41406 22.1505 5.41406 18.4289C6.04375 18.4128 6.63307 18.5419 7.1901 18.8083C8.80469 19.5995 9.66849 20.9073 9.74115 22.7076C9.77344 23.4422 9.75729 24.1768 9.74115 24.9115C9.74115 25.1214 9.80573 25.2424 9.96719 25.3555C10.5161 25.7672 11.0651 26.187 11.6544 26.6229ZM10.2417 3.44557C10.2417 5.86745 10.2417 8.2651 10.2417 10.6628C12.5021 10.6628 14.7383 10.6628 16.9745 10.6628C16.9745 8.24896 16.9745 5.8513 16.9745 3.44557C14.7302 3.44557 12.494 3.44557 10.2417 3.44557ZM13.6161 12.6164C13.0914 12.6083 12.6474 13.0362 12.6393 13.5609C12.6312 14.0857 13.051 14.5297 13.5758 14.5458C14.1167 14.562 14.5687 14.118 14.5687 13.5852C14.5768 13.0604 14.1409 12.6245 13.6161 12.6164Z" fill="#1855B0"/>
<path d="M20.3906 5.83936C20.3906 5.50837 20.3906 5.20967 20.3906 4.91097C23.2646 4.78181 26.2031 7.3167 26.1628 10.6589C25.856 10.6589 25.5492 10.6589 25.2182 10.6589C25.1779 9.35108 24.7258 8.20472 23.7974 7.26827C22.869 6.33988 21.7227 5.87972 20.3906 5.83936Z" fill="#1855B0"/>
<path d="M24.225 10.6728C23.9021 10.6728 23.6034 10.6728 23.2885 10.6728C23.2482 9.88161 22.9818 9.19541 22.4247 8.63838C21.8677 8.08942 21.1977 7.81494 20.3984 7.78265C20.3984 7.47588 20.3984 7.16911 20.3984 6.86234C22.1422 6.70088 24.2734 8.37197 24.225 10.6728Z" fill="#1855B0"/>
<path d="M20.3906 9.7029C20.3906 9.38805 20.3906 9.07321 20.3906 8.76644C21.424 8.73414 22.3604 9.6706 22.2797 10.6716C21.981 10.6716 21.6823 10.6716 21.3594 10.6716C21.2867 10.1146 20.9719 9.77555 20.3906 9.7029Z" fill="#1855B0"/>
<path d="M14.6872 5.05469C14.9536 5.28073 15.1797 5.47448 15.4219 5.68437C14.4531 6.81458 13.5005 7.92865 12.5237 9.05885C12.2815 8.85703 12.0474 8.65521 11.7891 8.43724C12.7578 7.30703 13.7104 6.19297 14.6872 5.05469Z" fill="#1855B0"/>
<path d="M13.1083 5.38281C13.1083 5.68958 13.1083 5.98828 13.1083 6.3112C12.8016 6.3112 12.5029 6.3112 12.1719 6.3112C12.1719 6.0125 12.1719 5.70573 12.1719 5.38281C12.4786 5.38281 12.7773 5.38281 13.1083 5.38281Z" fill="#1855B0"/>
<path d="M15.0378 8.73333C14.7229 8.73333 14.4242 8.73333 14.1094 8.73333C14.1094 8.41849 14.1094 8.11172 14.1094 7.79688C14.4161 7.79688 14.7148 7.79688 15.0378 7.79688C15.0378 8.10365 15.0378 8.40234 15.0378 8.73333Z" fill="#1855B0"/>
</svg>
