<svg width="42" height="42" viewBox="0 0 42 42" fill="none" xmlns="http://www.w3.org/2000/svg">
<path d="M22.3578 32.175C20.8156 32.175 19.3172 32.175 17.7969 32.175C17.7969 22.9984 17.7969 13.8438 17.7969 4.65625C17.9391 4.65625 18.0703 4.65625 18.2016 4.65625C20.8375 4.65625 23.4734 4.65625 26.1094 4.65625C27.4438 4.65625 28.2531 5.45469 28.2531 6.78906C28.2531 14.5438 28.2531 22.2875 28.2531 30.0422C28.2531 31.3547 27.4437 32.1641 26.1312 32.1641C25.3328 32.1641 24.5234 32.1641 23.725 32.1641C23.725 32.9844 23.6375 33.7938 23.7469 34.5703C23.8672 35.4781 24.6875 36.0797 25.6172 36.0906C28.0234 36.1016 30.4188 36.1016 32.825 36.0906C33.9844 36.0906 34.8047 35.2266 34.8047 34.0344C34.8047 29.3531 34.8047 24.6719 34.8047 19.9906C34.8047 18.525 34.8047 17.0703 34.8047 15.6047C34.8047 15.4625 34.8047 15.3094 34.8047 15.1234C34.5422 15.1234 34.3125 15.1344 34.0828 15.1234C33.0547 15.0797 32.2125 14.2594 32.1906 13.2313C32.1687 11.9188 32.1797 10.6063 32.1906 9.30469C32.1906 8.82344 32.4422 8.58281 32.9344 8.58281C33.5469 8.57188 34.1594 8.58281 34.8047 8.58281C34.8047 8.15625 34.8047 7.7625 34.8047 7.36875C34.8156 6.90938 35.0562 6.625 35.4391 6.61406C35.8328 6.60313 36.1063 6.89844 36.1063 7.36875C36.1172 7.75156 36.1063 8.13438 36.1063 8.57188C36.7078 8.57188 37.2875 8.57188 37.8672 8.57188C38.5125 8.57188 38.7203 8.79063 38.7313 9.43594C38.7313 10.5953 38.7313 11.7547 38.7313 12.9141C38.7313 14.3359 37.9547 15.1234 36.5328 15.1234C36.4125 15.1234 36.2922 15.1234 36.1063 15.1234C36.1063 15.2984 36.1063 15.4516 36.1063 15.6156C36.1063 21.6859 36.1063 27.7563 36.1063 33.8375C36.1063 36.0469 34.75 37.4031 32.5297 37.4031C30.2875 37.4031 28.0563 37.4031 25.8141 37.4031C23.7359 37.4031 22.3469 36.0141 22.3469 33.9469C22.3578 33.3781 22.3578 32.8094 22.3578 32.175ZM24.9719 11.1969C24.9719 10.125 24.0859 9.25 23.025 9.23906C21.9313 9.22813 21.0453 10.125 21.0453 11.2078C21.0453 12.2797 21.9313 13.1547 22.9922 13.1656C24.0859 13.1766 24.9828 12.2906 24.9719 11.1969ZM24.9719 18.4266C24.9719 17.3547 24.1078 16.4688 23.0359 16.4578C21.9422 16.4469 21.0453 17.3219 21.0453 18.4156C21.0453 19.4875 21.9094 20.3734 22.9813 20.3844C24.075 20.3953 24.9719 19.5094 24.9719 18.4266ZM24.9719 25.6344C24.9828 24.5625 24.1188 23.6656 23.0469 23.6547C21.9531 23.6328 21.0562 24.5188 21.0453 25.6016C21.0344 26.6953 21.9203 27.5813 23.0141 27.5813C24.0859 27.5813 24.9719 26.7062 24.9719 25.6344Z" fill="#1855B0"/>
<path d="M16.4277 23.6375C13.3762 23.6375 10.3465 23.6375 7.28398 23.6375C7.28398 22.6641 7.27305 21.7125 7.29492 20.7609C7.29492 20.6516 7.43711 20.5203 7.53555 20.4328C8.32305 19.7219 9.19805 19.0875 9.88711 18.3C10.8605 17.1844 11.3527 15.8281 11.1449 14.3297C10.8934 12.4813 9.26367 11.5625 7.51367 12.2188C7.44805 12.2406 7.39336 12.2625 7.28398 12.2953C7.28398 12.1203 7.28398 12 7.28398 11.8688C7.28398 10.1734 7.28398 8.48906 7.28398 6.79375C7.28398 5.48125 8.09336 4.67188 9.39492 4.67188C11.6043 4.67188 13.8137 4.67188 16.034 4.67188C16.1543 4.67188 16.2746 4.67188 16.4277 4.67188C16.4277 10.9938 16.4277 17.3047 16.4277 23.6375Z" fill="#1855B0"/>
<path d="M7.28125 24.9922C10.3438 24.9922 13.3625 24.9922 16.425 24.9922C16.425 27.3656 16.425 29.7391 16.425 32.1562C16.3047 32.1672 16.1734 32.1781 16.0422 32.1781C13.8328 32.1781 11.6234 32.1781 9.41406 32.1781C8.09062 32.1781 7.28125 31.3688 7.28125 30.0344C7.28125 28.4922 7.28125 26.95 7.28125 25.4078C7.28125 25.2766 7.28125 25.1344 7.28125 24.9922Z" fill="#1855B0"/>
<path d="M9.91125 15.04C9.83469 16.0572 9.38625 17.0744 8.54406 17.8947C8.04094 18.3869 7.47219 18.8244 6.91438 19.251C6.805 19.3275 6.57531 19.3822 6.47688 19.3275C5.12063 18.4088 3.89562 17.3807 3.48 15.6963C3.3925 15.3353 3.35969 14.9416 3.38156 14.5588C3.41438 14.0228 3.64406 13.5744 4.19094 13.3885C4.72687 13.2025 5.20812 13.3338 5.63469 13.7057C5.71125 13.7822 5.78781 13.8588 5.85344 13.9463C6.5425 14.8432 6.70656 14.8213 7.4175 13.9682C7.65813 13.6728 8.05188 13.4213 8.42375 13.3447C9.32062 13.1807 9.92219 13.826 9.91125 15.04ZM6.805 17.3697C7.27531 17.3807 7.86594 17.151 8.34719 16.6916C8.65344 16.4072 8.67531 16.0244 8.42375 15.751C8.18313 15.4885 7.83312 15.4775 7.505 15.7072C6.82687 16.1994 6.43313 16.1994 5.76594 15.7072C5.42688 15.4557 5.055 15.4885 4.81438 15.7728C4.57375 16.0572 4.6175 16.4182 4.93469 16.7135C5.405 17.14 5.96281 17.3697 6.805 17.3697Z" fill="#1855B0"/>
<path d="M23.6722 11.2C23.6831 11.55 23.3878 11.8563 23.0269 11.8672C22.6769 11.8781 22.3706 11.5828 22.3597 11.2219C22.3487 10.8609 22.644 10.5656 23.005 10.5547C23.355 10.5547 23.6612 10.8391 23.6722 11.2Z" fill="#1855B0"/>
<path d="M23.0159 17.7656C23.3768 17.7656 23.6722 18.0609 23.6612 18.4219C23.6612 18.7719 23.3659 19.0781 23.005 19.0672C22.655 19.0672 22.3487 18.7719 22.3597 18.4109C22.3597 18.0609 22.655 17.7656 23.0159 17.7656Z" fill="#1855B0"/>
<path d="M23.669 25.6253C23.669 25.9753 23.3737 26.2815 23.0128 26.2706C22.6628 26.2706 22.3565 25.9753 22.3675 25.6144C22.3675 25.2534 22.6628 24.9581 23.0237 24.969C23.3737 24.969 23.669 25.2644 23.669 25.6253Z" fill="#1855B0"/>
</svg>
