<svg width="34" height="34" viewBox="0 0 34 34" fill="none" xmlns="http://www.w3.org/2000/svg">
<rect width="34" height="34" fill="white"/>
<path d="M8.37573 13.5577C8.37573 13.6522 8.37573 13.73 8.37573 13.8023C8.37573 17.4605 8.37573 21.1131 8.37573 24.7714C8.37573 25.4441 8.72042 25.7888 9.38757 25.7888C9.74895 25.7888 10.1103 25.7832 10.4717 25.7888C10.9443 25.7943 11.3001 26.1335 11.3168 26.5838C11.3334 27.0119 11.0165 27.4122 10.5718 27.4288C9.97689 27.4511 9.37089 27.4789 8.78714 27.3844C7.54735 27.1842 6.71897 26.1223 6.71341 24.8381C6.70785 22.4085 6.71341 19.9845 6.71341 17.555C6.71341 15.0254 6.71341 12.4902 6.71341 9.9606C6.71341 8.68745 7.54735 7.64781 8.77046 7.41986C9.19299 7.34203 9.64331 7.37539 10.077 7.36427C10.2993 7.35871 10.5217 7.36427 10.7552 7.36427C10.7775 7.28643 10.7941 7.21416 10.8219 7.14744C10.9443 6.78607 11.289 6.55257 11.6503 6.58036C12.0395 6.60816 12.362 6.87502 12.4064 7.25863C12.4453 7.56441 12.4287 7.88131 12.4342 8.19265C12.4398 8.45395 12.4398 8.72081 12.4342 8.98211C12.4176 9.42132 12.1062 9.76601 11.7004 9.81049C11.2612 9.85496 10.9053 9.59922 10.7886 9.16001C10.7775 9.1211 10.7719 9.08218 10.7608 9.03214C10.2271 9.03214 9.69891 9.00991 9.17631 9.0377C8.74266 9.05994 8.40908 9.3824 8.39241 9.81605C8.36461 10.5054 8.38685 11.1837 8.38685 11.8787C14.1466 11.8787 19.9008 11.8787 25.6772 11.8787C25.6772 11.673 25.6772 11.4728 25.6772 11.2727C25.6772 10.8335 25.6827 10.3998 25.6772 9.9606C25.6716 9.39908 25.3102 9.04326 24.7432 9.0377C24.2873 9.03214 23.8258 9.0377 23.3699 9.0377C23.3477 9.0377 23.331 9.04326 23.2977 9.04882C23.2754 9.11554 23.2588 9.18781 23.2365 9.26009C23.1198 9.6159 22.8029 9.83273 22.4248 9.82161C22.069 9.81049 21.741 9.57698 21.6632 9.22673C21.6242 9.0655 21.5631 9.0377 21.413 9.0377C20.2955 9.04326 19.178 9.04326 18.0605 9.04326C17.9994 9.04326 17.9382 9.04326 17.8826 9.04326C17.6936 9.61034 17.449 9.82717 17.0265 9.82717C16.6039 9.82717 16.3593 9.60478 16.1703 9.04326C15.7033 9.04326 15.2363 9.04882 14.7637 9.04326C14.6191 9.04326 14.469 9.03214 14.3356 8.98767C13.9576 8.8598 13.7463 8.52622 13.7741 8.13705C13.8019 7.79235 14.0799 7.48658 14.4468 7.4143C14.5858 7.3865 14.7359 7.3865 14.8805 7.3865C15.3085 7.38094 15.7366 7.3865 16.1647 7.3865C16.3815 6.81387 16.6317 6.58592 17.0431 6.59704C17.449 6.60816 17.6992 6.84166 17.8771 7.37539C17.9327 7.37539 17.9938 7.38094 18.055 7.38094C19.1725 7.38094 20.2899 7.38094 21.4074 7.38094C21.552 7.38094 21.6242 7.35871 21.6576 7.19192C21.7354 6.8361 22.0746 6.59704 22.4415 6.59148C22.7973 6.58592 23.1142 6.81387 23.231 7.15856C23.2532 7.22528 23.2699 7.29199 23.2921 7.38094C23.7814 7.38094 24.2706 7.38094 24.7598 7.38094C25.3102 7.38094 25.8162 7.53105 26.2609 7.85351C26.9503 8.35387 27.3173 9.04326 27.3339 9.89388C27.3506 10.7278 27.3451 11.5562 27.3339 12.3901C27.3284 13.1073 26.828 13.5688 26.083 13.5688C20.2733 13.5688 14.469 13.5688 8.65927 13.5688C8.58143 13.5577 8.49248 13.5577 8.37573 13.5577Z" fill="#377EE7"/>
<path d="M17.0326 27.4547C13.947 27.4658 11.4174 24.9362 11.4063 21.8506C11.4007 18.7484 13.9136 16.2243 17.0214 16.2188C20.1126 16.2132 22.6366 18.7261 22.6478 21.8173C22.6533 24.9195 20.1404 27.4436 17.0326 27.4547ZM17.0381 25.9425C19.312 25.9369 21.1522 24.0856 21.1467 21.8173C21.1355 19.549 19.2842 17.7143 17.0103 17.7198C14.7476 17.731 12.9129 19.5768 12.9129 21.8339C12.9129 24.1023 14.7698 25.948 17.0381 25.9425Z" fill="#377EE7"/>
<path d="M27.3395 20.3761C27.3395 21.8716 27.3451 23.3727 27.3395 24.8682C27.3339 26.1302 26.5167 27.181 25.288 27.3867C24.6876 27.4868 24.0593 27.4534 23.4422 27.4256C23.0086 27.4034 22.7084 26.9864 22.7362 26.5695C22.7695 26.1302 23.1086 25.8022 23.559 25.7911C23.9315 25.7856 24.3095 25.7911 24.682 25.7911C25.3214 25.7856 25.6716 25.4353 25.6716 24.7959C25.6716 21.8327 25.6716 18.875 25.6772 15.9117C25.6772 15.7505 25.6939 15.5726 25.7439 15.4225C25.8718 15.0555 26.2165 14.861 26.5945 14.8943C26.9559 14.9277 27.2561 15.2112 27.3173 15.5893C27.3339 15.6838 27.3339 15.7838 27.3339 15.8784C27.3451 17.385 27.3395 18.8805 27.3395 20.3761Z" fill="#377EE7"/>
<path d="M16.4026 21.9394C16.4638 21.8394 16.4972 21.7615 16.5472 21.7115C17.1087 21.1444 17.6702 20.5829 18.2373 20.0214C18.6209 19.6433 19.1713 19.6155 19.5216 19.9602C19.8774 20.3105 19.8607 20.8553 19.4771 21.2389C18.671 22.0506 17.8648 22.8568 17.0531 23.6629C16.6417 24.0688 16.1413 24.0688 15.7299 23.6629C15.3408 23.2793 14.9516 22.8901 14.568 22.501C14.201 22.1285 14.1844 21.6003 14.5291 21.2556C14.8682 20.9109 15.4242 20.9276 15.7966 21.2945C15.9801 21.4836 16.158 21.6837 16.4026 21.9394Z" fill="#377EE7"/>
</svg>
