<svg width="23" height="23" viewBox="0 0 23 23" fill="none" xmlns="http://www.w3.org/2000/svg">
<path d="M18.9631 23.0011C14.0037 23.0011 9.03833 23.0011 4.07895 23.0011C4.03104 22.9891 3.98312 22.9652 3.92921 22.9592C1.76098 22.7016 0.0539521 20.8329 0.0479625 18.6407C0.0359834 14.4839 0.0240042 10.3331 0.0539521 6.17637C0.0659313 4.45137 0.910463 3.16361 2.41385 2.32507C3.10265 1.94173 3.85135 1.80397 4.63598 1.80397C4.86359 1.80397 5.09119 1.80397 5.33078 1.80397C5.33078 1.48652 5.32479 1.19902 5.33078 0.917513C5.34275 0.52819 5.59432 0.192774 5.96567 0.084961C6.54067 -0.0827473 7.10369 0.318555 7.12166 0.929492C7.13364 1.21699 7.12166 1.50449 7.12166 1.79199C10.0685 1.79199 12.9795 1.79199 15.9144 1.79199C15.9144 1.52246 15.9144 1.25892 15.9144 1.00137C15.9204 0.456315 16.2917 0.0490235 16.8008 0.043034C17.3219 0.0370444 17.6993 0.444336 17.7053 1.00137C17.7053 1.25892 17.7053 1.52246 17.7053 1.80397C17.9748 1.80397 18.2204 1.80397 18.4659 1.80397C20.5862 1.82793 22.3053 3.11569 22.8383 5.08626C22.8982 5.31387 22.9402 5.54746 22.9941 5.78105C22.9941 10.1894 22.9941 14.5977 22.9941 19.012C22.9821 19.054 22.9581 19.0959 22.9521 19.1378C22.7066 20.9766 21.3709 22.4501 19.568 22.8813C19.3704 22.9232 19.1667 22.9592 18.9631 23.0011ZM1.83885 8.89564C1.83885 8.99147 1.83885 9.06934 1.83885 9.14121C1.83885 12.2498 1.83885 15.3584 1.83885 18.467C1.83885 20.0482 2.98286 21.1982 4.56411 21.2042C9.20604 21.2102 13.842 21.2102 18.4839 21.2042C20.0652 21.2042 21.2092 20.0542 21.2092 18.473C21.2092 15.3644 21.2092 12.2558 21.2092 9.1472C21.2092 9.06934 21.2092 8.99147 21.2092 8.90163C14.7404 8.89564 8.30161 8.89564 1.83885 8.89564ZM15.9204 3.61882C12.9735 3.61882 10.0566 3.61882 7.12765 3.61882C7.12765 4.20579 7.13364 4.76882 7.12765 5.33783C7.12166 5.86491 6.72635 6.24824 6.21723 6.24225C5.7201 6.23626 5.34275 5.85293 5.33676 5.33184C5.33078 4.82871 5.33676 4.33158 5.33676 3.82845C5.33676 3.75658 5.33078 3.6847 5.32479 3.61882C2.67739 3.31934 1.56333 5.12819 1.87479 7.08079C8.31359 7.08079 14.7524 7.08079 21.1852 7.08079C21.4907 4.57715 19.8375 3.32533 17.7112 3.63079C17.7112 4.18783 17.7292 4.75085 17.6993 5.30788C17.6873 5.51751 17.6094 5.75111 17.4896 5.92481C17.28 6.23027 16.8727 6.32012 16.5253 6.19434C16.1659 6.06855 15.9263 5.75111 15.9263 5.36178C15.9144 4.78678 15.9204 4.21178 15.9204 3.61882Z" fill="#255AAA"/>
<path d="M6.23015 16.8113C6.52363 16.8113 6.81113 16.8053 7.10462 16.8113C7.61374 16.8232 8.00306 17.2066 8.00905 17.7037C8.00905 18.1948 7.61973 18.5962 7.11061 18.6021C6.52363 18.6081 5.93067 18.6141 5.34369 18.6021C4.84056 18.5962 4.44525 18.1829 4.45124 17.6977C4.45723 17.2066 4.85254 16.8232 5.36166 16.8113C5.64916 16.8053 5.94265 16.8113 6.23015 16.8113Z" fill="#255AAA"/>
<path d="M16.8301 16.8146C17.1236 16.8146 17.4111 16.8086 17.7046 16.8146C18.2017 16.8266 18.585 17.2159 18.591 17.6951C18.597 18.1742 18.2137 18.5875 17.7225 18.5995C17.1176 18.6115 16.5126 18.6115 15.9077 18.5995C15.4105 18.5875 15.0332 18.1862 15.0332 17.701C15.0332 17.2099 15.4225 16.8146 15.9316 16.8086C16.2371 16.8086 16.5366 16.8146 16.8301 16.8146Z" fill="#255AAA"/>
<path d="M16.8242 11.5183C17.1176 11.5183 17.4051 11.5123 17.6986 11.5183C18.2018 11.5303 18.5971 11.9316 18.5911 12.4167C18.5851 12.9019 18.2018 13.2972 17.7046 13.3032C17.1057 13.3152 16.5127 13.3152 15.9137 13.3032C15.4166 13.2972 15.0333 12.8959 15.0333 12.4167C15.0273 11.9256 15.4226 11.5243 15.9257 11.5183C16.2312 11.5183 16.5307 11.5183 16.8242 11.5183Z" fill="#255AAA"/>
<path d="M6.23438 11.5183C6.52787 11.5183 6.81537 11.5123 7.10886 11.5183C7.61797 11.5303 8.0073 11.9256 8.0073 12.4167C8.0073 12.9019 7.62396 13.2972 7.12683 13.3092C6.52787 13.3212 5.9349 13.3212 5.33594 13.3092C4.83282 13.3032 4.4375 12.8899 4.44948 12.3988C4.46146 11.9136 4.85079 11.5303 5.34193 11.5183C5.64141 11.5183 5.9349 11.5183 6.23438 11.5183Z" fill="#255AAA"/>
<path d="M11.5053 13.3149C11.2118 13.3149 10.9243 13.3209 10.6309 13.3149C10.1217 13.3029 9.73242 12.9016 9.73242 12.4165C9.73841 11.9253 10.1277 11.53 10.6368 11.524C11.2178 11.518 11.7988 11.518 12.3798 11.524C12.8889 11.53 13.2783 11.9133 13.2842 12.4105C13.2902 12.9016 12.9009 13.3029 12.3918 13.3149C12.1043 13.3209 11.8048 13.3149 11.5053 13.3149Z" fill="#255AAA"/>
<path d="M11.5232 16.8113C11.8167 16.8113 12.1042 16.8053 12.3977 16.8113C12.9068 16.8232 13.2962 17.2126 13.2962 17.7037C13.2962 18.1948 12.9068 18.5902 12.3977 18.6021C11.8107 18.6081 11.2178 18.6141 10.6308 18.6021C10.1277 18.5962 9.73236 18.1829 9.73835 17.6977C9.74434 17.2126 10.1337 16.8292 10.6308 16.8172C10.9243 16.8053 11.2238 16.8113 11.5232 16.8113Z" fill="#255AAA"/>
</svg>
