<svg width="27" height="27" viewBox="0 0 27 27" fill="none" xmlns="http://www.w3.org/2000/svg">
<path d="M7.875 12.375H10.125V14.625H7.875V12.375ZM7.875 16.875H10.125V19.125H7.875V16.875ZM12.375 12.375H14.625V14.625H12.375V12.375ZM12.375 16.875H14.625V19.125H12.375V16.875ZM16.875 12.375H19.125V14.625H16.875V12.375ZM16.875 16.875H19.125V19.125H16.875V16.875Z" fill="#1B56AE"/>
<path d="M5.625 24.75H21.375C22.6159 24.75 23.625 23.7409 23.625 22.5V6.75C23.625 5.50912 22.6159 4.5 21.375 4.5H19.125V2.25H16.875V4.5H10.125V2.25H7.875V4.5H5.625C4.38412 4.5 3.375 5.50912 3.375 6.75V22.5C3.375 23.7409 4.38412 24.75 5.625 24.75ZM21.375 9L21.3761 22.5H5.625V9H21.375Z" fill="#1B56AE"/>
</svg>
