<svg width="17" height="17" viewBox="0 0 17 17" fill="none" xmlns="http://www.w3.org/2000/svg">
<path d="M14.0175 17.0003C10.3519 17.0003 6.68186 17.0003 3.01624 17.0003C2.98082 16.9915 2.9454 16.9737 2.90556 16.9693C1.30296 16.779 0.0412363 15.3977 0.0368093 13.7774C0.0279551 10.705 0.0191009 7.63703 0.0412363 4.56463C0.0500905 3.28963 0.674309 2.33781 1.78551 1.71802C2.29462 1.43468 2.84801 1.33286 3.42796 1.33286C3.59618 1.33286 3.76441 1.33286 3.9415 1.33286C3.9415 1.09823 3.93707 0.885725 3.9415 0.677652C3.95035 0.389892 4.13629 0.141975 4.41077 0.0622878C4.83577 -0.0616706 5.25191 0.234944 5.26519 0.686507C5.27405 0.899007 5.26519 1.11151 5.26519 1.32401C7.44332 1.32401 9.59488 1.32401 11.7642 1.32401C11.7642 1.12479 11.7642 0.929996 11.7642 0.739632C11.7686 0.336767 12.0431 0.0357253 12.4194 0.0312982C12.8045 0.0268711 13.0834 0.327913 13.0879 0.739632C13.0879 0.929996 13.0879 1.12479 13.0879 1.33286C13.2871 1.33286 13.4686 1.33286 13.6501 1.33286C15.2173 1.35057 16.4879 2.30239 16.8819 3.7589C16.9261 3.92713 16.9571 4.09979 16.997 4.27244C16.997 7.53078 16.997 10.7891 16.997 14.0519C16.9881 14.0829 16.9704 14.1139 16.966 14.1448C16.7845 15.504 15.7972 16.593 14.4647 16.9118C14.3186 16.9428 14.1681 16.9693 14.0175 17.0003ZM1.36051 6.57453C1.36051 6.64536 1.36051 6.70291 1.36051 6.75604C1.36051 9.05369 1.36051 11.3513 1.36051 13.649C1.36051 14.8178 2.20608 15.6678 3.37483 15.6722C6.80582 15.6766 10.2324 15.6766 13.6634 15.6722C14.8321 15.6722 15.6777 14.8222 15.6777 13.6534C15.6777 11.3558 15.6777 9.05812 15.6777 6.76047C15.6777 6.70291 15.6777 6.64536 15.6777 6.57896C10.8964 6.57453 6.13733 6.57453 1.36051 6.57453ZM11.7686 2.67427C9.59046 2.67427 7.43447 2.67427 5.26962 2.67427C5.26962 3.10812 5.27405 3.52427 5.26962 3.94484C5.26519 4.33442 4.97301 4.61776 4.5967 4.61333C4.22926 4.6089 3.95035 4.32557 3.94592 3.94041C3.9415 3.56854 3.94592 3.20109 3.94592 2.82922C3.94592 2.77609 3.9415 2.72297 3.93707 2.67427C1.9803 2.45291 1.15686 3.78989 1.38707 5.23312C6.14618 5.23312 10.9053 5.23312 15.66 5.23312C15.8858 3.3826 14.6639 2.45734 13.0923 2.68312C13.0923 3.09484 13.1056 3.51099 13.0834 3.9227C13.0746 4.07765 13.017 4.25031 12.9285 4.37869C12.7735 4.60448 12.4725 4.67088 12.2157 4.57791C11.9501 4.48494 11.773 4.25031 11.773 3.96255C11.7642 3.53755 11.7686 3.11255 11.7686 2.67427Z" fill="#1E1D1D"/>
<path d="M4.60396 12.4317C4.82088 12.4317 5.03338 12.4272 5.25031 12.4317C5.62661 12.4405 5.91437 12.7238 5.9188 13.0913C5.9188 13.4543 5.63104 13.7509 5.25474 13.7554C4.82088 13.7598 4.3826 13.7642 3.94875 13.7554C3.57687 13.7509 3.28469 13.4455 3.28911 13.0869C3.29354 12.7238 3.58573 12.4405 3.96203 12.4317C4.17453 12.4272 4.39146 12.4317 4.60396 12.4317Z" fill="#1E1D1D"/>
<path d="M12.4414 12.4263C12.6583 12.4263 12.8708 12.4219 13.0878 12.4263C13.4552 12.4352 13.7385 12.7229 13.743 13.0771C13.7474 13.4312 13.4641 13.7367 13.101 13.7456C12.6539 13.7544 12.2068 13.7544 11.7596 13.7456C11.3922 13.7367 11.1133 13.4401 11.1133 13.0815C11.1133 12.7185 11.401 12.4263 11.7773 12.4219C12.0031 12.4219 12.2245 12.4263 12.4414 12.4263Z" fill="#1E1D1D"/>
<path d="M12.437 8.50978C12.654 8.50978 12.8665 8.50535 13.0834 8.50978C13.4553 8.51863 13.7474 8.81525 13.743 9.17384C13.7386 9.53244 13.4553 9.82462 13.0878 9.82905C12.6451 9.83791 12.2068 9.83791 11.7641 9.82905C11.3967 9.82462 11.1133 9.52801 11.1133 9.17384C11.1089 8.81082 11.4011 8.51421 11.773 8.50978C11.9987 8.50978 12.2201 8.50978 12.437 8.50978Z" fill="#1E1D1D"/>
<path d="M4.60853 8.50978C4.82546 8.50978 5.03796 8.50535 5.25488 8.50978C5.63119 8.51863 5.91895 8.81082 5.91895 9.17384C5.91895 9.53244 5.63561 9.82462 5.26816 9.83348C4.82546 9.84233 4.38717 9.84233 3.94447 9.83348C3.57259 9.82905 3.2804 9.52358 3.28926 9.16056C3.29811 8.80197 3.58587 8.51863 3.94889 8.50978C4.17025 8.50978 4.38717 8.50978 4.60853 8.50978Z" fill="#1E1D1D"/>
<path d="M8.50573 9.83483C8.2888 9.83483 8.0763 9.83926 7.85938 9.83483C7.48307 9.82598 7.19531 9.52936 7.19531 9.17077C7.19974 8.80775 7.4875 8.51556 7.8638 8.51113C8.29323 8.50671 8.72266 8.50671 9.15208 8.51113C9.52839 8.51556 9.81615 8.79889 9.82057 9.16634C9.825 9.52936 9.53724 9.82598 9.16094 9.83483C8.94844 9.83926 8.72708 9.83483 8.50573 9.83483Z" fill="#1E1D1D"/>
<path d="M8.51854 12.4317C8.73547 12.4317 8.94797 12.4272 9.16489 12.4317C9.5412 12.4405 9.82896 12.7283 9.82896 13.0913C9.82896 13.4543 9.5412 13.7465 9.16489 13.7554C8.73104 13.7598 8.29276 13.7642 7.8589 13.7554C7.48703 13.7509 7.19484 13.4455 7.19927 13.0869C7.2037 12.7283 7.49146 12.4449 7.8589 12.4361C8.07583 12.4272 8.29718 12.4317 8.51854 12.4317Z" fill="#1E1D1D"/>
</svg>
