<svg width="43" height="43" viewBox="0 0 43 43" fill="none" xmlns="http://www.w3.org/2000/svg">
<path d="M15.2047 26.8437C15.0976 26.9515 14.9141 26.8757 14.9141 26.7237C14.9141 21.9999 14.9141 17.2761 14.9141 12.5523C14.9141 11.1063 15.7729 10.2474 17.2102 10.2474C18.1655 10.2474 19.112 10.2474 20.0673 10.2387C20.1168 10.2387 20.1494 10.1785 20.1533 10.1292C20.1591 10.0568 20.1637 9.98123 20.1637 9.90563C20.1637 8.97665 20.1549 8.04767 20.1637 7.11869C20.1724 5.92679 21.0751 5.00657 22.2583 5.00657C24.3616 4.99781 26.4562 4.99781 28.5595 5.00657C29.7427 5.01534 30.6454 5.92679 30.6629 7.10992C30.6717 8.0389 30.6629 8.96788 30.6629 9.89686C30.6629 10.0905 30.8199 10.2474 31.0135 10.2474C31.8813 10.2474 32.7303 10.2474 33.5725 10.2474C33.7566 10.2474 33.9494 10.2387 34.1247 10.2737C35.1939 10.449 35.9037 11.2991 35.9037 12.4209C35.9037 16.5224 35.9037 20.624 35.9037 24.7255C35.9037 24.9166 35.9037 25.1069 35.9037 25.2985C35.9037 25.9584 35.2472 26.4496 34.6077 26.6129C34.1461 26.7307 33.7084 26.9481 33.2658 27.1531C31.6532 27.9068 30.0319 28.643 28.4193 29.3967C28.0074 29.5895 27.5955 29.7122 27.131 29.6771C26.7543 29.6502 26.4431 29.3893 26.4251 29.0121C26.4095 28.6861 26.3895 28.3691 26.316 28.0646C26.0092 26.8639 24.8962 26.0138 23.6517 26.005C21.1803 25.9875 18.7089 25.9963 16.2374 26.005C16.1235 26.005 15.9833 26.0751 15.9044 26.154C15.6803 26.3653 15.4562 26.5906 15.2047 26.8437ZM19.6466 19.1428C19.6378 22.3329 22.2232 24.9358 25.4045 24.9358C28.5858 24.9446 31.18 22.368 31.1975 19.2042C31.215 16.0053 28.6384 13.4024 25.4571 13.3937C22.2495 13.3762 19.6466 15.9528 19.6466 19.1428ZM22.2846 9.22112C22.2846 9.77341 22.7323 10.2211 23.2846 10.2211C24.7118 10.2211 26.131 10.2211 27.542 10.2211C28.0943 10.2211 28.542 9.77341 28.542 9.22112C28.542 8.84897 28.542 8.4787 28.542 8.10992C28.542 7.55763 28.0943 7.10992 27.542 7.10992C26.1194 7.10992 24.7031 7.10992 23.2846 7.10992C22.7323 7.10992 22.2846 7.55764 22.2846 8.10993C22.2846 8.48023 22.2846 8.84968 22.2846 9.22112Z" fill="#1C56AD"/>
<path d="M11.0061 34.9147C10.8565 34.9011 10.7344 34.7842 10.7344 34.634C10.7344 33.4565 10.7344 32.2939 10.7344 31.1305C10.7344 30.026 11.631 29.0609 12.7339 29.122C12.8448 29.1282 12.9554 29.1367 13.0656 29.1481C14.0209 29.2532 14.7395 28.9815 15.3267 28.2103C15.6597 27.7809 16.0366 27.2813 16.5011 27.0973C16.9831 26.9045 17.5966 27.0359 18.1574 27.0359C19.8752 27.0359 21.5929 27.071 23.3107 27.0272C24.599 26.9921 25.2563 27.7984 25.3965 28.5696C25.544 29.3692 25.162 30.0794 24.2994 30.5418C24.2255 30.5814 24.2522 30.708 24.336 30.708C24.6077 30.708 24.8794 30.708 25.1599 30.708C26.1327 30.708 27.1405 30.857 28.0695 30.6467C28.9985 30.4451 29.8486 29.8755 30.725 29.4723C31.9957 28.8851 33.2578 28.2892 34.5373 27.7195C35.589 27.2463 36.7108 27.7984 36.9474 28.8851C37.1051 29.595 36.7721 30.2961 36.071 30.6993C35.0018 31.3128 33.9238 31.9087 32.8458 32.5134C31.505 33.2671 30.1641 34.0296 28.8144 34.7745C28.683 34.8534 28.5077 34.906 28.3587 34.906C22.5745 34.9147 16.7903 34.9147 11.0061 34.9147ZM21.4439 31.7597C22.0311 31.7597 22.6271 31.7597 23.2143 31.7597C23.5999 31.7597 23.8365 31.5494 23.8365 31.2339C23.8365 30.9184 23.5999 30.708 23.2143 30.708C22.0574 30.708 20.8918 30.708 19.735 30.708C19.3493 30.708 19.1127 30.9096 19.1127 31.2339C19.1127 31.5494 19.3493 31.751 19.735 31.7597C20.3134 31.7597 20.883 31.7597 21.4439 31.7597Z" fill="#1C56AD"/>
<path d="M8.14725 28.1094C8.97568 28.1094 9.64726 28.781 9.64726 29.6094C9.64726 31.0445 9.64726 32.4773 9.64726 33.9185C9.64726 34.7469 8.97569 35.4185 8.14726 35.4185C7.76063 35.4185 7.37307 35.4185 6.98439 35.4185C6.15596 35.4185 5.48438 34.7469 5.48438 33.9185C5.48438 32.4858 5.48438 31.0512 5.48438 29.6094C5.48438 28.781 6.15595 28.1094 6.98438 28.1094C7.37213 28.1094 7.7595 28.1094 8.14725 28.1094Z" fill="#1C56AD"/>
<path d="M23.868 18.1258C24.1441 18.1258 24.368 17.9019 24.368 17.6258C24.368 17.2524 24.368 16.8922 24.368 16.5313C24.368 16.2551 24.5919 16.0312 24.868 16.0312C25.2277 16.0312 25.583 16.0312 25.9451 16.0312C26.2212 16.0312 26.4451 16.2551 26.4451 16.5312C26.4451 16.8849 26.4451 17.2427 26.4451 17.6083C26.4451 17.8844 26.669 18.1083 26.9451 18.1083C27.3147 18.1083 27.6774 18.1083 28.0397 18.1083C28.3158 18.1083 28.5397 18.3322 28.5397 18.6083C28.5397 18.9749 28.5397 19.3363 28.5397 19.7029C28.5397 19.979 28.3158 20.2029 28.0397 20.2029C27.686 20.2029 27.3282 20.2029 26.9626 20.2029C26.6865 20.2029 26.4626 20.4268 26.4626 20.7029C26.4626 21.0725 26.4626 21.4352 26.4626 21.7975C26.4626 22.0736 26.2387 22.2975 25.9626 22.2975C25.596 22.2975 25.2346 22.2975 24.868 22.2975C24.5919 22.2975 24.368 22.0736 24.368 21.7975C24.368 21.4438 24.368 21.086 24.368 20.7204C24.368 20.4443 24.1441 20.2204 23.868 20.2204C23.4984 20.2204 23.1357 20.2204 22.7734 20.2204C22.4973 20.2204 22.2734 19.9966 22.2734 19.7204C22.2734 19.3539 22.2734 18.9924 22.2734 18.6258C22.2734 18.3497 22.4973 18.1258 22.7734 18.1258C23.1332 18.1258 23.496 18.1258 23.868 18.1258Z" fill="#1C56AD"/>
</svg>
