<svg width="91" height="86" viewBox="0 0 91 86" fill="none" xmlns="http://www.w3.org/2000/svg">
<g filter="url(#filter0_d_1_86074)">
<rect x="4" y="3" width="82.7273" height="78" rx="5" fill="#1D57AD"/>
</g>
<path d="M28.2166 35.2656C28.2166 35.4522 28.2166 35.6059 28.2166 35.7486C28.2166 42.9712 28.2166 50.1828 28.2166 57.4054C28.2166 58.7335 28.8971 59.4141 30.2143 59.4141C30.9278 59.4141 31.6413 59.4031 32.3547 59.4141C33.2877 59.4251 33.9902 60.0946 34.0232 60.9837C34.0561 61.8289 33.4304 62.6192 32.5523 62.6522C31.3778 62.6961 30.1814 62.751 29.0288 62.5644C26.5811 62.1692 24.9455 60.0727 24.9346 57.5371C24.9236 52.7403 24.9346 47.9545 24.9346 43.1578C24.9346 38.1634 24.9346 33.1581 24.9346 28.1638C24.9346 25.6501 26.5811 23.5975 28.9959 23.1475C29.8301 22.9938 30.7192 23.0597 31.5754 23.0377C32.0145 23.0267 32.4535 23.0377 32.9145 23.0377C32.9584 22.884 32.9914 22.7413 33.0463 22.6096C33.2877 21.8961 33.9683 21.4351 34.6818 21.49C35.4501 21.5449 36.0868 22.0718 36.1746 22.8292C36.2514 23.4329 36.2185 24.0585 36.2295 24.6732C36.2404 25.1891 36.2404 25.716 36.2295 26.2319C36.1965 27.099 35.5818 27.7796 34.7806 27.8674C33.9134 27.9552 33.2109 27.4503 32.9804 26.5831C32.9584 26.5063 32.9475 26.4295 32.9255 26.3307C31.8718 26.3307 30.829 26.2868 29.7972 26.3417C28.941 26.3856 28.2824 27.0222 28.2495 27.8784C28.1946 29.2395 28.2385 30.5786 28.2385 31.9507C39.6102 31.9507 50.971 31.9507 62.3757 31.9507C62.3757 31.5446 62.3757 31.1494 62.3757 30.7542C62.3757 29.8871 62.3866 29.0309 62.3757 28.1638C62.3647 27.0551 61.6512 26.3526 60.5316 26.3417C59.6315 26.3307 58.7205 26.3417 57.8204 26.3417C57.7765 26.3417 57.7435 26.3526 57.6777 26.3636C57.6338 26.4953 57.6008 26.638 57.5569 26.7807C57.3264 27.4832 56.7008 27.9113 55.9544 27.8894C55.2519 27.8674 54.6042 27.4064 54.4506 26.7149C54.3737 26.3965 54.253 26.3417 53.9566 26.3417C51.7503 26.3526 49.544 26.3526 47.3378 26.3526C47.217 26.3526 47.0963 26.3526 46.9865 26.3526C46.6133 27.4722 46.1303 27.9003 45.2961 27.9003C44.4619 27.9003 43.9789 27.4613 43.6057 26.3526C42.6837 26.3526 41.7617 26.3636 40.8286 26.3526C40.5433 26.3526 40.2469 26.3307 39.9834 26.2429C39.237 25.9904 38.8199 25.3318 38.8748 24.5635C38.9297 23.8829 39.4785 23.2792 40.203 23.1365C40.4774 23.0816 40.7738 23.0816 41.0592 23.0816C41.9043 23.0706 42.7495 23.0816 43.5947 23.0816C44.0228 21.951 44.5168 21.501 45.329 21.5229C46.1303 21.5449 46.6243 22.0059 46.9755 23.0597C47.0853 23.0597 47.206 23.0706 47.3268 23.0706C49.5331 23.0706 51.7394 23.0706 53.9457 23.0706C54.231 23.0706 54.3737 23.0267 54.4396 22.6974C54.5933 21.9949 55.2628 21.5229 55.9873 21.512C56.6898 21.501 57.3155 21.951 57.546 22.6316C57.5899 22.7633 57.6228 22.895 57.6667 23.0706C58.6326 23.0706 59.5986 23.0706 60.5645 23.0706C61.6512 23.0706 62.6501 23.367 63.5282 24.0037C64.8893 24.9915 65.6137 26.3526 65.6467 28.0321C65.6796 29.6785 65.6686 31.314 65.6467 32.9605C65.6357 34.3765 64.6478 35.2876 63.1769 35.2876C51.7064 35.2876 40.2469 35.2876 28.7764 35.2876C28.6227 35.2656 28.4471 35.2656 28.2166 35.2656Z" fill="white"/>
<path d="M45.3114 62.703C39.2194 62.7249 34.2251 57.7306 34.2031 51.6386C34.1922 45.5136 39.1536 40.5303 45.2895 40.5193C51.3925 40.5083 56.3758 45.4697 56.3978 51.5727C56.4088 57.6976 51.4473 62.681 45.3114 62.703ZM45.3224 59.7173C49.8118 59.7064 53.4451 56.0512 53.4341 51.5727C53.4121 47.0943 49.7569 43.472 45.2675 43.483C40.8001 43.5049 37.1778 47.1492 37.1778 51.6056C37.1778 56.0841 40.844 59.7283 45.3224 59.7173Z" fill="white"/>
<path d="M65.6624 48.7337C65.6624 51.6864 65.6734 54.6501 65.6624 57.6028C65.6515 60.0945 64.0379 62.1691 61.6121 62.5752C60.4266 62.7728 59.1863 62.7069 57.9679 62.652C57.1117 62.6081 56.5189 61.7849 56.5738 60.9616C56.6397 60.0945 57.3093 59.4469 58.1984 59.4249C58.9338 59.4139 59.6802 59.4249 60.4156 59.4249C61.6779 59.4139 62.3695 58.7224 62.3695 57.4601C62.3695 51.6096 62.3695 45.7701 62.3804 39.9195C62.3804 39.6012 62.4134 39.25 62.5122 38.9536C62.7646 38.2292 63.4452 37.845 64.1916 37.9108C64.905 37.9767 65.4978 38.5365 65.6185 39.2829C65.6515 39.4695 65.6515 39.6671 65.6515 39.8537C65.6734 42.8283 65.6624 45.781 65.6624 48.7337Z" fill="white"/>
<path d="M44.0712 51.8219C44.1919 51.6243 44.2578 51.4707 44.3566 51.3719C45.4652 50.2523 46.5738 49.1436 47.6934 48.035C48.4508 47.2886 49.5375 47.2337 50.229 47.9143C50.9315 48.6058 50.8986 49.6815 50.1412 50.4389C48.5496 52.0415 46.958 53.6331 45.3554 55.2247C44.5432 56.0259 43.5553 56.0259 42.743 55.2247C41.9747 54.4673 41.2063 53.6989 40.4489 52.9306C39.7245 52.1951 39.6915 51.1524 40.3721 50.4718C41.0416 49.7913 42.1393 49.8242 42.8747 50.5486C43.237 50.9218 43.5882 51.317 44.0712 51.8219Z" fill="white"/>
<defs>
<filter id="filter0_d_1_86074" x="0" y="0" width="90.7266" height="86" filterUnits="userSpaceOnUse" color-interpolation-filters="sRGB">
<feFlood flood-opacity="0" result="BackgroundImageFix"/>
<feColorMatrix in="SourceAlpha" type="matrix" values="0 0 0 0 0 0 0 0 0 0 0 0 0 0 0 0 0 0 127 0" result="hardAlpha"/>
<feOffset dy="1"/>
<feGaussianBlur stdDeviation="2"/>
<feComposite in2="hardAlpha" operator="out"/>
<feColorMatrix type="matrix" values="0 0 0 0 0 0 0 0 0 0 0 0 0 0 0 0 0 0 0.25 0"/>
<feBlend mode="normal" in2="BackgroundImageFix" result="effect1_dropShadow_1_86074"/>
<feBlend mode="normal" in="SourceGraphic" in2="effect1_dropShadow_1_86074" result="shape"/>
</filter>
</defs>
</svg>
