<svg width="32" height="32" viewBox="0 0 32 32" fill="none" xmlns="http://www.w3.org/2000/svg">
<path d="M29 15.716C29 16.2376 29 16.7592 29 17.2809C28.987 17.3461 28.9674 17.4048 28.9609 17.47C28.8109 19.413 28.2501 21.2323 27.233 22.895C25.2507 26.1226 22.3883 28.1048 18.6586 28.809C18.2087 28.8938 17.7457 28.9394 17.2893 28.9981C16.7676 28.9981 16.246 28.9981 15.7244 28.9981C15.6461 28.9851 15.5679 28.9655 15.4896 28.9525C14.968 28.8742 14.4398 28.8351 13.9247 28.7242C10.9253 28.0722 8.4606 26.5334 6.60227 24.0947C4.29403 21.0692 3.5181 17.646 4.28751 13.9228C4.95912 10.6822 6.7066 8.1066 9.4191 6.22219C12.1773 4.3117 15.2419 3.64661 18.5542 4.17477C20.9016 4.54643 22.9816 5.55058 24.7617 7.13505C26.9395 9.07162 28.3023 11.4711 28.8109 14.3467C28.8892 14.8031 28.9348 15.2595 29 15.716ZM27.3373 16.5115C27.3503 10.5452 22.4796 5.67447 16.5068 5.66795C10.5537 5.66143 5.69593 10.5061 5.66985 16.4788C5.64377 22.432 10.508 27.3158 16.4873 27.3354C22.4404 27.3549 27.3242 22.4842 27.3373 16.5115Z" fill="white" stroke="white"/>
<path d="M15.6708 13.1613C15.6708 12.0528 15.6643 10.9509 15.6708 9.8424C15.6708 9.39901 15.9773 9.06646 16.4076 9.0143C16.8119 8.96214 17.2031 9.22947 17.3009 9.64026C17.327 9.75111 17.327 9.86848 17.327 9.97933C17.327 11.9289 17.3335 13.8851 17.327 15.8347C17.327 16.0238 17.3727 16.1411 17.5292 16.265C18.742 17.2235 19.9482 18.1886 21.148 19.1601C21.5392 19.4731 21.6044 19.9817 21.3175 20.3534C21.0176 20.7381 20.5025 20.7772 20.0852 20.4446C19.3223 19.8382 18.5594 19.2253 17.7965 18.6124C17.2162 18.1494 16.6424 17.68 16.0621 17.2301C15.7817 17.0149 15.6578 16.741 15.6643 16.3889C15.6773 15.3065 15.6708 14.2307 15.6708 13.1613Z" fill="white" stroke="white"/>
</svg>
