<svg width="25" height="25" viewBox="0 0 25 25" fill="none" xmlns="http://www.w3.org/2000/svg">
<path d="M25 11.7662C25 12.2554 25 12.7447 25 13.2339C24.9878 13.3195 24.9694 13.4051 24.9572 13.4908C24.8961 13.9433 24.8655 14.3958 24.7799 14.8423C24.3092 17.3312 23.1722 19.4839 21.3933 21.2818C19.5288 23.1654 17.2853 24.3579 14.6629 24.8104C14.1921 24.8899 13.7153 24.9388 13.2385 25C12.7495 25 12.2604 25 11.7714 25C11.698 24.9878 11.6308 24.9694 11.5574 24.9572C10.8789 24.8532 10.182 24.7921 9.51567 24.6331C3.1031 23.0981 -1.02932 16.6524 0.223855 10.1578C0.749577 7.46095 2.00886 5.16154 4.03839 3.31468C6.92986 0.678934 10.347 -0.372921 14.2227 0.116314C16.6924 0.428201 18.8686 1.44336 20.7331 3.08841C22.9277 5.027 24.3031 7.4426 24.8105 10.3413C24.89 10.8183 24.9389 11.2892 25 11.7662ZM22.5487 12.4878C22.5364 6.95336 18.0006 2.41572 12.4622 2.45241C6.91763 2.4891 2.46734 6.95948 2.46123 12.4939C2.45511 18.0406 6.99099 22.5538 12.5049 22.5477C18.0311 22.5416 22.5609 17.9978 22.5487 12.4878Z" fill="#377EE7"/>
<path d="M11.7773 4.49017C11.7773 4.7276 11.7716 4.94766 11.7773 5.16772C11.7889 5.58468 12.0785 5.88002 12.4723 5.88002C12.8661 5.88002 13.1614 5.58468 13.1672 5.17351C13.173 4.94187 13.1672 4.71023 13.1672 4.48438C16.7634 4.61757 20.2728 7.69841 20.6145 11.7174C20.3365 11.7174 20.0644 11.7116 19.7864 11.7174C19.3926 11.7348 19.0915 12.0359 19.0915 12.4123C19.0857 12.7888 19.381 13.0899 19.7748 13.1131C19.9833 13.1246 20.1918 13.1188 20.4002 13.1188C20.4755 13.1188 20.5508 13.1188 20.6261 13.1188C20.4987 16.7151 17.441 20.3055 13.2599 20.6125C13.2599 20.3461 13.2599 20.0739 13.2599 19.8075C13.2541 19.3558 12.9703 19.0489 12.5649 19.0489C12.1596 19.0489 11.87 19.3558 11.8642 19.8017C11.8584 20.0681 11.8642 20.3403 11.8642 20.6067C8.26796 20.3924 4.8107 17.3637 4.49219 13.2057C4.77016 13.2057 5.04234 13.2173 5.31452 13.1999C5.5867 13.1825 5.77201 13.032 5.88204 12.7888C5.99207 12.5339 5.95154 12.2907 5.7778 12.0765C5.63303 11.8969 5.43613 11.8216 5.21028 11.8159C4.97864 11.8101 4.75279 11.8159 4.52114 11.8159C4.72383 8.17907 7.87417 4.7913 11.7773 4.49017ZM12.5476 11.5784C12.4723 11.4858 12.4259 11.4105 12.368 11.3526C11.2851 10.2696 10.2022 9.18092 9.11345 8.098C9.04975 8.03429 8.98605 7.9648 8.91077 7.91268C8.67912 7.74474 8.42432 7.72158 8.16951 7.85477C7.9147 7.98797 7.75835 8.21382 7.81047 8.49758C7.84521 8.69447 7.95524 8.90874 8.09423 9.05352C9.37984 10.3623 10.6828 11.6537 11.98 12.9509C12.3796 13.3505 12.756 13.3505 13.1614 12.9509C13.8795 12.2328 14.5976 11.5147 15.3157 10.7908C15.3678 10.7387 15.4257 10.6808 15.472 10.6171C15.7674 10.2059 15.5531 9.63842 15.0551 9.52839C14.7713 9.46469 14.5455 9.57472 14.3486 9.77161C13.7695 10.3565 13.1788 10.9472 12.5476 11.5784Z" fill="#377EE7"/>
</svg>
