<svg width="18" height="18" viewBox="0 0 18 18" fill="none" xmlns="http://www.w3.org/2000/svg">
<path d="M17.6499 8.83588C17.6499 9.15939 17.6499 9.4829 17.6499 9.81592C17.6404 9.9301 17.6213 10.0538 17.6118 10.168C17.4215 11.9282 16.746 13.4887 15.5756 14.8208C14.2911 16.2766 12.6831 17.19 10.761 17.523C10.4471 17.5801 10.1331 17.6087 9.81906 17.6562C9.49556 17.6562 9.17205 17.6562 8.83902 17.6562C8.78193 17.6467 8.73436 17.6372 8.67727 17.6277C8.3157 17.5706 7.94462 17.5421 7.58305 17.466C5.58491 17.0283 3.94833 16.0006 2.71139 14.3736C1.18899 12.3469 0.675184 10.0633 1.19851 7.57039C1.61717 5.58176 2.6543 3.96422 4.27184 2.71776C6.00356 1.38566 7.98268 0.833796 10.1616 1.04312C11.9219 1.21439 13.4728 1.88996 14.8049 3.0603C16.2702 4.35433 17.1836 5.96236 17.5262 7.88438C17.5738 8.19838 17.6118 8.52189 17.6499 8.83588ZM9.3338 16.5145C13.292 16.5145 16.5271 13.2794 16.5176 9.32114C16.5081 5.36292 13.292 2.14686 9.3338 2.13735C5.37558 2.12783 2.14049 5.36292 2.14049 9.32114C2.14049 13.2794 5.37558 16.5145 9.3338 16.5145Z" fill="black" stroke="black" stroke-width="0.5"/>
<path d="M9.66694 9.21956C9.75257 9.21956 9.81917 9.21956 9.87626 9.21956C11.1037 9.21956 12.3216 9.21956 13.549 9.21956C13.9106 9.21956 14.139 9.40034 14.177 9.72385C14.2151 10.0093 14.0248 10.2852 13.7393 10.3423C13.6537 10.3614 13.5681 10.3614 13.4824 10.3614C12.0647 10.3614 10.647 10.3614 9.21973 10.3614C8.72495 10.3614 8.51562 10.152 8.51562 9.66676C8.51562 8.11582 8.51562 6.55537 8.51562 5.00443C8.51562 4.64286 8.67738 4.4145 8.97234 4.3479C9.28634 4.28129 9.60033 4.50014 9.63839 4.82365C9.64791 4.89977 9.6479 4.9854 9.6479 5.07103C9.6479 6.3841 9.6479 7.69716 9.6479 9.00071C9.66693 9.0578 9.66694 9.12441 9.66694 9.21956Z" fill="black" stroke="black" stroke-width="0.5"/>
</svg>
