<svg width="43" height="43" viewBox="0 0 43 43" fill="none" xmlns="http://www.w3.org/2000/svg">
<path d="M16.5069 28.9021C16.6769 28.7017 16.813 28.5347 16.949 28.351C21.7097 22.222 26.4874 16.1097 31.2311 9.98075C31.7922 9.24594 32.4893 8.86184 33.4244 9.04554C34.9036 9.34614 35.4817 10.9995 34.5466 12.252C33.1184 14.1224 31.6732 15.9594 30.2279 17.8132C26.3174 22.8399 22.4238 27.8834 18.5132 32.9102C17.442 34.2963 16.1669 34.3631 14.9427 33.0939C12.5283 30.5721 10.131 28.0504 7.7166 25.5287C6.78146 24.5601 6.76446 23.3576 7.64859 22.5393C8.53272 21.721 9.7399 21.8212 10.692 22.7898C12.6133 24.8106 14.5516 26.8313 16.5069 28.9021Z" fill="#379E1E" stroke="#379E1E" stroke-width="0.3"/>
</svg>
