<svg width="43" height="43" viewBox="0 0 43 43" fill="none" xmlns="http://www.w3.org/2000/svg">
<path d="M20.8697 37.0729C20.101 36.7187 19.3063 36.3991 18.5635 36.0018C13.9597 33.5574 10.7639 29.8347 8.7859 25.0495C7.30026 21.465 6.76474 17.7163 7.09296 13.8553C7.19661 12.6375 7.40391 11.4282 7.56802 10.2017C8.12082 10.1585 8.59588 10.1326 9.07958 10.0808C11.2303 9.82165 13.1996 9.03564 15.0826 8.01642C17.0779 6.9281 18.9004 5.60657 20.6711 4.19002C20.7574 4.12092 20.8438 4.06046 20.9129 4C21.863 4.70827 22.7872 5.43382 23.746 6.10754C25.8103 7.56727 27.987 8.82834 30.4228 9.5798C31.5715 9.93394 32.7462 10.1412 33.9468 10.1758C34.0332 10.1758 34.1196 10.1844 34.2578 10.2017C34.4046 11.0914 34.5774 11.9724 34.6897 12.8707C35.087 16.2479 34.8538 19.582 33.8605 22.847C32.2625 28.1158 29.2653 32.3568 24.5579 35.2935C23.4869 35.9586 22.2949 36.4423 21.1634 37.0038C21.1029 37.0297 21.0511 37.0642 20.9906 37.0901C20.9561 37.0729 20.9129 37.0729 20.8697 37.0729ZM32.9881 15.2028C32.9363 14.6327 32.8412 13.5271 32.7549 12.4215C32.729 12.076 32.5562 11.9119 32.2107 11.8601C30.7942 11.6701 29.4381 11.2555 28.1252 10.7027C25.6721 9.67482 23.4696 8.23236 21.3621 6.6517C20.9734 6.35803 20.9043 6.35803 20.5156 6.6517C18.9522 7.8264 17.3456 8.91472 15.6181 9.83029C13.882 10.7459 12.0854 11.4628 10.142 11.791C9.03639 11.981 9.17459 11.8687 9.05366 12.9311C8.52678 17.6299 9.26096 22.1214 11.4808 26.3192C13.5279 30.2147 16.5337 33.1169 20.5674 34.9221C20.8265 35.0344 21.0425 35.0431 21.3016 34.9308C24.7652 33.3847 27.5033 31.0007 29.5331 27.8049C31.8738 24.1253 32.9449 20.083 32.9881 15.2028Z" fill="#848484"/>
<path d="M32.9848 15.201C32.9329 20.0812 31.8619 24.1322 29.5211 27.8031C27.4913 30.999 24.7533 33.3829 21.2896 34.929C21.0305 35.0413 20.8059 35.0327 20.5555 34.9204C16.5218 33.1151 13.5159 30.213 11.4688 26.3175C9.25765 22.111 8.52346 17.6282 9.04171 12.9294C9.16264 11.867 9.02444 11.9793 10.13 11.7892C12.0648 11.4524 13.8701 10.7355 15.6062 9.82853C17.3337 8.9216 18.9489 7.82464 20.5036 6.64994C20.8923 6.35627 20.9614 6.35627 21.3501 6.64994C23.4663 8.23924 25.6602 9.68169 28.1132 10.7009C29.4261 11.2537 30.7822 11.6683 32.1988 11.8583C32.5443 11.9015 32.717 12.0743 32.7429 12.4198C32.8466 13.5254 32.9416 14.631 32.9848 15.201ZM9.65497 15.797C9.7068 18.0082 9.99183 20.1849 10.6656 22.2924C12.2894 27.3799 15.3212 31.3099 20.1063 33.8148C20.7023 34.1257 21.1687 34.1257 21.7647 33.8148C26.4808 31.3445 29.5125 27.4835 31.145 22.4738C32.1556 19.3643 32.3888 16.1771 32.0001 12.9294C31.9742 12.7307 31.9137 12.6616 31.7151 12.6271C30.1344 12.3679 28.6315 11.8583 27.1718 11.1933C25.0383 10.2172 23.0776 8.95615 21.2033 7.55688C21.0046 7.4014 20.875 7.41868 20.6764 7.55688C19.9249 8.10104 19.1735 8.63656 18.3961 9.14617C15.8394 10.8046 13.1445 12.1347 10.1041 12.653C10.0177 12.6703 9.90546 12.8171 9.89682 12.9035C9.80181 13.8622 9.73271 14.8296 9.65497 15.797Z" fill="white"/>
<path d="M9.65625 15.7988C9.73399 14.8314 9.80309 13.8641 9.88946 12.9053C9.8981 12.8103 10.0104 12.6634 10.0968 12.6548C13.1371 12.1366 15.832 10.815 18.3887 9.148C19.1661 8.64702 19.9176 8.10286 20.669 7.5587C20.8677 7.41187 20.9886 7.40323 21.1959 7.5587C23.0702 8.95797 25.0309 10.2277 27.1644 11.1951C28.6155 11.8602 30.127 12.3611 31.7077 12.6289C31.9064 12.6634 31.9755 12.7412 31.9927 12.9312C32.3901 16.1703 32.1568 19.3661 31.1376 22.4756C29.5051 27.4853 26.482 31.3463 21.7573 33.8166C21.1614 34.1275 20.7036 34.1275 20.0989 33.8166C15.3138 31.3117 12.282 27.3817 10.6582 22.2942C9.99311 20.178 9.70807 18.01 9.65625 15.7988ZM23.7094 23.2443C23.8649 23.2443 23.9858 23.2443 24.0981 23.2443C25.1087 23.2443 26.1193 23.253 27.1385 23.2443C28.0713 23.2357 28.6932 22.6138 28.7019 21.681C28.7105 20.9036 28.7019 20.1262 28.7019 19.3575C28.7019 18.321 28.0972 17.7164 27.0521 17.7164C26.0588 17.7164 25.0741 17.7164 24.0808 17.7164C23.9685 17.7164 23.8476 17.7077 23.7094 17.6991C23.7094 17.5609 23.7094 17.44 23.7094 17.3277C23.7094 16.3257 23.7094 15.3238 23.7094 14.3218C23.7008 13.3544 23.0702 12.7239 22.1115 12.7153C21.3341 12.7153 20.5567 12.7153 19.788 12.7153C18.8033 12.7153 18.1728 13.3458 18.1642 14.3305C18.1642 15.3324 18.1642 16.3344 18.1642 17.3363C18.1642 17.4486 18.1642 17.5695 18.1642 17.7164C18.0087 17.7164 17.8964 17.7164 17.7841 17.7164C16.7735 17.7164 15.7629 17.7077 14.7437 17.7164C13.785 17.725 13.1717 18.3469 13.1717 19.3057C13.1631 20.0917 13.1631 20.8777 13.1717 21.6637C13.1803 22.6397 13.7936 23.2443 14.7783 23.253C15.7543 23.253 16.739 23.253 17.715 23.253C17.8532 23.253 17.9914 23.253 18.1642 23.253C18.1642 23.3998 18.1642 23.5121 18.1642 23.633C18.1642 24.6263 18.1642 25.611 18.1642 26.6043C18.1642 27.6322 18.7774 28.2541 19.8139 28.2627C20.5395 28.2713 21.2564 28.2627 21.9819 28.2627C23.1221 28.2627 23.718 27.6667 23.718 26.5352C23.7094 25.4469 23.7094 24.3672 23.7094 23.2443Z" fill="#848484"/>
<path d="M23.7091 23.2417C23.7091 24.3645 23.7091 25.4442 23.7091 26.5153C23.7091 27.6468 23.1131 28.2428 21.9729 28.2428C21.2474 28.2428 20.5305 28.2514 19.8049 28.2428C18.7684 28.2341 18.1638 27.6122 18.1552 26.5844C18.1552 25.5911 18.1552 24.6064 18.1552 23.6131C18.1552 23.5008 18.1552 23.3799 18.1552 23.233C17.9824 23.233 17.8442 23.233 17.706 23.233C16.73 23.233 15.7453 23.233 14.7693 23.233C13.7846 23.233 13.1714 22.6198 13.1627 21.6437C13.1541 20.8577 13.1541 20.0717 13.1627 19.2857C13.1714 18.3269 13.776 17.705 14.7347 17.6964C15.7453 17.6878 16.7559 17.6964 17.7751 17.6964C17.8874 17.6964 18.0083 17.6964 18.1552 17.6964C18.1552 17.5496 18.1552 17.4286 18.1552 17.3164C18.1552 16.3144 18.1552 15.3125 18.1552 14.3105C18.1552 13.3258 18.7944 12.6953 19.779 12.6953C20.5564 12.6953 21.3338 12.6953 22.1025 12.6953C23.0613 12.6953 23.6918 13.3345 23.7004 14.3019C23.7091 15.3038 23.7004 16.3058 23.7004 17.3077C23.7004 17.42 23.7004 17.5409 23.7004 17.6791C23.8473 17.6878 23.9596 17.6964 24.0718 17.6964C25.0652 17.6964 26.0498 17.6964 27.0431 17.6964C28.0883 17.705 28.6929 18.301 28.6929 19.3375C28.6929 20.1149 28.7015 20.8923 28.6929 21.661C28.6843 22.5938 28.0624 23.2157 27.1295 23.2244C26.1189 23.233 25.1083 23.2244 24.0891 23.2244C23.9855 23.2417 23.8645 23.2417 23.7091 23.2417ZM18.993 16.133C18.993 16.7376 18.993 17.3423 18.993 17.9383C18.993 18.3874 18.8635 18.517 18.4229 18.517C17.231 18.517 16.0304 18.517 14.8384 18.517C14.2424 18.517 13.9919 18.7588 13.9919 19.3634C13.9833 20.089 13.9919 20.8059 13.9919 21.5314C13.9919 22.1965 14.2165 22.4125 14.8902 22.4125C16.039 22.4125 17.1964 22.4125 18.3452 22.4125C18.8807 22.4125 18.993 22.5247 18.993 23.0516C18.993 24.2263 18.993 25.401 18.993 26.5757C18.993 27.1717 19.2349 27.4308 19.8309 27.4308C20.565 27.4308 21.2992 27.4308 22.0248 27.4308C22.638 27.4308 22.8799 27.1803 22.8799 26.5584C22.8799 25.3924 22.8799 24.235 22.8799 23.0689C22.8799 22.5161 22.9835 22.4211 23.545 22.4211C24.711 22.4211 25.8684 22.4211 27.0345 22.4211C27.6478 22.4211 27.881 22.1879 27.881 21.5833C27.8896 20.8491 27.881 20.1149 27.881 19.3893C27.881 18.7675 27.6391 18.5342 27.0172 18.5342C25.8339 18.5342 24.6506 18.5342 23.4672 18.5342C23.0008 18.5342 22.8799 18.4133 22.8799 17.9383C22.8799 16.7204 22.8799 15.5025 22.8799 14.2846C22.8799 13.8009 22.6208 13.5418 22.1457 13.5418C21.351 13.5331 20.5478 13.5331 19.7531 13.5418C19.2521 13.5418 19.0017 13.8009 19.0017 14.3019C18.9844 14.9065 18.993 15.5198 18.993 16.133Z" fill="white"/>
<path d="M18.9941 16.1376C18.9941 15.5243 18.9941 14.9111 18.9941 14.2978C18.9941 13.7969 19.2532 13.5377 19.7456 13.5377C20.5402 13.5291 21.3435 13.5291 22.1381 13.5377C22.6132 13.5377 22.8723 13.8055 22.8723 14.2806C22.881 15.4984 22.8723 16.7163 22.8723 17.9342C22.8723 18.4093 22.9933 18.5302 23.4597 18.5302C24.643 18.5302 25.8263 18.5302 27.0097 18.5302C27.6316 18.5302 27.8734 18.772 27.8734 19.3853C27.8734 20.1195 27.8821 20.8537 27.8734 21.5792C27.8734 22.1838 27.6316 22.417 27.0269 22.417C25.8609 22.417 24.7035 22.417 23.5374 22.417C22.976 22.417 22.8723 22.5207 22.8723 23.0649C22.8723 24.2309 22.8723 25.3883 22.8723 26.5544C22.8723 27.1763 22.6305 27.4268 22.0172 27.4268C21.283 27.4268 20.5488 27.4268 19.8233 27.4268C19.236 27.4268 18.9855 27.1676 18.9855 26.5717C18.9855 25.397 18.9855 24.2223 18.9855 23.0476C18.9855 22.5207 18.8732 22.4084 18.3377 22.4084C17.1889 22.4084 16.0315 22.4084 14.8827 22.4084C14.2089 22.4084 13.9844 22.1925 13.9844 21.5274C13.9844 20.8018 13.9844 20.0849 13.9844 19.3594C13.9844 18.7634 14.2349 18.5129 14.8308 18.5129C16.0228 18.5129 17.2234 18.5129 18.4154 18.5129C18.8645 18.5129 18.9855 18.3833 18.9855 17.9342C18.9941 17.3469 18.9941 16.7422 18.9941 16.1376Z" fill="#848484"/>
</svg>
