<svg width="16" height="24" viewBox="0 0 16 24" fill="none" xmlns="http://www.w3.org/2000/svg">
<path d="M0 11.9809C0 8.63129 0 5.2915 0 1.94192C0 0.864567 0.576667 0.169184 1.57825 0.0222721C2.18526 -0.0756683 2.681 0.159389 3.13626 0.531565C4.38065 1.56974 5.62503 2.59812 6.86942 3.6265C9.64147 5.91832 12.4034 8.21994 15.1754 10.5118C16.2681 11.4226 16.2782 12.5783 15.1856 13.4794C11.1792 16.7996 7.16281 20.11 3.18684 23.4498C1.95257 24.4879 0.546316 23.9003 0.171988 22.9797C0.0505848 22.676 0 22.3137 0 21.9807C0 18.6409 0 15.3109 0 11.9809Z" fill="white"/>
</svg>
