<svg width="16" height="24" viewBox="0 0 16 24" fill="none" xmlns="http://www.w3.org/2000/svg">
<path d="M16 11.9809C16 8.63129 16 5.2915 16 1.94192C16 0.864567 15.4233 0.169184 14.4218 0.0222721C13.8147 -0.0756683 13.319 0.159389 12.8637 0.531565C11.6194 1.56974 10.375 2.59812 9.13058 3.6265C6.35853 5.91832 3.5966 8.21994 0.824551 10.5118C-0.268082 11.4226 -0.278198 12.5783 0.814433 13.4794C4.82075 16.7996 8.83719 20.11 12.8132 23.4498C14.0474 24.4879 15.4537 23.9003 15.828 22.9797C15.9494 22.676 16 22.3137 16 21.9807C16 18.6409 16 15.3109 16 11.9809Z" fill="white"/>
</svg>
