<svg width="44" height="48" viewBox="0 0 44 48" fill="none" xmlns="http://www.w3.org/2000/svg">
<path d="M4.3173 8.11727C4.3173 7.37399 4.3173 6.70761 4.3173 6.04122C4.3173 4.69563 4.86238 4.14457 6.18071 4.14457C6.83987 4.14457 7.51171 4.14457 8.23426 4.14457C8.23426 3.41411 8.23426 2.72209 8.23426 2.03007C8.23426 0.748557 8.80469 0.18469 10.0596 0.18469C17.6147 0.18469 25.1824 0.18469 32.7374 0.171875C33.3839 0.171875 33.8909 0.364102 34.3473 0.838263C35.6276 2.17104 36.9332 3.47819 38.2389 4.77252C38.6572 5.19542 38.86 5.66958 38.8473 6.27189C38.8346 8.00194 38.8473 9.73198 38.8473 11.4492C38.8473 11.5902 38.8473 11.744 38.822 11.8849C38.7586 12.295 38.4924 12.5001 38.0994 12.5129C37.7065 12.5129 37.4149 12.3078 37.3642 11.9106C37.3135 11.5646 37.3262 11.2057 37.3262 10.8597C37.3262 9.43724 37.3262 8.01475 37.3262 6.52819C37.136 6.51538 36.9712 6.50256 36.8064 6.50256C35.8557 6.50256 34.905 6.50256 33.9543 6.50256C33.0416 6.48975 32.6233 6.05403 32.6233 5.14416C32.6233 4.02924 32.6233 2.91432 32.6233 1.76095C25.0049 1.76095 17.4245 1.76095 9.79343 1.76095C9.79343 2.52986 9.79343 3.3244 9.79343 4.15739C10.0089 4.15739 10.2117 4.15739 10.4146 4.15739C16.5245 4.15739 22.6218 4.15739 28.7317 4.14457C29.4416 4.14457 29.9993 4.36243 30.4937 4.88785C31.7486 6.195 33.0289 7.47652 34.3092 8.75803C34.7276 9.18093 34.943 9.65509 34.9177 10.2574C34.8923 10.7316 34.9177 11.2185 34.905 11.6927C34.8923 12.1925 34.6135 12.5129 34.1698 12.5257C33.7261 12.5385 33.4092 12.2053 33.3839 11.6927C33.3712 11.3082 33.3839 10.9238 33.3839 10.4753C33.1811 10.4753 33.0036 10.4753 32.8134 10.4753C31.8754 10.4753 30.95 10.4753 30.012 10.4753C29.0993 10.4753 28.681 10.0524 28.6683 9.12967C28.6556 8.18135 28.6683 7.24584 28.6683 6.29752C28.6683 6.11811 28.6683 5.95151 28.6683 5.74647C21.0372 5.74647 13.4695 5.74647 5.85113 5.74647C5.85113 6.54101 5.85113 7.30992 5.85113 8.15572C6.06662 8.15572 6.25677 8.15572 6.45958 8.15572C12.5822 8.15572 18.7048 8.16853 24.8147 8.1429C25.5119 8.1429 26.0443 8.34795 26.5387 8.86055C27.8063 10.1805 29.0993 11.4748 30.3923 12.7692C30.7979 13.1793 31.0007 13.6406 30.9881 14.2301C30.9754 15.1144 30.9881 15.9858 30.9881 16.9085C31.4444 16.7419 31.8627 16.5625 32.2937 16.4471C35.3233 15.6013 38.5051 16.9085 40.1149 19.6253C41.7121 22.3421 41.3319 25.7894 39.1516 28.0833C38.9107 28.3396 38.8093 28.5831 38.822 28.9291C38.8346 31.9535 38.8346 34.9778 38.822 38.0022C38.822 39.3478 38.2896 39.8861 36.9586 39.8861C36.2994 39.8861 35.6402 39.8861 34.905 39.8861C34.905 40.6165 34.905 41.3085 34.905 42.0134C34.905 43.3205 34.3473 43.8716 33.0416 43.8716C32.3825 43.8716 31.7233 43.8716 30.9881 43.8716C30.9881 44.602 30.9881 45.2941 30.9881 45.9989C30.9881 47.242 30.4176 47.8315 29.2007 47.8315C20.1879 47.8315 11.1751 47.8315 2.16235 47.8315C0.94543 47.8315 0.375 47.242 0.375 45.9989C0.375 34.0039 0.375 22.0089 0.375 10.0139C0.375 8.74522 0.94543 8.16853 2.20038 8.16853C2.88489 8.11727 3.55673 8.11727 4.3173 8.11727ZM29.4796 46.2296C29.4796 45.9989 29.4796 45.8067 29.4796 45.6144C29.4796 42.244 29.4796 38.8608 29.4796 35.4905C29.4796 35.3367 29.4669 35.1701 29.4923 35.0163C29.543 34.6318 29.7585 34.4012 30.1261 34.3499C30.519 34.2986 30.8106 34.4781 30.9374 34.8625C30.9881 35.0419 31.0007 35.2342 31.0007 35.4264C31.0007 37.5153 31.0007 39.6169 31.0007 41.7058C31.0007 41.8724 31.0007 42.0518 31.0007 42.244C31.8247 42.244 32.5853 42.244 33.3965 42.244C33.3965 42.039 33.3965 41.8724 33.3965 41.693C33.3965 39.6169 33.3965 37.5409 33.3965 35.452C33.3965 35.3239 33.3839 35.1957 33.3965 35.0676C33.4473 34.6062 33.7515 34.3115 34.1698 34.3243C34.5881 34.3371 34.8797 34.6318 34.905 35.106C34.9177 35.5417 34.905 35.9646 34.905 36.4003C34.905 37.0155 34.905 37.6306 34.905 38.2457C35.7416 38.2457 36.5022 38.2457 37.2755 38.2457C37.2755 35.311 37.2755 32.4148 37.2755 29.4545C37.06 29.5442 36.8825 29.6211 36.7177 29.698C33.8529 30.8514 30.5698 29.9543 28.6683 27.4682C26.7669 25.0077 26.6401 21.4835 28.5669 19.0614C29.3148 18.1131 29.581 17.2032 29.4923 16.0755C29.4416 15.5244 29.4796 14.9734 29.4796 14.3839C28.3641 14.3839 27.3246 14.3839 26.2725 14.3839C25.1063 14.3839 24.7514 14.0251 24.7514 12.8333C24.7514 11.7824 24.7514 10.7316 24.7514 9.66791C17.1076 9.66791 9.51455 9.66791 1.93417 9.66791C1.93417 21.8679 1.93417 34.0295 1.93417 46.1783C3.16377 46.1783 4.35533 46.1783 5.58493 46.1783C5.58493 45.9733 5.58493 45.7938 5.58493 45.6272C5.58493 43.5512 5.58493 41.4751 5.58493 39.3863C5.58493 38.6302 5.83845 38.3739 6.58635 38.3739C7.73988 38.3739 8.89342 38.3739 10.047 38.3739C10.8202 38.3739 11.0737 38.6302 11.0737 39.4119C11.0737 41.5008 11.0737 43.6025 11.0737 45.6913C11.0737 45.8579 11.0737 46.0245 11.0737 46.1911C11.7329 46.1911 12.316 46.1911 12.9498 46.1911C12.9498 45.9861 12.9498 45.7938 12.9498 45.6144C12.9498 41.8852 12.9498 38.156 12.9498 34.4396C12.9498 33.6707 13.178 33.44 13.9386 33.44C15.0667 33.44 16.1822 33.44 17.3104 33.44C18.2358 33.44 18.4259 33.6323 18.4259 34.555C18.4259 38.2457 18.4259 41.9493 18.4259 45.6401C18.4259 45.8323 18.4259 46.0117 18.4259 46.1911C19.0851 46.1911 19.6809 46.1911 20.302 46.1911C20.302 45.9733 20.302 45.781 20.302 45.5888C20.302 42.4235 20.302 39.2581 20.302 36.0928C20.302 35.3751 20.5682 35.106 21.2654 35.0932C22.3936 35.0932 23.5091 35.0932 24.6373 35.0932C25.5753 35.0932 25.7908 35.2982 25.7908 36.2337C25.7908 39.3863 25.7908 42.5388 25.7908 45.6913C25.7908 45.8579 25.7908 46.0245 25.7908 46.2167C27.0458 46.2296 28.2247 46.2296 29.4796 46.2296ZM39.5952 23.1751C39.5825 20.1379 37.136 17.6774 34.1571 17.6902C31.1655 17.703 28.7317 20.1763 28.7444 23.2007C28.7444 26.2251 31.1909 28.6856 34.1825 28.6856C37.1614 28.6728 39.5952 26.1995 39.5952 23.1751ZM16.8794 46.2296C16.8794 42.4747 16.8794 38.7711 16.8794 35.0291C16.0682 35.0291 15.2949 35.0291 14.509 35.0291C14.509 38.7711 14.509 42.4875 14.509 46.2296C15.2949 46.2296 16.0682 46.2296 16.8794 46.2296ZM21.8485 46.2296C22.6598 46.2296 23.4457 46.2296 24.2443 46.2296C24.2443 43.0386 24.2443 39.8732 24.2443 36.6823C23.433 36.6823 22.6471 36.6823 21.8485 36.6823C21.8485 39.8604 21.8485 43.013 21.8485 46.2296ZM9.52723 46.2296C9.52723 44.1151 9.52723 42.0518 9.52723 39.9758C8.70327 39.9758 7.93003 39.9758 7.1441 39.9758C7.1441 42.0774 7.1441 44.1535 7.1441 46.2296C7.9427 46.2296 8.71595 46.2296 9.52723 46.2296ZM34.1825 2.97839C34.1825 3.60634 34.1825 4.25991 34.1825 4.91348C34.8543 4.91348 35.5008 4.91348 36.1093 4.91348C35.4628 4.27273 34.8163 3.61915 34.1825 2.97839ZM30.2402 8.87337C30.9247 8.87337 31.5712 8.87337 32.1416 8.87337C31.5205 8.24543 30.8867 7.57904 30.2402 6.92546C30.2402 7.55341 30.2402 8.19417 30.2402 8.87337ZM28.25 12.8461C27.5908 12.1797 26.9444 11.5261 26.3105 10.8982C26.3105 11.5133 26.3105 12.1669 26.3105 12.8461C26.9824 12.8461 27.6162 12.8461 28.25 12.8461Z" fill="white"/>
<path d="M20.1473 20.8379C18.5248 20.8379 16.8896 20.8379 15.267 20.8379C14.8994 20.8379 14.5698 20.7097 14.4938 20.3381C14.443 20.0946 14.5064 19.7358 14.6585 19.5692C14.8233 19.3898 15.1656 19.3129 15.4318 19.3129C16.8135 19.2873 18.1825 19.3001 19.5642 19.3001C21.3009 19.3001 23.0375 19.3001 24.7868 19.3001C24.9643 19.3001 25.1418 19.3001 25.3066 19.3257C25.7249 19.3898 25.9404 19.6717 25.9531 20.0818C25.9657 20.4791 25.6615 20.7995 25.2305 20.8123C24.6981 20.8379 24.153 20.8251 23.6206 20.8251C22.4544 20.8379 21.3009 20.8379 20.1473 20.8379Z" fill="white"/>
<path d="M20.2201 15.4198C21.7539 15.4198 23.2877 15.4198 24.8216 15.4198C24.9737 15.4198 25.1385 15.4198 25.2906 15.4326C25.6962 15.4838 25.9117 15.753 25.9371 16.1374C25.9624 16.509 25.7723 16.791 25.4047 16.8935C25.2272 16.9448 25.0244 16.9448 24.8469 16.9448C21.7412 16.9448 18.6482 16.9448 15.5426 16.9448C15.4792 16.9448 15.4158 16.9448 15.3524 16.9448C14.7693 16.9319 14.4017 16.6244 14.4144 16.163C14.4271 15.6889 14.7693 15.4198 15.3778 15.4198C16.9877 15.4069 18.5975 15.4198 20.2201 15.4198Z" fill="white"/>
<path d="M11.4648 31.8745C9.85492 31.8745 8.24504 31.8745 6.62248 31.8745C6.0267 31.8745 5.68444 31.5156 5.7605 31.003C5.8112 30.5929 6.11543 30.3623 6.62248 30.3494C7.34503 30.3366 8.08025 30.3494 8.80279 30.3494C11.2493 30.3494 13.7085 30.3494 16.155 30.3494C16.3071 30.3494 16.4719 30.3494 16.624 30.3751C17.0423 30.452 17.2959 30.7852 17.2578 31.1952C17.2071 31.6181 16.9663 31.8616 16.5353 31.8745C15.9649 31.9001 15.3944 31.8873 14.824 31.8873C13.7085 31.8744 12.593 31.8745 11.4648 31.8745Z" fill="white"/>
<path d="M11.5387 26.4297C13.0725 26.4297 14.6063 26.4297 16.1402 26.4297C16.3176 26.4297 16.4951 26.4297 16.6599 26.4553C17.0275 26.5322 17.243 26.7757 17.2557 27.1473C17.2683 27.5574 17.0782 27.8265 16.6852 27.9162C16.5205 27.9547 16.343 27.9547 16.1655 27.9547C13.0472 27.9547 9.94149 27.9547 6.82314 27.9547C6.67103 27.9547 6.50624 27.9547 6.35412 27.9291C5.96116 27.8522 5.74567 27.5831 5.75834 27.1858C5.75834 26.7757 5.97384 26.5322 6.37948 26.4553C6.54427 26.4297 6.72173 26.4297 6.8992 26.4297C8.4457 26.4297 9.9922 26.4297 11.5387 26.4297Z" fill="white"/>
<path d="M41.9007 30.6033L38.6448 27.3117M38.6448 27.3117C39.2018 26.7487 39.6435 26.0803 39.9449 25.3446C40.2464 24.609 40.4015 23.8205 40.4015 23.0243C40.4015 22.228 40.2464 21.4396 39.9449 20.7039C39.6435 19.9683 39.2018 19.2999 38.6448 18.7369C38.0879 18.1738 37.4267 17.7272 36.6991 17.4225C35.9714 17.1178 35.1915 16.9609 34.4039 16.9609C33.6162 16.9609 32.8363 17.1178 32.1087 17.4225C31.381 17.7272 30.7198 18.1738 30.1629 18.7369C29.0381 19.874 28.4062 21.4162 28.4062 23.0243C28.4063 24.6324 29.0381 26.1746 30.1629 27.3117C31.2877 28.4488 32.8132 29.0876 34.4039 29.0876C35.9945 29.0876 37.5201 28.4488 38.6448 27.3117Z" stroke="white" stroke-width="2.5" stroke-linecap="round" stroke-linejoin="round"/>
</svg>
