<svg width="35" height="52" viewBox="0 0 35 52" fill="none" xmlns="http://www.w3.org/2000/svg">
<path d="M8.60048 6.51806C8.62709 6.16836 8.61379 5.89937 8.667 5.63037C8.86656 4.48713 9.79785 3.66669 10.9686 3.63979C12.0329 3.61289 13.0973 3.62634 14.1616 3.63979C14.4277 3.63979 14.5607 3.57254 14.6538 3.29009C15.1062 1.87785 16.2902 0.990161 17.7005 0.976711C19.1107 0.963261 20.3347 1.8644 20.787 3.30354C20.8801 3.59944 21.0132 3.65324 21.2793 3.65324C22.2371 3.63979 23.2083 3.65324 24.1662 3.65324C25.7893 3.65324 26.7605 4.62163 26.8004 6.27596C26.8004 6.35666 26.8137 6.43736 26.8137 6.58531C26.9867 6.59876 27.1596 6.61221 27.3459 6.61221C28.5034 6.61221 29.6741 6.61221 30.8316 6.61221C32.9735 6.62566 34.4636 8.13205 34.4636 10.2975C34.4636 22.4158 34.4636 34.5342 34.4636 46.6525C34.4636 47.0964 34.5434 47.5536 34.4769 47.9975C34.2374 49.6922 32.8538 50.9296 31.1775 50.9968C30.9114 51.0103 30.6453 50.9968 30.3792 50.9968C21.7848 50.9968 13.1904 50.9968 4.58266 50.9968C2.82652 50.9968 1.48281 50.0284 1.07038 48.4548C0.963953 48.0782 0.924041 47.6612 0.924041 47.2578C0.910736 34.9242 0.910736 22.5772 0.924041 10.2437C0.924041 8.0379 2.40079 6.54496 4.56935 6.53151C5.87315 6.51806 7.21686 6.51806 8.60048 6.51806ZM29.7539 11.3331C21.705 11.3331 13.6826 11.3331 5.66029 11.3331C5.66029 22.9942 5.66029 34.6283 5.66029 46.2625C13.7092 46.2625 21.7183 46.2625 29.7539 46.2625C29.7539 34.6014 29.7539 22.9807 29.7539 11.3331ZM26.8137 10.1092C27.918 10.1092 28.9823 10.1092 30.0333 10.1092C30.805 10.1092 30.9513 10.2571 30.9513 11.0507C30.9513 22.8731 30.9513 34.6821 30.9513 46.5046C30.9513 47.3384 30.8183 47.4729 30.0067 47.4729C21.8247 47.4729 13.6427 47.4729 5.46072 47.4729C4.56935 47.4729 4.46292 47.3519 4.46292 46.4642C4.46292 34.6821 4.46292 22.9 4.46292 11.1179C4.46292 11.0507 4.46292 10.9834 4.46292 10.9162C4.47622 10.3109 4.64918 10.1226 5.27447 10.1226C6.21906 10.1226 7.16364 10.1226 8.10823 10.1226C8.26788 10.1226 8.42753 10.1092 8.60048 10.0957C8.60048 9.28874 8.60048 8.52209 8.60048 7.72855C8.41423 7.7151 8.25458 7.70165 8.09493 7.70165C6.96408 7.70165 5.83324 7.75545 4.7157 7.6882C3.18573 7.6075 2.05489 8.75074 2.05489 10.3647C2.0948 22.631 2.06819 34.8973 2.06819 47.1771C2.06819 48.939 2.93295 49.8132 4.66248 49.8132C11.86 49.8132 19.0708 49.8132 26.2683 49.8132C27.8781 49.8132 29.4879 49.8267 31.0976 49.8132C32.1354 49.7998 33.04 49.0869 33.2662 48.0782C33.346 47.7419 33.2662 47.3788 33.2662 47.0425C33.2662 34.9242 33.2662 22.8059 33.2662 10.6875C33.2662 10.4723 33.2662 10.2571 33.2662 10.0285C33.213 8.79109 32.2418 7.8227 31.0045 7.80925C29.7273 7.7958 28.4501 7.80925 27.1729 7.80925C27.0665 7.80925 26.9468 7.8227 26.8137 7.83615C26.8137 8.57589 26.8137 9.30219 26.8137 10.1092ZM9.87767 9.98813C15.1195 9.98813 20.348 9.98813 25.6164 9.98813C25.6164 8.65659 25.643 7.3654 25.6031 6.07422C25.5898 5.29412 25.0576 4.80993 24.286 4.79648C23.2749 4.78303 22.2638 4.79648 21.2526 4.78303C20.9999 4.78303 20.8801 4.85028 20.787 5.10582C20.2948 6.59876 19.124 7.473 17.6872 7.45955C16.2769 7.45955 15.0929 6.55841 14.6272 5.11927C14.5474 4.86373 14.4277 4.76958 14.1749 4.78303C13.1638 4.79648 12.1527 4.76958 11.1416 4.79648C10.2901 4.80993 9.81115 5.28067 9.79785 6.15491C9.78454 7.3923 9.82446 8.64314 9.83776 9.88053C9.82446 9.90743 9.85106 9.93433 9.87767 9.98813ZM19.7227 4.19123C19.7493 3.10179 18.8712 2.17375 17.767 2.14685C16.6894 2.11995 15.7182 2.98074 15.6915 4.01638C15.6516 5.28067 16.4765 6.23561 17.6472 6.27596C18.8047 6.31631 19.6828 5.42862 19.7227 4.19123Z" fill="#363636" stroke="#363636" stroke-width="0.3"/>
<path d="M15.8902 17.3732C15.8902 16.4452 15.8902 15.5978 15.8902 14.7505C15.8902 14.1318 16.0765 13.9435 16.6885 13.9435C17.3803 13.9435 18.0854 13.93 18.7772 13.9435C19.2961 13.9569 19.4956 14.1452 19.4956 14.6832C19.5089 15.5575 19.4956 16.4183 19.4956 17.3866C20.214 17.3866 20.9058 17.3866 21.5844 17.3866C22.8881 17.3866 22.8882 17.3866 22.8882 18.6913C22.8882 19.162 22.8882 19.6328 22.8882 20.1035C22.8882 20.9374 22.7551 21.0719 21.9436 21.0719C21.1453 21.0719 20.3604 21.0719 19.4823 21.0719C19.4823 21.9058 19.4823 22.6993 19.4823 23.5063C19.4823 24.4075 19.3759 24.5151 18.4845 24.5151C17.8592 24.5151 17.2206 24.5285 16.5953 24.5151C16.0765 24.5016 15.8769 24.3133 15.8769 23.7753C15.8636 22.9011 15.8769 22.0403 15.8769 21.0719C15.1585 21.0719 14.4667 21.0719 13.7882 21.0719C12.4844 21.0719 12.4844 21.0719 12.4844 19.7673C12.4844 19.2696 12.4844 18.7585 12.4844 18.2609C12.4844 17.548 12.644 17.3866 13.3757 17.3866C14.2006 17.3732 15.0121 17.3732 15.8902 17.3732ZM13.6684 18.5568C13.6684 19.0275 13.6684 19.4445 13.6684 19.8749C14.48 19.8749 15.2649 19.8749 16.0366 19.8749C16.9279 19.8749 17.0211 19.9825 17.0211 20.8971C17.0211 21.6772 17.0211 22.4707 17.0211 23.2777C17.4867 23.2777 17.8858 23.2777 18.3515 23.2777C18.3515 22.4169 18.3515 21.583 18.3515 20.7491C18.3515 20.0228 18.5111 19.8749 19.2428 19.8749C20.0677 19.8749 20.8925 19.8749 21.7174 19.8749C21.7174 19.4041 21.7174 18.9872 21.7174 18.5568C20.8792 18.5568 20.0943 18.5568 19.2961 18.5568C18.4845 18.5568 18.3515 18.4223 18.3515 17.5884C18.3515 16.7814 18.3515 15.9879 18.3515 15.154C17.8858 15.154 17.4867 15.154 17.0211 15.154C17.0211 15.8265 17.0211 16.4855 17.0211 17.1311C17.0211 18.5568 17.0211 18.5568 15.6374 18.5568C15.0121 18.5568 14.3602 18.5568 13.6684 18.5568Z" fill="#363636" stroke="#363636" stroke-width="0.3"/>
<path d="M8.16431 31.8582C8.17761 30.0156 9.66767 28.4554 11.4371 28.415C11.8362 28.4016 12.1422 28.5226 12.1688 28.9665C12.1821 29.3834 11.9161 29.5314 11.5302 29.5717C10.1466 29.7331 9.30846 30.6477 9.33507 31.9524C9.36167 33.136 10.2131 34.064 11.3573 34.1716C12.568 34.2792 13.619 33.4857 13.8318 32.3155C13.8584 32.1676 13.8717 32.0196 13.8984 31.8717C13.9383 31.4951 14.1511 31.2799 14.5236 31.3068C14.8962 31.3337 15.0425 31.6027 15.0425 31.9793C15.0558 33.4453 13.9649 34.8441 12.4748 35.2476C10.2664 35.8259 8.1377 34.1581 8.16431 31.8582Z" fill="#363636" stroke="#363636" stroke-width="0.3"/>
<path d="M8.16412 40.9361C8.17743 39.1069 9.62757 37.5602 11.3837 37.4929C11.9026 37.4795 12.1686 37.6543 12.1686 38.0309C12.1686 38.4747 11.8893 38.6092 11.4901 38.6496C10.4524 38.7437 9.734 39.2952 9.42801 40.3308C9.16193 41.2051 9.45462 42.1869 10.1464 42.7384C10.8382 43.2898 11.6232 43.4243 12.4347 43.1015C13.233 42.7922 13.7119 42.1735 13.8583 41.3127C13.8849 41.1782 13.8982 41.0437 13.9115 40.9092C13.9647 40.546 14.1776 40.3577 14.5235 40.3846C14.8694 40.4115 15.029 40.6402 15.0556 40.9899C15.1221 42.4425 14.0046 43.9085 12.5012 44.312C10.2795 44.8903 8.15082 43.236 8.16412 40.9361Z" fill="#363636" stroke="#363636" stroke-width="0.3"/>
<path d="M21.9819 40.4279C20.4786 40.4279 18.9619 40.4279 17.4586 40.4279C17.0461 40.4279 16.7135 40.3473 16.6736 39.8631C16.647 39.473 16.9264 39.2578 17.4586 39.2578C20.4387 39.2578 23.4321 39.2578 26.4122 39.2578C27.0109 39.2578 27.3302 39.5672 27.1971 39.9976C27.0907 40.3473 26.8246 40.4279 26.492 40.4279C25.002 40.4279 23.4853 40.4279 21.9819 40.4279Z" fill="#363636" stroke="#363636" stroke-width="0.3"/>
<path d="M21.9857 31.3628C20.4424 31.3628 18.8991 31.3628 17.3559 31.3628C17.0233 31.3628 16.7173 31.2687 16.704 30.9055C16.6907 30.7038 16.837 30.4348 16.9967 30.2868C17.1031 30.1792 17.3426 30.2061 17.5155 30.2061C18.4734 30.2061 19.4446 30.2061 20.4025 30.2061C22.3449 30.2061 24.2873 30.2061 26.2297 30.2061C26.3627 30.2061 26.4958 30.2061 26.6288 30.2061C27.0013 30.2196 27.2408 30.4213 27.2408 30.7845C27.2408 31.1476 27.0013 31.3494 26.6155 31.3628C25.5246 31.3628 24.4203 31.3628 23.3294 31.3628C22.877 31.3628 22.438 31.3628 21.9857 31.3628Z" fill="#363636" stroke="#363636" stroke-width="0.3"/>
<path d="M19.973 33.5642C19.1216 33.5642 18.2834 33.5642 17.432 33.5642C17.0195 33.5642 16.7002 33.4566 16.6736 32.9724C16.647 32.5958 16.9264 32.3672 17.4186 32.3672C19.1083 32.3672 20.7979 32.3672 22.4875 32.3672C23.033 32.3672 23.299 32.5824 23.2724 32.9859C23.2325 33.4701 22.8999 33.5642 22.5008 33.5642C21.6626 33.5642 20.8245 33.5642 19.973 33.5642Z" fill="#363636" stroke="#363636" stroke-width="0.3"/>
<path d="M11.382 40.5707C12.2202 39.7099 13.0317 38.8894 13.83 38.0825C13.9364 37.9749 14.0428 37.8673 14.1493 37.7731C14.4021 37.5714 14.6814 37.5714 14.9076 37.8C15.1604 38.0556 15.1737 38.3649 14.9342 38.607C13.8832 39.6964 12.8056 40.7724 11.7279 41.8484C11.4752 42.0905 11.1426 42.0905 10.9297 41.8081C10.5971 41.3642 9.81215 41.1625 10.0649 40.3824C10.1714 40.0461 10.6104 39.9654 10.9031 40.1806C11.076 40.2748 11.2091 40.4093 11.382 40.5707Z" fill="#363636" stroke="#363636" stroke-width="0.3"/>
<path d="M19.9864 41.4462C20.8379 41.4462 21.676 41.4462 22.5275 41.4462C22.9266 41.4462 23.2592 41.5538 23.2858 42.038C23.2991 42.4281 23.0463 42.6298 22.5275 42.6298C20.8246 42.6298 19.1083 42.6298 17.4054 42.6298C16.9132 42.6298 16.6471 42.4012 16.6737 42.0111C16.7136 41.5673 17.0196 41.4328 17.4054 41.4462C18.2702 41.4462 19.1349 41.4462 19.9864 41.4462Z" fill="#363636" stroke="#363636" stroke-width="0.3"/>
<path d="M11.3957 31.4386C12.2339 30.5913 13.0321 29.7708 13.8437 28.9504C13.9368 28.8563 14.0299 28.7621 14.1231 28.668C14.3891 28.4393 14.6685 28.4124 14.9213 28.6545C15.1741 28.8966 15.1874 29.2059 14.9479 29.4615C13.8836 30.5509 12.8193 31.6269 11.7416 32.7029C11.6618 32.7836 11.5155 32.8509 11.3824 32.8643C11.0099 32.9047 9.97219 31.869 10.0254 31.4924C10.052 31.3176 10.1718 31.0889 10.3181 31.0217C10.4778 30.9544 10.7305 30.9948 10.9168 31.062C11.0897 31.1024 11.2095 31.2638 11.3957 31.4386Z" fill="#363636" stroke="#363636" stroke-width="0.3"/>
</svg>
