<svg width="50" height="50" viewBox="0 0 50 50" fill="none" xmlns="http://www.w3.org/2000/svg">
<path d="M7.89829 25.3072C8.43969 23.5537 9.41938 22.2866 10.9791 21.4163C10.8502 21.3139 10.7342 21.2115 10.6182 21.1219C8.77485 19.714 8.02719 17.3717 8.73618 15.2215C9.45805 13.0328 11.4432 11.5481 13.7764 11.4969C14.0213 11.4969 14.176 11.4457 14.3178 11.2153C14.8721 10.3578 15.6842 9.94818 16.7155 9.94818C21.5108 9.94818 26.3061 9.94818 31.0885 9.94818C31.2561 9.94818 31.4237 9.94818 31.6944 9.94818C30.4827 8.61707 29.9284 7.15796 30.1346 5.45567C30.3022 4.06055 30.9467 2.92142 32.0295 2.01268C34.0534 0.297587 37.044 0.335984 39.0549 2.08948C40.2537 3.13901 40.8596 4.47013 40.8983 6.05723C40.9241 7.61873 40.2924 8.92425 39.2612 9.97378C40.0862 10.3706 40.937 10.6649 41.6717 11.1513C43.6311 12.444 44.6752 14.3255 44.7526 16.655C44.8041 18.3957 44.7784 20.1363 44.7655 21.877C44.7526 23.3361 43.5795 24.4753 42.1229 24.5137C41.7362 24.5265 41.3623 24.5137 40.9112 24.5137C40.9112 25.3456 40.9112 26.1392 40.9112 26.9327C40.9112 27.3423 40.9627 27.7775 40.8983 28.1742C40.7694 28.9422 41.1174 29.4158 41.7491 29.7358C41.9038 29.8125 42.0713 29.8893 42.2389 29.8765C44.6495 29.7485 46.2866 32.2316 45.1909 34.3307C45.178 34.3563 45.178 34.3947 45.178 34.4459C45.4873 34.4715 45.8096 34.4843 46.1061 34.5483C47.6788 34.8554 48.7487 36.2505 48.6069 37.812C48.478 39.3863 47.1631 40.6023 45.5389 40.6151C41.633 40.6279 37.7272 40.6151 33.8213 40.6151C33.628 40.6151 33.4346 40.6151 33.2155 40.6151C33.2155 41.639 33.2155 42.6373 33.2155 43.6869C33.6409 43.6869 34.0534 43.6869 34.4659 43.6869C37.1342 43.6869 38.8229 45.5684 38.5522 48.2562C29.3225 48.2562 20.0799 48.2562 10.8245 48.2562C10.6698 46.7843 11.0565 45.5428 12.2038 44.5572C13.351 43.5717 14.7561 43.6485 16.1741 43.6869C16.1741 42.6501 16.1741 41.6646 16.1741 40.7175C15.1815 40.5895 14.176 40.5383 13.2221 40.3207C10.6569 39.7319 8.5686 38.3368 7.1893 36.1098C5.1268 32.782 3.15454 29.403 1.18227 26.0112C0.331489 24.5521 0.860005 22.7218 2.29086 21.877C3.7475 21.0323 5.55219 21.4547 6.48032 22.8882C6.94438 23.6433 7.38266 24.4241 7.89829 25.3072ZM30.3022 39.0664C35.2522 39.0664 40.2022 39.0664 45.1651 39.0664C45.3198 39.0664 45.4873 39.0792 45.642 39.0536C46.6862 38.9512 47.3178 37.94 46.9569 36.9929C46.712 36.3657 46.1319 36.033 45.2811 36.033C35.4455 36.033 25.5971 36.033 15.7616 36.033C13.5444 36.033 11.8815 35.0858 10.76 33.1915C10.2057 32.2572 9.65141 31.3229 9.09711 30.3885C7.80805 28.2126 6.51899 26.0368 5.22993 23.8737C4.84321 23.2082 4.21157 22.901 3.59282 23.0418C2.49711 23.2722 2.03305 24.3857 2.62602 25.384C4.41782 28.4174 6.23539 31.4252 7.98852 34.4587C9.79321 37.5689 12.4745 39.0664 16.0709 39.0536C20.8147 39.0536 25.5584 39.0664 30.3022 39.0664ZM40.9112 20.7123C40.692 20.7123 40.5245 20.7123 40.344 20.7123C38.3846 20.7123 36.4252 20.7123 34.453 20.7123C33.7182 20.7123 33.2026 21.1987 33.2026 21.8386C33.2026 22.4786 33.7182 22.965 34.4401 22.9778C36.9538 22.9906 39.4545 22.9906 41.9682 22.9778C42.7288 22.9778 43.1928 22.5042 43.1928 21.7362C43.2057 20.2131 43.2057 18.7028 43.1928 17.1797C43.1928 16.7702 43.1799 16.3478 43.1026 15.9382C42.7287 13.9927 41.5815 12.6616 39.7123 11.8553C39.2225 13.7879 38.7455 15.6566 38.2428 17.6277C37.3018 16.6678 36.4252 15.7846 35.4842 14.8119C34.5432 15.759 33.6666 16.6422 32.7385 17.5765C32.2229 15.5158 31.7073 13.5192 31.2045 11.4969C31.0627 11.4969 30.9467 11.4969 30.8436 11.4969C26.1643 11.4969 21.485 11.4969 16.8057 11.4969C16.7155 11.4969 16.6123 11.4969 16.5221 11.5097C15.9163 11.5865 15.4651 12.0473 15.4651 12.6232C15.4651 13.1864 15.9034 13.6728 16.5092 13.7495C16.6639 13.7751 16.8315 13.7623 16.9862 13.7623C20.5053 13.7623 24.0245 13.7623 27.5565 13.7623C27.7756 13.7623 28.0077 13.7495 28.2268 13.8007C29.3354 14.0183 30.1217 14.9527 30.1217 16.079C30.1346 17.3333 30.1217 18.5876 30.1217 19.8932C30.8049 19.8932 31.4495 19.906 32.0811 19.8804C32.2873 19.8676 32.5194 19.7908 32.687 19.6756C33.2026 19.3172 33.7569 19.1124 34.4014 19.1252C35.5229 19.138 36.6573 19.1252 37.7788 19.1252C38.2944 19.1252 38.7971 19.1252 39.3643 19.1252C39.3643 18.0757 39.3643 17.0773 39.3643 16.0918C39.9186 16.0918 40.4084 16.0918 40.9112 16.0918C40.9112 17.6405 40.9112 19.138 40.9112 20.7123ZM22.0264 30.6573C21.3819 29.6974 20.7631 28.7502 20.1057 27.8159C19.951 27.5983 19.719 27.4063 19.4741 27.2783C18.4041 26.6895 17.8112 25.8192 17.7338 24.5905C17.7209 24.3857 17.6436 24.1425 17.5147 23.9889C16.3288 22.5682 14.7948 21.9666 12.9643 22.325C11.2112 22.6834 10.0252 23.7713 9.47094 25.4736C9.21313 26.28 9.04555 27.1631 9.48383 27.9439C10.3733 29.531 11.3143 31.0925 12.2682 32.654C13.003 33.8443 14.1116 34.4459 15.5166 34.4843C16.5995 34.5099 17.6694 34.4971 18.7522 34.4843C19.5385 34.4843 20.067 33.9979 20.0541 33.3195C20.0413 32.654 19.5256 32.206 18.7522 32.1932C17.9916 32.1932 17.244 32.206 16.4834 32.1804C15.594 32.1548 14.8334 31.8092 14.3436 31.0797C13.6862 30.0813 13.0803 29.0446 12.4358 27.9823C12.887 27.7135 13.3123 27.4575 13.7635 27.1887C13.8538 27.3423 13.944 27.4703 14.0342 27.5983C14.5112 28.3918 15.001 29.1854 15.4651 29.9789C15.7358 30.4397 16.1225 30.6573 16.651 30.6445C17.3858 30.6317 18.1334 30.6445 18.8682 30.6445C19.5901 30.6445 20.2217 30.9005 20.7502 31.3868C20.8405 31.4636 20.9307 31.5404 21.0338 31.63C21.369 31.3101 21.6784 31.0157 22.0264 30.6573ZM21.5108 34.4587C21.6655 34.4587 21.8202 34.4587 21.9877 34.4587C28.6909 34.4587 35.394 34.4587 42.11 34.4587C42.226 34.4587 42.342 34.4587 42.4452 34.4587C43.4635 34.3819 44.1209 33.5243 43.8889 32.6156C43.6827 31.8604 43.1026 31.4636 42.1616 31.4636C36.4897 31.4636 30.8049 31.502 25.133 31.438C23.96 31.4252 23.1092 31.7068 22.3358 32.59C21.833 33.1403 21.5366 33.6907 21.5108 34.4587ZM22.8385 22.1586C23.7666 21.4931 24.7077 20.8147 25.6616 20.1747C25.8678 20.034 26.1514 19.9572 26.4092 19.9444C27.1053 19.9188 27.8143 19.9316 28.5491 19.9316C28.5491 18.6644 28.5491 17.4613 28.5491 16.2454C28.5491 15.6054 28.2655 15.3238 27.5952 15.3238C24.8752 15.3238 22.1553 15.3238 19.4483 15.3238C19.3323 15.3238 19.2291 15.3366 19.0745 15.3494C19.3967 16.5142 19.358 17.6405 18.9327 18.754C18.5073 19.8676 17.7596 20.7123 16.8186 21.3779C17.36 21.8002 17.8885 22.197 18.4041 22.5938C19.8737 21.1347 21.3948 21.1731 22.8385 22.1586ZM35.4842 2.30706C33.383 2.30706 31.6557 4.03495 31.6557 6.13402C31.6557 8.22029 33.3959 9.94818 35.4971 9.94818C37.6112 9.94818 39.3643 8.20749 39.3514 6.09563C39.3385 4.00936 37.5854 2.29426 35.4842 2.30706ZM31.6041 40.6663C26.9764 40.6663 22.4002 40.6663 17.7983 40.6663C17.7983 41.6646 17.7983 42.6501 17.7983 43.6357C22.4131 43.6357 27.0022 43.6357 31.6299 43.6357C31.6299 42.7397 31.6299 41.8822 31.6299 41.0247C31.617 40.9223 31.617 40.8071 31.6041 40.6663ZM13.8538 13.0328C13.6346 13.0584 13.3897 13.084 13.1577 13.1224C11.0307 13.5064 9.6643 15.5798 10.1413 17.7173C10.5924 19.778 12.758 21.0835 14.8334 20.5587C16.8959 20.0468 18.1463 17.9093 17.6049 15.8742C17.4889 15.4518 17.3084 15.3111 16.8444 15.3111C15.2846 15.3494 14.3952 14.6583 13.944 13.1864C13.9311 13.148 13.8924 13.1096 13.8538 13.0328ZM36.8248 46.7203C36.451 45.7476 35.6518 45.2484 34.5303 45.2484C27.969 45.2484 21.4205 45.2484 14.8592 45.2484C14.7432 45.2484 14.6401 45.2484 14.5241 45.2612C13.583 45.338 12.7838 45.9395 12.5905 46.7331C20.66 46.7203 28.7295 46.7203 36.8248 46.7203ZM21.7428 27.4703C22.2327 28.1998 22.7096 28.8654 23.1479 29.5694C23.3928 29.9661 23.6248 29.9405 23.96 29.7102C25.378 28.7502 26.8088 27.8031 28.2526 26.8687C28.4846 26.7151 28.562 26.5615 28.562 26.2928C28.5491 24.8081 28.562 23.3234 28.5491 21.8386C28.5491 21.7235 28.5233 21.5955 28.5233 21.4803C26.6799 21.3139 26.667 21.3267 25.2491 22.325C24.9913 22.5042 24.7463 22.7218 24.4627 22.8754C23.9342 23.1698 23.5604 23.5153 23.8955 24.1809C23.9342 24.2449 23.9084 24.3345 23.9084 24.4241C23.9084 25.9088 23.1479 26.8687 21.7428 27.4703ZM39.2096 29.8253C38.2428 29.1214 37.4049 28.443 36.5026 27.8671C35.0459 26.9455 33.4604 26.6767 31.7588 27.0095C29.7866 27.3935 28.4073 28.8014 26.7831 29.8125C30.8823 29.8253 34.9815 29.8253 39.2096 29.8253ZM39.3256 24.5393C39.1323 24.5393 38.9518 24.5393 38.7842 24.5393C37.3018 24.5393 35.8323 24.5521 34.3498 24.5393C33.0092 24.5265 31.9006 23.6049 31.6686 22.3122C31.617 22.0562 31.6299 21.7874 31.6041 21.5187C31.1014 21.5187 30.6245 21.5187 30.1475 21.5187C30.1475 22.965 30.1475 24.3729 30.1475 25.7424C30.9725 25.5888 31.7846 25.3584 32.6096 25.3072C34.6077 25.1664 36.4123 25.7552 38.0237 26.9455C38.4362 27.2527 38.8616 27.5599 39.3385 27.9183C39.3256 26.7407 39.3256 25.6656 39.3256 24.5393ZM20.8147 23.0034C19.9897 23.0162 19.2936 23.7329 19.3065 24.5521C19.3194 25.3584 20.0155 26.0368 20.8276 26.0368C21.6526 26.0368 22.3616 25.3328 22.3616 24.5137C22.3616 23.6945 21.6397 23.0034 20.8147 23.0034ZM34.4272 13.6984C33.9889 13.148 33.5248 12.5848 33.0737 12.0089C33.0479 12.0345 33.0092 12.0473 32.9834 12.0729C33.1897 12.8792 33.3959 13.6856 33.6022 14.5047C33.8858 14.2231 34.1436 13.9671 34.4272 13.6984ZM38.0366 12.0473C38.0108 12.0345 37.9721 12.0089 37.9463 11.9961C37.4823 12.572 37.0182 13.148 36.6315 13.6344C36.9022 13.9671 37.1342 14.2359 37.4049 14.5559C37.6241 13.6856 37.8303 12.8664 38.0366 12.0473ZM36.3092 11.5225C35.742 11.5225 35.2651 11.5225 34.6979 11.5225C34.9815 11.8809 35.2264 12.1752 35.4971 12.5208C35.7807 12.188 36.0256 11.8809 36.3092 11.5225Z" fill="white"/>
</svg>
