<svg width="63" height="56" viewBox="0 0 63 56" fill="none" xmlns="http://www.w3.org/2000/svg">
<path d="M12.1936 52.4199C12.7356 50.3726 13.8194 48.8974 15.8668 48.3253C16.4087 48.1748 16.9807 48.1146 17.5227 48.1146C20.2625 48.0844 22.9721 48.1146 25.8625 48.1146C25.8625 47.4522 25.8926 46.9103 25.8625 46.3683C25.7721 45.3146 26.2539 44.9232 27.2474 45.0135C27.6388 45.0436 28.0603 45.0135 28.542 45.0135C28.542 44.0199 28.542 43.1167 28.542 42.0629C26.8861 42.0629 25.2302 42.0328 23.6044 42.0629C22.5807 42.0931 22.1893 41.7017 22.2194 40.678C22.2797 39.2931 22.2194 37.9081 22.2194 36.4629C20.2625 36.4629 18.3958 36.4629 16.4388 36.4629C16.4388 37.9081 16.4388 39.2931 16.4388 40.6479C16.4388 42.1834 15.8668 42.7554 14.3313 42.7554C12.1635 42.7855 9.99579 42.7855 7.79794 42.7554C6.17213 42.7554 5.6302 42.1834 5.6302 40.5877C5.6302 39.2328 5.6302 37.878 5.6302 36.4629C5.35923 36.4027 5.11837 36.3425 4.87751 36.2823C3.49257 35.8608 2.52912 34.506 2.73988 33.2414C2.98074 31.7662 4.09472 30.7726 5.6302 30.7726C9.30332 30.7425 12.9764 30.7726 16.6496 30.7726C25.3506 30.7726 34.0517 30.7726 42.7528 30.7726C43.4754 30.7726 43.9571 30.592 44.4388 29.9597C45.8237 28.0931 47.6603 26.9791 50.099 27.1597C51.1829 27.25 52.2668 27.1597 53.3506 27.1597C56.0001 27.1597 56.9635 28.0027 57.2345 30.6522C57.5657 30.6823 57.927 30.7124 58.2883 30.7726C59.6732 31.0135 60.7571 32.278 60.6969 33.6027C60.6367 35.0178 59.4926 36.2221 58.0474 36.3124C57.385 36.3425 56.6926 36.4027 56.0302 36.2823C55.699 36.2221 55.428 35.7705 55.127 35.4995C55.428 35.2586 55.699 34.8974 56.0603 34.7769C56.4216 34.6565 56.8732 34.7468 57.2947 34.7468C58.499 34.7468 59.1012 34.3253 59.041 33.4823C58.9506 32.3984 58.1979 32.3081 57.3248 32.3081C50.1893 32.3081 43.084 32.3081 35.9485 32.3081C26.1334 32.3081 16.2883 32.3081 6.47321 32.3081C6.14203 32.3081 5.72052 32.1877 5.47966 32.3382C5.08826 32.5791 4.51622 33.0006 4.51622 33.3619C4.51622 33.7834 4.93773 34.3253 5.32912 34.6264C5.60009 34.8371 6.11192 34.7468 6.53343 34.7468C18.9377 34.7468 31.3721 34.7468 43.7764 34.7468C44.0775 34.7468 44.4087 34.6565 44.6797 34.7769C45.041 34.9275 45.342 35.2285 45.6732 35.4694C45.342 35.7705 45.041 36.2522 44.6797 36.2823C43.5958 36.4027 42.5119 36.3124 41.2474 36.3124C41.2474 37.7576 41.2474 39.1425 41.2474 40.4974C41.2474 41.8522 41.127 41.9425 39.742 41.9425C38.1764 41.9425 36.6108 41.9425 34.9549 41.9425C34.9549 42.9361 34.9549 43.8393 34.9549 44.7124C35.7979 44.8931 36.942 44.8328 37.3936 45.3447C37.8452 45.8565 37.6044 46.9705 37.6947 47.9941C38.5377 47.9941 39.3807 47.9941 40.2237 47.9941C42.0302 47.9941 43.8367 48.0844 45.613 47.964C48.5033 47.7834 50.5807 49.6199 51.2431 52.2694C52.0259 52.2694 52.8388 52.2694 53.6517 52.2694C55.6388 52.2694 57.6259 52.2393 59.613 52.2995C59.9743 52.3296 60.3356 52.8414 60.6969 53.1425C60.3356 53.3834 59.9743 53.8049 59.613 53.8651C58.5592 53.9554 57.5055 53.8952 56.4517 53.8952C39.1399 53.8952 21.7979 53.8952 4.48611 53.8952C3.82375 53.8952 2.80009 54.1361 2.80009 53.1425C2.80009 52.0586 3.82375 52.2995 4.54633 52.2995C7.07536 52.3898 9.60439 52.4199 12.1936 52.4199ZM49.4366 52.3597C49.0151 50.6737 47.8108 49.7103 46.0044 49.7103C43.084 49.6801 40.1635 49.6801 37.2431 49.7103C36.4001 49.7103 35.9786 49.3791 36.0087 48.506C36.0388 47.9038 36.0087 47.3318 36.0087 46.6694C33.1184 46.6694 30.3184 46.6694 27.4883 46.6694C27.4883 47.1511 27.4883 47.5726 27.4883 48.1146C27.9098 48.1146 28.3012 48.1146 28.6625 48.1146C30.0775 48.1146 31.5227 48.1146 32.9377 48.1146C33.5098 48.1146 34.1119 48.235 33.9915 48.8974C33.9313 49.2285 33.299 49.4694 32.9076 49.6801C32.6969 49.7705 32.3958 49.7103 32.1248 49.7103C27.2474 49.7103 22.37 49.7103 17.4926 49.7103C15.5958 49.7103 14.3313 50.7339 14.0302 52.3597C25.8323 52.3597 37.6345 52.3597 49.4366 52.3597ZM39.5915 36.6737C34.2926 36.6737 29.1141 36.6737 23.8754 36.6737C23.8754 37.9382 23.8754 39.1124 23.8754 40.3769C29.1442 40.3769 34.3227 40.3769 39.5915 40.3769C39.5915 39.1124 39.5915 37.9382 39.5915 36.6737ZM7.25601 41.0995C9.84525 41.0995 12.284 41.0995 14.7227 41.0995C14.7227 39.5038 14.7227 37.9984 14.7227 36.4931C12.1936 36.4931 9.72482 36.4931 7.25601 36.4931C7.25601 38.0586 7.25601 39.5339 7.25601 41.0995ZM55.5184 30.7726C55.6087 29.4479 55.1571 28.8758 53.9528 28.8457C52.3571 28.8156 50.7313 28.7554 49.1356 28.8758C47.841 28.9662 46.8474 29.6888 45.884 30.8027C49.256 30.7726 52.3872 30.7726 55.5184 30.7726ZM33.1485 42.0931C32.185 42.0931 31.2818 42.0931 30.3786 42.0931C30.3786 43.0565 30.3786 43.9898 30.3786 44.9232C31.342 44.9232 32.2453 44.9232 33.1485 44.9232C33.1485 43.9898 33.1485 43.1167 33.1485 42.0931Z" fill="#363636"/>
<path d="M22.3991 12.5832C23.7539 15.2025 23.7539 15.2326 21.1948 16.8283C21.0141 16.9488 20.8034 17.0692 20.6227 17.1896C18.8765 18.2735 18.4249 18.1832 17.2507 16.4671C17.1604 16.3466 17.07 16.2262 17.0399 16.1961C15.3238 16.5875 13.6679 17.0692 11.9819 17.28C9.96467 17.5509 8.60983 16.7681 8.42919 15.2326C8.33887 14.4197 8.67005 13.4864 8.97112 12.6735C9.15177 12.1316 9.57327 11.6498 9.96467 11.1681C10.326 10.6864 10.7475 10.2649 11.2292 9.75307C10.7174 8.94017 10.1453 8.15737 9.75392 7.31436C9.57327 6.95307 9.78403 6.41114 9.81414 5.95953C10.2356 6.11006 10.8077 6.17028 11.0485 6.47135C11.5905 7.0735 11.9518 7.82619 12.3733 8.54877C14.1195 7.4649 15.8356 6.41114 17.6421 5.26705C17.2507 4.60469 16.7088 3.94232 16.3776 3.15953C16.227 2.79824 16.4077 2.2563 16.4679 1.80469C16.8894 1.98533 17.5819 2.04555 17.7023 2.37673C18.5453 4.45415 19.9002 4.96598 21.9475 4.09286C22.4894 3.852 23.212 3.94232 23.8442 4.03264C25.9518 4.2735 27.0055 5.95953 26.0722 7.94662C25.47 9.24125 24.4464 10.3552 23.5733 11.4993C23.2722 11.8606 22.7905 12.1918 22.3991 12.5832ZM24.3862 5.71867C23.784 5.65845 23.1217 5.4477 22.5797 5.59824C20.8636 6.07996 19.1174 6.53157 17.5217 7.28426C14.8722 8.54877 12.5539 10.295 10.8679 12.6735C10.4464 13.2757 10.2356 14.0283 9.90446 14.7208C9.99478 14.7509 10.0851 14.8111 10.1754 14.8412C14.2399 10.8369 18.9668 7.88641 24.3862 5.71867ZM18.9668 10.295C18.0636 10.8671 17.2206 11.3789 16.3475 11.9208C17.2808 13.3961 18.1539 14.781 19.0571 16.2262C19.9905 15.6541 20.7733 15.1423 21.6765 14.6004C20.7432 13.1251 19.87 11.7402 18.9668 10.295ZM20.3217 9.39178C20.7733 10.0843 21.1045 10.5961 21.5561 11.2585C22.5797 10.0843 23.4528 9.09071 24.2959 8.09716C24.2356 8.00684 24.1453 7.88641 24.0851 7.79608C22.9109 8.33802 21.7066 8.81974 20.3217 9.39178ZM16.1367 14.6305C15.655 13.8778 15.3539 13.366 14.9625 12.7638C13.8787 13.7273 12.8851 14.5703 11.8916 15.4434C11.9518 15.5638 12.012 15.6843 12.0722 15.7746C13.3668 15.4133 14.6614 15.052 16.1367 14.6305Z" fill="#363636"/>
<path d="M50.4336 34.8372C50.7647 34.8372 51.1561 34.7469 51.4271 34.8673C51.7583 34.9877 51.9991 35.3189 52.2701 35.5598C51.9991 35.8308 51.7583 36.3125 51.4271 36.3727C50.7346 36.4931 50.012 36.4931 49.3196 36.3727C48.9884 36.3125 48.7475 35.8308 48.4766 35.5598C48.7776 35.3189 49.0185 34.9877 49.3497 34.8673C49.6508 34.7469 50.0723 34.8372 50.4336 34.8372Z" fill="#363636"/>
<path d="M11.9227 38.6862C12.2238 38.6862 12.5549 38.5959 12.7958 38.7163C13.0668 38.8669 13.4582 39.168 13.4582 39.4389C13.4582 39.7099 13.127 40.1615 12.8861 40.2217C12.2238 40.3421 11.5614 40.3421 10.899 40.2217C10.6582 40.1916 10.2969 39.7099 10.2969 39.4389C10.2969 39.1981 10.6582 38.8368 10.9291 38.7163C11.2001 38.5658 11.5915 38.6862 11.9227 38.6862Z" fill="#363636"/>
<path d="M9.45162 38.8722C8.87958 38.3905 8.21721 38.0593 8.18711 37.698C8.09678 36.8851 8.84947 36.8851 9.45162 36.9152C10.0839 36.9453 10.8968 36.8249 10.7462 37.7582C10.686 38.1195 10.0237 38.3905 9.45162 38.8722Z" fill="#363636"/>
</svg>
