<svg width="43" height="48" viewBox="0 0 43 48" fill="none" xmlns="http://www.w3.org/2000/svg">
<path d="M3.9423 7.9454C3.9423 7.20212 3.9423 6.53573 3.9423 5.86934C3.9423 4.52375 4.48738 3.9727 5.80571 3.9727C6.46487 3.9727 7.13671 3.9727 7.85926 3.9727C7.85926 3.24224 7.85926 2.55022 7.85926 1.8582C7.85926 0.576682 8.42969 0.0128151 9.68463 0.0128151C17.2397 0.0128151 24.8074 0.0128152 32.3624 0C33.0089 0 33.5159 0.192227 33.9723 0.666388C35.2526 1.99916 36.5582 3.30631 37.8639 4.60064C38.2822 5.02354 38.485 5.4977 38.4723 6.10002C38.4596 7.83006 38.4723 9.56011 38.4723 11.2773C38.4723 11.4183 38.4723 11.5721 38.447 11.7131C38.3836 12.1231 38.1174 12.3282 37.7244 12.341C37.3315 12.341 37.0399 12.136 36.9892 11.7387C36.9385 11.3927 36.9512 11.0339 36.9512 10.6878C36.9512 9.26536 36.9512 7.84288 36.9512 6.35632C36.761 6.3435 36.5962 6.33069 36.4314 6.33069C35.4807 6.33069 34.53 6.33069 33.5793 6.33069C32.6666 6.31787 32.2483 5.88216 32.2483 4.97228C32.2483 3.85736 32.2483 2.74244 32.2483 1.58908C24.6299 1.58908 17.0495 1.58908 9.41843 1.58908C9.41843 2.35799 9.41843 3.15253 9.41843 3.98551C9.63393 3.98551 9.83675 3.98551 10.0396 3.98551C16.1495 3.98551 22.2468 3.98551 28.3567 3.9727C29.0666 3.9727 29.6243 4.19056 30.1187 4.71598C31.3736 6.02312 32.6539 7.30464 33.9342 8.58616C34.3526 9.00906 34.568 9.48322 34.5427 10.0855C34.5173 10.5597 34.5427 11.0467 34.53 11.5208C34.5173 12.0206 34.2385 12.341 33.7948 12.3538C33.3511 12.3666 33.0342 12.0334 33.0089 11.5208C32.9962 11.1364 33.0089 10.7519 33.0089 10.3034C32.8061 10.3034 32.6286 10.3034 32.4384 10.3034C31.5004 10.3034 30.575 10.3034 29.637 10.3034C28.7243 10.3034 28.306 9.88049 28.2933 8.9578C28.2806 8.00947 28.2933 7.07397 28.2933 6.12565C28.2933 5.94623 28.2933 5.77964 28.2933 5.57459C20.6622 5.57459 13.0945 5.57459 5.47613 5.57459C5.47613 6.36913 5.47613 7.13804 5.47613 7.98384C5.69162 7.98384 5.88177 7.98384 6.08458 7.98384C12.2072 7.98384 18.3298 7.99666 24.4397 7.97103C25.1369 7.97103 25.6693 8.17607 26.1637 8.68868C27.4313 10.0086 28.7243 11.303 30.0173 12.5973C30.4229 13.0074 30.6257 13.4687 30.6131 14.0582C30.6004 14.9425 30.6131 15.8139 30.6131 16.7366C31.0694 16.57 31.4877 16.3906 31.9187 16.2753C34.9483 15.4295 38.1301 16.7366 39.7399 19.4534C41.3371 22.1702 40.9569 25.6175 38.7766 27.9114C38.5357 28.1677 38.4343 28.4112 38.447 28.7572C38.4596 31.7816 38.4596 34.806 38.447 37.8304C38.447 39.1759 37.9146 39.7142 36.5836 39.7142C35.9244 39.7142 35.2652 39.7142 34.53 39.7142C34.53 40.4446 34.53 41.1367 34.53 41.8415C34.53 43.1486 33.9723 43.6997 32.6666 43.6997C32.0075 43.6997 31.3483 43.6997 30.6131 43.6997C30.6131 44.4302 30.6131 45.1222 30.6131 45.827C30.6131 47.0701 30.0426 47.6596 28.8257 47.6596C19.8129 47.6596 10.8001 47.6596 1.78735 47.6596C0.57043 47.6596 0 47.0701 0 45.827C0 33.832 0 21.837 0 9.84204C0 8.57334 0.57043 7.99666 1.82538 7.99666C2.50989 7.9454 3.18173 7.9454 3.9423 7.9454ZM29.1046 46.0577C29.1046 45.827 29.1046 45.6348 29.1046 45.4426C29.1046 42.0722 29.1046 38.689 29.1046 35.3186C29.1046 35.1648 29.0919 34.9982 29.1173 34.8444C29.168 34.46 29.3835 34.2293 29.7511 34.178C30.144 34.1268 30.4356 34.3062 30.5624 34.6906C30.6131 34.8701 30.6257 35.0623 30.6257 35.2545C30.6257 37.3434 30.6257 39.4451 30.6257 41.5339C30.6257 41.7005 30.6257 41.8799 30.6257 42.0722C31.4497 42.0722 32.2103 42.0722 33.0215 42.0722C33.0215 41.8671 33.0215 41.7005 33.0215 41.5211C33.0215 39.4451 33.0215 37.369 33.0215 35.2801C33.0215 35.152 33.0089 35.0238 33.0215 34.8957C33.0723 34.4343 33.3765 34.1396 33.7948 34.1524C34.2131 34.1652 34.5047 34.46 34.53 34.9341C34.5427 35.3698 34.53 35.7927 34.53 36.2285C34.53 36.8436 34.53 37.4587 34.53 38.0738C35.3666 38.0738 36.1272 38.0738 36.9005 38.0738C36.9005 35.1392 36.9005 32.2429 36.9005 29.2826C36.685 29.3723 36.5075 29.4492 36.3427 29.5261C33.4779 30.6795 30.1948 29.7824 28.2933 27.2963C26.3919 24.8358 26.2651 21.3116 28.1919 18.8895C28.9398 17.9412 29.206 17.0313 29.1173 15.9036C29.0666 15.3526 29.1046 14.8015 29.1046 14.212C27.9891 14.212 26.9496 14.212 25.8975 14.212C24.7313 14.212 24.3764 13.8532 24.3764 12.6614C24.3764 11.6105 24.3764 10.5597 24.3764 9.49603C16.7326 9.49603 9.13955 9.49603 1.55917 9.49603C1.55917 21.6961 1.55917 33.8577 1.55917 46.0064C2.78877 46.0064 3.98033 46.0064 5.20993 46.0064C5.20993 45.8014 5.20993 45.622 5.20993 45.4554C5.20993 43.3793 5.20993 41.3033 5.20993 39.2144C5.20993 38.4583 5.46345 38.202 6.21135 38.202C7.36488 38.202 8.51842 38.202 9.67196 38.202C10.4452 38.202 10.6987 38.4583 10.6987 39.24C10.6987 41.3289 10.6987 43.4306 10.6987 45.5194C10.6987 45.686 10.6987 45.8526 10.6987 46.0192C11.3579 46.0192 11.941 46.0192 12.5748 46.0192C12.5748 45.8142 12.5748 45.622 12.5748 45.4426C12.5748 41.7133 12.5748 37.9841 12.5748 34.2677C12.5748 33.4988 12.803 33.2682 13.5636 33.2682C14.6917 33.2682 15.8072 33.2682 16.9354 33.2682C17.8608 33.2682 18.0509 33.4604 18.0509 34.3831C18.0509 38.0738 18.0509 41.7774 18.0509 45.4682C18.0509 45.6604 18.0509 45.8398 18.0509 46.0192C18.7101 46.0192 19.3059 46.0192 19.927 46.0192C19.927 45.8014 19.927 45.6092 19.927 45.4169C19.927 42.2516 19.927 39.0862 19.927 35.9209C19.927 35.2032 20.1932 34.9341 20.8904 34.9213C22.0186 34.9213 23.1341 34.9213 24.2623 34.9213C25.2003 34.9213 25.4158 35.1264 25.4158 36.0619C25.4158 39.2144 25.4158 42.3669 25.4158 45.5194C25.4158 45.686 25.4158 45.8526 25.4158 46.0449C26.6708 46.0577 27.8497 46.0577 29.1046 46.0577ZM39.2202 23.0032C39.2075 19.966 36.761 17.5055 33.7821 17.5183C30.7905 17.5311 28.3567 20.0045 28.3694 23.0288C28.3694 26.0532 30.8159 28.5137 33.8075 28.5137C36.7864 28.5009 39.2202 26.0276 39.2202 23.0032ZM16.5044 46.0577C16.5044 42.3028 16.5044 38.5993 16.5044 34.8572C15.6932 34.8572 14.9199 34.8572 14.134 34.8572C14.134 38.5993 14.134 42.3157 14.134 46.0577C14.9199 46.0577 15.6932 46.0577 16.5044 46.0577ZM21.4735 46.0577C22.2848 46.0577 23.0707 46.0577 23.8693 46.0577C23.8693 42.8667 23.8693 39.7014 23.8693 36.5104C23.058 36.5104 22.2721 36.5104 21.4735 36.5104C21.4735 39.6885 21.4735 42.8411 21.4735 46.0577ZM9.15223 46.0577C9.15223 43.9432 9.15223 41.8799 9.15223 39.8039C8.32827 39.8039 7.55503 39.8039 6.7691 39.8039C6.7691 41.9056 6.7691 43.9816 6.7691 46.0577C7.5677 46.0577 8.34095 46.0577 9.15223 46.0577ZM33.8075 2.80652C33.8075 3.43446 33.8075 4.08804 33.8075 4.74161C34.4793 4.74161 35.1258 4.74161 35.7343 4.74161C35.0878 4.10085 34.4413 3.44728 33.8075 2.80652ZM29.8652 8.70149C30.5497 8.70149 31.1962 8.70149 31.7666 8.70149C31.1455 8.07355 30.5117 7.40716 29.8652 6.75359C29.8652 7.38153 29.8652 8.02229 29.8652 8.70149ZM27.875 12.6742C27.2158 12.0078 26.5694 11.3542 25.9355 10.7263C25.9355 11.3414 25.9355 11.995 25.9355 12.6742C26.6074 12.6742 27.2412 12.6742 27.875 12.6742Z" fill="#363636"/>
<path d="M19.7723 20.666C18.1498 20.666 16.5146 20.666 14.892 20.666C14.5244 20.666 14.1948 20.5379 14.1188 20.1662C14.068 19.9227 14.1314 19.5639 14.2835 19.3973C14.4483 19.2179 14.7906 19.141 15.0568 19.141C16.4385 19.1154 17.8075 19.1282 19.1892 19.1282C20.9259 19.1282 22.6625 19.1282 24.4118 19.1282C24.5893 19.1282 24.7668 19.1282 24.9316 19.1538C25.3499 19.2179 25.5654 19.4998 25.5781 19.9099C25.5907 20.3072 25.2865 20.6276 24.8555 20.6404C24.3231 20.666 23.778 20.6532 23.2456 20.6532C22.0794 20.666 20.9259 20.666 19.7723 20.666Z" fill="#363636"/>
<path d="M19.8451 15.2479C21.3789 15.2479 22.9127 15.2479 24.4466 15.2479C24.5987 15.2479 24.7635 15.2479 24.9156 15.2607C25.3212 15.312 25.5367 15.5811 25.5621 15.9655C25.5874 16.3372 25.3973 16.6191 25.0297 16.7216C24.8522 16.7729 24.6494 16.7729 24.4719 16.7729C21.3662 16.7729 18.2732 16.7729 15.1676 16.7729C15.1042 16.7729 15.0408 16.7729 14.9774 16.7729C14.3943 16.7601 14.0267 16.4525 14.0394 15.9912C14.0521 15.517 14.3943 15.2479 15.0028 15.2479C16.6127 15.2351 18.2225 15.2479 19.8451 15.2479Z" fill="#363636"/>
<path d="M11.0898 31.7026C9.47992 31.7026 7.87004 31.7026 6.24748 31.7026C5.6517 31.7026 5.30944 31.3438 5.3855 30.8311C5.4362 30.4211 5.74043 30.1904 6.24748 30.1776C6.97003 30.1648 7.70525 30.1776 8.42779 30.1776C10.8743 30.1776 13.3335 30.1776 15.78 30.1776C15.9321 30.1776 16.0969 30.1776 16.249 30.2032C16.6673 30.2801 16.9209 30.6133 16.8828 31.0234C16.8321 31.4463 16.5913 31.6898 16.1603 31.7026C15.5899 31.7282 15.0194 31.7154 14.449 31.7154C13.3335 31.7026 12.218 31.7026 11.0898 31.7026Z" fill="#363636"/>
<path d="M11.1637 26.2578C12.6975 26.2578 14.2313 26.2578 15.7652 26.2578C15.9426 26.2578 16.1201 26.2578 16.2849 26.2834C16.6525 26.3603 16.868 26.6038 16.8807 26.9755C16.8933 27.3855 16.7032 27.6547 16.3102 27.7444C16.1455 27.7828 15.968 27.7828 15.7905 27.7828C12.6722 27.7828 9.56649 27.7828 6.44814 27.7828C6.29603 27.7828 6.13124 27.7828 5.97912 27.7572C5.58616 27.6803 5.37067 27.4112 5.38334 27.0139C5.38334 26.6038 5.59884 26.3603 6.00448 26.2834C6.16927 26.2578 6.34673 26.2578 6.5242 26.2578C8.0707 26.2578 9.6172 26.2578 11.1637 26.2578Z" fill="#363636"/>
<path d="M41.5257 30.4314L38.2698 27.1399M38.2698 27.1399C38.8268 26.5768 39.2685 25.9084 39.5699 25.1728C39.8714 24.4371 40.0265 23.6487 40.0265 22.8524C40.0265 22.0562 39.8714 21.2677 39.5699 20.5321C39.2685 19.7964 38.8268 19.128 38.2698 18.565C37.7129 18.0019 37.0517 17.5553 36.3241 17.2506C35.5964 16.9459 34.8165 16.7891 34.0289 16.7891C33.2412 16.7891 32.4613 16.9459 31.7337 17.2506C31.006 17.5553 30.3448 18.0019 29.7879 18.565C28.6631 19.7021 28.0312 21.2443 28.0312 22.8524C28.0313 24.4605 28.6631 26.0028 29.7879 27.1399C30.9127 28.277 32.4382 28.9158 34.0289 28.9158C35.6195 28.9158 37.1451 28.277 38.2698 27.1399Z" stroke="#363636" stroke-width="2.5" stroke-linecap="round" stroke-linejoin="round"/>
</svg>
