<svg width="35" height="52" viewBox="0 0 35 52" fill="none" xmlns="http://www.w3.org/2000/svg">
<path d="M8.60048 6.5415C8.62709 6.1918 8.61379 5.9228 8.667 5.65381C8.86656 4.51057 9.79785 3.69012 10.9686 3.66322C12.0329 3.63633 13.0973 3.64977 14.1616 3.66322C14.4277 3.66322 14.5607 3.59598 14.6538 3.31353C15.1062 1.90129 16.2902 1.0136 17.7005 1.00015C19.1107 0.986699 20.3347 1.88784 20.787 3.32698C20.8801 3.62288 21.0132 3.67667 21.2793 3.67667C22.2371 3.66322 23.2083 3.67667 24.1662 3.67667C25.7893 3.67667 26.7605 4.64507 26.8004 6.2994C26.8004 6.3801 26.8137 6.4608 26.8137 6.60875C26.9867 6.6222 27.1596 6.63565 27.3459 6.63565C28.5034 6.63565 29.6741 6.63565 30.8316 6.63565C32.9735 6.6491 34.4636 8.15549 34.4636 10.3209C34.4636 22.4393 34.4636 34.5576 34.4636 46.6759C34.4636 47.1198 34.5434 47.5771 34.4769 48.0209C34.2374 49.7156 32.8538 50.953 31.1775 51.0203C30.9114 51.0337 30.6453 51.0203 30.3792 51.0203C21.7848 51.0203 13.1904 51.0203 4.58266 51.0203C2.82652 51.0203 1.48281 50.0519 1.07038 48.4782C0.963953 48.1016 0.924041 47.6847 0.924041 47.2812C0.910736 34.9476 0.910736 22.6007 0.924041 10.2671C0.924041 8.06134 2.40079 6.5684 4.56935 6.55495C5.87315 6.5415 7.21686 6.5415 8.60048 6.5415ZM29.7539 11.3566C21.705 11.3566 13.6826 11.3566 5.66029 11.3566C5.66029 23.0176 5.66029 34.6517 5.66029 46.2859C13.7092 46.2859 21.7183 46.2859 29.7539 46.2859C29.7539 34.6249 29.7539 23.0042 29.7539 11.3566ZM26.8137 10.1326C27.918 10.1326 28.9823 10.1326 30.0333 10.1326C30.805 10.1326 30.9513 10.2806 30.9513 11.0741C30.9513 22.8966 30.9513 34.7055 30.9513 46.528C30.9513 47.3619 30.8183 47.4964 30.0067 47.4964C21.8247 47.4964 13.6427 47.4964 5.46072 47.4964C4.56935 47.4964 4.46292 47.3753 4.46292 46.4876C4.46292 34.7056 4.46292 22.9235 4.46292 11.1414C4.46292 11.0741 4.46292 11.0069 4.46292 10.9396C4.47622 10.3344 4.64918 10.1461 5.27447 10.1461C6.21906 10.1461 7.16364 10.1461 8.10823 10.1461C8.26788 10.1461 8.42753 10.1326 8.60048 10.1192C8.60048 9.31218 8.60048 8.54553 8.60048 7.75199C8.41423 7.73854 8.25458 7.72509 8.09493 7.72509C6.96408 7.72509 5.83324 7.77889 4.7157 7.71164C3.18573 7.63094 2.05489 8.77418 2.05489 10.3882C2.0948 22.6545 2.06819 34.9207 2.06819 47.2005C2.06819 48.9624 2.93295 49.8367 4.66248 49.8367C11.86 49.8367 19.0708 49.8367 26.2683 49.8367C27.8781 49.8367 29.4879 49.8501 31.0976 49.8367C32.1354 49.8232 33.04 49.1104 33.2662 48.1016C33.346 47.7654 33.2662 47.4022 33.2662 47.066C33.2662 34.9476 33.2662 22.8293 33.2662 10.711C33.2662 10.4958 33.2662 10.2806 33.2662 10.0519C33.213 8.81453 32.2418 7.84614 31.0045 7.83269C29.7273 7.81924 28.4501 7.83269 27.1729 7.83269C27.0665 7.83269 26.9468 7.84614 26.8137 7.85959C26.8137 8.59933 26.8137 9.32563 26.8137 10.1326ZM9.87767 10.0116C15.1195 10.0116 20.348 10.0116 25.6164 10.0116C25.6164 8.68003 25.643 7.38884 25.6031 6.09765C25.5898 5.31756 25.0576 4.83336 24.286 4.81991C23.2749 4.80646 22.2638 4.81991 21.2526 4.80646C20.9999 4.80646 20.8801 4.87371 20.787 5.12926C20.2948 6.6222 19.124 7.49644 17.6872 7.48299C16.2769 7.48299 15.0929 6.58185 14.6272 5.14271C14.5474 4.88716 14.4277 4.79301 14.1749 4.80646C13.1638 4.81991 12.1527 4.79302 11.1416 4.81991C10.2901 4.83336 9.81115 5.30411 9.79785 6.17835C9.78454 7.41574 9.82446 8.66658 9.83776 9.90397C9.82446 9.93087 9.85106 9.95777 9.87767 10.0116ZM19.7227 4.21467C19.7493 3.12523 18.8712 2.19719 17.767 2.17029C16.6894 2.14339 15.7182 3.00418 15.6915 4.03982C15.6516 5.30411 16.4765 6.25905 17.6472 6.2994C18.8047 6.33975 19.6828 5.45206 19.7227 4.21467Z" fill="white" stroke="white" stroke-width="0.3"/>
<path d="M15.8902 17.3966C15.8902 16.4686 15.8902 15.6213 15.8902 14.7739C15.8902 14.1552 16.0765 13.9669 16.6885 13.9669C17.3803 13.9669 18.0854 13.9535 18.7772 13.9669C19.2961 13.9804 19.4956 14.1687 19.4956 14.7067C19.5089 15.5809 19.4956 16.4417 19.4956 17.4101C20.214 17.4101 20.9058 17.4101 21.5844 17.4101C22.8881 17.4101 22.8882 17.4101 22.8882 18.7147C22.8882 19.1855 22.8882 19.6562 22.8882 20.127C22.8882 20.9609 22.7551 21.0954 21.9436 21.0954C21.1453 21.0954 20.3604 21.0954 19.4823 21.0954C19.4823 21.9292 19.4823 22.7228 19.4823 23.5298C19.4823 24.4309 19.3759 24.5385 18.4845 24.5385C17.8592 24.5385 17.2206 24.552 16.5953 24.5385C16.0765 24.5251 15.8769 24.3368 15.8769 23.7988C15.8636 22.9245 15.8769 22.0637 15.8769 21.0954C15.1585 21.0954 14.4667 21.0954 13.7882 21.0954C12.4844 21.0954 12.4844 21.0954 12.4844 19.7907C12.4844 19.2931 12.4844 18.782 12.4844 18.2843C12.4844 17.5715 12.644 17.4101 13.3757 17.4101C14.2006 17.3966 15.0121 17.3966 15.8902 17.3966ZM13.6684 18.5802C13.6684 19.051 13.6684 19.4679 13.6684 19.8983C14.48 19.8983 15.2649 19.8983 16.0366 19.8983C16.9279 19.8983 17.0211 20.0059 17.0211 20.9205C17.0211 21.7006 17.0211 22.4941 17.0211 23.3011C17.4867 23.3011 17.8858 23.3011 18.3515 23.3011C18.3515 22.4403 18.3515 21.6064 18.3515 20.7726C18.3515 20.0463 18.5111 19.8983 19.2428 19.8983C20.0677 19.8983 20.8925 19.8983 21.7174 19.8983C21.7174 19.4276 21.7174 19.0106 21.7174 18.5802C20.8792 18.5802 20.0943 18.5802 19.2961 18.5802C18.4845 18.5802 18.3515 18.4457 18.3515 17.6118C18.3515 16.8048 18.3515 16.0113 18.3515 15.1774C17.8858 15.1774 17.4867 15.1774 17.0211 15.1774C17.0211 15.8499 17.0211 16.5089 17.0211 17.1545C17.0211 18.5802 17.0211 18.5802 15.6374 18.5802C15.0121 18.5802 14.3602 18.5802 13.6684 18.5802Z" fill="white" stroke="white" stroke-width="0.3"/>
<path d="M8.16431 31.8817C8.17761 30.039 9.66767 28.4788 11.4371 28.4385C11.8362 28.425 12.1422 28.5461 12.1688 28.9899C12.1821 29.4069 11.9161 29.5548 11.5302 29.5952C10.1466 29.7566 9.30846 30.6712 9.33507 31.9758C9.36167 33.1594 10.2131 34.0874 11.3573 34.195C12.568 34.3026 13.619 33.5091 13.8318 32.339C13.8584 32.191 13.8717 32.0431 13.8984 31.8951C13.9383 31.5185 14.1511 31.3033 14.5236 31.3302C14.8962 31.3571 15.0425 31.6261 15.0425 32.0027C15.0558 33.4687 13.9649 34.8675 12.4748 35.271C10.2664 35.8494 8.1377 34.1816 8.16431 31.8817Z" fill="white" stroke="white" stroke-width="0.3"/>
<path d="M8.16412 40.9595C8.17743 39.1303 9.62757 37.5836 11.3837 37.5163C11.9026 37.5029 12.1686 37.6777 12.1686 38.0543C12.1686 38.4982 11.8893 38.6327 11.4901 38.673C10.4524 38.7672 9.734 39.3186 9.42801 40.3543C9.16193 41.2285 9.45462 42.2104 10.1464 42.7618C10.8382 43.3132 11.6232 43.4477 12.4347 43.1249C13.233 42.8156 13.7119 42.1969 13.8583 41.3361C13.8849 41.2016 13.8982 41.0671 13.9115 40.9326C13.9647 40.5695 14.1776 40.3812 14.5235 40.4081C14.8694 40.435 15.029 40.6636 15.0556 41.0133C15.1221 42.4659 14.0046 43.9319 12.5012 44.3354C10.2795 44.9138 8.15082 43.2594 8.16412 40.9595Z" fill="white" stroke="white" stroke-width="0.3"/>
<path d="M21.9819 40.4514C20.4786 40.4514 18.9619 40.4514 17.4586 40.4514C17.0461 40.4514 16.7135 40.3707 16.6736 39.8865C16.647 39.4964 16.9264 39.2812 17.4586 39.2812C20.4387 39.2812 23.4321 39.2812 26.4122 39.2812C27.0109 39.2812 27.3302 39.5906 27.1971 40.021C27.0907 40.3707 26.8246 40.4514 26.492 40.4514C25.002 40.4514 23.4853 40.4514 21.9819 40.4514Z" fill="white" stroke="white" stroke-width="0.3"/>
<path d="M21.9857 31.3862C20.4424 31.3862 18.8991 31.3862 17.3559 31.3862C17.0233 31.3862 16.7173 31.2921 16.704 30.9289C16.6907 30.7272 16.837 30.4582 16.9967 30.3102C17.1031 30.2027 17.3426 30.2296 17.5155 30.2296C18.4734 30.2296 19.4446 30.2296 20.4025 30.2296C22.3449 30.2296 24.2873 30.2296 26.2297 30.2296C26.3627 30.2296 26.4958 30.2296 26.6288 30.2296C27.0013 30.243 27.2408 30.4448 27.2408 30.8079C27.2408 31.171 27.0013 31.3728 26.6155 31.3862C25.5246 31.3862 24.4203 31.3862 23.3294 31.3862C22.877 31.3862 22.438 31.3862 21.9857 31.3862Z" fill="white" stroke="white" stroke-width="0.3"/>
<path d="M19.973 33.5877C19.1216 33.5877 18.2834 33.5877 17.432 33.5877C17.0195 33.5877 16.7002 33.4801 16.6736 32.9959C16.647 32.6193 16.9264 32.3906 17.4186 32.3906C19.1083 32.3906 20.7979 32.3906 22.4875 32.3906C23.033 32.3906 23.299 32.6058 23.2724 33.0093C23.2325 33.4935 22.8999 33.5877 22.5008 33.5877C21.6626 33.5877 20.8245 33.5877 19.973 33.5877Z" fill="white" stroke="white" stroke-width="0.3"/>
<path d="M11.382 40.5941C12.2202 39.7333 13.0317 38.9129 13.83 38.1059C13.9364 37.9983 14.0428 37.8907 14.1493 37.7965C14.4021 37.5948 14.6814 37.5948 14.9076 37.8234C15.1604 38.079 15.1737 38.3883 14.9342 38.6304C13.8832 39.7199 12.8056 40.7959 11.7279 41.8719C11.4752 42.114 11.1426 42.114 10.9297 41.8315C10.5971 41.3877 9.81215 41.1859 10.0649 40.4058C10.1714 40.0696 10.6104 39.9889 10.9031 40.2041C11.076 40.2982 11.2091 40.4327 11.382 40.5941Z" fill="white" stroke="white" stroke-width="0.3"/>
<path d="M19.9864 41.4697C20.8379 41.4697 21.676 41.4697 22.5275 41.4697C22.9266 41.4697 23.2592 41.5773 23.2858 42.0614C23.2991 42.4515 23.0463 42.6532 22.5275 42.6532C20.8246 42.6532 19.1083 42.6532 17.4054 42.6532C16.9132 42.6532 16.6471 42.4246 16.6737 42.0345C16.7136 41.5907 17.0196 41.4562 17.4054 41.4697C18.2702 41.4697 19.1349 41.4697 19.9864 41.4697Z" fill="white" stroke="white" stroke-width="0.3"/>
<path d="M11.3957 31.4621C12.2339 30.6147 13.0321 29.7943 13.8437 28.9738C13.9368 28.8797 14.0299 28.7855 14.1231 28.6914C14.3891 28.4627 14.6685 28.4358 14.9213 28.6779C15.1741 28.92 15.1874 29.2294 14.9479 29.4849C13.8836 30.5744 12.8193 31.6504 11.7416 32.7264C11.6618 32.8071 11.5155 32.8743 11.3824 32.8878C11.0099 32.9281 9.97219 31.8925 10.0254 31.5159C10.052 31.341 10.1718 31.1124 10.3181 31.0451C10.4778 30.9779 10.7305 31.0182 10.9168 31.0855C11.0897 31.1258 11.2095 31.2872 11.3957 31.4621Z" fill="white" stroke="white" stroke-width="0.3"/>
</svg>
