<svg width="57" height="50" viewBox="0 0 57 50" fill="none" xmlns="http://www.w3.org/2000/svg">
<path d="M16.2881 24.444C15.5267 24.4323 14.9268 24.1039 14.523 23.4587C14.3038 23.1068 14.3615 22.7432 14.6614 22.5321C14.9614 22.3092 15.3075 22.3679 15.5728 22.6728C16.0919 23.2711 16.4726 23.2711 16.9802 22.6846C17.2571 22.3679 17.5917 22.2975 17.8916 22.5204C18.2031 22.7432 18.2608 23.1186 18.0301 23.4822C17.6147 24.1156 17.0264 24.4323 16.2881 24.444Z" fill="#363636"/>
<path d="M14.0412 19.6759C14.0412 19.782 14.0531 19.8763 14.0412 19.9824C14.0053 20.3951 13.7542 20.6662 13.3834 20.678C13.0127 20.6898 12.7257 20.4186 12.6898 20.006C12.6659 19.7584 12.6659 19.5108 12.6898 19.2632C12.7257 18.8506 13.0127 18.603 13.3954 18.6265C13.802 18.6501 14.0053 18.8859 14.0292 19.2868C14.0412 19.4165 14.0292 19.5462 14.0412 19.6759C14.0292 19.6759 14.0292 19.6759 14.0412 19.6759Z" fill="#363636"/>
<path d="M19.8872 19.6747C19.8872 19.8044 19.8872 19.9459 19.8633 20.0756C19.8036 20.4528 19.5167 20.7004 19.1581 20.6768C18.8115 20.6651 18.5485 20.4057 18.5246 20.0166C18.5126 19.7808 18.5126 19.545 18.5246 19.3092C18.5485 18.873 18.7876 18.6254 19.182 18.6254C19.5645 18.6136 19.8275 18.8612 19.8753 19.2856C19.8992 19.4035 19.8872 19.545 19.8872 19.6747Z" fill="#363636"/>
<path d="M19.9719 4.30888C20.2907 4.37954 20.5977 4.43842 20.9165 4.52086C24.1162 5.30989 26.3949 8.14803 26.4303 11.4337C26.4421 12.9999 26.4303 14.578 26.4421 16.1443C26.4421 16.3445 26.5366 16.5682 26.6547 16.7213C26.9853 17.1453 27.1624 17.6163 27.1624 18.1463C27.1624 19.0884 27.1742 20.0305 27.1624 20.9726C27.1388 22.2798 26.2532 23.1395 24.9545 23.1631C24.7183 23.1631 24.4822 23.1631 24.2696 23.1631C24.1398 23.7283 24.0571 24.2583 23.9036 24.7765C23.4786 26.2014 22.6993 27.4026 21.6013 28.4154C21.436 28.5685 21.3533 28.8158 21.2352 29.016C21.2707 29.0513 21.3061 29.0984 21.3533 29.1338C21.7311 29.1338 22.109 29.1338 22.4868 29.1338C24.5766 29.1338 25.7337 29.9935 26.3713 31.9719C26.4185 32.1014 26.6192 32.231 26.7727 32.2781C29.0633 32.9847 30.61 34.4685 31.2948 36.7649C31.4719 37.3773 31.5428 38.0368 31.5546 38.6727C31.5782 41.5109 31.5664 44.349 31.5664 47.1754C31.5664 48.5532 30.6809 49.4247 29.2994 49.4247C22.3333 49.4247 15.3672 49.4247 8.40101 49.4129C8.15306 49.4129 7.83427 49.3069 7.65717 49.1421C7.52729 49.0243 7.48006 48.6474 7.57452 48.5061C7.7044 48.3059 7.99957 48.1175 8.23571 48.1175C9.51087 48.0822 10.7978 48.0939 12.0848 48.0939C12.2619 48.0939 12.4272 48.0939 12.6397 48.0939C12.5807 47.1283 12.5217 46.2097 12.4508 45.2911C12.3091 43.3009 12.1674 41.3107 12.0376 39.3087C12.014 39.0378 11.9195 38.8965 11.6834 38.7316C11.3764 38.5196 11.0812 38.2017 10.9395 37.8602C10.4082 36.5883 9.94773 35.2811 9.46364 33.9975C9.2157 33.3498 9.2157 33.338 8.50727 33.3498C8.40101 33.3498 8.30655 33.3615 8.17668 33.3733C8.17668 35.128 8.17668 36.8709 8.17668 38.6374C8.2239 38.661 8.29475 38.6845 8.35378 38.7081C10.113 39.2498 11.0576 40.5099 11.0694 42.3235C11.0694 43.2185 11.0812 44.1135 11.0694 45.0085C11.0576 45.9153 10.4909 46.4806 9.56991 46.4923C9.36919 46.4923 9.15666 46.5041 8.95594 46.4923C8.5427 46.457 8.29475 46.1862 8.30655 45.8093C8.31836 45.4442 8.56631 45.2087 8.96775 45.1852C9.08582 45.1734 9.20389 45.1852 9.32196 45.1852C9.44003 45.1852 9.5581 45.1852 9.69978 45.1852C9.71159 45.0556 9.74701 44.9378 9.74701 44.8319C9.74701 43.9486 9.75882 43.0654 9.74701 42.1821C9.7234 40.9103 8.75522 39.9328 7.51548 39.9211C6.31117 39.9093 5.26034 40.9103 5.23673 42.1586C5.21312 43.0889 5.23673 44.0075 5.23673 44.9378C5.23673 44.9967 5.24854 45.0556 5.26034 45.1852C5.49648 45.1852 5.74443 45.1734 5.98057 45.1852C6.40562 45.1969 6.66538 45.4442 6.67719 45.8211C6.68899 46.1979 6.41743 46.4688 6.01599 46.4923C5.73262 46.5041 5.44926 46.5159 5.17769 46.4806C4.52831 46.4217 3.94976 45.9271 3.93796 45.3029C3.90254 44.1135 3.83169 42.9123 3.97338 41.7346C4.15048 40.2037 5.08324 39.1909 6.58273 38.7198C6.65357 38.6963 6.72441 38.6727 6.81887 38.6374C6.81887 36.9063 6.81887 35.1869 6.81887 33.4086C5.85069 33.5029 5.0124 33.8797 4.28036 34.4803C3.04062 35.4931 2.34401 36.8003 2.3322 38.4137C2.30859 41.3342 2.32039 44.2548 2.32039 47.1872C2.32039 47.7878 2.62738 48.0822 3.21773 48.0822C3.93796 48.094 4.65819 48.0822 5.37841 48.0822C5.8625 48.0822 6.15768 48.3295 6.16948 48.7299C6.18129 49.1421 5.87431 49.4011 5.36661 49.4011C4.63457 49.4011 3.89073 49.4129 3.15869 49.4011C1.91896 49.3894 0.998009 48.4944 0.998009 47.2578C0.986202 44.2784 0.974395 41.2989 0.998009 38.3077C1.03343 35.2811 3.39483 32.5843 6.39382 32.125C6.73622 32.0779 6.91333 31.9719 7.01959 31.6068C7.44464 30.1583 8.74341 29.1809 10.2547 29.1102C10.5617 29.0984 10.8687 29.1102 11.3055 29.1102C11.1993 28.8394 11.1875 28.6038 11.0576 28.4861C9.46364 27.0611 8.5545 25.2828 8.31836 23.116C8.0468 23.116 7.78705 23.1277 7.52729 23.116C6.29936 23.0806 5.41383 22.221 5.37841 20.9962C5.3548 20.007 5.36661 19.0295 5.37841 18.0403C5.37841 17.5221 5.56733 17.0746 5.89792 16.6624C6.01599 16.5093 6.09864 16.2738 6.09864 16.0854C6.11045 14.3189 6.06322 12.5524 6.12226 10.7977C6.14587 10.0911 6.3702 9.39634 6.54731 8.70152C6.65357 8.28934 6.94875 8.06559 7.42103 8.18335C7.50368 8.20691 7.63355 8.13625 7.7044 8.06559C7.84608 7.93605 7.95234 7.77118 8.09403 7.64163C8.31836 7.44143 8.48366 7.28834 8.42462 6.91149C8.3892 6.72307 8.63715 6.4051 8.83787 6.28734C9.64075 5.81628 10.5499 5.68673 11.4826 5.72206C11.766 5.73384 11.9667 5.66318 12.1674 5.42765C12.6988 4.77994 13.4544 4.49731 14.2337 4.25C16.1346 4.30888 18.0473 4.30888 19.9719 4.30888ZM11.4826 12.9999C10.3964 13.153 9.61713 14.0245 9.61713 15.2022C9.60533 17.687 9.60533 20.1718 9.62894 22.6449C9.62894 23.1866 9.71159 23.7283 9.85327 24.2465C10.7388 27.4615 13.844 29.4871 17.1854 29.0513C20.3851 28.6274 22.841 25.8599 22.8882 22.586C22.9118 20.9609 22.9 19.3239 22.8882 17.6988C22.8882 17.581 22.8646 17.475 22.8528 17.3219C22.6521 17.3219 22.475 17.3219 22.3097 17.3219C20.8338 17.3219 19.3697 17.3219 17.8939 17.3219C15.6977 17.3102 13.8795 16.4858 12.5453 14.7311C12.132 14.2129 11.8369 13.5888 11.4826 12.9999ZM19.901 48.0822C19.9837 48.1057 20.0309 48.1175 20.0782 48.1175C23.1834 48.1175 26.2886 48.1175 29.3939 48.1175C29.937 48.1175 30.2322 47.7878 30.2322 47.1989C30.2322 44.2901 30.2322 41.3813 30.2322 38.4725C30.2322 37.3302 29.8544 36.3057 29.1578 35.4106C28.4611 34.5156 27.5756 33.9033 26.4303 33.5853C26.4303 35.4106 26.4421 37.1889 26.4185 38.9554C26.4185 39.2969 26.513 39.45 26.8436 39.5795C28.1069 40.0624 28.8272 41.4167 28.5792 42.7121C28.3076 44.0899 27.186 45.0321 25.8164 45.0438C24.4586 45.0556 23.2661 44.137 22.9827 42.8416C22.6875 41.4873 23.3723 40.133 24.6357 39.5795C24.7773 39.5206 24.9308 39.4618 25.0725 39.4147C25.0725 37.4009 25.0725 35.4106 25.0725 33.3733C24.5884 33.3733 24.1398 33.3969 23.6911 33.3615C23.3841 33.338 23.2542 33.4557 23.148 33.7384C22.6521 35.1045 22.1326 36.4588 21.6249 37.8248C21.4714 38.2488 21.247 38.6374 20.7984 38.7905C20.5504 38.8729 20.515 39.026 20.5032 39.2498C20.4678 39.9564 20.4088 40.6512 20.3615 41.3578C20.208 43.6071 20.0545 45.8329 19.901 48.0822ZM12.5453 29.5813C12.5453 30.0052 12.5217 30.3703 12.5571 30.7236C12.5689 30.9002 12.6397 31.1004 12.746 31.23C13.8204 32.5019 14.9067 33.7502 15.9811 35.0102C16.0638 35.1045 16.111 35.234 16.2055 35.3871C17.3389 34.0681 18.3307 32.8198 19.4288 31.6893C20.0427 31.0533 19.9955 30.3821 19.9483 29.5931C17.4688 30.7707 15.0366 30.7707 12.5453 29.5813ZM18.3661 48.0822C17.9765 45.6915 17.5869 43.3598 17.1972 41.0163C17.1618 40.7807 17.0438 40.6983 16.8076 40.7101C16.4652 40.7219 16.1346 40.7336 15.7922 40.7101C15.438 40.6747 15.3435 40.8396 15.2963 41.1576C15.0484 42.6885 14.7886 44.2195 14.5289 45.7504C14.399 46.5159 14.2809 47.2931 14.151 48.0822C15.5797 48.0822 16.9375 48.0822 18.3661 48.0822ZM12.2265 37.6364C13.2419 37.13 14.1865 36.6472 15.1782 36.1526C13.9975 34.7747 12.8641 33.4675 11.7306 32.1486C11.5889 32.2428 11.5063 32.2899 11.4236 32.3488C10.4672 32.9847 10.4672 32.9847 10.8687 34.0563C11.3173 35.2222 11.766 36.3999 12.2265 37.6364ZM20.2789 37.6246C20.8574 36.0937 21.4123 34.6334 21.9555 33.1613C21.9791 33.0789 21.9319 32.9258 21.861 32.8787C21.5068 32.6196 21.1408 32.3959 20.763 32.1486C19.6059 33.4911 18.4724 34.81 17.3153 36.1526C18.3425 36.659 19.2871 37.13 20.2789 37.6246ZM8.23571 17.3455C7.97596 17.3455 7.73982 17.3337 7.50368 17.3455C6.98417 17.369 6.71261 17.6281 6.7008 18.1345C6.68899 19.1002 6.68899 20.0659 6.7008 21.0433C6.7008 21.4673 6.94875 21.7381 7.35019 21.797C7.63355 21.8441 7.92873 21.8088 8.22391 21.8088C8.23571 20.3014 8.23571 18.8411 8.23571 17.3455ZM24.2696 21.8206C24.5648 21.8206 24.8128 21.8441 25.0607 21.8206C25.5212 21.7734 25.7928 21.5026 25.8046 21.0433C25.8164 20.0659 25.8164 19.0766 25.8046 18.0992C25.8046 17.7341 25.6156 17.4515 25.2732 17.3808C24.9545 17.3219 24.612 17.369 24.2696 17.369C24.2696 18.8646 24.2696 20.3132 24.2696 21.8206ZM26.4658 40.9221C26.3949 41.8759 26.2886 42.1233 25.8518 42.135C24.9781 42.1586 25.1434 41.4402 25.0607 40.9103C24.3877 41.3107 24.1162 41.9584 24.3169 42.6532C24.5058 43.3127 25.1316 43.7484 25.8518 43.7249C26.5484 43.7013 27.1269 43.1949 27.2686 42.5001C27.3985 41.8524 27.0797 41.2047 26.4658 40.9221ZM16.2291 39.2969C16.4534 39.2969 16.6777 39.3322 16.8903 39.2851C17.0319 39.2616 17.2327 39.1438 17.2681 39.026C17.3743 38.6139 17.4216 38.2017 17.4806 37.7777C17.4806 37.7659 17.4334 37.7424 17.4098 37.7306C16.784 37.3773 16.2055 37.0123 15.438 37.5422C15.0484 37.8131 14.9067 37.9779 15.072 38.4254C15.4262 39.4382 15.0956 39.2733 16.2291 39.2969ZM24.9545 31.9837C24.4586 30.441 23.0417 30.2996 21.2707 30.5469C21.3297 30.7 21.3415 30.8885 21.436 30.9709C22.4396 31.8188 23.5494 32.3841 24.9545 31.9837ZM11.3055 30.5469C9.81785 30.229 8.36559 30.9945 8.33017 32.0426C9.00317 32.1486 9.62894 32.0897 10.1721 31.6068C10.3964 31.4066 10.7034 31.2771 10.9277 31.0887C11.0812 30.9473 11.1639 30.7471 11.3055 30.5469ZM13.6433 38.5196C13.5961 38.4961 13.5489 38.4725 13.5016 38.449C13.4426 38.5903 13.3127 38.7316 13.3245 38.8729C13.36 39.662 13.419 40.451 13.478 41.24C13.5135 41.7229 13.5489 42.2057 13.5843 42.6885C14.151 40.0153 14.151 40.0153 13.6433 38.5196ZM18.9683 38.4254C18.1064 39.8622 18.6495 41.24 18.8975 42.6179C19.0391 41.3342 19.1218 40.0506 19.1926 38.767C19.1926 38.661 19.0509 38.5432 18.9683 38.4254Z" fill="#363636"/>
<path fill-rule="evenodd" clip-rule="evenodd" d="M33.2891 2.15393C33.2891 1.89348 33.393 1.64368 33.5781 1.45951C33.7631 1.27534 34.0141 1.17188 34.2758 1.17188H55.3269C55.5886 1.17188 55.8396 1.27534 56.0247 1.45951C56.2097 1.64368 56.3137 1.89348 56.3137 2.15393C56.3137 2.41439 56.2097 2.66418 56.0247 2.84835C55.8396 3.03253 55.5886 3.13599 55.3269 3.13599H34.2758C34.0141 3.13599 33.7631 3.03253 33.5781 2.84835C33.393 2.66418 33.2891 2.41439 33.2891 2.15393ZM33.2891 8.70099C33.2891 8.44053 33.393 8.19074 33.5781 8.00657C33.7631 7.8224 34.0141 7.71893 34.2758 7.71893H48.7485C49.0102 7.71893 49.2612 7.8224 49.4462 8.00657C49.6313 8.19074 49.7352 8.44053 49.7352 8.70099C49.7352 8.96145 49.6313 9.21124 49.4462 9.39541C49.2612 9.57958 49.0102 9.68305 48.7485 9.68305H34.2758C34.0141 9.68305 33.7631 9.57958 33.5781 9.39541C33.393 9.21124 33.2891 8.96145 33.2891 8.70099ZM33.2891 15.248C33.2891 14.9876 33.393 14.7378 33.5781 14.5536C33.7631 14.3695 34.0141 14.266 34.2758 14.266H40.8543C41.116 14.266 41.367 14.3695 41.552 14.5536C41.7371 14.7378 41.8411 14.9876 41.8411 15.248C41.8411 15.5085 41.7371 15.7583 41.552 15.9425C41.367 16.1266 41.116 16.2301 40.8543 16.2301H34.2758C34.0141 16.2301 33.7631 16.1266 33.5781 15.9425C33.393 15.7583 33.2891 15.5085 33.2891 15.248Z" fill="#363636" stroke="#363636" stroke-width="0.5"/>
</svg>
