<svg width="50" height="51" viewBox="0 0 50 51" fill="none" xmlns="http://www.w3.org/2000/svg">
<path d="M8.14829 26.2291C8.68969 24.4756 9.66938 23.2085 11.2291 22.3381C11.1002 22.2358 10.9842 22.1334 10.8682 22.0438C9.02485 20.6359 8.27719 18.2936 8.98618 16.1433C9.70805 13.9547 11.6932 12.47 14.0264 12.4188C14.2713 12.4188 14.426 12.3676 14.5678 12.1372C15.1221 11.2796 15.9342 10.8701 16.9655 10.8701C21.7608 10.8701 26.5561 10.8701 31.3385 10.8701C31.5061 10.8701 31.6737 10.8701 31.9444 10.8701C30.7327 9.53894 30.1784 8.07983 30.3846 6.37754C30.5522 4.98243 31.1967 3.8433 32.2795 2.93455C34.3034 1.21946 37.294 1.25786 39.3049 3.01135C40.5037 4.06088 41.1096 5.392 41.1483 6.9791C41.1741 8.54061 40.5424 9.84612 39.5112 10.8957C40.3362 11.2924 41.187 11.5868 41.9217 12.0732C43.8811 13.3659 44.9252 15.2474 45.0026 17.5768C45.0541 19.3175 45.0284 21.0582 45.0155 22.7989C45.0026 24.258 43.8295 25.3972 42.3729 25.4356C41.9862 25.4484 41.6123 25.4356 41.1612 25.4356C41.1612 26.2675 41.1612 27.061 41.1612 27.8546C41.1612 28.2642 41.2127 28.6993 41.1483 29.0961C41.0194 29.8641 41.3674 30.3376 41.9991 30.6576C42.1538 30.7344 42.3213 30.8112 42.4889 30.7984C44.8995 30.6704 46.5366 33.1535 45.4409 35.2525C45.428 35.2781 45.428 35.3165 45.428 35.3677C45.7373 35.3933 46.0596 35.4061 46.3561 35.4701C47.9288 35.7773 48.9987 37.1724 48.8569 38.7339C48.728 40.3082 47.4131 41.5241 45.7889 41.5369C41.883 41.5497 37.9772 41.5369 34.0713 41.5369C33.878 41.5369 33.6846 41.5369 33.4655 41.5369C33.4655 42.5609 33.4655 43.5592 33.4655 44.6088C33.8909 44.6088 34.3034 44.6088 34.7159 44.6088C37.3842 44.6088 39.0729 46.4902 38.8022 49.1781C29.5725 49.1781 20.3299 49.1781 11.0745 49.1781C10.9198 47.7062 11.3065 46.4646 12.4538 45.4791C13.601 44.4936 15.0061 44.5704 16.4241 44.6088C16.4241 43.572 16.4241 42.5865 16.4241 41.6393C15.4315 41.5114 14.426 41.4602 13.4721 41.2426C10.9069 40.6538 8.8186 39.2587 7.4393 37.0316C5.3768 33.7038 3.40454 30.3248 1.43227 26.9331C0.581489 25.4739 1.11 23.6437 2.54086 22.7989C3.9975 21.9542 5.80219 22.3765 6.73032 23.8101C7.19438 24.5652 7.63266 25.346 8.14829 26.2291ZM30.5522 39.9882C35.5022 39.9882 40.4522 39.9882 45.4151 39.9882C45.5698 39.9882 45.7373 40.001 45.892 39.9754C46.9362 39.8731 47.5678 38.8619 47.2069 37.9148C46.962 37.2876 46.3819 36.9548 45.5311 36.9548C35.6955 36.9548 25.8471 36.9548 16.0116 36.9548C13.7944 36.9548 12.1315 36.0077 11.01 34.1134C10.4557 33.1791 9.90141 32.2447 9.34711 31.3104C8.05805 29.1345 6.76899 26.9587 5.47993 24.7956C5.09321 24.13 4.46157 23.8229 3.84282 23.9636C2.74711 24.194 2.28305 25.3076 2.87602 26.3059C4.66782 29.3393 6.48539 32.3471 8.23852 35.3805C10.0432 38.4907 12.7245 39.9882 16.3209 39.9754C21.0647 39.9754 25.8084 39.9882 30.5522 39.9882ZM41.1612 21.6342C40.942 21.6342 40.7745 21.6342 40.594 21.6342C38.6346 21.6342 36.6752 21.6342 34.703 21.6342C33.9682 21.6342 33.4526 22.1206 33.4526 22.7605C33.4526 23.4005 33.9682 23.8868 34.6901 23.8996C37.2038 23.9124 39.7045 23.9124 42.2182 23.8996C42.9788 23.8996 43.4428 23.4261 43.4428 22.6581C43.4557 21.135 43.4557 19.6247 43.4428 18.1016C43.4428 17.692 43.4299 17.2697 43.3526 16.8601C42.9787 14.9146 41.8315 13.5835 39.9623 12.7771C39.4725 14.7098 38.9955 16.5785 38.4928 18.5496C37.5518 17.5896 36.6752 16.7065 35.7342 15.7338C34.7932 16.6809 33.9166 17.564 32.9885 18.4984C32.4729 16.4377 31.9573 14.441 31.4545 12.4188C31.3127 12.4188 31.1967 12.4188 31.0936 12.4188C26.4143 12.4188 21.735 12.4188 17.0557 12.4188C16.9655 12.4188 16.8623 12.4188 16.7721 12.4316C16.1663 12.5084 15.7151 12.9691 15.7151 13.5451C15.7151 14.1083 16.1534 14.5946 16.7592 14.6714C16.9139 14.697 17.0815 14.6842 17.2362 14.6842C20.7553 14.6842 24.2745 14.6842 27.8065 14.6842C28.0256 14.6842 28.2577 14.6714 28.4768 14.7226C29.5854 14.9402 30.3717 15.8745 30.3717 17.0009C30.3846 18.2552 30.3717 19.5095 30.3717 20.815C31.0549 20.815 31.6995 20.8278 32.3311 20.8022C32.5373 20.7894 32.7694 20.7126 32.937 20.5975C33.4526 20.2391 34.0069 20.0343 34.6514 20.0471C35.7729 20.0599 36.9073 20.0471 38.0288 20.0471C38.5444 20.0471 39.0471 20.0471 39.6143 20.0471C39.6143 18.9976 39.6143 17.9992 39.6143 17.0137C40.1686 17.0137 40.6584 17.0137 41.1612 17.0137C41.1612 18.5624 41.1612 20.0599 41.1612 21.6342ZM22.2764 31.5792C21.6319 30.6192 21.0131 29.6721 20.3557 28.7377C20.201 28.5202 19.969 28.3282 19.7241 28.2002C18.6541 27.6114 18.0612 26.7411 17.9838 25.5123C17.9709 25.3076 17.8936 25.0644 17.7647 24.9108C16.5788 23.4901 15.0448 22.8885 13.2143 23.2469C11.4612 23.6053 10.2752 24.6932 9.72094 26.3955C9.46313 27.2018 9.29555 28.085 9.73383 28.8657C10.6233 30.4528 11.5643 32.0143 12.5182 33.5758C13.253 34.7662 14.3616 35.3677 15.7666 35.4061C16.8495 35.4317 17.9194 35.4189 19.0022 35.4061C19.7885 35.4061 20.317 34.9198 20.3041 34.2414C20.2913 33.5758 19.7756 33.1279 19.0022 33.1151C18.2416 33.1151 17.494 33.1279 16.7334 33.1023C15.844 33.0767 15.0834 32.7311 14.5936 32.0015C13.9362 31.0032 13.3303 29.9665 12.6858 28.9041C13.137 28.6354 13.5623 28.3794 14.0135 28.1106C14.1038 28.2642 14.194 28.3922 14.2842 28.5202C14.7612 29.3137 15.251 30.1073 15.7151 30.9008C15.9858 31.3616 16.3725 31.5792 16.901 31.5664C17.6358 31.5536 18.3834 31.5664 19.1182 31.5664C19.8401 31.5664 20.4717 31.8224 21.0002 32.3087C21.0905 32.3855 21.1807 32.4623 21.2838 32.5519C21.619 32.2319 21.9284 31.9375 22.2764 31.5792ZM21.7608 35.3805C21.9155 35.3805 22.0702 35.3805 22.2377 35.3805C28.9409 35.3805 35.644 35.3805 42.36 35.3805C42.476 35.3805 42.592 35.3805 42.6952 35.3805C43.7135 35.3037 44.3709 34.4462 44.1389 33.5374C43.9327 32.7823 43.3526 32.3855 42.4116 32.3855C36.7397 32.3855 31.0549 32.4239 25.383 32.3599C24.21 32.3471 23.3592 32.6287 22.5858 33.5118C22.083 34.0622 21.7866 34.6126 21.7608 35.3805ZM23.0885 23.0805C24.0166 22.4149 24.9577 21.7366 25.9116 21.0966C26.1178 20.9558 26.4014 20.879 26.6592 20.8662C27.3553 20.8406 28.0643 20.8534 28.7991 20.8534C28.7991 19.5863 28.7991 18.3832 28.7991 17.1673C28.7991 16.5273 28.5155 16.2457 27.8452 16.2457C25.1252 16.2457 22.4053 16.2457 19.6983 16.2457C19.5823 16.2457 19.4791 16.2585 19.3245 16.2713C19.6467 17.4361 19.608 18.5624 19.1827 19.6759C18.7573 20.7894 18.0096 21.6342 17.0686 22.2997C17.61 22.7221 18.1385 23.1189 18.6541 23.5157C20.1237 22.0566 21.6448 22.095 23.0885 23.0805ZM35.7342 3.22894C33.633 3.22894 31.9057 4.95683 31.9057 7.0559C31.9057 9.14217 33.6459 10.8701 35.7471 10.8701C37.8612 10.8701 39.6143 9.12937 39.6014 7.0175C39.5885 4.93123 37.8354 3.21614 35.7342 3.22894ZM31.8541 41.5881C27.2264 41.5881 22.6502 41.5881 18.0483 41.5881C18.0483 42.5865 18.0483 43.572 18.0483 44.5576C22.6631 44.5576 27.2522 44.5576 31.8799 44.5576C31.8799 43.6616 31.8799 42.8041 31.8799 41.9465C31.867 41.8441 31.867 41.7289 31.8541 41.5881ZM14.1038 13.9547C13.8846 13.9803 13.6397 14.0059 13.4077 14.0443C11.2807 14.4282 9.9143 16.5017 10.3913 18.6392C10.8424 20.6998 13.008 22.0054 15.0834 21.4806C17.1459 20.9686 18.3963 18.8312 17.8549 16.7961C17.7389 16.3737 17.5584 16.2329 17.0944 16.2329C15.5346 16.2713 14.6452 15.5802 14.194 14.1083C14.1811 14.0699 14.1424 14.0315 14.1038 13.9547ZM37.0748 47.6422C36.701 46.6694 35.9018 46.1703 34.7803 46.1703C28.219 46.1703 21.6705 46.1703 15.1092 46.1703C14.9932 46.1703 14.8901 46.1703 14.7741 46.1831C13.833 46.2599 13.0338 46.8614 12.8405 47.655C20.91 47.6422 28.9795 47.6422 37.0748 47.6422ZM21.9928 28.3922C22.4827 29.1217 22.9596 29.7873 23.3979 30.4912C23.6428 30.888 23.8748 30.8624 24.21 30.632C25.628 29.6721 27.0588 28.7249 28.5026 27.7906C28.7346 27.637 28.812 27.4834 28.812 27.2146C28.7991 25.7299 28.812 24.2452 28.7991 22.7605C28.7991 22.6453 28.7733 22.5173 28.7733 22.4021C26.9299 22.2358 26.917 22.2485 25.4991 23.2469C25.2413 23.4261 24.9963 23.6437 24.7127 23.7973C24.1842 24.0916 23.8104 24.4372 24.1455 25.1028C24.1842 25.1668 24.1584 25.2564 24.1584 25.346C24.1584 26.8307 23.3979 27.7906 21.9928 28.3922ZM39.4596 30.7472C38.4928 30.0433 37.6549 29.3649 36.7526 28.7889C35.2959 27.8674 33.7104 27.5986 32.0088 27.9314C30.0366 28.3154 28.6573 29.7233 27.0331 30.7344C31.1323 30.7472 35.2315 30.7472 39.4596 30.7472ZM39.5756 25.4611C39.3823 25.4611 39.2018 25.4611 39.0342 25.4611C37.5518 25.4611 36.0823 25.4739 34.5998 25.4611C33.2592 25.4484 32.1506 24.5268 31.9186 23.2341C31.867 22.9781 31.8799 22.7093 31.8541 22.4405C31.3514 22.4405 30.8745 22.4405 30.3975 22.4405C30.3975 23.8868 30.3975 25.2948 30.3975 26.6643C31.2225 26.5107 32.0346 26.2803 32.8596 26.2291C34.8577 26.0883 36.6623 26.6771 38.2737 27.8674C38.6862 28.1746 39.1116 28.4818 39.5885 28.8401C39.5756 27.6626 39.5756 26.5875 39.5756 25.4611ZM21.0647 23.9252C20.2397 23.938 19.5436 24.6548 19.5565 25.4739C19.5694 26.2803 20.2655 26.9587 21.0776 26.9587C21.9026 26.9587 22.6116 26.2547 22.6116 25.4356C22.6116 24.6164 21.8897 23.9252 21.0647 23.9252ZM34.6772 14.6202C34.2389 14.0699 33.7748 13.5067 33.3237 12.9307C33.2979 12.9563 33.2592 12.9691 33.2334 12.9947C33.4397 13.8011 33.6459 14.6074 33.8522 15.4266C34.1358 15.145 34.3936 14.889 34.6772 14.6202ZM38.2866 12.9691C38.2608 12.9563 38.2221 12.9307 38.1963 12.9179C37.7323 13.4939 37.2682 14.0699 36.8815 14.5562C37.1522 14.889 37.3842 15.1578 37.6549 15.4778C37.8741 14.6074 38.0803 13.7883 38.2866 12.9691ZM36.5592 12.4444C35.992 12.4444 35.5151 12.4444 34.9479 12.4444C35.2315 12.8027 35.4764 13.0971 35.7471 13.4427C36.0307 13.1099 36.2756 12.8027 36.5592 12.4444Z" fill="#363636"/>
</svg>
