<svg width="67" height="56" viewBox="0 0 67 56" fill="none" xmlns="http://www.w3.org/2000/svg">
<path d="M21.2881 27.444C20.5267 27.4323 19.9268 27.1039 19.523 26.4587C19.3038 26.1068 19.3615 25.7432 19.6614 25.5321C19.9614 25.3092 20.3075 25.3679 20.5728 25.6728C21.0919 26.2711 21.4726 26.2711 21.9802 25.6846C22.2571 25.3679 22.5917 25.2975 22.8916 25.5204C23.2031 25.7432 23.2608 26.1186 23.0301 26.4822C22.6147 27.1156 22.0264 27.4323 21.2881 27.444Z" fill="white"/>
<path d="M19.0412 22.6759C19.0412 22.782 19.0531 22.8763 19.0412 22.9824C19.0053 23.3951 18.7542 23.6662 18.3834 23.678C18.0127 23.6898 17.7257 23.4186 17.6898 23.006C17.6659 22.7584 17.6659 22.5108 17.6898 22.2632C17.7257 21.8506 18.0127 21.603 18.3954 21.6265C18.802 21.6501 19.0053 21.8859 19.0292 22.2868C19.0412 22.4165 19.0292 22.5462 19.0412 22.6759C19.0292 22.6759 19.0292 22.6759 19.0412 22.6759Z" fill="white"/>
<path d="M24.8872 22.6747C24.8872 22.8044 24.8872 22.9459 24.8633 23.0756C24.8036 23.4528 24.5167 23.7004 24.1581 23.6768C23.8115 23.6651 23.5485 23.4057 23.5246 23.0166C23.5126 22.7808 23.5126 22.545 23.5246 22.3092C23.5485 21.873 23.7876 21.6254 24.182 21.6254C24.5645 21.6136 24.8275 21.8612 24.8753 22.2856C24.8992 22.4035 24.8872 22.545 24.8872 22.6747Z" fill="white"/>
<path d="M24.9719 7.30888C25.2907 7.37954 25.5977 7.43842 25.9165 7.52086C29.1162 8.30989 31.3949 11.148 31.4303 14.4337C31.4421 15.9999 31.4303 17.578 31.4421 19.1443C31.4421 19.3445 31.5366 19.5682 31.6547 19.7213C31.9853 20.1453 32.1624 20.6163 32.1624 21.1463C32.1624 22.0884 32.1742 23.0305 32.1624 23.9726C32.1388 25.2798 31.2532 26.1395 29.9545 26.1631C29.7183 26.1631 29.4822 26.1631 29.2696 26.1631C29.1398 26.7283 29.0571 27.2583 28.9036 27.7765C28.4786 29.2014 27.6993 30.4026 26.6013 31.4154C26.436 31.5685 26.3533 31.8158 26.2352 32.016C26.2707 32.0513 26.3061 32.0984 26.3533 32.1338C26.7311 32.1338 27.109 32.1338 27.4868 32.1338C29.5766 32.1338 30.7337 32.9935 31.3713 34.9719C31.4185 35.1014 31.6192 35.231 31.7727 35.2781C34.0633 35.9847 35.61 37.4685 36.2948 39.7649C36.4719 40.3773 36.5428 41.0368 36.5546 41.6727C36.5782 44.5109 36.5664 47.349 36.5664 50.1754C36.5664 51.5532 35.6809 52.4247 34.2994 52.4247C27.3333 52.4247 20.3672 52.4247 13.401 52.4129C13.1531 52.4129 12.8343 52.3069 12.6572 52.1421C12.5273 52.0243 12.4801 51.6474 12.5745 51.5061C12.7044 51.3059 12.9996 51.1175 13.2357 51.1175C14.5109 51.0822 15.7978 51.0939 17.0848 51.0939C17.2619 51.0939 17.4272 51.0939 17.6397 51.0939C17.5807 50.1283 17.5217 49.2097 17.4508 48.2911C17.3091 46.3009 17.1674 44.3107 17.0376 42.3087C17.014 42.0378 16.9195 41.8965 16.6834 41.7316C16.3764 41.5196 16.0812 41.2017 15.9395 40.8602C15.4082 39.5883 14.9477 38.2811 14.4636 36.9975C14.2157 36.3498 14.2157 36.338 13.5073 36.3498C13.401 36.3498 13.3066 36.3615 13.1767 36.3733C13.1767 38.128 13.1767 39.8709 13.1767 41.6374C13.2239 41.661 13.2947 41.6845 13.3538 41.7081C15.113 42.2498 16.0576 43.5099 16.0694 45.3235C16.0694 46.2185 16.0812 47.1135 16.0694 48.0085C16.0576 48.9153 15.4909 49.4806 14.5699 49.4923C14.3692 49.4923 14.1567 49.5041 13.9559 49.4923C13.5427 49.457 13.2947 49.1862 13.3066 48.8093C13.3184 48.4442 13.5663 48.2087 13.9677 48.1852C14.0858 48.1734 14.2039 48.1852 14.322 48.1852C14.44 48.1852 14.5581 48.1852 14.6998 48.1852C14.7116 48.0556 14.747 47.9378 14.747 47.8319C14.747 46.9486 14.7588 46.0654 14.747 45.1821C14.7234 43.9103 13.7552 42.9328 12.5155 42.9211C11.3112 42.9093 10.2603 43.9103 10.2367 45.1586C10.2131 46.0889 10.2367 47.0075 10.2367 47.9378C10.2367 47.9967 10.2485 48.0556 10.2603 48.1852C10.4965 48.1852 10.7444 48.1734 10.9806 48.1852C11.4056 48.1969 11.6654 48.4442 11.6772 48.8211C11.689 49.1979 11.4174 49.4688 11.016 49.4923C10.7326 49.5041 10.4493 49.5159 10.1777 49.4806C9.52831 49.4217 8.94976 48.9271 8.93796 48.3029C8.90254 47.1135 8.83169 45.9123 8.97338 44.7346C9.15048 43.2037 10.0832 42.1909 11.5827 41.7198C11.6536 41.6963 11.7244 41.6727 11.8189 41.6374C11.8189 39.9063 11.8189 38.1869 11.8189 36.4086C10.8507 36.5029 10.0124 36.8797 9.28036 37.4803C8.04062 38.4931 7.34401 39.8003 7.3322 41.4137C7.30859 44.3342 7.32039 47.2548 7.32039 50.1872C7.32039 50.7878 7.62738 51.0822 8.21773 51.0822C8.93796 51.094 9.65819 51.0822 10.3784 51.0822C10.8625 51.0822 11.1577 51.3295 11.1695 51.7299C11.1813 52.1421 10.8743 52.4011 10.3666 52.4011C9.63457 52.4011 8.89073 52.4129 8.15869 52.4011C6.91896 52.3894 5.99801 51.4944 5.99801 50.2578C5.9862 47.2784 5.97439 44.2989 5.99801 41.3077C6.03343 38.2811 8.39483 35.5843 11.3938 35.125C11.7362 35.0779 11.9133 34.9719 12.0196 34.6068C12.4446 33.1583 13.7434 32.1809 15.2547 32.1102C15.5617 32.0984 15.8687 32.1102 16.3055 32.1102C16.1993 31.8394 16.1875 31.6038 16.0576 31.4861C14.4636 30.0611 13.5545 28.2828 13.3184 26.116C13.0468 26.116 12.787 26.1277 12.5273 26.116C11.2994 26.0806 10.4138 25.221 10.3784 23.9962C10.3548 23.007 10.3666 22.0295 10.3784 21.0403C10.3784 20.5221 10.5673 20.0746 10.8979 19.6624C11.016 19.5093 11.0986 19.2738 11.0986 19.0854C11.1104 17.3189 11.0632 15.5524 11.1223 13.7977C11.1459 13.0911 11.3702 12.3963 11.5473 11.7015C11.6536 11.2893 11.9487 11.0656 12.421 11.1834C12.5037 11.2069 12.6336 11.1362 12.7044 11.0656C12.8461 10.936 12.9523 10.7712 13.094 10.6416C13.3184 10.4414 13.4837 10.2883 13.4246 9.91149C13.3892 9.72307 13.6372 9.4051 13.8379 9.28734C14.6407 8.81628 15.5499 8.68673 16.4826 8.72206C16.766 8.73384 16.9667 8.66318 17.1674 8.42765C17.6988 7.77994 18.4544 7.49731 19.2337 7.25C21.1346 7.30888 23.0473 7.30888 24.9719 7.30888ZM16.4826 15.9999C15.3964 16.153 14.6171 17.0245 14.6171 18.2022C14.6053 20.687 14.6053 23.1718 14.6289 25.6449C14.6289 26.1866 14.7116 26.7283 14.8533 27.2465C15.7388 30.4615 18.844 32.4871 22.1854 32.0513C25.3851 31.6274 27.841 28.8599 27.8882 25.586C27.9118 23.9609 27.9 22.3239 27.8882 20.6988C27.8882 20.581 27.8646 20.475 27.8528 20.3219C27.6521 20.3219 27.475 20.3219 27.3097 20.3219C25.8338 20.3219 24.3697 20.3219 22.8939 20.3219C20.6977 20.3102 18.8795 19.4858 17.5453 17.7311C17.132 17.2129 16.8369 16.5888 16.4826 15.9999ZM24.901 51.0822C24.9837 51.1057 25.0309 51.1175 25.0782 51.1175C28.1834 51.1175 31.2886 51.1175 34.3939 51.1175C34.937 51.1175 35.2322 50.7878 35.2322 50.1989C35.2322 47.2901 35.2322 44.3813 35.2322 41.4725C35.2322 40.3302 34.8544 39.3057 34.1578 38.4106C33.4611 37.5156 32.5756 36.9033 31.4303 36.5853C31.4303 38.4106 31.4421 40.1889 31.4185 41.9554C31.4185 42.2969 31.513 42.45 31.8436 42.5795C33.1069 43.0624 33.8272 44.4167 33.5792 45.7121C33.3076 47.0899 32.186 48.0321 30.8164 48.0438C29.4586 48.0556 28.2661 47.137 27.9827 45.8416C27.6875 44.4873 28.3723 43.133 29.6357 42.5795C29.7773 42.5206 29.9308 42.4618 30.0725 42.4147C30.0725 40.4009 30.0725 38.4106 30.0725 36.3733C29.5884 36.3733 29.1398 36.3969 28.6911 36.3615C28.3841 36.338 28.2542 36.4557 28.148 36.7384C27.6521 38.1045 27.1326 39.4588 26.6249 40.8248C26.4714 41.2488 26.247 41.6374 25.7984 41.7905C25.5504 41.8729 25.515 42.026 25.5032 42.2498C25.4678 42.9564 25.4088 43.6512 25.3615 44.3578C25.208 46.6071 25.0545 48.8329 24.901 51.0822ZM17.5453 32.5813C17.5453 33.0052 17.5217 33.3703 17.5571 33.7236C17.5689 33.9002 17.6397 34.1004 17.746 34.23C18.8204 35.5019 19.9067 36.7502 20.9811 38.0102C21.0638 38.1045 21.111 38.234 21.2055 38.3871C22.3389 37.0681 23.3307 35.8198 24.4288 34.6893C25.0427 34.0533 24.9955 33.3821 24.9483 32.5931C22.4688 33.7707 20.0366 33.7707 17.5453 32.5813ZM23.3661 51.0822C22.9765 48.6915 22.5869 46.3598 22.1972 44.0163C22.1618 43.7807 22.0438 43.6983 21.8076 43.7101C21.4652 43.7219 21.1346 43.7336 20.7922 43.7101C20.438 43.6747 20.3435 43.8396 20.2963 44.1576C20.0484 45.6885 19.7886 47.2195 19.5289 48.7504C19.399 49.5159 19.2809 50.2931 19.151 51.0822C20.5797 51.0822 21.9375 51.0822 23.3661 51.0822ZM17.2265 40.6364C18.2419 40.13 19.1865 39.6472 20.1782 39.1526C18.9975 37.7747 17.8641 36.4675 16.7306 35.1486C16.5889 35.2428 16.5063 35.2899 16.4236 35.3488C15.4672 35.9847 15.4672 35.9847 15.8687 37.0563C16.3173 38.2222 16.766 39.3999 17.2265 40.6364ZM25.2789 40.6246C25.8574 39.0937 26.4123 37.6334 26.9555 36.1613C26.9791 36.0789 26.9319 35.9258 26.861 35.8787C26.5068 35.6196 26.1408 35.3959 25.763 35.1486C24.6059 36.4911 23.4724 37.81 22.3153 39.1526C23.3425 39.659 24.2871 40.13 25.2789 40.6246ZM13.2357 20.3455C12.976 20.3455 12.7398 20.3337 12.5037 20.3455C11.9842 20.369 11.7126 20.6281 11.7008 21.1345C11.689 22.1002 11.689 23.0659 11.7008 24.0433C11.7008 24.4673 11.9487 24.7381 12.3502 24.797C12.6336 24.8441 12.9287 24.8088 13.2239 24.8088C13.2357 23.3014 13.2357 21.8411 13.2357 20.3455ZM29.2696 24.8206C29.5648 24.8206 29.8128 24.8441 30.0607 24.8206C30.5212 24.7734 30.7928 24.5026 30.8046 24.0433C30.8164 23.0659 30.8164 22.0766 30.8046 21.0992C30.8046 20.7341 30.6156 20.4515 30.2732 20.3808C29.9545 20.3219 29.612 20.369 29.2696 20.369C29.2696 21.8646 29.2696 23.3132 29.2696 24.8206ZM31.4658 43.9221C31.3949 44.8759 31.2886 45.1233 30.8518 45.135C29.9781 45.1586 30.1434 44.4402 30.0607 43.9103C29.3877 44.3107 29.1162 44.9584 29.3169 45.6532C29.5058 46.3127 30.1316 46.7484 30.8518 46.7249C31.5484 46.7013 32.1269 46.1949 32.2686 45.5001C32.3985 44.8524 32.0797 44.2047 31.4658 43.9221ZM21.2291 42.2969C21.4534 42.2969 21.6777 42.3322 21.8903 42.2851C22.0319 42.2616 22.2327 42.1438 22.2681 42.026C22.3743 41.6139 22.4216 41.2017 22.4806 40.7777C22.4806 40.7659 22.4334 40.7424 22.4098 40.7306C21.784 40.3773 21.2055 40.0123 20.438 40.5422C20.0484 40.8131 19.9067 40.9779 20.072 41.4254C20.4262 42.4382 20.0956 42.2733 21.2291 42.2969ZM29.9545 34.9837C29.4586 33.441 28.0417 33.2996 26.2707 33.5469C26.3297 33.7 26.3415 33.8885 26.436 33.9709C27.4396 34.8188 28.5494 35.3841 29.9545 34.9837ZM16.3055 33.5469C14.8179 33.229 13.3656 33.9945 13.3302 35.0426C14.0032 35.1486 14.6289 35.0897 15.1721 34.6068C15.3964 34.4066 15.7034 34.2771 15.9277 34.0887C16.0812 33.9473 16.1639 33.7471 16.3055 33.5469ZM18.6433 41.5196C18.5961 41.4961 18.5489 41.4725 18.5016 41.449C18.4426 41.5903 18.3127 41.7316 18.3245 41.8729C18.36 42.662 18.419 43.451 18.478 44.24C18.5135 44.7229 18.5489 45.2057 18.5843 45.6885C19.151 43.0153 19.151 43.0153 18.6433 41.5196ZM23.9683 41.4254C23.1064 42.8622 23.6495 44.24 23.8975 45.6179C24.0391 44.3342 24.1218 43.0506 24.1926 41.767C24.1926 41.661 24.0509 41.5432 23.9683 41.4254Z" fill="white"/>
<path fill-rule="evenodd" clip-rule="evenodd" d="M38.2891 5.15393C38.2891 4.89348 38.393 4.64368 38.5781 4.45951C38.7631 4.27534 39.0141 4.17188 39.2758 4.17188H60.3269C60.5886 4.17188 60.8396 4.27534 61.0247 4.45951C61.2097 4.64368 61.3137 4.89348 61.3137 5.15393C61.3137 5.41439 61.2097 5.66418 61.0247 5.84835C60.8396 6.03253 60.5886 6.13599 60.3269 6.13599H39.2758C39.0141 6.13599 38.7631 6.03253 38.5781 5.84835C38.393 5.66418 38.2891 5.41439 38.2891 5.15393ZM38.2891 11.701C38.2891 11.4405 38.393 11.1907 38.5781 11.0066C38.7631 10.8224 39.0141 10.7189 39.2758 10.7189H53.7485C54.0102 10.7189 54.2612 10.8224 54.4462 11.0066C54.6313 11.1907 54.7352 11.4405 54.7352 11.701C54.7352 11.9614 54.6313 12.2112 54.4462 12.3954C54.2612 12.5796 54.0102 12.6831 53.7485 12.6831H39.2758C39.0141 12.6831 38.7631 12.5796 38.5781 12.3954C38.393 12.2112 38.2891 11.9614 38.2891 11.701ZM38.2891 18.248C38.2891 17.9876 38.393 17.7378 38.5781 17.5536C38.7631 17.3695 39.0141 17.266 39.2758 17.266H45.8543C46.116 17.266 46.367 17.3695 46.552 17.5536C46.7371 17.7378 46.8411 17.9876 46.8411 18.248C46.8411 18.5085 46.7371 18.7583 46.552 18.9425C46.367 19.1266 46.116 19.2301 45.8543 19.2301H39.2758C39.0141 19.2301 38.7631 19.1266 38.5781 18.9425C38.393 18.7583 38.2891 18.5085 38.2891 18.248Z" fill="white" stroke="white" stroke-width="0.5"/>
</svg>
