<svg width="23" height="27" viewBox="0 0 23 27" fill="none" xmlns="http://www.w3.org/2000/svg">
<path d="M11.8605 26.9997C11.3956 26.8236 11.2266 26.4855 11.2266 25.9994C11.2336 21.2729 11.2336 16.5463 11.2336 11.8198C11.2336 11.1013 11.5154 10.8125 12.2409 10.8125C14.3964 10.8125 16.5448 10.8125 18.7003 10.8125C18.7919 10.8125 18.8905 10.8125 19.0102 10.8125C19.0102 11.0238 19.0102 11.1999 19.0102 11.3831C19.0102 12.0663 19.0102 12.7567 19.0102 13.4399C19.0102 13.9119 19.137 14.0387 19.6019 14.0387C20.3768 14.0387 21.1516 14.0387 21.9194 14.0387C22.018 14.0387 22.1096 14.0387 22.2434 14.0387C22.2434 14.1655 22.2434 14.2641 22.2434 14.3697C22.2434 18.244 22.2364 22.1182 22.2505 25.9924C22.2505 26.4784 22.0885 26.8236 21.6236 26.9997C18.3692 26.9997 15.1149 26.9997 11.8605 26.9997ZM16.742 25.0415C17.7634 25.0415 18.7848 25.0415 19.7992 25.0415C20.2288 25.0415 20.4542 24.8935 20.4472 24.6047C20.4472 24.3159 20.2288 24.168 19.7921 24.168C17.7493 24.168 15.7136 24.168 13.6708 24.168C13.5652 24.168 13.4595 24.168 13.3539 24.1962C13.1355 24.2455 13.0228 24.4004 13.0228 24.6118C13.0228 24.8301 13.1496 24.971 13.3609 25.0274C13.4454 25.0485 13.537 25.0415 13.6215 25.0415C14.6641 25.0415 15.7066 25.0415 16.742 25.0415ZM16.742 17.2437C16.0306 17.2437 15.3191 17.2437 14.6077 17.2437C14.2273 17.2437 13.854 17.2367 13.4736 17.2437C13.213 17.2507 13.0298 17.4409 13.0298 17.6734C13.0298 17.8988 13.1918 18.0749 13.4454 18.1031C13.5229 18.1101 13.6004 18.1101 13.6849 18.1101C15.7207 18.1101 17.7634 18.1101 19.7992 18.1101C19.9119 18.1101 20.0316 18.1101 20.1373 18.0819C20.3768 18.0256 20.5036 17.772 20.4261 17.5466C20.3486 17.3141 20.1654 17.2367 19.933 17.2367C18.8693 17.2437 17.8057 17.2437 16.742 17.2437ZM16.7139 19.5541C15.6502 19.5541 14.5866 19.5541 13.5229 19.5541C13.22 19.5541 13.0298 19.7232 13.0298 19.9838C13.0298 20.2374 13.22 20.4065 13.5229 20.4206C13.5863 20.4206 13.6427 20.4206 13.7061 20.4206C15.7277 20.4206 17.7493 20.4206 19.771 20.4206C19.8485 20.4206 19.9259 20.4206 20.0105 20.4206C20.2711 20.4065 20.4542 20.2304 20.4542 19.9909C20.4542 19.7443 20.2641 19.5612 19.9893 19.5612C18.8905 19.5541 17.8057 19.5541 16.7139 19.5541ZM16.7139 22.731C16.8829 22.731 17.0449 22.731 17.214 22.731C18.1227 22.731 19.0243 22.731 19.933 22.731C20.25 22.731 20.4542 22.5549 20.4542 22.2943C20.4542 22.0337 20.257 21.8716 19.933 21.8646C19.8978 21.8646 19.8626 21.8646 19.8273 21.8646C17.7705 21.8646 15.7136 21.8646 13.6568 21.8646C13.5722 21.8646 13.4807 21.8575 13.3961 21.8787C13.1003 21.928 12.9453 22.245 13.0932 22.5056C13.1918 22.6887 13.3609 22.7381 13.5581 22.7381C14.6077 22.731 15.6573 22.731 16.7139 22.731ZM15.77 14.412C16.0588 14.412 16.3194 14.419 16.58 14.412C16.89 14.405 17.0731 14.2429 17.0802 13.9894C17.0872 13.7217 16.89 13.5526 16.573 13.5456C16.3124 13.5456 16.0517 13.5456 15.8052 13.5456C15.7841 13.4963 15.777 13.4751 15.777 13.4611C15.777 13.2216 15.777 12.9891 15.77 12.7496C15.7629 12.4256 15.6009 12.2354 15.3332 12.2354C15.0726 12.2354 14.9106 12.4256 14.9036 12.7567C14.9036 13.0173 14.9036 13.2779 14.9036 13.5456C14.6147 13.5456 14.3682 13.5456 14.1217 13.5456C13.7906 13.5456 13.6004 13.7006 13.5934 13.9682C13.5863 14.2429 13.7765 14.405 14.1217 14.412C14.3752 14.412 14.6218 14.412 14.9036 14.412C14.9036 14.7149 14.8965 14.9755 14.9036 15.2362C14.9106 15.5461 15.0726 15.7222 15.3403 15.7222C15.6009 15.7222 15.7629 15.539 15.77 15.2291C15.777 14.9685 15.77 14.7079 15.77 14.412Z" fill="white"/>
<path d="M12.8413 9.94837C12.5947 9.94837 12.3552 9.94133 12.1087 9.94837C11.045 9.9695 10.3759 10.6457 10.3688 11.7164C10.3688 14.3086 10.3688 16.9008 10.3688 19.493C10.3688 19.5987 10.3688 19.6973 10.3688 19.8241C10.235 19.8241 10.1434 19.8241 10.0518 19.8241C7.27649 19.8241 4.4941 19.8241 1.71874 19.8241C0.662139 19.8241 0.00704404 19.169 0 18.1195C0 16.922 0 15.7315 0 14.534C0.00704404 11.7023 1.99346 9.45529 4.80403 9.09604C4.92378 9.08196 5.05057 9.07491 5.17032 9.07491C6.88202 9.07491 8.60077 9.06082 10.3125 9.08196C11.2352 9.089 12.0805 9.39189 12.8413 9.94837Z" fill="white"/>
<path d="M11.4911 3.79676C11.4911 5.89588 9.78648 7.60054 7.68032 7.59349C5.59528 7.59349 3.89062 5.88179 3.89062 3.79676C3.89062 1.70468 5.60233 -0.00702237 7.70145 2.16633e-05C9.78648 2.16633e-05 11.4911 1.70468 11.4911 3.79676Z" fill="white"/>
<path d="M19.9062 11.3516C20.4979 11.9503 21.1037 12.5631 21.6954 13.1619C21.1319 13.1619 20.5261 13.1619 19.9062 13.1619C19.9062 12.549 19.9062 11.9292 19.9062 11.3516Z" fill="white"/>
</svg>
