<svg width="26" height="26" viewBox="0 0 26 26" fill="none" xmlns="http://www.w3.org/2000/svg">
<rect x="11.0781" y="6.38281" width="4.64122" height="2.98818" fill="white"/>
<path fill-rule="evenodd" clip-rule="evenodd" d="M17.7701 26H2.03451C2.02801 25.9968 2.02194 25.9935 2.01606 25.9904L2.01594 25.9903L2.01585 25.9903C1.9988 25.9811 1.98343 25.9729 1.96457 25.9682C0.737509 25.7393 0 24.8556 0 23.6031V2.40609C0 2.1772 0.0190735 1.94832 0.0826518 1.73216C0.375112 0.651325 1.23342 0.00918353 2.36511 0.0028257C4.83666 -0.00141366 7.30821 5.39589e-07 9.77787 0.00141366C11.012 0.00211982 12.2457 0.0028257 13.4786 0.0028257C13.5485 0.0028257 13.6248 0.00918353 13.7011 0.0155414V5.19082C13.7011 5.81388 13.9745 6.09363 14.5912 6.09363H19.4868H19.7856C19.7856 6.35468 19.7852 6.61295 19.7848 6.86912V6.87014V6.87116V6.87217V6.87317V6.87418V6.87424V6.87431V6.87437V6.87444V6.87451C19.7836 7.63964 19.7824 8.38616 19.7919 9.13267C19.7919 9.31705 19.7411 9.44421 19.6076 9.57136L19.607 9.5719L19.6068 9.57208L19.6067 9.57226L19.6065 9.57244L19.6063 9.57261L19.6061 9.57279C17.979 11.1872 16.3519 12.8016 14.7375 14.4287C14.4514 14.7212 14.1716 15.0582 14.0254 15.4333C13.6821 16.2916 13.3896 17.1817 13.1353 18.0718C12.9382 18.7648 13.1544 19.4006 13.6884 19.8901C14.2225 20.3733 14.8519 20.5323 15.5513 20.3034C16.0218 20.1508 16.4923 19.9925 16.9628 19.8343C17.198 19.7552 17.4332 19.6761 17.6684 19.5977C18.177 19.4324 18.6221 19.1653 18.9972 18.7902C19.0989 18.6885 19.2023 18.5883 19.3056 18.4882C19.4089 18.3881 19.5122 18.2879 19.6139 18.1862C19.6389 18.1612 19.6659 18.1423 19.6972 18.1203L19.6972 18.1203C19.7216 18.1031 19.7486 18.0841 19.7792 18.0591C19.7792 18.6114 19.7803 19.16 19.7813 19.7062L19.7813 19.7078V19.7079V19.708V19.7081V19.7082V19.7083C19.7839 21.0665 19.7865 22.4095 19.7729 23.7557C19.7665 24.4487 19.4613 25.0209 18.9209 25.4723C18.5903 25.7648 18.1834 25.8919 17.7701 26ZM12.97 9.14539H12.2189V7.61951H14.3433C14.7883 7.61951 15.1062 7.84203 15.1825 8.20443C15.2842 8.69398 14.9536 9.12631 14.445 9.13903C14.073 9.14857 13.7045 9.14737 13.3369 9.14618H13.3366H13.3363H13.336H13.3357H13.3354C13.2135 9.14579 13.0918 9.14539 12.97 9.14539ZM25.9899 9.29807C25.8195 9.88357 25.4088 10.2679 25.0015 10.6491C24.8161 10.8226 24.6314 10.9955 24.4703 11.1863C23.7392 10.4552 23.0335 9.74948 22.2896 9.01197C22.4252 8.88443 22.5589 8.74916 22.694 8.61252L22.694 8.61249L22.6941 8.61246L22.6942 8.61231L22.6942 8.61228L22.6943 8.61225C22.9833 8.31983 23.2785 8.02115 23.612 7.77855C24.4322 7.18092 25.5957 7.61961 25.9136 8.586C25.9266 8.6208 25.9427 8.65561 25.9596 8.69245L25.9596 8.69251C25.9675 8.70949 25.9755 8.7269 25.9835 8.74494C25.9899 8.92296 25.9899 9.10734 25.9899 9.29807ZM21.8993 10.8857L21.8974 10.8838C21.67 10.6556 21.4444 10.4293 21.2222 10.2072C19.5692 11.8538 17.9034 13.5196 16.2822 15.1408C16.6263 15.485 16.9753 15.8355 17.3234 16.1853L17.3235 16.1853L17.3247 16.1865C17.6707 16.5341 18.0159 16.8809 18.3548 17.2198L23.2949 12.2798C22.8309 11.8201 22.3613 11.3491 21.8993 10.8857ZM15.2013 0.00924894C15.907 -0.00346672 16.492 0.231773 16.9815 0.70861C17.6809 1.39526 18.3739 2.08826 19.0605 2.78762C19.5374 3.27082 19.7853 3.84938 19.7535 4.5551H15.195C15.2013 3.04852 15.2013 1.54194 15.2013 0.00993846V0.00924894ZM17.0324 18.2177L15.2649 16.4502C15.2098 16.6172 15.1534 16.7859 15.0965 16.9561C14.9367 17.4341 14.7728 17.9242 14.6228 18.4211C14.5401 18.7009 14.7944 18.9488 15.0615 18.8662C15.5539 18.7161 16.0395 18.5522 16.5207 18.3897L16.5219 18.3893L16.5244 18.3885C16.6942 18.3311 16.8635 18.274 17.0324 18.2177Z" fill="white"/>
<path d="M12.0881 18.5813C12.0057 18.8021 11.8438 18.8756 11.6172 18.8727C11.1404 18.8639 10.6665 18.8698 10.1896 18.8698C9.91589 18.8698 9.81287 18.7991 9.71574 18.5401C9.57446 18.1604 9.43317 17.7807 9.29189 17.401C9.28011 17.3686 9.2654 17.3333 9.24479 17.2862C9.11823 17.5805 8.99755 17.8631 8.87687 18.1427C8.76502 18.4076 8.65317 18.6725 8.53837 18.9345C8.42947 19.1759 8.17633 19.2524 7.97618 19.1141C7.87905 19.0464 7.84078 18.9463 7.81429 18.8403C7.59353 18.022 7.37572 17.2038 7.15496 16.3855C7.14613 16.3531 7.13436 16.3178 7.10787 16.2825C7.07844 16.4267 7.049 16.568 7.02251 16.7122C6.71051 18.3341 6.39851 19.9588 6.0865 21.5806C6.04824 21.7867 5.91578 21.9103 5.73035 21.9162C5.54491 21.9221 5.40363 21.8073 5.35065 21.6071C5.07985 20.5416 4.812 19.479 4.54121 18.4135C4.53532 18.3841 4.52649 18.3576 4.51177 18.3046C4.44996 18.4665 4.39698 18.6078 4.344 18.752C4.24392 19.0169 4.14973 19.0817 3.86422 19.0817C3.35207 19.0817 2.83991 19.0846 2.32775 19.0817C2.0599 19.0787 1.8833 18.8403 1.96571 18.596C2.0187 18.443 2.15409 18.3488 2.33364 18.3488C2.76044 18.3488 3.18723 18.3458 3.61109 18.3517C3.68762 18.3517 3.71999 18.3252 3.74354 18.2575C3.89954 17.8307 4.06143 17.4039 4.22037 16.9801C4.27924 16.827 4.37638 16.7211 4.55004 16.7063C4.71781 16.6916 4.86498 16.7711 4.91502 16.933C4.99155 17.1743 5.05042 17.4216 5.11223 17.6688C5.29472 18.3811 5.47427 19.0935 5.65971 19.8352C5.67442 19.7881 5.68325 19.7646 5.68914 19.741C6.02175 18.0191 6.35141 16.2943 6.68402 14.5724C6.7164 14.4016 6.80175 14.2751 6.97836 14.2368C7.12553 14.2044 7.25798 14.2486 7.34629 14.3722C7.3875 14.4281 7.41399 14.5017 7.43165 14.5694C7.70538 15.579 7.97324 16.5886 8.24697 17.5982C8.25286 17.6247 8.26169 17.6482 8.27641 17.6894C8.29701 17.6453 8.31173 17.6129 8.32645 17.5805C8.52366 17.1214 8.72086 16.6592 8.91807 16.1971C8.97694 16.0617 9.0623 15.9587 9.21536 15.9352C9.40668 15.9057 9.5568 15.9999 9.63333 16.1912C9.70397 16.3678 9.76872 16.5503 9.83348 16.7299C9.99831 17.1714 10.1631 17.6129 10.325 18.0544C10.3486 18.1192 10.378 18.1368 10.4457 18.1368C10.8401 18.1339 11.2316 18.1398 11.626 18.1339C11.8527 18.128 12.0175 18.2075 12.094 18.4282C12.0881 18.4753 12.0881 18.5283 12.0881 18.5813Z" fill="white"/>
</svg>
