<svg width="43" height="43" viewBox="0 0 43 43" fill="none" xmlns="http://www.w3.org/2000/svg">
<path d="M22.5078 34.9912C22.5078 32.5041 22.5129 30.017 22.5078 27.5299C22.5078 27.3214 22.5638 27.1637 22.6807 26.9959C23.7844 25.4548 24.8728 23.9086 25.9816 22.3726C26.1138 22.1895 26.3122 22.042 26.5055 21.9047C26.6733 21.7827 27.1412 22.0624 27.1463 22.276C27.1463 23.9493 27.1463 25.6277 27.1514 27.301C27.1514 27.4689 27.07 27.5248 26.9378 27.5909C26.0681 28.008 25.5951 28.893 25.707 29.8644C25.8138 30.7545 26.5207 31.5123 27.4311 31.7056C28.4941 31.9294 29.5571 31.3394 29.9284 30.3171C30.2997 29.2948 29.8724 28.1555 28.9112 27.652C28.723 27.5503 28.6518 27.4536 28.6518 27.2349C28.667 25.9075 28.6569 24.58 28.6569 23.2525C28.6569 23.1712 28.6569 23.0898 28.6569 22.9677C28.7484 23.0186 28.8145 23.0491 28.8756 23.0898C31.9221 25.2158 33.7836 28.0945 34.3634 31.7666C34.4804 32.5143 34.4703 33.2823 34.5109 34.0401C34.5262 34.3605 34.5262 34.6809 34.5364 35.0014C30.5285 34.9912 26.5156 34.9912 22.5078 34.9912ZM24.2879 32.56C24.6948 32.5702 25.0559 32.2396 25.061 31.8531C25.0712 31.4208 24.7355 31.0596 24.3185 31.0546C23.9167 31.0495 23.5555 31.3902 23.5555 31.7768C23.5555 32.2091 23.876 32.555 24.2879 32.56Z" fill="#379E1E"/>
<path d="M9.00334 34.9888C8.99825 33.7783 8.97282 32.5679 9.20678 31.3726C9.91374 27.7361 11.8363 24.9235 14.9235 22.8941C14.9642 22.8687 15.01 22.8433 15.0812 22.8077C15.0863 22.8891 15.0965 22.9552 15.0965 23.0162C15.0965 24.3589 15.0965 25.7067 15.1015 27.0495C15.1015 27.2173 15.0659 27.2936 14.8828 27.3394C13.2502 27.7361 12.0906 29.1805 12.0499 30.8691C12.0397 31.3574 12.0499 31.8456 12.0499 32.3542C12.5534 32.3542 13.0366 32.3542 13.5605 32.3542C13.5605 32.2322 13.5554 32.1203 13.5605 32.0033C13.5808 31.4896 13.535 30.9607 13.6317 30.4622C13.8504 29.3484 14.9134 28.6262 16.0425 28.7533C17.1258 28.8754 17.9701 29.801 17.9955 30.9047C18.0057 31.3574 17.9955 31.8151 17.9955 32.283C18.5092 32.283 18.9975 32.283 19.4857 32.283C19.6281 30.6708 19.5112 29.1449 18.1074 28.0616C17.6751 27.7259 17.1512 27.5123 16.668 27.2427C16.6477 27.2631 16.6324 27.2834 16.6121 27.3038C16.6121 27.2021 16.6121 27.1003 16.6121 27.0037C16.6121 25.4118 16.6121 23.8249 16.6172 22.233C16.6172 22.1363 16.668 22.0092 16.7393 21.9481C16.8562 21.8413 16.9936 21.8515 17.1156 21.9787C17.2835 22.1516 17.4869 22.2991 17.6242 22.4974C18.7025 24.0029 19.7756 25.5135 20.8437 27.024C20.92 27.1359 20.9912 27.2783 20.9912 27.4106C21.0014 29.8977 20.9963 32.3848 20.9963 34.8718C20.9963 34.9125 20.9912 34.9532 20.9861 34.999C16.9885 34.9888 12.9959 34.9888 9.00334 34.9888Z" fill="#379E1E"/>
<path d="M28.2053 15.4441C28.2155 19.0043 25.3266 21.8983 21.7613 21.9034C18.201 21.9085 15.302 19.0196 15.2969 15.4644C15.2918 11.9092 18.1858 9.00509 21.746 9.00001C25.3012 8.99492 28.1952 11.8787 28.2053 15.4441Z" fill="#379E1E"/>
<path d="M23.46 23.2891C22.87 24.1232 22.3207 24.8861 21.7562 25.6846C21.1916 24.8912 20.6474 24.1232 20.0625 23.2992C21.2069 23.5179 22.3004 23.5332 23.46 23.2891Z" fill="#379E1E"/>
<path d="M27.8798 28.8985C28.246 28.9036 28.541 29.1935 28.541 29.5597C28.5461 29.9361 28.2409 30.2361 27.8646 30.2311C27.4882 30.226 27.1932 29.9259 27.2034 29.5444C27.2136 29.1782 27.5136 28.8934 27.8798 28.8985Z" fill="#379E1E"/>
</svg>
