<svg width="22" height="29" viewBox="0 0 22 29" fill="none" xmlns="http://www.w3.org/2000/svg">
<path d="M0.440338 28.1517C0.117168 27.9901 0.0143413 27.7184 0.0143413 27.3658C0.0363756 25.7867 -0.0591067 24.2076 0.0657545 22.6358C0.374235 18.8459 2.29122 16.0695 5.63309 14.2627C5.64778 14.2554 5.66982 14.2554 5.72123 14.248C5.58903 14.6226 5.45682 14.9752 5.3393 15.3351C4.81782 16.9142 4.4359 18.5227 4.19352 20.1606C4.16414 20.3369 4.09069 20.3956 3.93645 20.4544C2.80536 20.8363 2.13698 21.9527 2.3206 23.1132C2.50422 24.259 3.49576 25.1183 4.65624 25.133C5.84609 25.155 6.85967 24.3251 7.08002 23.1499C7.28567 22.0555 6.66871 20.9391 5.61106 20.5058C5.53027 20.4691 5.44213 20.4397 5.30258 20.3809C5.54496 19.2939 5.74327 18.1922 6.05175 17.1272C6.37492 16.0034 6.80826 14.9164 7.19019 13.8074C7.24894 13.6384 7.34443 13.5503 7.51336 13.5209C8.23314 13.4034 8.95293 13.2198 9.68007 13.1757C11.1417 13.0949 12.6106 13.0729 14.0576 13.4034C14.322 13.4622 14.4689 13.5576 14.5129 13.8441C14.6745 14.9091 14.8508 15.9741 15.0271 17.0391C15.0638 17.2521 14.9756 17.3622 14.7773 17.4577C13.6609 18.0086 12.6327 18.6916 11.7954 19.6244C11.2445 20.234 10.8626 20.9318 10.7597 21.7617C10.6422 22.7166 11.2665 23.9064 12.1259 24.3398C12.3829 24.472 12.6988 24.3985 12.8677 24.1708C13.044 23.9358 13.0219 23.6273 12.8163 23.4143C12.7355 23.3335 12.6327 23.2674 12.5372 23.1866C11.9276 22.6725 11.7733 22.0482 12.0892 21.3137C12.3536 20.6968 12.7722 20.1973 13.301 19.808C13.918 19.3527 14.5717 18.9487 15.218 18.5374C15.2841 18.4933 15.431 18.486 15.4751 18.5227C16.3712 19.338 17.1644 20.234 17.6124 21.3725C17.6932 21.5855 17.752 21.8058 17.7887 22.0335C17.9282 22.8708 17.6051 23.451 16.8192 23.7889C16.7457 23.8183 16.6649 23.8477 16.5915 23.8844C16.2977 24.0313 16.1802 24.3324 16.2977 24.6262C16.4079 24.9127 16.709 25.0596 17.0175 24.9714C18.3763 24.5895 19.1989 23.2748 18.9639 21.8719C18.7802 20.7775 18.2441 19.8594 17.5537 19.0221C17.1791 18.5668 16.7457 18.1555 16.3418 17.7148C16.2757 17.6413 16.1949 17.5385 16.1949 17.4504C16.239 16.3119 16.0039 15.2102 15.7762 14.1085C15.7689 14.0644 15.7615 14.0204 15.7983 13.9175C16.3491 14.2334 16.9294 14.5051 17.4435 14.8723C20.4181 16.9509 21.9312 19.8154 21.9899 23.4437C22.0119 24.7437 21.9899 26.0438 21.9973 27.3511C21.9973 27.7037 21.8944 27.9754 21.5713 28.137C14.5203 28.1517 7.47663 28.1517 0.440338 28.1517Z" fill="#848484"/>
<path d="M10.9863 12.2218C7.60772 12.2144 4.88281 9.47482 4.88281 6.09622C4.89016 2.72497 7.6371 -0.0146308 11.0157 5.87985e-05C14.387 0.00740357 17.1192 2.76904 17.1045 6.14029C17.0898 9.51154 14.3502 12.2291 10.9863 12.2218Z" fill="#848484"/>
</svg>
