<svg width="19" height="24" viewBox="0 0 19 24" fill="none" xmlns="http://www.w3.org/2000/svg">
<path d="M0.374291 23.9291C0.0995939 23.7917 0.0121902 23.5607 0.0121902 23.2611C0.0309196 21.9188 -0.0502412 20.5765 0.0558919 19.2405C0.318103 16.019 1.94756 13.6591 4.78818 12.1233C4.80067 12.1171 4.8194 12.1171 4.8631 12.1108C4.75072 12.4292 4.63835 12.7289 4.53846 13.0348C4.09519 14.3771 3.77055 15.7443 3.56453 17.1366C3.53956 17.2864 3.47712 17.3363 3.34602 17.3863C2.38458 17.7109 1.81645 18.6599 1.97253 19.6463C2.12861 20.6202 2.97143 21.3507 3.95784 21.3632C4.96923 21.3819 5.83078 20.6764 6.01808 19.6775C6.19288 18.7473 5.66846 17.7983 4.76945 17.43C4.70078 17.3988 4.62586 17.3738 4.50724 17.3239C4.71326 16.3999 4.88183 15.4634 5.14404 14.5581C5.41874 13.603 5.78708 12.679 6.11172 11.7363C6.16167 11.5927 6.24283 11.5177 6.38642 11.4928C6.99825 11.3929 7.61007 11.2368 8.22814 11.1993C9.47052 11.1307 10.7191 11.1119 11.949 11.3929C12.1738 11.4428 12.2987 11.524 12.3361 11.7675C12.4735 12.6727 12.6233 13.578 12.7731 14.4832C12.8044 14.6643 12.7294 14.7579 12.5609 14.8391C11.6119 15.3073 10.7379 15.8879 10.0262 16.6808C9.55793 17.199 9.23328 17.7921 9.14588 18.4976C9.04599 19.3092 9.57666 20.3206 10.3071 20.6889C10.5256 20.8013 10.7941 20.7388 10.9377 20.5453C11.0875 20.3455 11.0688 20.0833 10.894 19.9023C10.8253 19.8336 10.7379 19.7774 10.6567 19.7087C10.1385 19.2717 10.0074 18.741 10.2759 18.1167C10.5006 17.5923 10.8565 17.1678 11.306 16.8369C11.8304 16.4498 12.3861 16.1064 12.9355 15.7568C12.9916 15.7194 13.1165 15.7131 13.154 15.7443C13.9156 16.4373 14.5899 17.199 14.9707 18.1667C15.0394 18.3477 15.0893 18.535 15.1206 18.7286C15.2392 19.4403 14.9645 19.9335 14.2965 20.2207C14.234 20.2456 14.1654 20.2706 14.1029 20.3018C13.8532 20.4267 13.7533 20.6827 13.8532 20.9324C13.9468 21.1759 14.2028 21.3007 14.465 21.2258C15.62 20.9012 16.3192 19.7836 16.1194 18.5912C15.9634 17.661 15.5076 16.8806 14.9208 16.1689C14.6024 15.7818 14.234 15.4322 13.8907 15.0576C13.8345 14.9952 13.7658 14.9078 13.7658 14.8328C13.8033 13.8652 13.6035 12.9287 13.4099 11.9922C13.4037 11.9548 13.3974 11.9173 13.4287 11.8299C13.8969 12.0984 14.3901 12.3294 14.8271 12.6415C17.3556 14.4083 18.6417 16.8431 18.6916 19.9272C18.7103 21.0323 18.6916 22.1373 18.6979 23.2486C18.6979 23.5482 18.6105 23.7792 18.3358 23.9166C12.3424 23.9291 6.3552 23.9291 0.374291 23.9291Z" fill="white"/>
<path d="M9.34038 10.3886C6.46854 10.3824 4.15234 8.05368 4.15234 5.18184C4.15859 2.31625 6.49352 -0.0124363 9.36535 4.99793e-05C12.2309 0.0062931 14.5534 2.35371 14.5409 5.2193C14.5284 8.0849 12.1997 10.3949 9.34038 10.3886Z" fill="white"/>
</svg>
