<svg width="25" height="24" viewBox="0 0 25 24" fill="none" xmlns="http://www.w3.org/2000/svg">
<path d="M24.0419 11.2497C24.0419 11.7319 24.0419 12.2204 24.0419 12.7026C24.0294 12.7777 24.0106 12.8529 24.0043 12.928C23.9417 13.3977 23.8979 13.8736 23.8102 14.3433C22.8771 19.1717 18.9568 22.9917 14.0909 23.8184C13.6525 23.8935 13.2141 23.9436 12.7695 24C12.2685 24 11.7675 24 11.2665 24C11.2164 23.9875 11.1663 23.9624 11.11 23.9624C10.0892 23.8873 9.09346 23.7057 8.13531 23.3487C3.77039 21.733 1.12138 18.6394 0.182014 14.0866C0.0943396 13.6482 0.056765 13.191 -0.00585938 12.7464C-0.00585938 12.2454 -0.00585938 11.7444 -0.00585938 11.2434C0.0317153 10.9553 0.056765 10.6735 0.100602 10.3855C0.520185 7.52979 1.75389 5.08118 3.91443 3.14608C6.78262 0.57222 10.1581 -0.417245 13.9656 0.158899C16.2577 0.503333 18.2679 1.48654 19.9964 3.03336C22.0692 4.88704 23.3656 7.18535 23.854 9.9283C23.9354 10.3667 23.9793 10.8113 24.0419 11.2497ZM12.018 2.00006C6.50081 2.00006 2.01065 6.46517 2.00438 11.9573C1.99812 17.5121 6.4695 22.0023 12.0055 21.996C17.5603 21.9898 22.0379 17.5184 22.0317 11.9824C22.0317 6.46517 17.5478 2.00006 12.018 2.00006Z" fill="#21519A"/>
<path d="M11.9169 15.9949C11.2531 15.9886 10.5705 15.7569 10.0257 15.2371C8.77945 14.0535 7.54575 12.8512 6.31831 11.6488C5.92378 11.2668 5.94883 10.6343 6.33084 10.2522C6.72537 9.85772 7.33909 9.85772 7.76494 10.271C8.64168 11.1227 9.5059 11.9807 10.3826 12.8324C10.6832 13.1267 10.9964 13.4148 11.3095 13.6966C11.7604 14.1036 12.3052 14.1162 12.7436 13.6966C13.9334 12.5568 15.117 11.4045 16.3006 10.2522C16.5449 10.0143 16.8204 9.87024 17.1649 9.91408C17.5719 9.95791 17.8663 10.1771 18.004 10.5654C18.1481 10.9536 18.0666 11.3106 17.7786 11.6049C17.3778 12.012 16.9707 12.4065 16.5574 12.8073C15.7245 13.6089 14.8979 14.423 14.0524 15.2121C13.4763 15.7319 12.7937 15.9886 11.9169 15.9949Z" fill="#21519A"/>
</svg>
