<svg width="29" height="26" viewBox="0 0 29 26" fill="none" xmlns="http://www.w3.org/2000/svg">
<path d="M6.13331 0C6.36569 0 6.58855 0.0856024 6.75287 0.237976C6.91719 0.390349 7.0095 0.597012 7.0095 0.8125V1.625H21.0285V0.8125C21.0285 0.597012 21.1208 0.390349 21.2851 0.237976C21.4494 0.0856024 21.6723 0 21.9047 0C22.1371 0 22.3599 0.0856024 22.5243 0.237976C22.6886 0.390349 22.7809 0.597012 22.7809 0.8125V1.625H24.5333C25.4628 1.625 26.3542 1.96741 27.0115 2.5769C27.6688 3.1864 28.038 4.01305 28.038 4.875V22.75C28.038 23.612 27.6688 24.4386 27.0115 25.0481C26.3542 25.6576 25.4628 26 24.5333 26H3.50475C2.57523 26 1.68379 25.6576 1.02652 25.0481C0.369249 24.4386 0 23.612 0 22.75V8.125H28.038V6.5H0V4.875C0 4.01305 0.369249 3.1864 1.02652 2.5769C1.68379 1.96741 2.57523 1.625 3.50475 1.625H5.25713V0.8125C5.25713 0.597012 5.34944 0.390349 5.51376 0.237976C5.67807 0.0856024 5.90093 0 6.13331 0Z" fill="#1D57AD"/>
<path d="M9.70312 16.75C9.70312 16.5511 9.78834 16.3603 9.94001 16.2197C10.0917 16.079 10.2974 16 10.5119 16H17.5214C17.7359 16 17.9416 16.079 18.0933 16.2197C18.245 16.3603 18.3302 16.5511 18.3302 16.75C18.3302 16.9489 18.245 17.1397 18.0933 17.2803C17.9416 17.421 17.7359 17.5 17.5214 17.5H10.5119C10.2974 17.5 10.0917 17.421 9.94001 17.2803C9.78834 17.1397 9.70312 16.9489 9.70312 16.75Z" fill="#1E57AD"/>
</svg>
