<svg width="49" height="44" viewBox="0 0 49 44" fill="none" xmlns="http://www.w3.org/2000/svg">
<path fill-rule="evenodd" clip-rule="evenodd" d="M33.5272 33.5119V20.9405C33.5272 18.6261 31.651 16.75 29.3367 16.75H10.4795C8.1652 16.75 6.28906 18.6261 6.28906 20.9405V33.5119C6.28906 35.8262 8.1652 37.7024 10.4795 37.7024H29.3367C31.651 37.7024 33.5272 35.8262 33.5272 33.5119Z" stroke="white" stroke-width="2.2" stroke-linecap="round" stroke-linejoin="round"/>
<path d="M37.721 33.5118V18.856C37.721 15.3845 34.9068 12.5703 31.4353 12.5703H31.4244L12.5781 12.6029" stroke="white" stroke-width="2.2" stroke-linecap="round" stroke-linejoin="round"/>
<path d="M41.9085 29.3207V16.7638C41.9085 12.1351 38.1562 8.38281 33.5275 8.38281C33.5227 8.38281 33.5179 8.38281 33.513 8.38281L16.7656 8.41176" stroke="white" stroke-width="2.2" stroke-linecap="round" stroke-linejoin="round"/>
</svg>
