<svg width="40" height="37" viewBox="0 0 40 37" fill="none" xmlns="http://www.w3.org/2000/svg">
<g filter="url(#filter0_d_1_561)">
<rect x="4.64844" y="3" width="31.32" height="29" rx="5" fill="#033279"/>
</g>
<path d="M25.9571 26.1954C22.2052 26.1954 18.4488 26.1954 14.697 26.1954C14.6607 26.1863 14.6245 26.1682 14.5882 26.1637C12.9388 25.9552 11.652 24.5188 11.6474 22.8468C11.6384 19.2898 11.6384 15.7327 11.6474 12.1802C11.652 10.3405 13.1609 8.83164 15.0005 8.82711C18.5485 8.81805 22.101 8.81805 25.649 8.82711C27.1579 8.83164 28.472 9.84664 28.8798 11.3057C28.9341 11.496 28.9659 11.6863 29.0112 11.8812C29.0112 15.6376 29.0112 19.3895 29.0112 23.1459C29.0021 23.1776 28.984 23.2093 28.9795 23.241C28.7937 24.6457 27.7787 25.7785 26.3966 26.1048C26.2516 26.1365 26.1066 26.1637 25.9571 26.1954ZM23.1885 13.6937C23.193 13.7073 23.2021 13.7209 23.2066 13.7345C22.9574 13.9837 22.7037 14.2329 22.4545 14.4821C21.9334 15.0032 21.4123 15.5198 20.8957 16.0409C20.5377 16.4034 20.6737 16.9788 21.1495 17.1148C21.4032 17.1873 21.6252 17.1148 21.811 16.9245C22.5315 16.1995 23.2565 15.479 23.977 14.754C24.0177 14.7087 24.0449 14.6498 24.0766 14.5954C24.0993 14.609 24.122 14.6226 24.1401 14.6362C24.1401 14.6951 24.1401 14.7585 24.1401 14.8174C24.1401 15.3204 24.1355 15.8234 24.1401 16.3263C24.1446 16.7341 24.4029 17.0105 24.7745 17.0105C25.146 17.0105 25.4088 16.7296 25.4088 16.3218C25.4088 15.2479 25.4088 14.174 25.4088 13.1001C25.4088 12.6832 25.146 12.4204 24.7337 12.4204C24.2488 12.4204 23.7595 12.4204 23.2746 12.4204C22.672 12.4204 22.0648 12.4204 21.4621 12.4204C21.0951 12.4204 20.8187 12.6877 20.8051 13.0366C20.7915 13.381 21.0543 13.662 21.4259 13.6891C21.5346 13.6982 21.6388 13.6937 21.7476 13.6937C22.2279 13.6982 22.7082 13.6937 23.1885 13.6937ZM17.4157 21.3288C17.4882 21.2518 17.5335 21.2065 17.5743 21.1612C18.0818 20.6537 18.5893 20.1462 19.0968 19.6387C19.3234 19.4121 19.559 19.1901 19.7765 18.9545C20.1118 18.601 19.9668 18.0391 19.5137 17.9032C19.2509 17.8262 19.0288 17.9032 18.8385 18.098C18.118 18.823 17.393 19.5435 16.6726 20.273C16.6318 20.3138 16.6182 20.3818 16.591 20.4362C16.5638 20.418 16.5412 20.3954 16.514 20.3773C16.514 20.3184 16.514 20.2549 16.514 20.196C16.514 19.6704 16.523 19.1448 16.5095 18.6191C16.5004 18.2566 16.2195 18.0074 15.8705 18.0074C15.5307 18.012 15.2498 18.2748 15.2452 18.6146C15.2407 19.7384 15.2407 20.8621 15.2452 21.9859C15.2452 22.3121 15.5126 22.5885 15.8388 22.5885C16.9762 22.5976 18.109 22.5976 19.2463 22.5885C19.5862 22.5885 19.8535 22.2895 19.8535 21.9587C19.8535 21.6143 19.5862 21.3334 19.2327 21.3288C18.7071 21.3198 18.1815 21.3243 17.6559 21.3243C17.5879 21.3288 17.529 21.3288 17.4157 21.3288Z" fill="white"/>
<defs>
<filter id="filter0_d_1_561" x="0.648438" y="0" width="39.3203" height="37" filterUnits="userSpaceOnUse" color-interpolation-filters="sRGB">
<feFlood flood-opacity="0" result="BackgroundImageFix"/>
<feColorMatrix in="SourceAlpha" type="matrix" values="0 0 0 0 0 0 0 0 0 0 0 0 0 0 0 0 0 0 127 0" result="hardAlpha"/>
<feOffset dy="1"/>
<feGaussianBlur stdDeviation="2"/>
<feComposite in2="hardAlpha" operator="out"/>
<feColorMatrix type="matrix" values="0 0 0 0 0 0 0 0 0 0 0 0 0 0 0 0 0 0 0.25 0"/>
<feBlend mode="normal" in2="BackgroundImageFix" result="effect1_dropShadow_1_561"/>
<feBlend mode="normal" in="SourceGraphic" in2="effect1_dropShadow_1_561" result="shape"/>
</filter>
</defs>
</svg>
