<svg width="13" height="7" viewBox="0 0 13 7" fill="none" xmlns="http://www.w3.org/2000/svg">
<path d="M5.92279 6.99491C5.25898 6.98864 4.57637 6.75693 4.03154 6.23715C2.78531 5.05355 1.55161 3.85116 0.324174 2.64877C-0.0703598 2.26676 -0.0453102 1.63426 0.336699 1.25225C0.731232 0.857715 1.34495 0.857715 1.7708 1.27104C2.64754 2.12273 3.51175 2.98068 4.3885 3.83237C4.68909 4.12671 5.00222 4.41478 5.31534 4.69659C5.76623 5.10365 6.31107 5.11617 6.74944 4.69659C7.9393 3.55683 9.1229 2.40454 10.3065 1.25225C10.5507 1.01428 10.8263 0.870241 11.1707 0.914078C11.5778 0.957915 11.8721 1.1771 12.0099 1.56537C12.1539 1.95364 12.0725 2.3106 11.7844 2.60494C11.3836 3.01199 10.9766 3.40653 10.5633 3.80732C9.73036 4.60892 8.90372 5.42303 8.05829 6.2121C7.48214 6.73188 6.79953 6.98864 5.92279 6.99491Z" fill="#21519A"/>
</svg>
