<svg width="30" height="30" viewBox="0 0 30 30" fill="none" xmlns="http://www.w3.org/2000/svg">
<path d="M15.9687 22.9844C14.8672 22.9844 13.7969 22.9844 12.7109 22.9844C12.7109 16.4297 12.7109 9.89063 12.7109 3.32812C12.8125 3.32812 12.9062 3.32812 13 3.32812C14.8828 3.32812 16.7656 3.32812 18.6484 3.32812C19.6016 3.32812 20.1797 3.89844 20.1797 4.85156C20.1797 10.3906 20.1797 15.9219 20.1797 21.4609C20.1797 22.3984 19.6016 22.9766 18.6641 22.9766C18.0937 22.9766 17.5156 22.9766 16.9453 22.9766C16.9453 23.5625 16.8828 24.1406 16.9609 24.6953C17.0469 25.3438 17.6328 25.7734 18.2969 25.7813C20.0156 25.7891 21.7266 25.7891 23.4453 25.7813C24.2734 25.7813 24.8594 25.1641 24.8594 24.3125C24.8594 20.9688 24.8594 17.625 24.8594 14.2813C24.8594 13.2344 24.8594 12.1953 24.8594 11.1484C24.8594 11.0469 24.8594 10.9375 24.8594 10.8047C24.6719 10.8047 24.5078 10.8125 24.3438 10.8047C23.6094 10.7734 23.0078 10.1875 22.9922 9.45313C22.9766 8.51563 22.9844 7.57813 22.9922 6.64844C22.9922 6.30469 23.1719 6.13281 23.5234 6.13281C23.9609 6.125 24.3984 6.13281 24.8594 6.13281C24.8594 5.82813 24.8594 5.54688 24.8594 5.26563C24.8672 4.9375 25.0391 4.73438 25.3125 4.72656C25.5937 4.71875 25.7891 4.92969 25.7891 5.26563C25.7969 5.53906 25.7891 5.8125 25.7891 6.125C26.2187 6.125 26.6328 6.125 27.0469 6.125C27.5078 6.125 27.6562 6.28125 27.6641 6.74219C27.6641 7.57031 27.6641 8.39844 27.6641 9.22656C27.6641 10.2422 27.1094 10.8047 26.0937 10.8047C26.0078 10.8047 25.9219 10.8047 25.7891 10.8047C25.7891 10.9297 25.7891 11.0391 25.7891 11.1563C25.7891 15.4922 25.7891 19.8281 25.7891 24.1719C25.7891 25.75 24.8203 26.7188 23.2344 26.7188C21.6328 26.7188 20.0391 26.7188 18.4375 26.7188C16.9531 26.7188 15.9609 25.7266 15.9609 24.25C15.9688 23.8438 15.9687 23.4375 15.9687 22.9844ZM17.8359 8C17.8359 7.23438 17.2031 6.60938 16.4453 6.60156C15.6641 6.59375 15.0312 7.23438 15.0312 8.00781C15.0312 8.77344 15.6641 9.39844 16.4219 9.40625C17.2031 9.41406 17.8438 8.78125 17.8359 8ZM17.8359 13.1641C17.8359 12.3984 17.2188 11.7656 16.4531 11.7578C15.6719 11.75 15.0312 12.375 15.0312 13.1563C15.0312 13.9219 15.6484 14.5547 16.4141 14.5625C17.1953 14.5703 17.8359 13.9375 17.8359 13.1641ZM17.8359 18.3125C17.8438 17.5469 17.2266 16.9063 16.4609 16.8984C15.6797 16.8828 15.0391 17.5156 15.0312 18.2891C15.0234 19.0703 15.6562 19.7031 16.4375 19.7031C17.2031 19.7031 17.8359 19.0781 17.8359 18.3125Z" fill="#1855B0"/>
<path d="M11.7363 16.8828C9.55664 16.8828 7.39258 16.8828 5.20508 16.8828C5.20508 16.1875 5.19727 15.5078 5.21289 14.8281C5.21289 14.75 5.31445 14.6562 5.38477 14.5937C5.94727 14.0859 6.57227 13.6328 7.06445 13.0703C7.75977 12.2734 8.11133 11.3047 7.96289 10.2344C7.7832 8.91406 6.61914 8.25781 5.36914 8.72656C5.32227 8.74219 5.2832 8.75781 5.20508 8.78125C5.20508 8.65625 5.20508 8.57031 5.20508 8.47656C5.20508 7.26562 5.20508 6.0625 5.20508 4.85156C5.20508 3.91406 5.7832 3.33594 6.71289 3.33594C8.29102 3.33594 9.86914 3.33594 11.4551 3.33594C11.541 3.33594 11.627 3.33594 11.7363 3.33594C11.7363 7.85156 11.7363 12.3594 11.7363 16.8828Z" fill="#1855B0"/>
<path d="M5.20312 17.8516C7.39062 17.8516 9.54688 17.8516 11.7344 17.8516C11.7344 19.5469 11.7344 21.2422 11.7344 22.9688C11.6484 22.9766 11.5547 22.9844 11.4609 22.9844C9.88281 22.9844 8.30469 22.9844 6.72656 22.9844C5.78125 22.9844 5.20312 22.4063 5.20312 21.4531C5.20312 20.3516 5.20312 19.25 5.20312 18.1484C5.20312 18.0547 5.20312 17.9531 5.20312 17.8516Z" fill="#1855B0"/>
<path d="M7.075 10.7395C7.02031 11.4661 6.7 12.1927 6.09844 12.7786C5.73906 13.1302 5.33281 13.4427 4.93438 13.7473C4.85625 13.802 4.69219 13.8411 4.62188 13.802C3.65313 13.1458 2.77812 12.4114 2.48125 11.2083C2.41875 10.9505 2.39531 10.6692 2.41094 10.3958C2.43438 10.013 2.59844 9.69266 2.98906 9.55985C3.37187 9.42703 3.71562 9.52079 4.02031 9.78641C4.075 9.8411 4.12969 9.89578 4.17656 9.95828C4.66875 10.5989 4.78594 10.5833 5.29375 9.97391C5.46563 9.76297 5.74688 9.58328 6.0125 9.5286C6.65312 9.41141 7.08281 9.87235 7.075 10.7395ZM4.85625 12.4036C5.19219 12.4114 5.61406 12.2473 5.95781 11.9192C6.17656 11.7161 6.19219 11.4427 6.0125 11.2473C5.84063 11.0598 5.59062 11.052 5.35625 11.2161C4.87187 11.5677 4.59063 11.5677 4.11406 11.2161C3.87188 11.0364 3.60625 11.0598 3.43438 11.263C3.2625 11.4661 3.29375 11.7239 3.52031 11.9348C3.85625 12.2395 4.25469 12.4036 4.85625 12.4036Z" fill="#1855B0"/>
<path d="M16.9065 8C16.9143 8.25 16.7033 8.46875 16.4455 8.47656C16.1955 8.48438 15.9768 8.27344 15.969 8.01562C15.9611 7.75781 16.1721 7.54688 16.4299 7.53906C16.6799 7.53906 16.8986 7.74219 16.9065 8Z" fill="#1855B0"/>
<path d="M16.4377 12.6875C16.6955 12.6875 16.9065 12.8984 16.8986 13.1562C16.8986 13.4062 16.6877 13.625 16.4299 13.6172C16.1799 13.6172 15.9611 13.4063 15.969 13.1484C15.969 12.8984 16.1799 12.6875 16.4377 12.6875Z" fill="#1855B0"/>
<path d="M16.9065 18.3049C16.9065 18.5549 16.6955 18.7736 16.4377 18.7658C16.1877 18.7658 15.969 18.5549 15.9768 18.2971C15.9768 18.0393 16.1877 17.8283 16.4455 17.8361C16.6955 17.8361 16.9065 18.0471 16.9065 18.3049Z" fill="#1855B0"/>
</svg>
