<svg width="40" height="37" viewBox="0 0 40 37" fill="none" xmlns="http://www.w3.org/2000/svg">
<g filter="url(#filter0_d_1_696)">
<rect x="4" y="3" width="31.32" height="29" rx="5" fill="#033279"/>
</g>
<path d="M14.0656 19.2519H13.9475C13.5526 19.2539 13.169 19.3964 12.8548 19.658C12.5406 19.9196 12.3128 20.286 12.2059 20.7018C12.0991 21.1176 12.1189 21.5601 12.2625 21.9625C12.406 22.3648 12.6655 22.7051 13.0016 22.9318C13.3377 23.1585 13.7322 23.2593 14.1254 23.219C14.5185 23.1786 14.889 22.9993 15.1807 22.7082C15.4724 22.4171 15.6695 22.0299 15.7421 21.6054C15.8147 21.1809 15.759 20.742 15.5832 20.3552L17.4553 17.264C17.6543 17.2759 17.8538 17.2524 18.0459 17.1945L19.4545 18.7351C19.3775 19.0459 19.3707 19.3725 19.4347 19.6869C19.4987 20.0012 19.6315 20.2938 19.8218 20.5396C20.0121 20.7853 20.2541 20.9768 20.527 21.0976C20.8 21.2184 21.0957 21.2649 21.3886 21.233C21.6816 21.2011 21.9631 21.0919 22.209 20.9147C22.4548 20.7374 22.6576 20.4975 22.7999 20.2156C22.9422 19.9337 23.0197 19.6182 23.0259 19.2962C23.032 18.9742 22.9665 18.6555 22.835 18.3673L24.7343 15.2762H24.8525C25.2473 15.2742 25.6309 15.1317 25.9451 14.8701C26.2594 14.6085 26.4871 14.2421 26.594 13.8263C26.7009 13.4105 26.681 12.968 26.5375 12.5656C26.3939 12.1632 26.1344 11.823 25.7983 11.5963C25.4622 11.3696 25.0677 11.2688 24.6746 11.3091C24.2814 11.3494 23.9109 11.5287 23.6192 11.8199C23.3276 12.111 23.1305 12.4981 23.0579 12.9227C22.9852 13.3472 23.041 13.7861 23.2167 14.1729L21.3447 17.264C21.1457 17.2522 20.9462 17.2757 20.754 17.3336L19.3364 15.793C19.4134 15.4822 19.4201 15.1555 19.3562 14.8412C19.2922 14.5269 19.1593 14.2342 18.969 13.9885C18.7788 13.7427 18.5367 13.5512 18.2638 13.4305C17.9909 13.3097 17.6952 13.2632 17.4022 13.2951C17.1092 13.327 16.8277 13.4362 16.5819 13.6134C16.336 13.7907 16.1333 14.0305 15.991 14.3125C15.8487 14.5944 15.7711 14.9099 15.765 15.2319C15.7589 15.5538 15.8244 15.8726 15.9558 16.1608L14.0656 19.2519ZM10.3125 11.3004C10.3125 10.207 11.1304 9.3125 12.13 9.3125H26.67C27.152 9.3125 27.6143 9.52194 27.9551 9.89474C28.296 10.2675 28.4874 10.7732 28.4874 11.3004V23.2277C28.4874 23.7549 28.296 24.2605 27.9551 24.6333C27.6143 25.0061 27.152 25.2156 26.67 25.2156H12.13C11.648 25.2156 11.1857 25.0061 10.8448 24.6333C10.504 24.2605 10.3125 23.7549 10.3125 23.2277V11.3004Z" fill="white"/>
<defs>
<filter id="filter0_d_1_696" x="0" y="0" width="39.3203" height="37" filterUnits="userSpaceOnUse" color-interpolation-filters="sRGB">
<feFlood flood-opacity="0" result="BackgroundImageFix"/>
<feColorMatrix in="SourceAlpha" type="matrix" values="0 0 0 0 0 0 0 0 0 0 0 0 0 0 0 0 0 0 127 0" result="hardAlpha"/>
<feOffset dy="1"/>
<feGaussianBlur stdDeviation="2"/>
<feComposite in2="hardAlpha" operator="out"/>
<feColorMatrix type="matrix" values="0 0 0 0 0 0 0 0 0 0 0 0 0 0 0 0 0 0 0.25 0"/>
<feBlend mode="normal" in2="BackgroundImageFix" result="effect1_dropShadow_1_696"/>
<feBlend mode="normal" in="SourceGraphic" in2="effect1_dropShadow_1_696" result="shape"/>
</filter>
</defs>
</svg>
