<svg width="85" height="37" viewBox="0 0 85 37" fill="none" xmlns="http://www.w3.org/2000/svg">
<g filter="url(#filter0_d_1_557)">
<rect x="4.92969" y="3" width="31.32" height="29" rx="5" fill="#033279"/>
</g>
<path d="M29.2869 19.2409H22.3269V26.2009H20.0069V19.2409H13.0469V16.9209H20.0069V9.96094H22.3269V16.9209H29.2869V19.2409Z" fill="white"/>
<g filter="url(#filter1_d_1_557)">
<rect x="49.6484" y="3" width="31.32" height="29" rx="5" fill="#033279"/>
</g>
<path d="M70.9571 26.1954C67.2052 26.1954 63.4488 26.1954 59.697 26.1954C59.6607 26.1863 59.6245 26.1682 59.5882 26.1637C57.9388 25.9552 56.652 24.5188 56.6474 22.8468C56.6384 19.2898 56.6384 15.7327 56.6474 12.1802C56.652 10.3405 58.1609 8.83164 60.0005 8.82711C63.5485 8.81805 67.101 8.81805 70.649 8.82711C72.1579 8.83164 73.472 9.84664 73.8798 11.3057C73.9341 11.496 73.9659 11.6863 74.0112 11.8812C74.0112 15.6376 74.0112 19.3895 74.0112 23.1459C74.0021 23.1776 73.984 23.2093 73.9795 23.241C73.7937 24.6457 72.7787 25.7785 71.3966 26.1048C71.2516 26.1365 71.1066 26.1637 70.9571 26.1954ZM68.1885 13.6937C68.193 13.7073 68.2021 13.7209 68.2066 13.7345C67.9574 13.9837 67.7037 14.2329 67.4545 14.4821C66.9334 15.0032 66.4123 15.5198 65.8957 16.0409C65.5377 16.4034 65.6737 16.9788 66.1495 17.1148C66.4032 17.1873 66.6252 17.1148 66.811 16.9245C67.5315 16.1995 68.2565 15.479 68.977 14.754C69.0177 14.7087 69.0449 14.6498 69.0766 14.5954C69.0993 14.609 69.122 14.6226 69.1401 14.6362C69.1401 14.6951 69.1401 14.7585 69.1401 14.8174C69.1401 15.3204 69.1355 15.8234 69.1401 16.3263C69.1446 16.7341 69.4029 17.0105 69.7745 17.0105C70.146 17.0105 70.4088 16.7296 70.4088 16.3218C70.4088 15.2479 70.4088 14.174 70.4088 13.1001C70.4088 12.6832 70.146 12.4204 69.7337 12.4204C69.2488 12.4204 68.7595 12.4204 68.2746 12.4204C67.672 12.4204 67.0648 12.4204 66.4621 12.4204C66.0951 12.4204 65.8187 12.6877 65.8051 13.0366C65.7915 13.381 66.0543 13.662 66.4259 13.6891C66.5346 13.6982 66.6388 13.6937 66.7476 13.6937C67.2279 13.6982 67.7082 13.6937 68.1885 13.6937ZM62.4157 21.3288C62.4882 21.2518 62.5335 21.2065 62.5743 21.1612C63.0818 20.6537 63.5893 20.1462 64.0968 19.6387C64.3234 19.4121 64.559 19.1901 64.7765 18.9545C65.1118 18.601 64.9668 18.0391 64.5137 17.9032C64.2509 17.8262 64.0288 17.9032 63.8385 18.098C63.118 18.823 62.393 19.5435 61.6726 20.273C61.6318 20.3138 61.6182 20.3818 61.591 20.4362C61.5638 20.418 61.5412 20.3954 61.514 20.3773C61.514 20.3184 61.514 20.2549 61.514 20.196C61.514 19.6704 61.523 19.1448 61.5095 18.6191C61.5004 18.2566 61.2195 18.0074 60.8705 18.0074C60.5307 18.012 60.2498 18.2748 60.2452 18.6146C60.2407 19.7384 60.2407 20.8621 60.2452 21.9859C60.2452 22.3121 60.5126 22.5885 60.8388 22.5885C61.9762 22.5976 63.109 22.5976 64.2463 22.5885C64.5862 22.5885 64.8535 22.2895 64.8535 21.9587C64.8535 21.6143 64.5862 21.3334 64.2327 21.3288C63.7071 21.3198 63.1815 21.3243 62.6559 21.3243C62.5879 21.3288 62.529 21.3288 62.4157 21.3288Z" fill="white"/>
<defs>
<filter id="filter0_d_1_557" x="0.929688" y="0" width="39.3203" height="37" filterUnits="userSpaceOnUse" color-interpolation-filters="sRGB">
<feFlood flood-opacity="0" result="BackgroundImageFix"/>
<feColorMatrix in="SourceAlpha" type="matrix" values="0 0 0 0 0 0 0 0 0 0 0 0 0 0 0 0 0 0 127 0" result="hardAlpha"/>
<feOffset dy="1"/>
<feGaussianBlur stdDeviation="2"/>
<feComposite in2="hardAlpha" operator="out"/>
<feColorMatrix type="matrix" values="0 0 0 0 0 0 0 0 0 0 0 0 0 0 0 0 0 0 0.25 0"/>
<feBlend mode="normal" in2="BackgroundImageFix" result="effect1_dropShadow_1_557"/>
<feBlend mode="normal" in="SourceGraphic" in2="effect1_dropShadow_1_557" result="shape"/>
</filter>
<filter id="filter1_d_1_557" x="45.6484" y="0" width="39.3203" height="37" filterUnits="userSpaceOnUse" color-interpolation-filters="sRGB">
<feFlood flood-opacity="0" result="BackgroundImageFix"/>
<feColorMatrix in="SourceAlpha" type="matrix" values="0 0 0 0 0 0 0 0 0 0 0 0 0 0 0 0 0 0 127 0" result="hardAlpha"/>
<feOffset dy="1"/>
<feGaussianBlur stdDeviation="2"/>
<feComposite in2="hardAlpha" operator="out"/>
<feColorMatrix type="matrix" values="0 0 0 0 0 0 0 0 0 0 0 0 0 0 0 0 0 0 0.25 0"/>
<feBlend mode="normal" in2="BackgroundImageFix" result="effect1_dropShadow_1_557"/>
<feBlend mode="normal" in="SourceGraphic" in2="effect1_dropShadow_1_557" result="shape"/>
</filter>
</defs>
</svg>
