<svg width="29" height="26" viewBox="0 0 29 26" fill="none" xmlns="http://www.w3.org/2000/svg">
<path d="M1 10.7101C1.13171 10.3808 1.39512 10.3084 1.72439 10.3084C3.52219 10.315 5.32659 10.3084 7.12439 10.315C7.34171 10.315 7.44707 10.2425 7.53268 10.0516C8.79049 7.20668 10.0615 4.3618 11.3259 1.51692C11.3654 1.43131 11.4049 1.33912 11.451 1.25351C11.5695 1.04936 11.7605 0.970336 11.991 1.00985C12.2083 1.04936 12.3663 1.18107 12.3927 1.40497C12.452 1.86595 12.498 2.32692 12.5376 2.79448C12.7812 5.54058 13.0249 8.28668 13.2685 11.0328C13.5056 13.6998 13.7361 16.3669 13.9732 19.034C14.039 19.7847 14.1115 20.5355 14.2234 21.2928C14.3288 20.812 14.4407 20.3379 14.5461 19.8572C15.389 15.9916 16.232 12.1325 17.0815 8.26692C17.1605 7.9179 17.3317 7.74668 17.6149 7.75326C17.898 7.75326 18.0627 7.90473 18.1483 8.26692C18.5171 9.84741 18.8793 11.4279 19.248 13.0084C19.2612 13.0677 19.281 13.1269 19.3139 13.2257C19.36 13.1269 19.3929 13.0611 19.4193 12.9952C19.8473 11.9218 20.2819 10.8484 20.71 9.77497C20.8746 9.36668 20.9866 9.28765 21.4146 9.28765C23.3837 9.28765 25.3461 9.29424 27.3151 9.28107C27.6312 9.28107 27.8551 9.37985 28 9.66302C28 9.74863 28 9.84082 28 9.92643C27.8683 10.2359 27.618 10.3216 27.302 10.3216C25.5041 10.315 23.6998 10.3216 21.9019 10.315C21.6715 10.315 21.5727 10.3874 21.4871 10.6047C20.9141 12.0733 20.3215 13.5352 19.7354 15.0038C19.7156 15.063 19.6959 15.1223 19.6695 15.175C19.5641 15.4055 19.3995 15.5438 19.1361 15.524C18.8727 15.5042 18.7278 15.3396 18.6685 15.0959C18.5302 14.4967 18.392 13.904 18.2537 13.3047C18.0561 12.4486 17.8585 11.5991 17.6215 10.7364C17.5161 11.204 17.4107 11.665 17.312 12.1325C16.39 16.3472 15.4746 20.5618 14.5527 24.7764C14.5395 24.8291 14.5263 24.8818 14.5132 24.9279C14.4341 25.244 14.2366 25.402 13.96 25.3889C13.69 25.3757 13.5056 25.1847 13.4661 24.862C13.42 24.4603 13.3937 24.0586 13.3541 23.6569C13.1105 20.9108 12.8668 18.1647 12.6232 15.4252C12.4059 12.9491 12.1885 10.4796 11.9712 8.00351C11.8527 6.62058 11.7276 5.24424 11.6024 3.86131C11.5959 3.80204 11.5761 3.74936 11.5498 3.63741C11.3324 4.13131 11.1349 4.56595 10.9373 5.00716C10.068 6.96302 9.19219 8.91229 8.3361 10.8747C8.17805 11.2435 7.94756 11.3818 7.55244 11.3818C5.60976 11.3686 3.67366 11.3686 1.73098 11.3818C1.40829 11.3818 1.17122 11.2962 1.01976 11.0064C1 10.8879 1 10.7957 1 10.7101Z" fill="#1855B0" stroke="#1855B0"/>
</svg>
