<svg width="22" height="26" viewBox="0 0 22 26" fill="none" xmlns="http://www.w3.org/2000/svg">
<path d="M5.40568 25.0277C5.36663 24.5394 5.29632 24.0898 5.29632 23.6325C5.28851 21.408 5.28851 19.1835 5.28851 16.959C5.28851 16.8505 5.28851 16.7497 5.28851 16.6412C5.06197 16.68 4.85887 16.7342 4.64795 16.7497C3.72617 16.7962 2.95282 16.0909 2.945 15.1763C2.92938 13.3006 2.92157 11.4248 2.95282 9.54912C2.96844 8.0687 4.20269 6.7898 5.69472 6.75104C7.47578 6.70454 9.26466 6.70454 11.0457 6.74329C12.7565 6.78205 13.9439 7.99119 13.9751 9.69639C14.0063 11.4946 13.9985 13.2928 13.9751 15.091C13.9595 16.2924 12.9361 17.0055 11.78 16.6645C11.741 16.6567 11.7097 16.6412 11.6238 16.618C11.6238 16.7497 11.6238 16.8582 11.6238 16.9667C11.6238 19.1525 11.6316 21.3383 11.616 23.524C11.616 24.0201 11.5535 24.5161 11.5144 25.0199C12.8112 25.0199 14.1782 25.0199 15.5843 25.0199C15.5843 24.3146 15.5843 23.617 15.5843 22.8884C15.889 22.8884 16.1624 22.8884 16.428 22.8884C17.0685 22.8884 17.7169 22.8884 18.3575 22.8884C18.7246 22.8884 18.9355 22.7179 18.9277 22.4234C18.9277 22.1288 18.7168 21.9661 18.3418 21.9661C17.4357 21.9661 16.5295 21.9661 15.6077 21.9661C15.6077 21.3693 15.6077 20.7957 15.6077 20.1911C16.014 20.1911 16.4123 20.1911 16.8107 20.1911C16.9279 20.1911 17.0451 20.1989 17.1623 20.1911C17.4591 20.1756 17.631 20.0051 17.6466 19.7493C17.6544 19.478 17.4747 19.2843 17.1701 19.2688C16.7639 19.2533 16.3499 19.261 15.9436 19.261C15.8421 19.261 15.7327 19.261 15.6077 19.261C15.6077 18.6642 15.6077 18.0984 15.6077 17.4938C15.7171 17.4938 15.8187 17.4938 15.928 17.4938C16.7404 17.4938 17.545 17.4938 18.3575 17.4938C18.7246 17.4938 18.9355 17.3155 18.9355 17.0287C18.9355 16.7342 18.7324 16.5714 18.3575 16.5714C17.4513 16.5714 16.5451 16.5714 15.6156 16.5714C15.6156 15.9824 15.6156 15.4088 15.6156 14.7887C16.0061 14.7887 16.3889 14.7887 16.7717 14.7887C16.8889 14.7887 17.006 14.7887 17.1232 14.7887C17.4513 14.781 17.6466 14.6105 17.6466 14.3314C17.6466 14.0524 17.4513 13.8741 17.1232 13.8664C16.7326 13.8586 16.342 13.8664 15.9515 13.8664C15.8421 13.8664 15.7405 13.8664 15.6077 13.8664C15.6077 13.2851 15.6077 12.7192 15.6077 12.1224C15.7015 12.1147 15.8108 12.1069 15.9124 12.1069C16.6936 12.1069 17.4747 12.1069 18.2481 12.1069C18.3262 12.1069 18.4043 12.1147 18.4824 12.0992C18.7637 12.0604 18.9355 11.8744 18.9277 11.6186C18.9199 11.3628 18.7324 11.1846 18.4434 11.1846C17.6232 11.1768 16.8029 11.1846 15.9905 11.1846C15.8733 11.1846 15.7562 11.1846 15.6156 11.1846C15.6156 10.5955 15.6156 10.0219 15.6156 9.40185C15.9827 9.40185 16.3577 9.40185 16.7326 9.40185C16.8576 9.40185 16.9826 9.40185 17.1154 9.40185C17.4435 9.3941 17.6388 9.23133 17.6466 8.9523C17.6544 8.66552 17.4513 8.4795 17.1076 8.47175C16.7092 8.46399 16.3108 8.47175 15.9124 8.47175C15.8187 8.47175 15.7249 8.47175 15.6156 8.47175C15.6156 7.87493 15.6156 7.30911 15.6156 6.70454C15.7327 6.70454 15.8343 6.70454 15.9436 6.70454C16.7248 6.70454 17.506 6.70454 18.2793 6.70454C18.3887 6.70454 18.4981 6.70454 18.5996 6.67353C18.8574 6.60378 18.9668 6.42551 18.9355 6.16973C18.8965 5.89844 18.709 5.77443 18.4434 5.77443C17.6153 5.77443 16.7873 5.77443 15.9593 5.77443C15.8577 5.77443 15.7484 5.77443 15.6234 5.77443C15.6234 5.17761 15.6234 4.61179 15.6234 3.99947C15.8655 3.99947 16.1155 3.99947 16.3577 3.99947C16.6311 3.99947 16.9045 4.00722 17.1779 3.99947C17.4747 3.99172 17.6622 3.79795 17.6544 3.52666C17.6466 3.27088 17.4669 3.08486 17.1779 3.07711C16.7717 3.06936 16.3577 3.07711 15.9515 3.07711C15.8499 3.07711 15.7405 3.07711 15.6156 3.07711C15.6156 2.35628 15.6156 1.66645 15.6156 0.930109C15.4906 0.930109 15.389 0.930109 15.2875 0.930109C14.475 0.930109 13.6704 0.930109 12.858 0.930109C12.4909 0.930109 12.2722 0.751838 12.2722 0.465055C12.2722 0.178271 12.4909 0 12.858 0C15.4984 0 18.1387 0 20.7791 0C21.1853 0 21.3493 0.155018 21.3571 0.558066C21.3571 0.635575 21.3571 0.713084 21.3571 0.790593C21.3571 8.92905 21.3571 17.0753 21.3571 25.2137C21.3571 25.3377 21.3571 25.4695 21.3415 25.5935C21.3103 25.8338 21.154 25.9655 20.9119 25.9966C20.8259 26.0043 20.74 25.9966 20.6463 25.9966C13.9985 25.9966 7.35079 25.9966 0.703052 25.9966C0.226539 25.9966 0 25.8493 0 25.5392C0 25.2215 0.218727 25.0742 0.69524 25.0742C2.28101 25.0277 3.86678 25.0277 5.40568 25.0277Z" fill="#1855B0"/>
<path d="M8.34466 5.57129C6.79832 5.56372 5.56277 4.31475 5.57035 2.76301C5.57793 1.23397 6.8438 -0.0150028 8.39014 0.000136191C9.92131 0.0152752 11.1493 1.26424 11.1417 2.79328C11.1417 4.34503 9.89857 5.58643 8.34466 5.57129Z" fill="#1855B0"/>
</svg>
