<svg width="23" height="28" viewBox="0 0 23 28" fill="none" xmlns="http://www.w3.org/2000/svg">
<path d="M5.82151 26.9529C5.77944 26.427 5.70373 25.9429 5.70373 25.4504C5.69532 23.0548 5.69532 20.6592 5.69532 18.2635C5.69532 18.1467 5.69532 18.0382 5.69532 17.9213C5.45135 17.963 5.23263 18.0215 5.00549 18.0382C4.0128 18.0882 3.17996 17.3287 3.17154 16.3437C3.15472 14.3237 3.14631 12.3037 3.17996 10.2837C3.19678 8.68937 4.52597 7.31209 6.13277 7.27035C8.05084 7.22027 9.97732 7.22027 11.8954 7.26201C13.7377 7.30374 15.0165 8.6059 15.0501 10.4423C15.0838 12.3788 15.0753 14.3153 15.0501 16.2519C15.0333 17.5457 13.9312 18.3136 12.6862 17.9463C12.6441 17.938 12.6105 17.9213 12.5179 17.8963C12.5179 18.0382 12.5179 18.155 12.5179 18.2719C12.5179 20.6258 12.5263 22.9797 12.5095 25.3336C12.5095 25.8678 12.4422 26.402 12.4001 26.9445C13.7966 26.9445 15.2688 26.9445 16.7831 26.9445C16.7831 26.185 16.7831 25.4337 16.7831 24.6491C17.1112 24.6491 17.4056 24.6491 17.6917 24.6491C18.3815 24.6491 19.0797 24.6491 19.7696 24.6491C20.165 24.6491 20.3921 24.4655 20.3837 24.1483C20.3837 23.8311 20.1565 23.6558 19.7527 23.6558C18.7769 23.6558 17.801 23.6558 16.8083 23.6558C16.8083 23.013 16.8083 22.3954 16.8083 21.7443C17.2458 21.7443 17.6748 21.7443 18.1039 21.7443C18.2301 21.7443 18.3563 21.7526 18.4824 21.7443C18.8021 21.7276 18.9872 21.544 19.004 21.2685C19.0124 20.9763 18.8189 20.7677 18.4909 20.751C18.0534 20.7343 17.6075 20.7426 17.1701 20.7426C17.0607 20.7426 16.9429 20.7426 16.8083 20.7426C16.8083 20.0999 16.8083 19.4906 16.8083 18.8395C16.9261 18.8395 17.0355 18.8395 17.1533 18.8395C18.0282 18.8395 18.8947 18.8395 19.7696 18.8395C20.165 18.8395 20.3921 18.6475 20.3921 18.3387C20.3921 18.0215 20.1734 17.8462 19.7696 17.8462C18.7937 17.8462 17.8178 17.8462 16.8167 17.8462C16.8167 17.2118 16.8167 16.5941 16.8167 15.9263C17.2374 15.9263 17.6496 15.9263 18.0618 15.9263C18.188 15.9263 18.3142 15.9263 18.4404 15.9263C18.7937 15.918 19.004 15.7343 19.004 15.4339C19.004 15.1334 18.7937 14.9414 18.4404 14.933C18.0198 14.9247 17.5991 14.933 17.1785 14.933C17.0607 14.933 16.9514 14.933 16.8083 14.933C16.8083 14.307 16.8083 13.6976 16.8083 13.0549C16.9093 13.0466 17.0271 13.0382 17.1364 13.0382C17.9777 13.0382 18.8189 13.0382 19.6518 13.0382C19.7359 13.0382 19.82 13.0466 19.9042 13.0299C20.207 12.9881 20.3921 12.7878 20.3837 12.5124C20.3753 12.2369 20.1734 12.0449 19.8621 12.0449C18.9788 12.0366 18.0955 12.0449 17.2206 12.0449C17.0944 12.0449 16.9682 12.0449 16.8167 12.0449C16.8167 11.4105 16.8167 10.7928 16.8167 10.1251C17.2121 10.1251 17.6159 10.1251 18.0198 10.1251C18.1544 10.1251 18.289 10.1251 18.432 10.1251C18.7853 10.1167 18.9956 9.94144 19.004 9.64094C19.0124 9.3321 18.7937 9.13177 18.4236 9.12342C17.9945 9.11507 17.5655 9.12342 17.1364 9.12342C17.0355 9.12342 16.9345 9.12342 16.8167 9.12342C16.8167 8.48069 16.8167 7.87135 16.8167 7.22027C16.9429 7.22027 17.0523 7.22027 17.1701 7.22027C18.0113 7.22027 18.8526 7.22027 19.6854 7.22027C19.8032 7.22027 19.921 7.22027 20.0304 7.18688C20.308 7.11176 20.4257 6.91978 20.3921 6.64432C20.35 6.35217 20.1481 6.21862 19.8621 6.21862C18.9704 6.21862 18.0786 6.21862 17.1869 6.21862C17.0775 6.21862 16.9598 6.21862 16.8252 6.21862C16.8252 5.57589 16.8252 4.96655 16.8252 4.30712C17.086 4.30712 17.3552 4.30712 17.6159 4.30712C17.9104 4.30712 18.2048 4.31547 18.4993 4.30712C18.8189 4.29877 19.0208 4.0901 19.0124 3.79795C19.004 3.52249 18.8105 3.32216 18.4993 3.31381C18.0618 3.30547 17.6159 3.31381 17.1785 3.31381C17.0691 3.31381 16.9514 3.31381 16.8167 3.31381C16.8167 2.53753 16.8167 1.79463 16.8167 1.00166C16.6821 1.00166 16.5728 1.00166 16.4634 1.00166C15.5885 1.00166 14.722 1.00166 13.8471 1.00166C13.4517 1.00166 13.2162 0.809672 13.2162 0.500828C13.2162 0.191984 13.4517 0 13.8471 0C16.6906 0 19.534 0 22.3775 0C22.8149 0 22.9916 0.166943 23 0.600994C23 0.684465 23 0.767936 23 0.851408C23 9.6159 23 18.3887 23 27.1532C23 27.2868 23 27.4287 22.9832 27.5622C22.9495 27.821 22.7813 27.9629 22.5205 27.9963C22.4279 28.0046 22.3354 27.9963 22.2345 27.9963C15.0753 27.9963 7.91624 27.9963 0.757133 27.9963C0.243965 27.9963 0 27.8377 0 27.5038C0 27.1616 0.235552 27.003 0.74872 27.003C2.45647 26.9529 4.16423 26.9529 5.82151 26.9529Z" fill="#1855B0"/>
<path d="M8.98776 5.99985C7.32247 5.9917 5.99187 4.64666 6.00004 2.97554C6.0082 1.32889 7.37145 -0.0161569 9.03673 0.000146667C10.6857 0.0164502 12.0081 1.36149 12 3.00815C12 4.67927 10.6612 6.01616 8.98776 5.99985Z" fill="#1855B0"/>
</svg>
