<svg width="26" height="26" viewBox="0 0 26 26" fill="none" xmlns="http://www.w3.org/2000/svg">
<path d="M21.3673 26C19.6582 26 17.9491 26 16.24 26C16.24 23.3236 16.24 20.64 16.24 17.9636C16.24 16.9527 15.5491 16.2545 14.5382 16.2545C13.5345 16.2545 12.5236 16.2545 11.52 16.2545C10.4073 16.2545 9.74545 16.9236 9.74545 18.0364C9.74545 20.6909 9.74545 23.3455 9.74545 26C8.03636 26 6.32727 26 4.61818 26C3.54909 25.6145 3.25091 25.1855 3.25091 24.0436C3.25091 21.0109 3.25091 17.9709 3.25091 14.9382C3.25091 14.8436 3.25091 14.7418 3.25091 14.6327C2.68364 14.6327 2.14545 14.64 1.61455 14.6327C0.858182 14.6255 0.269091 14.1745 0.0581818 13.4473C0.0436364 13.4036 0.0218182 13.36 0 13.3091C0 13.1055 0 12.9018 0 12.6982C0.16 12.1236 0.56 11.7091 0.967273 11.3018C3.84 8.42909 6.71273 5.56364 9.58545 2.69091C10.3127 1.96364 11.0473 1.23636 11.7891 0.516364C12.1309 0.189091 12.5309 0 13.0182 0C13.6 0.00727273 14.0218 0.312727 14.4073 0.698182C15.4836 1.78182 16.56 2.85818 17.6364 3.92727C17.6945 3.98545 17.7673 4.04364 17.8618 4.13091C17.8618 3.81091 17.8618 3.54182 17.8618 3.27273C17.8764 2.34182 18.5745 1.63636 19.5055 1.62909C19.9927 1.62182 20.4873 1.62909 20.9745 1.62909C22.0582 1.62909 22.7345 2.30545 22.7345 3.38182C22.7345 5.17818 22.7345 6.96727 22.7273 8.76364C22.7273 8.94545 22.7782 9.07636 22.9091 9.20727C23.7309 10.0218 24.56 10.8364 25.3527 11.68C25.5927 11.9273 25.8109 12.2473 25.9055 12.5673C26.2255 13.6073 25.4545 14.6109 24.3636 14.6255C23.8255 14.6327 23.2873 14.6255 22.7273 14.6255C22.7273 14.7564 22.7273 14.8509 22.7273 14.9527C22.7273 18.0655 22.7273 21.1782 22.7273 24.2909C22.7273 25.1418 22.2691 25.7309 21.4473 25.9564C21.4255 25.9709 21.3964 25.9855 21.3673 26Z" fill="white"/>
</svg>
