<svg width="37" height="35" viewBox="0 0 37 35" fill="none" xmlns="http://www.w3.org/2000/svg">
<path d="M10.3172 4.03923C9.10347 3.8303 9.07362 3.80045 9.07362 2.55685C9.07362 2.01961 9.06367 1.49233 9.07362 0.955088C9.08357 0.288516 9.38204 0 10.0287 0C13.7894 0 17.55 0 21.3107 0C21.9673 0 22.2757 0.298465 22.2757 0.955088C22.2857 1.61171 22.2757 2.26833 22.2757 2.92496C22.2757 3.71092 22.0171 3.96958 21.2311 3.99943C21.1714 3.99943 21.1117 4.00938 21.0023 4.01933C21.0023 4.15861 21.0023 4.28795 21.0023 4.41728C21.0023 7.40193 21.0023 10.3766 21.0122 13.3613C21.0122 13.5802 21.0918 13.8289 21.2112 14.008C21.7584 14.8337 22.3354 15.6396 22.8926 16.4653C22.992 16.6146 23.0517 16.8235 23.0617 17.0125C23.0816 17.5199 23.0716 18.0273 23.0716 18.6242C22.9423 18.475 22.8727 18.3954 22.8229 18.3059C21.9076 16.9827 20.9824 15.6595 20.077 14.3164C19.9576 14.1472 19.888 13.9085 19.888 13.6995C19.8781 10.6353 19.8781 7.56111 19.8781 4.49687C19.8781 4.33769 19.8781 4.17851 19.8781 3.99943C17.0625 3.99943 14.2868 3.99943 11.4613 3.99943C11.4613 4.17851 11.4613 4.32774 11.4613 4.48692C11.4613 7.54122 11.4713 10.5955 11.4514 13.6498C11.4514 13.8886 11.3619 14.1671 11.2325 14.3661C9.75014 16.5449 8.24787 18.7038 6.75554 20.8627C6.67595 20.9821 6.58641 21.1114 6.47698 21.2706C7.14355 21.6586 7.84992 21.7879 8.57618 21.7979C9.80984 21.8178 10.9738 21.4895 12.1578 21.1711C13.869 20.7135 15.5702 20.2061 17.3013 19.8479C19.102 19.4699 20.9227 19.5395 22.7234 19.9972C23.002 20.0668 23.0716 20.1862 23.0716 20.4449C23.0716 22.0964 23.0318 23.7479 23.1114 25.3994C23.2806 28.5731 26.0762 31.3488 29.2499 31.5677C29.8269 31.6074 30.4139 31.5776 31.0207 31.5776C31.0108 31.6373 31.0009 31.7268 30.971 31.8064C30.2845 33.6967 28.5136 34.9801 26.494 34.9901C19.2712 35 12.0483 35.0099 4.81552 34.9801C2.93519 34.9702 1.51251 34.0549 0.627061 32.4034C-0.258385 30.7518 -0.21859 29.0605 0.826038 27.4886C2.34821 25.1904 3.94002 22.942 5.50199 20.6737C7.04406 18.4352 8.59608 16.2067 10.1282 13.9582C10.2376 13.809 10.3073 13.6001 10.3172 13.421C10.3272 10.3766 10.3272 7.33229 10.3272 4.2979C10.3371 4.22825 10.3272 4.12877 10.3172 4.03923ZM9.69045 28.4636C10.7251 28.4636 11.5608 27.6379 11.5608 26.6032C11.5708 25.5586 10.7152 24.7229 9.6606 24.7229C8.63587 24.7328 7.80017 25.5685 7.81012 26.6032C7.83002 27.6478 8.65577 28.4636 9.69045 28.4636ZM19.6691 28.3641C18.923 28.3641 18.3459 28.9312 18.3459 29.6774C18.3459 30.4136 18.9329 30.9906 19.6691 30.9906C20.3854 30.9906 20.9625 30.4136 20.9724 29.6973C20.9824 28.9511 20.4153 28.3741 19.6691 28.3641Z" fill="white"/>
<path d="M35.6281 11.7026C35.6281 11.8617 35.6281 12.011 35.6281 12.1602C35.6281 16.3586 35.638 20.557 35.6281 24.7455C35.6181 27.4615 33.8274 29.7199 31.2208 30.3467C27.8382 31.1625 24.4556 28.6753 24.2367 25.2031C24.2068 24.6559 24.2168 24.1088 24.2068 23.5616C24.2068 19.7412 24.2068 15.9109 24.2068 12.0906C24.2068 11.8319 24.1869 11.6628 23.8984 11.5533C23.5403 11.414 23.3313 11.0957 23.3313 10.7077C23.3114 10.0411 23.3015 9.36458 23.3313 8.69801C23.3512 8.15082 23.7691 7.76282 24.3163 7.71307C24.4556 7.70312 24.5849 7.70312 24.7242 7.70312C28.1764 7.70312 31.6287 7.70312 35.071 7.70312C36.1554 7.70312 36.5135 8.06128 36.5135 9.1656C36.5135 9.52376 36.4936 9.88192 36.5135 10.25C36.5633 10.9365 36.3643 11.4837 35.6281 11.7026ZM25.3509 11.7225C25.3509 13.9908 25.3509 16.2492 25.3509 18.5175C28.4052 18.5175 31.4297 18.5175 34.474 18.5175C34.474 16.2392 34.474 13.9808 34.474 11.7225C31.4197 11.7225 28.3953 11.7225 25.3509 11.7225ZM31.5988 22.0991C30.8626 22.0991 30.2756 22.706 30.2856 23.4322C30.2955 24.1585 30.9123 24.7455 31.6287 24.7355C32.345 24.7256 32.922 24.1287 32.922 23.4223C32.932 22.6761 32.335 22.0891 31.5988 22.0991ZM28.1167 26.2378C28.1267 25.6608 27.6591 25.1832 27.092 25.1832C26.5249 25.1832 26.0474 25.6608 26.0474 26.2279C26.0474 26.785 26.505 27.2426 27.0621 27.2526C27.6292 27.2725 28.1068 26.8148 28.1167 26.2378Z" fill="white"/>
<path d="M14.7381 10.072C13.982 10.072 13.3652 9.44521 13.3751 8.69905C13.3851 7.95288 14.0118 7.32611 14.768 7.33605C15.5241 7.346 16.1309 7.96283 16.1309 8.71894C16.121 9.47505 15.5042 10.072 14.7381 10.072Z" fill="white"/>
<path d="M17.0648 17.5329C16.3087 17.5429 15.6819 16.936 15.672 16.1799C15.662 15.4238 16.2689 14.8069 17.025 14.797C17.7911 14.787 18.4079 15.384 18.4179 16.15C18.4378 16.9061 17.8309 17.523 17.0648 17.5329Z" fill="white"/>
<path d="M29.9077 14.2877C29.9177 15.0239 29.3307 15.6308 28.6044 15.6308C27.8782 15.6407 27.2812 15.0438 27.2812 14.3076C27.2812 13.5714 27.8682 12.9844 28.6044 12.9844C29.3208 12.9943 29.8978 13.5714 29.9077 14.2877Z" fill="white"/>
</svg>
