<svg width="25" height="18" viewBox="0 0 25 18" fill="none" xmlns="http://www.w3.org/2000/svg">
<path d="M3.93803 7.89757C4.04372 7.89757 4.14942 7.89757 4.24807 7.89757C10.6391 7.89757 17.0301 7.89757 23.4212 7.89757C23.5973 7.89757 23.7735 7.89757 23.9426 7.93984C24.464 8.08077 24.8163 8.6022 24.7529 9.11658C24.6825 9.69438 24.2597 10.1031 23.6889 10.1313C23.5762 10.1383 23.4634 10.1383 23.3437 10.1383C16.9738 10.1383 10.5968 10.1383 4.22693 10.1383C4.12828 10.1383 4.02259 10.1383 3.92394 10.1383C3.89575 10.1806 3.86052 10.2229 3.83233 10.2581C3.91689 10.3004 4.02258 10.3215 4.09305 10.3849C5.96738 12.2522 7.83466 14.1265 9.70898 15.9938C10.0472 16.332 10.2093 16.7125 10.0754 17.1846C9.85696 17.9597 8.91979 18.2557 8.29267 17.7484C8.21516 17.6849 8.15174 17.6145 8.08128 17.5511C5.5446 15.0144 3.00791 12.4777 0.471228 9.941C-0.155897 9.31388 -0.155897 8.70789 0.464182 8.08782C3.022 5.52999 5.58687 2.96512 8.1447 0.407301C8.48292 0.0690769 8.86342 -0.0859426 9.33553 0.047938C10.0965 0.266375 10.3925 1.18945 9.90628 1.80952C9.82877 1.90817 9.74422 1.99273 9.65261 2.07729C7.79943 3.93047 5.94624 5.78366 4.09305 7.6298C4.02963 7.69322 3.92394 7.72845 3.83938 7.77778C3.87461 7.82006 3.90984 7.85529 3.93803 7.89757Z" fill="#1E1D1D"/>
</svg>
