<svg width="37" height="35" viewBox="0 0 37 35" fill="none" xmlns="http://www.w3.org/2000/svg">
<g filter="url(#filter0_d_1_85995)">
<rect x="4" y="3" width="28.6364" height="27" rx="5" fill="#1D57AD"/>
</g>
<path d="M18 17.075C17.4317 17.075 16.8866 16.8511 16.4848 16.4526C16.0829 16.0541 15.8571 15.5136 15.8571 14.95C15.8571 14.3864 16.0829 13.8459 16.4848 13.4474C16.8866 13.0489 17.4317 12.825 18 12.825C18.5683 12.825 19.1134 13.0489 19.5152 13.4474C19.9171 13.8459 20.1429 14.3864 20.1429 14.95C20.1429 15.2291 20.0874 15.5054 19.9797 15.7632C19.8721 16.021 19.7142 16.2553 19.5152 16.4526C19.3162 16.6499 19.08 16.8065 18.82 16.9132C18.5601 17.02 18.2814 17.075 18 17.075ZM18 9C16.4087 9 14.8826 9.62687 13.7574 10.7427C12.6321 11.8586 12 13.372 12 14.95C12 19.4125 18 26 18 26C18 26 24 19.4125 24 14.95C24 13.372 23.3679 11.8586 22.2426 10.7427C21.1174 9.62687 19.5913 9 18 9Z" fill="white"/>
<defs>
<filter id="filter0_d_1_85995" x="0" y="0" width="36.6328" height="35" filterUnits="userSpaceOnUse" color-interpolation-filters="sRGB">
<feFlood flood-opacity="0" result="BackgroundImageFix"/>
<feColorMatrix in="SourceAlpha" type="matrix" values="0 0 0 0 0 0 0 0 0 0 0 0 0 0 0 0 0 0 127 0" result="hardAlpha"/>
<feOffset dy="1"/>
<feGaussianBlur stdDeviation="2"/>
<feComposite in2="hardAlpha" operator="out"/>
<feColorMatrix type="matrix" values="0 0 0 0 0 0 0 0 0 0 0 0 0 0 0 0 0 0 0.25 0"/>
<feBlend mode="normal" in2="BackgroundImageFix" result="effect1_dropShadow_1_85995"/>
<feBlend mode="normal" in="SourceGraphic" in2="effect1_dropShadow_1_85995" result="shape"/>
</filter>
</defs>
</svg>
