<svg width="26" height="26" viewBox="0 0 26 26" fill="none" xmlns="http://www.w3.org/2000/svg">
<path d="M0 12.9024C0.119709 8.76048 1.71184 5.39664 4.89611 2.81092C5.56648 2.26026 6.4643 2.34406 6.96708 2.97852C7.48183 3.62495 7.36212 4.47488 6.67978 5.03752C4.08209 7.19228 2.81317 9.9456 2.89697 13.3094C3.02865 18.1457 6.93117 22.3475 11.7195 22.8503C17.1903 23.4249 21.9427 19.8815 22.8166 14.4467C23.4032 10.7955 22.1821 7.70704 19.4288 5.25299C18.962 4.83401 18.6507 4.37912 18.7944 3.73269C19.0338 2.64333 20.2668 2.23632 21.1407 2.95458C23.4151 4.83401 24.8995 7.2282 25.534 10.1012C27.0304 16.8887 22.8645 23.6523 16.1368 25.3761C8.49936 27.3394 0.837965 21.9764 0.107739 14.1354C0.0478839 13.7164 0.0359128 13.2855 0 12.9024Z" fill="white"/>
<path d="M11.4885 6.45249C11.4885 4.83642 11.4885 3.23231 11.4885 1.61624C11.4885 0.658562 12.0631 0.0121315 12.9011 0.000160599C13.751 -0.0118103 14.3496 0.646591 14.3496 1.5923C14.3496 4.86036 14.3496 8.12842 14.3496 11.3965C14.3496 12.007 14.0862 12.4619 13.5475 12.7492C13.0328 13.0126 12.53 12.9527 12.0751 12.6175C11.6561 12.3183 11.4766 11.8873 11.4766 11.3845C11.4885 9.73253 11.4885 8.09251 11.4885 6.45249Z" fill="white"/>
</svg>
