<svg width="36" height="36" viewBox="0 0 36 36" fill="none" xmlns="http://www.w3.org/2000/svg">
<path d="M5 17.9024C5.11971 13.7605 6.71184 10.3966 9.89611 7.81092C10.5665 7.26026 11.4643 7.34406 11.9671 7.97852C12.4818 8.62495 12.3621 9.47488 11.6798 10.0375C9.08209 12.1923 7.81317 14.9456 7.89697 18.3094C8.02865 23.1457 11.9312 27.3475 16.7195 27.8503C22.1903 28.4249 26.9427 24.8815 27.8166 19.4467C28.4032 15.7955 27.1821 12.707 24.4288 10.253C23.962 9.83401 23.6507 9.37912 23.7944 8.73269C24.0338 7.64333 25.2668 7.23632 26.1407 7.95458C28.4151 9.83401 29.8995 12.2282 30.534 15.1012C32.0304 21.8887 27.8645 28.6523 21.1368 30.3761C13.4994 32.3394 5.83797 26.9764 5.10774 19.1354C5.04788 18.7164 5.03591 18.2855 5 17.9024Z" fill="white"/>
<path d="M16.4924 11.4525C16.4924 9.83642 16.4924 8.23231 16.4924 6.61624C16.4924 5.65856 17.067 5.01213 17.905 5.00016C18.7549 4.98819 19.3535 5.64659 19.3535 6.5923C19.3535 9.86036 19.3535 13.1284 19.3535 16.3965C19.3535 17.007 19.0901 17.4619 18.5514 17.7492C18.0367 18.0126 17.5339 17.9527 17.079 17.6175C16.66 17.3183 16.4805 16.8873 16.4805 16.3845C16.4924 14.7325 16.4924 13.0925 16.4924 11.4525Z" fill="white"/>
</svg>
