<svg width="27" height="23" viewBox="0 0 27 23" fill="none" xmlns="http://www.w3.org/2000/svg">
<path d="M10.6046 19.2861C10.4489 19.2861 10.3399 19.2861 10.2387 19.2861C8.01185 19.2861 5.78504 19.2861 3.56601 19.2861C1.47156 19.2861 0 17.8223 0 15.7356C0 11.6713 0 7.61476 0 3.55044C0 1.47935 1.47935 0 3.54265 0C10.0907 0 16.6388 0 23.1869 0C25.258 0 26.7295 1.47156 26.7295 3.54265C26.7295 7.60697 26.7295 11.6635 26.7295 15.7278C26.7295 17.8145 25.258 19.2783 23.1713 19.2783C20.9445 19.2783 18.7177 19.2783 16.4986 19.2783C16.3896 19.2783 16.2884 19.2783 16.1249 19.2783C16.3351 19.6987 16.5687 20.0724 16.7089 20.4695C16.9035 21.0146 17.2227 21.217 17.8067 21.1547C18.3751 21.0924 18.9513 21.1391 19.5274 21.1391C20.1036 21.1391 20.5162 21.5284 20.524 22.0579C20.5318 22.5951 20.1036 23 19.5196 23C15.4164 23 11.3209 23 7.21767 23C6.63372 23 6.20548 22.5873 6.21327 22.0579C6.22106 21.5284 6.63372 21.1391 7.20989 21.1391C7.95735 21.1391 8.70481 21.1313 9.45227 21.1391C9.62356 21.1391 9.70921 21.0846 9.78707 20.9367C10.044 20.415 10.3165 19.8778 10.6046 19.2861ZM13.3609 17.4252C16.6154 17.4252 19.87 17.4252 23.1246 17.4252C24.238 17.4252 24.8609 16.8101 24.8609 15.6967C24.8609 11.6635 24.8609 7.63033 24.8609 3.60494C24.8609 2.49932 24.238 1.87644 23.1246 1.87644C16.6154 1.87644 10.1063 1.87644 3.59716 1.87644C2.48375 1.87644 1.86087 2.49932 1.86087 3.60494C1.86087 7.63812 1.86087 11.6713 1.86087 15.6967C1.86087 16.8101 2.48375 17.4252 3.59716 17.4252C6.85173 17.4252 10.1063 17.4252 13.3609 17.4252Z" fill="white"/>
<path d="M12.1597 6.50781H14.7015V9.89681H16.7518L13.4306 13.218L10.1094 9.89681H12.1597V6.50781Z" fill="white"/>
</svg>
