<svg width="38" height="37" viewBox="0 0 38 37" fill="none" xmlns="http://www.w3.org/2000/svg">
<path d="M23.5901 0C24.3677 0.16749 25.1693 0.239272 25.8991 0.526398C28.567 1.57919 30.1701 3.55319 30.5888 6.38856C30.9477 8.81717 30.194 10.9347 28.4712 12.6814C26.1264 15.0622 23.7576 17.407 21.4008 19.7758C21.3649 19.8117 21.329 19.8356 21.317 19.8476C17.8237 16.3662 14.3422 12.8848 10.7891 9.3316C10.8728 9.27178 11.0044 9.21196 11.0882 9.12822C13.3134 6.90299 15.5506 4.70169 17.7519 2.4645C19.1516 1.04083 20.7906 0.16749 22.8125 0.0598179C22.8723 0.0598179 22.9321 0.0239272 22.98 0.0119636C23.2073 0 23.3987 0 23.5901 0ZM17.2733 9.9896C17.393 9.91782 17.6801 9.82211 17.8715 9.63069C18.9363 8.60182 19.9891 7.56099 21.0419 6.52016C21.1735 6.38856 21.2931 6.22107 21.3409 6.04161C21.4725 5.61092 21.3051 5.1922 20.9461 4.97685C20.5753 4.74954 20.1207 4.78544 19.7857 5.10845C19.1277 5.74252 18.4816 6.38856 17.8237 7.03459C17.3571 7.48921 16.8905 7.94382 16.4359 8.4104C16.1488 8.70949 16.1248 9.08036 16.2803 9.45123C16.4239 9.79818 16.723 9.96567 17.2733 9.9896Z" fill="white"/>
<path d="M37.0356 30.2955C36.8442 31.0133 36.7246 31.755 36.4614 32.4489C35.3368 35.3441 32.2741 37.2224 29.1875 36.9831C27.8236 36.8754 26.5794 36.4447 25.4549 35.6671C25.3831 35.6193 25.3113 35.5475 25.1797 35.4518C28.6252 32.0302 32.0588 28.6325 35.5043 25.2109C35.9589 25.7493 36.3058 26.3594 36.5212 27.0294C36.7365 27.6754 36.8561 28.3454 37.0236 29.0034C37.0356 29.4341 37.0356 29.8648 37.0356 30.2955Z" fill="white"/>
<path d="M9.42359 10.8281C12.905 14.3095 16.3984 17.7909 19.8917 21.2843C19.8319 21.3561 19.7482 21.4398 19.6644 21.5236C17.3794 23.8086 15.1063 26.1056 12.8212 28.3907C11.1344 30.0895 9.07665 30.8432 6.69589 30.6518C3.6691 30.4245 0.941406 28.0916 0.235554 25.1246C-0.398516 22.4328 0.247518 20.0521 2.17366 18.0661C4.53048 15.6375 6.94713 13.2687 9.35181 10.876C9.3877 10.8521 9.42359 10.8281 9.42359 10.8281Z" fill="white"/>
<path d="M34.0923 23.7921C30.6588 27.2257 27.2372 30.6473 23.8156 34.0688C21.6023 31.3411 21.8894 27.0582 24.4736 24.4621C27.0577 21.854 31.3048 21.5669 34.0923 23.7921Z" fill="white"/>
</svg>
