<svg width="92" height="87" viewBox="0 0 92 87" fill="none" xmlns="http://www.w3.org/2000/svg">
<g filter="url(#filter0_d_1_86047)">
<rect x="4" y="3" width="83.7879" height="79" rx="5" fill="#1D57AD"/>
</g>
<path d="M27.0391 42.3225C27.0391 35.8646 27.0391 29.4379 27.0391 22.98C27.0391 20.0163 28.6925 18.3628 31.6563 18.3628C40.6724 18.3628 49.6884 18.3628 58.7045 18.3628C61.7931 18.3628 63.4153 19.9851 63.4153 23.136C63.4153 35.927 63.4153 48.6867 63.4153 61.4777C63.4153 64.7223 61.8555 66.2509 58.6421 66.2509C49.7196 66.2509 40.766 66.2509 31.8435 66.2509C28.6301 66.2509 27.0703 64.6911 27.0703 61.4465C27.0391 55.051 27.0391 48.6868 27.0391 42.3225ZM55.9903 30.9354C55.9903 29.8435 56.0215 28.7516 55.9903 27.6596C55.9279 25.1326 54.1809 23.136 51.6851 22.98C49.4077 22.8552 47.099 22.8552 44.8216 22.98C42.4506 23.136 40.6412 25.0703 40.5788 27.4725C40.5164 29.7187 40.5164 31.9961 40.5788 34.2423C40.6724 36.7381 42.669 38.7036 45.1648 38.7659C47.2238 38.8283 49.2829 38.7971 51.3419 38.7659C53.9625 38.7036 55.9279 36.7069 55.9903 34.0551C56.0215 33.0568 55.9903 31.9961 55.9903 30.9354ZM34.3705 25.819C34.3393 24.4151 33.7465 23.7288 32.717 23.4168C31.6875 23.1048 30.8764 23.5416 30.3148 24.3839C29.722 25.2574 29.7532 26.2246 30.4708 26.9421C31.0635 27.5349 31.1259 28.1588 31.1259 28.9387C31.1259 37.6428 31.1259 46.3157 31.0947 55.0198C31.0947 55.5814 30.814 56.2677 30.4396 56.7045C29.6285 57.7028 29.5661 58.9819 30.4084 59.8866C31.2507 60.7914 32.6234 60.8538 33.5593 60.0738C34.4641 59.3251 34.5577 57.9524 33.8713 56.9229C33.5593 56.4237 33.2786 55.7686 33.2786 55.1758C33.2474 46.4717 33.2474 37.7988 33.2474 29.0947C33.2474 28.2524 33.2474 27.5037 33.9649 26.8797C34.2457 26.5677 34.2769 26.0374 34.3705 25.819ZM48.5029 58.1708C51.4667 58.1708 54.3993 58.1708 57.363 58.1708C58.1118 58.1708 58.8917 58.046 58.8917 57.1413C58.8917 56.1741 58.1118 56.0182 57.3318 56.0182C51.4979 56.0182 45.664 56.0182 39.8612 56.0182C39.1125 56.0182 38.3637 56.1429 38.3326 57.0789C38.3014 58.1084 39.1125 58.1708 39.8924 58.1708C42.7626 58.1708 45.6328 58.1708 48.5029 58.1708ZM48.5965 52.4304C50.7803 52.4304 52.933 52.4304 55.1168 52.4304C55.8343 52.4304 56.4895 52.2433 56.5207 51.4009C56.5519 50.4962 55.8967 50.2778 55.0856 50.309C50.7491 50.309 46.3815 50.309 42.0451 50.309C41.2963 50.309 40.5476 50.3714 40.5164 51.3385C40.4852 52.3681 41.2651 52.4616 42.0451 52.4616C44.2289 52.4304 46.4127 52.4304 48.5965 52.4304Z" fill="white"/>
<path d="M50.0635 32.4315C50.0635 33.2427 50.0947 33.8978 50.0635 34.553C50.0324 35.5201 49.5332 36.1128 48.5661 36.1128C47.5989 36.1128 47.0998 35.5201 47.0686 34.553C46.9438 32.5563 46.9438 32.5563 45.0096 32.4315C43.9176 32.3691 43.3249 31.8388 43.3873 30.9029C43.4185 29.9045 44.0112 29.4678 44.9784 29.4366C45.6335 29.4366 46.2887 29.4366 47.0998 29.4366C47.0998 28.6254 47.0998 27.9391 47.0998 27.2528C47.0998 26.2856 47.5989 25.7241 48.5661 25.6617C49.4708 25.5993 50.0635 26.2544 50.0947 27.3152C50.1259 27.9703 50.0947 28.6254 50.0947 29.4366C50.8747 29.4366 51.561 29.4366 52.2474 29.4366C53.2145 29.4678 53.8384 29.9669 53.8384 30.9029C53.8384 31.8388 53.2769 32.4003 52.2786 32.4003C51.561 32.4315 50.9371 32.4315 50.0635 32.4315Z" fill="white"/>
<defs>
<filter id="filter0_d_1_86047" x="0" y="0" width="91.7891" height="87" filterUnits="userSpaceOnUse" color-interpolation-filters="sRGB">
<feFlood flood-opacity="0" result="BackgroundImageFix"/>
<feColorMatrix in="SourceAlpha" type="matrix" values="0 0 0 0 0 0 0 0 0 0 0 0 0 0 0 0 0 0 127 0" result="hardAlpha"/>
<feOffset dy="1"/>
<feGaussianBlur stdDeviation="2"/>
<feComposite in2="hardAlpha" operator="out"/>
<feColorMatrix type="matrix" values="0 0 0 0 0 0 0 0 0 0 0 0 0 0 0 0 0 0 0.25 0"/>
<feBlend mode="normal" in2="BackgroundImageFix" result="effect1_dropShadow_1_86047"/>
<feBlend mode="normal" in="SourceGraphic" in2="effect1_dropShadow_1_86047" result="shape"/>
</filter>
</defs>
</svg>
