<svg width="43" height="43" viewBox="0 0 43 43" fill="none" xmlns="http://www.w3.org/2000/svg">
<path d="M25.6133 19.4751C25.6133 20.4596 25.6133 21.4567 25.6133 22.4412C25.6133 22.5926 25.5881 22.782 25.4997 22.8703C24.4143 23.9053 23.8337 25.2558 23.089 26.5179C21.0065 30.0772 18.9618 33.6364 16.9045 37.2083C16.6268 37.6879 16.3997 38.1802 16.1977 38.6976C16.0841 38.9753 15.9327 39.0384 15.655 38.9879C14.6579 38.8365 14.0268 38.117 13.9006 37.12C13.6229 34.785 13.32 32.4374 13.0171 30.1024C12.9414 29.5218 12.8783 28.9412 12.7773 28.3733C12.7521 28.2344 12.6258 28.0577 12.4996 28.0073C10.7831 27.2247 9.97533 25.9121 10.0006 24.0062C10.0384 21.4946 9.98795 18.9703 10.0258 16.4586C10.0637 14.5401 11.5151 12.9625 13.4336 12.7353C14.2288 12.6343 14.9229 12.8489 15.5414 13.3537C15.9327 13.6693 16.3239 13.9848 16.7404 14.2625C17.5735 14.8304 18.4065 14.7295 19.2142 14.212C19.5424 13.9974 19.8579 13.7576 20.1482 13.5052C21.322 12.5207 22.5716 12.4576 23.8463 13.3411C24.9823 14.1363 25.5881 15.2217 25.6133 16.6101C25.6386 17.5567 25.6133 18.5159 25.6133 19.4751Z" fill="#848484"/>
<path d="M17.9285 4.02267C19.9985 3.78287 21.8286 5.73919 21.8286 7.80911C21.8286 9.99263 20.0742 11.7218 17.8907 11.7218C15.745 11.7218 14.0411 9.96738 14.0159 7.78387C13.9906 5.86541 15.7703 3.75762 17.9285 4.02267Z" fill="#848484"/>
<path fill-rule="evenodd" clip-rule="evenodd" d="M25.249 26.7678C25.9365 25.6087 27.6955 25.6087 28.3822 26.7678L33.3976 35.2227C34.0717 36.3597 33.2062 37.7626 31.8319 37.7626H21.8002C20.425 37.7626 19.5595 36.3597 20.2336 35.2227L25.249 26.7678ZM27.7144 35.2065C27.7144 35.4326 27.6197 35.6494 27.4511 35.8092C27.2826 35.969 27.054 36.0588 26.8156 36.0588C26.5772 36.0588 26.3486 35.969 26.18 35.8092C26.0115 35.6494 25.9168 35.4326 25.9168 35.2065C25.9168 34.9805 26.0115 34.7637 26.18 34.6039C26.3486 34.444 26.5772 34.3542 26.8156 34.3542C27.054 34.3542 27.2826 34.444 27.4511 34.6039C27.6197 34.7637 27.7144 34.9805 27.7144 35.2065ZM26.8156 28.388C26.5772 28.388 26.3486 28.4778 26.18 28.6377C26.0115 28.7975 25.9168 29.0143 25.9168 29.2404V31.7973C25.9168 32.0233 26.0115 32.2401 26.18 32.4C26.3486 32.5598 26.5772 32.6496 26.8156 32.6496C27.054 32.6496 27.2826 32.5598 27.4511 32.4C27.6197 32.2401 27.7144 32.0233 27.7144 31.7973V29.2404C27.7144 29.0143 27.6197 28.7975 27.4511 28.6377C27.2826 28.4778 27.054 28.388 26.8156 28.388Z" fill="#848484"/>
</svg>
