<svg width="43" height="43" viewBox="0 0 43 43" fill="none" xmlns="http://www.w3.org/2000/svg">
<path d="M12.2922 30.6112C11.2288 30.3718 10.2891 29.9509 9.473 29.274C7.88204 27.9533 7.04122 26.2529 7.02473 24.1893C6.99176 20.6482 6.99176 17.107 7.02473 13.5659C7.0577 10.2394 9.42354 7.56497 12.7044 7.0697C13.0506 7.02018 13.4051 7.00367 13.7513 7.00367C18.9281 7.00367 24.0966 6.99541 29.2735 7.00367C32.5378 7.00367 35.1922 9.1333 35.8516 12.2865C35.9505 12.757 35.9918 13.244 35.9918 13.731C36 17.1566 36 20.5904 36 24.016C35.9918 27.3342 33.8155 30.0004 30.5924 30.6195C30.139 30.7103 29.6691 30.7268 29.2157 30.7268C26.8829 30.735 24.55 30.7268 22.2089 30.735C22.0276 30.735 21.8215 30.8011 21.6731 30.9001C19.2743 32.4932 16.8837 34.0863 14.4849 35.6877C14.1882 35.8858 13.8749 36.0344 13.504 35.9931C12.7951 35.927 12.3005 35.3988 12.3005 34.6724C12.2922 33.4342 12.3005 32.2043 12.3005 30.9662C12.2922 30.8671 12.2922 30.7515 12.2922 30.6112ZM21.5 17.5528C23.4125 17.5528 25.3249 17.5528 27.2374 17.5528C27.971 17.5528 28.6964 17.561 29.4301 17.5528C30.0648 17.5445 30.6089 17.0575 30.6995 16.4549C30.7902 15.7946 30.4358 15.1838 29.8258 15.0022C29.6114 14.9361 29.3806 14.9196 29.158 14.9196C24.0554 14.9114 18.9528 14.9196 13.8502 14.9196C13.7513 14.9196 13.6441 14.9114 13.5452 14.9279C12.9847 14.9857 12.5725 15.2581 12.3746 15.7946C12.0449 16.6778 12.6879 17.561 13.6688 17.5693C16.2737 17.561 18.8869 17.5528 21.5 17.5528ZM21.467 22.8273C22.5057 22.8273 23.5443 22.8273 24.583 22.8273C25.3331 22.8273 26.0833 22.8438 26.8334 22.8191C27.6413 22.7943 28.2018 22.0597 28.0534 21.2673C27.9215 20.5986 27.4022 20.2024 26.6356 20.2024C23.2146 20.2024 19.7854 20.2024 16.3644 20.2024C16.282 20.2024 16.1995 20.2024 16.1171 20.2107C15.5566 20.252 15.0785 20.6564 14.9548 21.2012C14.757 22.0679 15.3587 22.8191 16.282 22.8273C18.0131 22.8273 19.7442 22.8191 21.467 22.8273Z" fill="#1C56AD"/>
</svg>
