<svg width="38" height="52" viewBox="0 0 38 52" fill="none" xmlns="http://www.w3.org/2000/svg">
<path d="M4.02676 50.9776C2.98975 50.758 2.06254 50.3676 1.34273 49.5258C0.598525 48.6474 0.317922 47.6347 0.317922 46.5123C0.317922 35.642 0.317922 24.7595 0.317922 13.8892C0.317922 11.071 0.305722 8.24058 0.317922 5.42236C0.330122 3.37274 1.48913 1.81112 3.41675 1.27432C3.83155 1.16452 4.28296 1.11572 4.70996 1.11572C11.7982 1.10352 18.8987 1.11572 25.987 1.10352C26.4994 1.10352 26.8898 1.26212 27.2436 1.62812C30.5498 4.94655 33.8682 8.26498 37.1989 11.5834C37.5893 11.9738 37.7357 12.4008 37.7235 12.9376C37.7113 24.1007 37.6991 35.276 37.7357 46.4391C37.7479 48.8426 36.2351 50.6604 34.1 50.9532C34.0756 50.9532 34.039 50.9776 34.0146 51.002C24.0349 50.9776 14.0308 50.9776 4.02676 50.9776ZM35.6616 13.6208C35.5518 13.5964 35.5274 13.5842 35.4908 13.5842C33.5632 13.5842 31.6234 13.5842 29.6958 13.5842C27.0362 13.5842 25.2671 11.8152 25.2671 9.15559C25.2671 7.34997 25.2671 5.55656 25.2671 3.75094C25.2671 3.58014 25.2671 3.40934 25.2671 3.17753C25.0353 3.17753 24.8645 3.17753 24.6937 3.17753C18.0813 3.17753 11.481 3.17753 4.86856 3.17753C3.19715 3.17753 2.40414 3.98274 2.40414 5.66636C2.40414 19.2573 2.40414 32.836 2.40414 46.4269C2.40414 48.1105 3.19715 48.9158 4.88076 48.9158C14.3115 48.9158 23.7421 48.9158 33.1728 48.9158C34.8808 48.9158 35.6738 48.1227 35.6738 46.4025C35.6738 35.6542 35.6738 24.9059 35.6738 14.1698C35.6616 13.9868 35.6616 13.816 35.6616 13.6208ZM33.9292 11.4736C31.7454 9.28979 29.5372 7.08157 27.3656 4.90995C27.3656 6.41056 27.3168 8.00878 27.3778 9.60699C27.4266 10.6806 28.1586 11.4126 29.22 11.4614C30.8304 11.5224 32.4408 11.4736 33.9292 11.4736Z" fill="#1E1D1D" stroke="#1E1D1D" stroke-width="0.3"/>
<path d="M16.9627 19.7989C16.9627 20.7505 16.9627 21.6411 16.9627 22.5317C16.9627 23.5931 16.5967 23.9591 15.5231 23.9591C14.4007 23.9591 13.2783 23.9591 12.1681 23.9591C11.0823 23.9591 10.7285 23.6175 10.7285 22.5439C10.7285 21.6777 10.7285 20.8237 10.7163 19.9575C10.7163 19.9331 10.7041 19.8965 10.6675 19.7867C10.2405 19.7867 9.80125 19.7867 9.34985 19.7867C8.80085 19.7867 8.23964 19.7989 7.69063 19.7867C6.98303 19.7623 6.56823 19.3719 6.55603 18.6521C6.54382 17.3345 6.54382 16.0169 6.55603 14.7115C6.56823 13.9794 6.97083 13.5646 7.71504 13.5646C8.69104 13.5524 9.66705 13.5646 10.7163 13.5646C10.7163 13.3816 10.7163 13.2352 10.7163 13.0766C10.7163 12.2348 10.7041 11.393 10.7163 10.539C10.7285 9.83141 11.0823 9.4288 11.7899 9.4044C13.1563 9.3678 14.5227 9.3678 15.8769 9.4044C16.5723 9.4288 16.9261 9.85581 16.9383 10.6C16.9505 11.393 16.9383 12.186 16.9383 12.9912C16.9383 13.162 16.9383 13.3328 16.9383 13.5524C17.9021 13.5524 18.8049 13.5524 19.7077 13.5524C20.7326 13.5524 21.0742 13.894 21.0864 14.9311C21.0864 16.1145 21.0864 17.2979 21.0864 18.4813C21.0864 19.4085 20.7204 19.7745 19.7809 19.7867C18.8781 19.7989 17.9631 19.7989 16.9627 19.7989ZM12.8025 11.515C12.8025 12.491 12.8025 13.406 12.8025 14.3332C12.8025 15.2605 12.4365 15.6265 11.5093 15.6387C10.6797 15.6387 9.85005 15.6265 9.02045 15.6509C8.88625 15.6509 8.66664 15.7973 8.65444 15.8827C8.61784 16.4805 8.64224 17.0783 8.64224 17.7249C8.87405 17.7249 9.04485 17.7249 9.21565 17.7249C10.0331 17.7249 10.8383 17.7127 11.6557 17.7249C12.3999 17.7371 12.7781 18.1397 12.8025 18.8839C12.8147 19.1279 12.8025 19.3719 12.8025 19.6159C12.8025 20.3601 12.8025 21.0921 12.8025 21.8241C13.5223 21.8241 14.1811 21.8241 14.8277 21.8241C14.8521 21.7509 14.8643 21.7265 14.8643 21.6899C14.8643 20.8603 14.8765 20.0307 14.8765 19.2011C14.8765 18.0299 15.1937 17.7127 16.3771 17.7127C17.2433 17.7127 18.1217 17.7127 19.0123 17.7127C19.0123 16.9929 19.0123 16.3341 19.0123 15.6265C18.0729 15.6265 17.1457 15.6265 16.2307 15.6265C15.2547 15.6265 14.8765 15.2605 14.8765 14.2722C14.8765 13.8818 14.8765 13.4914 14.8765 13.101C14.8765 12.5764 14.8765 12.0396 14.8765 11.4906C14.1567 11.515 13.5101 11.515 12.8025 11.515Z" fill="#1E1D1D" stroke="#1E1D1D" stroke-width="0.3"/>
<path d="M24.2034 42.6526C22.2758 42.6526 20.3482 42.6526 18.4084 42.6526C18.1888 42.6526 17.957 42.6404 17.7374 42.5916C17.2616 42.4818 16.9688 42.0792 16.9688 41.6034C16.9688 41.1398 17.2616 40.7494 17.713 40.6396C17.9326 40.5908 18.1644 40.5664 18.384 40.5664C22.2758 40.5664 26.1676 40.5664 30.0595 40.5664C30.9745 40.5664 31.4747 40.9324 31.4869 41.6034C31.4991 42.2866 30.9867 42.6648 30.0351 42.6648C28.0953 42.6526 26.1432 42.6526 24.2034 42.6526Z" fill="#1E1D1D" stroke="#1E1D1D" stroke-width="0.3"/>
<path d="M24.2245 30.186C26.2497 30.186 28.275 30.1738 30.3002 30.186C31.1664 30.186 31.7032 30.8204 31.4104 31.5158C31.3006 31.7842 31.02 32.0038 30.7638 32.1624C30.6052 32.26 30.3612 32.2478 30.1538 32.2478C26.2131 32.2478 22.2725 32.2478 18.3319 32.2478C18.1245 32.2478 17.9049 32.2356 17.7097 32.1746C17.2217 32.0404 16.941 31.6134 16.9898 31.101C17.0264 30.6252 17.3681 30.2592 17.8561 30.1982C18.0513 30.1738 18.2465 30.1738 18.4417 30.1738C20.3693 30.186 22.2969 30.186 24.2245 30.186Z" fill="#1E1D1D" stroke="#1E1D1D" stroke-width="0.3"/>
<path d="M9.66133 34.3376C7.95331 34.3254 6.5747 32.9346 6.5625 31.2388C6.5625 29.5308 8.00211 28.0911 9.69793 28.1155C11.3937 28.1399 12.7846 29.5308 12.7968 31.2266C12.7968 32.9468 11.3815 34.3498 9.66133 34.3376ZM9.67353 30.214C9.11232 30.214 8.66092 30.6654 8.64872 31.2266C8.64872 31.7634 9.11232 32.2514 9.66133 32.2636C10.2225 32.2758 10.7227 31.7756 10.7105 31.2144C10.6983 30.6532 10.2347 30.214 9.67353 30.214Z" fill="#1E1D1D" stroke="#1E1D1D" stroke-width="0.3"/>
<path d="M9.67384 38.4941C11.3819 38.4941 12.8093 39.9216 12.7849 41.6296C12.7727 43.3254 11.3575 44.7162 9.67384 44.7162C7.96582 44.7162 6.53841 43.2888 6.56281 41.5808C6.58721 39.8972 7.99022 38.4941 9.67384 38.4941ZM9.69824 40.5804C9.14923 40.5682 8.67343 41.0318 8.66123 41.5808C8.64903 42.1298 9.10043 42.6056 9.64944 42.63C10.2106 42.6544 10.7108 42.1786 10.7108 41.6052C10.7108 41.0684 10.2472 40.5926 9.69824 40.5804Z" fill="#1E1D1D" stroke="#1E1D1D" stroke-width="0.3"/>
</svg>
