<svg width="43" height="43" viewBox="0 0 43 43" fill="none" xmlns="http://www.w3.org/2000/svg">
<path d="M11.3075 6C15.5638 6 19.8274 6 24.0837 6C24.0837 7.37466 24.0837 8.75668 24.0984 10.1313C24.0984 10.4254 24.1205 10.7194 24.1793 11.0061C24.5542 12.763 25.995 13.9172 27.8402 13.9392C29.1193 13.9539 30.3984 13.9392 31.6775 13.9392C31.7877 13.9392 31.9053 13.9392 32.045 13.9392C32.045 14.0863 32.045 14.1965 32.045 14.2994C32.045 16.5856 32.045 18.8718 32.0524 21.1507C32.0524 21.3786 31.9862 21.5256 31.8171 21.6726C30.0676 23.187 28.3253 24.7086 26.5978 26.245C26.4287 26.3994 26.2817 26.6273 26.2303 26.8478C25.9656 27.9799 25.7377 29.112 25.5025 30.2514C25.3702 30.8983 25.6863 31.2806 26.3405 31.2512C27.2741 31.2071 28.2151 31.1482 29.1487 31.0968C30.4645 31.0233 30.0749 31.1703 31.1776 30.2294C31.4569 29.9941 31.7289 29.7515 32.045 29.4795C32.0524 29.6045 32.0524 29.656 32.0524 29.7148C32.0524 31.0306 32.0524 32.3538 32.0524 33.6697C32.0524 35.0591 31.1114 36 29.7074 36C23.7529 36 17.7912 36 11.8367 36C11.6824 36 11.5206 36 11.3663 35.9779C10.2121 35.7868 9.48438 34.9047 9.48438 33.6917C9.48438 29.2664 9.48438 24.8483 9.48438 20.4229C9.48438 16.3798 9.48438 12.3367 9.48438 8.29356C9.48438 7.15413 10.1092 6.35285 11.2119 6.05146C11.2413 6.04411 11.2707 6.0147 11.3075 6ZM21.158 22.0549C23.3854 22.0549 25.6054 22.0549 27.8328 22.0549C27.9284 22.0549 28.0313 22.0622 28.1269 22.0475C28.5091 22.0034 28.7811 21.6873 28.7738 21.3051C28.7664 20.9375 28.4944 20.6361 28.1269 20.592C28.0386 20.5847 27.9504 20.5847 27.8622 20.5847C23.3854 20.5847 18.9012 20.5847 14.4243 20.5847C14.3435 20.5847 14.27 20.5847 14.1891 20.592C13.7921 20.6288 13.5128 20.9522 13.5275 21.3492C13.5422 21.7829 13.8583 22.0549 14.3655 22.0549C16.6297 22.0549 18.8938 22.0549 21.158 22.0549ZM19.085 30.2514C18.5557 30.2514 18.0337 30.2514 17.5045 30.2514C16.4312 30.2514 15.3579 30.2441 14.2847 30.2514C13.8436 30.2514 13.5422 30.5381 13.5275 30.9424C13.5128 31.3614 13.7995 31.6702 14.2406 31.7143C14.3067 31.7216 14.3802 31.7216 14.4464 31.7216C17.5339 31.7216 20.614 31.7216 23.7015 31.7216C23.8264 31.7216 23.9588 31.7143 24.0764 31.6849C24.4586 31.5893 24.6792 31.2585 24.6204 30.8689C24.5689 30.4866 24.2822 30.2514 23.8264 30.2514C22.246 30.2514 20.6655 30.2514 19.085 30.2514ZM19.085 26.8846C20.4449 26.8846 21.7975 26.8846 23.1575 26.8846C23.4295 26.8846 23.7015 26.8919 23.9735 26.8699C24.3484 26.8405 24.6057 26.5685 24.6277 26.2083C24.6498 25.8334 24.4219 25.5173 24.047 25.4438C23.922 25.4217 23.797 25.4144 23.6721 25.4144C20.6066 25.4144 17.5412 25.4144 14.4758 25.4144C14.3508 25.4144 14.2185 25.4217 14.1009 25.4438C13.7407 25.5173 13.5128 25.8187 13.5275 26.1862C13.5422 26.6199 13.851 26.8772 14.3729 26.8846C15.9387 26.8846 17.5118 26.8846 19.085 26.8846ZM17.6956 15.7697C17.2692 15.7697 16.8355 15.7697 16.4091 15.7697C15.6961 15.7697 14.983 15.7623 14.27 15.777C13.7848 15.7844 13.4834 16.1299 13.5275 16.593C13.5716 16.9973 13.8877 17.2399 14.3949 17.2399C16.6003 17.2399 18.8056 17.2399 21.011 17.2399C21.1065 17.2399 21.2094 17.2325 21.2977 17.2105C21.6579 17.1296 21.8857 16.8356 21.871 16.468C21.8563 16.0417 21.5549 15.777 21.0624 15.7697C19.9377 15.7623 18.8203 15.7697 17.6956 15.7697Z" fill="#1C56AD"/>
<path d="M36.4972 19.5391C37.1662 20.3036 37.8278 21.0681 38.5188 21.8473C37.9307 22.3619 37.35 22.8765 36.7766 23.3764C34.461 25.4053 32.1454 27.4268 29.8298 29.4484C29.7489 29.5219 29.6313 29.5954 29.5284 29.6028C28.7859 29.6542 28.0508 29.691 27.3083 29.7277C27.2495 29.7277 27.1981 29.7204 27.1172 29.713C27.2863 28.9191 27.448 28.1325 27.6171 27.3533C27.6318 27.2872 27.6979 27.221 27.7567 27.1769C30.6384 24.6481 33.5274 22.1193 36.4164 19.5905C36.4311 19.5758 36.4531 19.5685 36.4972 19.5391Z" fill="#1C56AD"/>
<path d="M25.5883 7.13281C27.3526 8.90444 29.1169 10.6834 30.8738 12.4477C30.8591 12.4477 30.7929 12.4697 30.7194 12.4697C29.7564 12.4697 28.7861 12.4771 27.8231 12.4697C26.5513 12.455 25.6251 11.595 25.581 10.3306C25.5442 9.2867 25.5736 8.24283 25.5736 7.19897C25.5663 7.16957 25.581 7.14016 25.5883 7.13281Z" fill="#1C56AD"/>
<rect x="12.7109" y="15.2109" width="16.5771" height="6.90713" fill="#1C56AD"/>
<rect x="10.4062" y="24.8828" width="14.7352" height="6.90713" fill="#1C56AD"/>
<path d="M23.7573 18.5644H20.2051V22.1167H19.021V18.5644H15.4688V17.3804H19.021V13.8281H20.2051V17.3804H23.7573V18.5644Z" fill="white" stroke="white" stroke-width="0.8"/>
<path d="M17.6104 29.592C17.7748 29.7819 17.9343 30.0119 18.1325 30.1918C18.3307 30.3668 18.5288 30.3318 18.6787 30.1118C18.814 29.9119 18.9155 29.677 19.0364 29.467C19.1572 29.2521 19.2636 29.0221 19.4231 28.8422C19.8388 28.3573 20.4865 28.4773 20.7524 29.0671C20.8055 29.1871 20.8974 29.2871 20.9699 29.397C21.0569 29.2971 21.1584 29.2071 21.2212 29.0971C21.3711 28.8422 21.4968 28.5723 21.6466 28.3173C21.7433 28.1474 21.8545 27.9774 21.985 27.8325C22.3185 27.4726 22.826 27.5375 23.0387 27.9874C23.1596 28.2373 23.2079 28.5273 23.2659 28.8072C23.3287 29.1071 23.3577 29.407 23.4109 29.7069C23.4399 29.8669 23.4979 29.9919 23.6864 30.0269C23.8315 30.0518 23.904 30.1868 23.8798 30.3418C23.8556 30.5017 23.7541 30.5967 23.5898 30.5967C23.2756 30.5967 23.0484 30.4317 22.9517 30.1368C22.8502 29.8169 22.797 29.477 22.7294 29.1421C22.6859 28.9172 22.6617 28.6872 22.6134 28.4623C22.594 28.3673 22.5263 28.2823 22.4635 28.1524C22.3717 28.2723 22.304 28.3473 22.2508 28.4373C22.1058 28.6972 21.9705 28.9621 21.8255 29.2171C21.7384 29.372 21.6466 29.532 21.5403 29.672C21.1681 30.1568 20.559 30.0718 20.3028 29.507C20.2642 29.422 20.2303 29.337 20.182 29.2571C20.0998 29.1171 19.9983 29.0921 19.8871 29.2121C19.7856 29.322 19.7034 29.457 19.6261 29.592C19.4908 29.8369 19.3844 30.0968 19.2394 30.3318C18.8285 31.0116 18.1518 31.0916 17.6008 30.5167C17.4509 30.3618 17.3252 30.1768 17.1802 30.0019C16.8129 30.3418 16.4455 30.6817 16.0781 31.0216C16.054 31.0416 16.0346 31.0616 16.0105 31.0816C15.8364 31.2315 15.6624 31.2315 15.5512 31.0916C15.4352 30.9516 15.4739 30.7816 15.6383 30.6217C16.0298 30.2518 16.4213 29.8819 16.8129 29.517C16.895 29.437 16.9095 29.372 16.8709 29.2571C16.5712 28.3423 16.547 27.4226 16.8564 26.5078C17.0304 25.988 17.3397 25.5681 17.8376 25.3432C18.3016 25.1332 18.785 25.1232 19.1862 25.4681C19.5923 25.818 19.5971 26.3079 19.4762 26.7928C19.3506 27.3026 19.0799 27.7425 18.7705 28.1474C18.4177 28.6222 18.031 29.0771 17.6104 29.592ZM17.3832 28.9222C17.4799 28.8172 17.5524 28.7472 17.6153 28.6622C17.9923 28.1524 18.3742 27.6525 18.7319 27.1277C18.901 26.8777 18.988 26.5778 18.9639 26.2629C18.9445 25.988 18.8479 25.873 18.5868 25.823C18.3307 25.773 18.0745 25.818 17.8956 26.008C17.7168 26.1979 17.5331 26.4179 17.4364 26.6628C17.1561 27.3876 17.1706 28.1374 17.3832 28.9222Z" fill="white"/>
<rect x="16.5703" y="33.1641" width="6.90713" height="0.230238" rx="0.115119" fill="white"/>
</svg>
