<svg width="50" height="52" viewBox="0 0 50 52" fill="none" xmlns="http://www.w3.org/2000/svg">
<path d="M10.0268 50.9776C8.98975 50.758 8.06254 50.3676 7.34273 49.5258C6.59852 48.6474 6.31792 47.6347 6.31792 46.5123C6.31792 35.642 6.31792 24.7595 6.31792 13.8892C6.31792 11.071 6.30572 8.24058 6.31792 5.42236C6.33012 3.37274 7.48913 1.81112 9.41675 1.27432C9.83155 1.16452 10.283 1.11572 10.71 1.11572C17.7982 1.10352 24.8987 1.11572 31.987 1.10352C32.4994 1.10352 32.8898 1.26212 33.2436 1.62812C36.5498 4.94655 39.8682 8.26498 43.1989 11.5834C43.5893 11.9738 43.7357 12.4008 43.7235 12.9376C43.7113 24.1007 43.6991 35.276 43.7357 46.4391C43.7479 48.8426 42.2351 50.6604 40.1 50.9532C40.0756 50.9532 40.039 50.9776 40.0146 51.002C30.0349 50.9776 20.0308 50.9776 10.0268 50.9776ZM41.6616 13.6208C41.5518 13.5964 41.5274 13.5842 41.4908 13.5842C39.5632 13.5842 37.6234 13.5842 35.6958 13.5842C33.0362 13.5842 31.2671 11.8152 31.2671 9.15559C31.2671 7.34997 31.2671 5.55656 31.2671 3.75094C31.2671 3.58014 31.2671 3.40934 31.2671 3.17753C31.0353 3.17753 30.8645 3.17753 30.6937 3.17753C24.0813 3.17753 17.481 3.17753 10.8686 3.17753C9.19715 3.17753 8.40414 3.98274 8.40414 5.66636C8.40414 19.2573 8.40414 32.836 8.40414 46.4269C8.40414 48.1105 9.19715 48.9158 10.8808 48.9158C20.3115 48.9158 29.7421 48.9158 39.1728 48.9158C40.8808 48.9158 41.6738 48.1227 41.6738 46.4025C41.6738 35.6542 41.6738 24.9059 41.6738 14.1698C41.6616 13.9868 41.6616 13.816 41.6616 13.6208ZM39.9292 11.4736C37.7454 9.28979 35.5372 7.08157 33.3656 4.90995C33.3656 6.41056 33.3168 8.00878 33.3778 9.60699C33.4266 10.6806 34.1586 11.4126 35.22 11.4614C36.8304 11.5224 38.4408 11.4736 39.9292 11.4736Z" fill="white" stroke="white" stroke-width="0.5"/>
<path d="M22.9627 19.7989C22.9627 20.7505 22.9627 21.6411 22.9627 22.5317C22.9627 23.5931 22.5967 23.9591 21.5231 23.9591C20.4007 23.9591 19.2783 23.9591 18.1681 23.9591C17.0823 23.9591 16.7285 23.6175 16.7285 22.5439C16.7285 21.6777 16.7285 20.8237 16.7163 19.9575C16.7163 19.9331 16.7041 19.8965 16.6675 19.7867C16.2405 19.7867 15.8013 19.7867 15.3499 19.7867C14.8008 19.7867 14.2396 19.7989 13.6906 19.7867C12.983 19.7623 12.5682 19.3719 12.556 18.6521C12.5438 17.3345 12.5438 16.0169 12.556 14.7115C12.5682 13.9794 12.9708 13.5646 13.715 13.5646C14.691 13.5524 15.6671 13.5646 16.7163 13.5646C16.7163 13.3816 16.7163 13.2352 16.7163 13.0766C16.7163 12.2348 16.7041 11.393 16.7163 10.539C16.7285 9.83141 17.0823 9.4288 17.7899 9.4044C19.1563 9.3678 20.5227 9.3678 21.8769 9.4044C22.5723 9.4288 22.9261 9.85581 22.9383 10.6C22.9505 11.393 22.9383 12.186 22.9383 12.9912C22.9383 13.162 22.9383 13.3328 22.9383 13.5524C23.9021 13.5524 24.8049 13.5524 25.7077 13.5524C26.7326 13.5524 27.0742 13.894 27.0864 14.9311C27.0864 16.1145 27.0864 17.2979 27.0864 18.4813C27.0864 19.4085 26.7204 19.7745 25.7809 19.7867C24.8781 19.7989 23.9631 19.7989 22.9627 19.7989ZM18.8025 11.515C18.8025 12.491 18.8025 13.406 18.8025 14.3332C18.8025 15.2605 18.4365 15.6265 17.5093 15.6387C16.6797 15.6387 15.8501 15.6265 15.0204 15.6509C14.8862 15.6509 14.6666 15.7973 14.6544 15.8827C14.6178 16.4805 14.6422 17.0783 14.6422 17.7249C14.874 17.7249 15.0448 17.7249 15.2156 17.7249C16.0331 17.7249 16.8383 17.7127 17.6557 17.7249C18.3999 17.7371 18.7781 18.1397 18.8025 18.8839C18.8147 19.1279 18.8025 19.3719 18.8025 19.6159C18.8025 20.3601 18.8025 21.0921 18.8025 21.8241C19.5223 21.8241 20.1811 21.8241 20.8277 21.8241C20.8521 21.7509 20.8643 21.7265 20.8643 21.6899C20.8643 20.8603 20.8765 20.0307 20.8765 19.2011C20.8765 18.0299 21.1937 17.7127 22.3771 17.7127C23.2433 17.7127 24.1217 17.7127 25.0123 17.7127C25.0123 16.9929 25.0123 16.3341 25.0123 15.6265C24.0729 15.6265 23.1457 15.6265 22.2307 15.6265C21.2547 15.6265 20.8765 15.2605 20.8765 14.2722C20.8765 13.8818 20.8765 13.4914 20.8765 13.101C20.8765 12.5764 20.8765 12.0396 20.8765 11.4906C20.1567 11.515 19.5101 11.515 18.8025 11.515Z" fill="white" stroke="white" stroke-width="0.5"/>
<path d="M30.2034 42.6526C28.2758 42.6526 26.3482 42.6526 24.4084 42.6526C24.1888 42.6526 23.957 42.6404 23.7374 42.5916C23.2616 42.4818 22.9688 42.0792 22.9688 41.6034C22.9688 41.1398 23.2616 40.7494 23.713 40.6396C23.9326 40.5908 24.1644 40.5664 24.384 40.5664C28.2758 40.5664 32.1676 40.5664 36.0595 40.5664C36.9745 40.5664 37.4747 40.9324 37.4869 41.6034C37.4991 42.2866 36.9867 42.6648 36.0351 42.6648C34.0953 42.6526 32.1432 42.6526 30.2034 42.6526Z" fill="white" stroke="white" stroke-width="0.5"/>
<path d="M30.2245 30.186C32.2497 30.186 34.275 30.1738 36.3002 30.186C37.1664 30.186 37.7032 30.8204 37.4104 31.5158C37.3006 31.7842 37.02 32.0038 36.7638 32.1624C36.6052 32.26 36.3612 32.2478 36.1538 32.2478C32.2131 32.2478 28.2725 32.2478 24.3319 32.2478C24.1245 32.2478 23.9049 32.2356 23.7097 32.1746C23.2217 32.0404 22.941 31.6134 22.9898 31.101C23.0264 30.6252 23.3681 30.2592 23.8561 30.1982C24.0513 30.1738 24.2465 30.1738 24.4417 30.1738C26.3693 30.186 28.2969 30.186 30.2245 30.186Z" fill="white" stroke="white" stroke-width="0.5"/>
<path d="M15.6613 34.3376C13.9533 34.3254 12.5747 32.9346 12.5625 31.2388C12.5625 29.5308 14.0021 28.0911 15.6979 28.1155C17.3937 28.1399 18.7846 29.5308 18.7968 31.2266C18.7968 32.9468 17.3815 34.3498 15.6613 34.3376ZM15.6735 30.214C15.1123 30.214 14.6609 30.6654 14.6487 31.2266C14.6487 31.7634 15.1123 32.2514 15.6613 32.2636C16.2225 32.2758 16.7227 31.7756 16.7105 31.2144C16.6983 30.6532 16.2347 30.214 15.6735 30.214Z" fill="white" stroke="white" stroke-width="0.5"/>
<path d="M15.6738 38.4941C17.3819 38.4941 18.8093 39.9216 18.7849 41.6296C18.7727 43.3254 17.3575 44.7162 15.6738 44.7162C13.9658 44.7162 12.5384 43.2888 12.5628 41.5808C12.5872 39.8972 13.9902 38.4941 15.6738 38.4941ZM15.6982 40.5804C15.1492 40.5682 14.6734 41.0318 14.6612 41.5808C14.649 42.1298 15.1004 42.6056 15.6494 42.63C16.2106 42.6544 16.7108 42.1786 16.7108 41.6052C16.7108 41.0684 16.2472 40.5926 15.6982 40.5804Z" fill="white" stroke="white" stroke-width="0.5"/>
</svg>
