<svg width="30" height="30" viewBox="0 0 30 30" fill="none" xmlns="http://www.w3.org/2000/svg">
<path d="M14.6969 22.1577C12.4342 22.1577 10.1715 22.1577 7.90874 22.1577C7.58389 22.1577 7.25904 22.1577 6.9454 22.1017C5.95966 21.9111 5.5228 21.0479 5.93725 20.1287C6.06047 19.8484 6.2509 19.6018 6.43013 19.3552C7.60629 17.7409 8.23358 15.936 8.23358 13.9293C8.23358 12.9877 8.21118 12.0572 8.23358 11.1155C8.30079 7.96541 10.3619 5.52155 13.4423 4.91619C17.0828 4.19873 20.6226 6.79953 20.981 10.499C21.1042 11.7769 21.0594 13.0661 21.1378 14.3553C21.2274 15.9584 21.7539 17.4045 22.6388 18.7386C22.8853 19.1085 23.1429 19.4785 23.3781 19.8596C23.9606 20.8013 23.4229 21.9896 22.314 22.0793C21.2498 22.169 20.1633 22.1353 19.0879 22.1465C17.6205 22.1577 16.1531 22.1465 14.6857 22.1465C14.6969 22.1353 14.6969 22.1465 14.6969 22.1577Z" fill="white"/>
<path d="M12.2773 23.75C14.1256 23.75 15.9403 23.75 17.7661 23.75C17.5085 24.9383 16.3995 25.7791 15.0889 25.8127C13.8008 25.8463 12.6358 25.0056 12.2773 23.75Z" fill="white"/>
</svg>
