<svg width="43" height="43" viewBox="0 0 43 43" fill="none" xmlns="http://www.w3.org/2000/svg">
<path d="M21.2003 5.00008C23.6411 5.00008 25.5513 7.10734 25.3391 9.54812C24.9297 14.369 24.5204 19.19 24.1263 24.0109C23.9898 25.6027 22.7315 26.8155 21.1852 26.8155C19.6237 26.8155 18.3654 25.6179 18.2289 24.026C17.8348 19.2051 17.4254 14.3842 17.0161 9.56328C16.8039 7.07702 18.7141 4.98492 21.2003 5.00008Z" fill="#F30000"/>
<path d="M21.1551 37.6992C19.154 37.6992 17.5318 36.0468 17.547 34.0456C17.5621 32.0596 19.1843 30.4527 21.1703 30.4375C23.1866 30.4375 24.8239 32.0596 24.8239 34.0608C24.7935 36.0771 23.1562 37.6992 21.1551 37.6992Z" fill="#F30000"/>
</svg>
