<svg width="24" height="24" viewBox="0 0 24 24" fill="none" xmlns="http://www.w3.org/2000/svg">
<g clip-path="url(#clip0_1_68071)">
<path d="M0 22.084C0 15.3457 0 8.60742 0 1.875C0.0117187 1.83984 0.0292969 1.80469 0.0351562 1.76367C0.123047 1.24219 0.375 0.820312 0.779297 0.480469C1.0957 0.210937 1.47656 0.09375 1.86914 0C5.27344 0 8.67187 0 12.0703 0C12.1641 0.00585937 12.2578 0.0234375 12.3457 0.0234375C12.9316 0.0292969 13.5176 0.0292969 14.0977 0.0292969C16.6465 0.0351562 19.1953 0.0351562 21.7441 0.046875C23.0156 0.0527344 23.9414 0.931641 23.9414 2.16211C23.9473 8.68945 23.9473 15.2109 23.9355 21.7383C23.9355 22.0723 23.8594 22.4297 23.7187 22.7285C23.3262 23.584 22.6113 23.9531 21.6855 23.9531C15.2051 23.9531 8.72461 23.9531 2.25 23.9531C2.19727 23.9531 2.13867 23.9531 2.08594 23.9531C1.39453 23.9238 0.796875 23.666 0.410156 23.0801C0.228516 22.7812 0.134766 22.418 0 22.084ZM9.86133 15.4863C9.16406 15.4863 8.49609 15.4805 7.82227 15.4863C6.44531 15.5039 5.44922 16.6641 5.70117 17.9707C5.87695 18.8672 6.46289 19.3828 7.30664 19.6523C7.62305 19.752 7.94531 19.8516 8.25 19.9922C9.09961 20.373 9.7793 20.9707 10.3535 21.6973C10.8809 22.3535 11.5723 22.6289 12.4043 22.4531C12.9785 22.3359 13.4121 21.9844 13.7637 21.5273C14.168 21.0059 14.6426 20.543 15.2285 20.2383C15.75 19.9687 16.3066 19.752 16.8574 19.5586C17.7363 19.2422 18.3574 18.3574 18.2754 17.4668C18.1758 16.4297 17.4551 15.6152 16.4766 15.5332C15.7617 15.4687 15.0469 15.5039 14.3262 15.4922C14.2441 15.4922 14.1621 15.4922 14.0859 15.4922C14.0859 13.5996 14.0859 11.748 14.0859 9.87891C14.5312 9.87891 14.9707 9.87305 15.4043 9.87891C16.2422 9.88477 16.8574 10.4648 16.8809 11.2559C16.8984 12.0176 16.3184 12.6211 15.5098 12.6855C15.0527 12.7207 14.7598 13.0254 14.7832 13.4297C14.8066 13.834 15.1348 14.0977 15.5977 14.0859C17.332 14.0332 18.6152 12.3633 18.2051 10.6758C18.1699 10.5293 18.1875 10.4297 18.293 10.3066C18.8965 9.59766 19.1309 8.78906 18.9023 7.86914C18.8672 7.72266 18.8848 7.61719 18.9902 7.5C19.418 7.02539 19.6523 6.46289 19.6816 5.83008C19.7637 4.22461 18.5215 2.89453 16.9102 2.87109C15.9902 2.85937 15.0703 2.86523 14.1504 2.87109C13.9922 2.87109 13.9219 2.82422 13.8574 2.68359C13.4707 1.89844 12.832 1.4707 11.959 1.4707C11.0977 1.47656 10.459 1.89844 10.084 2.67773C10.0078 2.83008 9.92578 2.87109 9.76758 2.87109C8.8418 2.86523 7.91016 2.8418 6.98437 2.87695C5.8125 2.91797 4.95117 3.49805 4.48242 4.57617C4.02539 5.63672 4.21289 6.63281 4.95703 7.51758C5.05078 7.62891 5.07422 7.71094 5.03906 7.8457C4.80469 8.78906 5.04492 9.61523 5.67188 10.3418C5.76562 10.4473 5.77148 10.5352 5.73633 10.6523C5.61328 11.1035 5.61914 11.5605 5.74219 12.0117C6.04687 13.1953 7.18359 14.0859 8.40234 14.0918C8.81836 14.0918 9.13476 13.8105 9.15234 13.418C9.16406 13.0371 8.88281 12.7324 8.47851 12.6914C8.36719 12.6797 8.26172 12.6738 8.15625 12.6504C7.51758 12.5098 7.06641 11.959 7.05469 11.3145C7.03711 10.6758 7.4707 10.0547 8.10937 9.94922C8.67773 9.85547 9.26367 9.88477 9.84961 9.86133C9.86133 11.7539 9.86133 13.6055 9.86133 15.4863Z" fill="#330694"/>
<path d="M8.80174 16.8892C9.13573 16.8892 9.46971 16.8951 9.80955 16.8834C9.94432 16.8775 10.0088 16.9185 10.0732 17.0474C10.4541 17.8443 11.0986 18.2779 11.9775 18.2837C12.8564 18.2837 13.501 17.8501 13.8877 17.0591C13.9463 16.9361 14.0049 16.8892 14.1455 16.8892C14.8076 16.8951 15.4697 16.8892 16.1318 16.8951C16.5361 16.8951 16.8232 17.1294 16.8818 17.4927C16.9346 17.8267 16.7471 18.1255 16.3603 18.2427C15.458 18.5123 14.6025 18.8814 13.8701 19.4849C13.4951 19.7955 13.1553 20.1529 12.8096 20.4986C12.7158 20.5923 12.6455 20.7037 12.5576 20.8033C12.1943 21.2134 11.7666 21.2134 11.4267 20.7857C10.8467 20.0591 10.1846 19.4263 9.35838 18.9927C8.87791 18.7408 8.36229 18.5591 7.85838 18.3541C7.72948 18.3013 7.58885 18.272 7.4658 18.2076C7.17283 18.0611 7.02049 17.7447 7.08494 17.4517C7.15526 17.1353 7.41893 16.9185 7.75291 16.8951C7.77049 16.8951 7.78221 16.8951 7.79979 16.8951C8.12791 16.8892 8.46776 16.8892 8.80174 16.8892Z" fill="#330694"/>
<path d="M9.8623 4.26855C9.8623 4.74316 9.8623 5.18848 9.8623 5.66309C9.20019 5.66309 8.5498 5.66895 7.89355 5.66309C7.3955 5.65723 6.91504 5.74512 6.47558 5.99121C6.2705 6.10254 6.08886 6.24316 5.8955 6.37207C5.47949 5.90332 5.60839 4.88965 6.33496 4.47949C6.5166 4.37402 6.73925 4.28613 6.95019 4.28027C7.91113 4.25684 8.87793 4.26855 9.8623 4.26855Z" fill="#330694"/>
<path d="M14.0938 5.66008C14.0938 5.17961 14.0938 4.72844 14.0938 4.25383C14.2637 4.25383 14.4277 4.25383 14.5859 4.25383C15.3477 4.25383 16.1152 4.24211 16.877 4.25969C17.9316 4.28312 18.5996 5.33781 18.1484 6.25187C18.1309 6.29289 18.1016 6.32805 18.0664 6.38664C17.9961 6.33976 17.9316 6.29875 17.873 6.25187C17.375 5.85344 16.8008 5.66594 16.1621 5.66594C15.4824 5.66008 14.7969 5.66008 14.0938 5.66008Z" fill="#330694"/>
<path d="M9.86145 8.4668C8.71887 8.49023 7.52942 8.27344 6.61535 9.20508C6.09387 8.51367 6.45129 7.45312 7.2716 7.16016C7.37121 7.125 7.48254 7.08398 7.58801 7.08398C8.34387 7.07812 9.09387 7.07812 9.86145 7.07812C9.86145 7.53516 9.86145 7.98047 9.86145 8.4668Z" fill="#330694"/>
<path d="M14.0938 8.46683C14.0938 7.98637 14.0938 7.53519 14.0938 7.08402C14.8672 7.08402 15.6348 7.02543 16.3848 7.1016C17.3926 7.20121 17.9258 8.39066 17.3398 9.21098C16.4316 8.27348 15.2422 8.49027 14.0938 8.46683Z" fill="#330694"/>
<path d="M11.2812 14.0938C11.7558 14.0938 12.207 14.0938 12.6816 14.0938C12.6816 14.5098 12.6816 14.9199 12.6816 15.3301C12.6816 15.623 12.6874 15.9219 12.6757 16.2148C12.6581 16.6016 12.3476 16.8887 11.9784 16.8887C11.6152 16.8887 11.2929 16.6074 11.287 16.2324C11.2695 15.5293 11.2812 14.8203 11.2812 14.0938Z" fill="#330694"/>
<path d="M11.2891 5.67188C11.752 5.67188 12.2031 5.67188 12.666 5.67188C12.666 6.12891 12.666 6.58008 12.666 7.04883C12.2148 7.04883 11.7637 7.04883 11.2891 7.04883C11.2891 6.59766 11.2891 6.14648 11.2891 5.67188Z" fill="#330694"/>
<path d="M12.6602 9.86133C12.2031 9.86133 11.752 9.86133 11.2891 9.86133C11.2891 9.41016 11.2891 8.95312 11.2891 8.48438C11.7402 8.48438 12.1914 8.48438 12.6602 8.48438C12.6602 8.94141 12.6602 9.39258 12.6602 9.86133Z" fill="#330694"/>
<path d="M11.2891 11.2812C11.7578 11.2812 12.2031 11.2812 12.666 11.2812C12.666 11.7383 12.666 12.1895 12.666 12.6582C12.2148 12.6582 11.7637 12.6582 11.2891 12.6582C11.2891 12.207 11.2891 11.7559 11.2891 11.2812Z" fill="#330694"/>
<path d="M12.6755 4.24966C12.2009 4.24966 11.7556 4.24966 11.2927 4.24966C11.2927 3.96841 11.2634 3.68716 11.2986 3.41763C11.3454 3.07192 11.6794 2.83755 12.0193 2.86099C12.365 2.88442 12.6462 3.15396 12.6696 3.50552C12.6872 3.74575 12.6755 3.98599 12.6755 4.24966Z" fill="#330694"/>
</g>
<defs>
<clipPath id="clip0_1_68071">
<rect width="24" height="24" fill="white"/>
</clipPath>
</defs>
</svg>
