<svg width="26" height="31" viewBox="0 0 26 31" fill="none" xmlns="http://www.w3.org/2000/svg">
<path d="M12.9311 30.6213C12.2339 30.3001 11.5131 30.0103 10.8394 29.6499C6.66389 27.4329 3.76532 24.0564 1.97134 19.7164C0.62389 16.4653 0.138183 13.0654 0.435875 9.56357C0.529882 8.45898 0.717898 7.36222 0.866744 6.2498C1.36812 6.21063 1.79899 6.18713 2.23769 6.14012C4.18835 5.9051 5.9745 5.19221 7.68231 4.2678C9.49196 3.28072 11.1449 2.08212 12.7509 0.797348C12.8292 0.734676 12.9076 0.679838 12.9702 0.625C13.832 1.26739 14.6702 1.92544 15.5398 2.53649C17.4121 3.86043 19.3863 5.0042 21.5955 5.68575C22.6374 6.00694 23.7028 6.19496 24.7917 6.2263C24.8701 6.2263 24.9484 6.23413 25.0737 6.2498C25.2069 7.0567 25.3636 7.85576 25.4654 8.6705C25.8258 11.7336 25.6143 14.7575 24.7134 17.7187C23.2641 22.4975 20.5457 26.344 16.2762 29.0075C15.3048 29.6107 14.2237 30.0494 13.1974 30.5586C13.1426 30.5821 13.0956 30.6135 13.0408 30.637C13.0094 30.6213 12.9702 30.6213 12.9311 30.6213ZM23.9221 10.7857C23.8751 10.2686 23.789 9.26588 23.7106 8.26313C23.6871 7.94977 23.5304 7.80093 23.2171 7.75392C21.9323 7.58157 20.7024 7.20554 19.5116 6.70417C17.2868 5.77193 15.2891 4.46365 13.3776 3.03003C13.0251 2.76368 12.9624 2.76368 12.6099 3.03003C11.1919 4.09545 9.73481 5.08253 8.16801 5.91294C6.59338 6.74334 4.96392 7.39356 3.20127 7.69125C2.19852 7.8636 2.32386 7.76176 2.21419 8.72534C1.73632 12.987 2.4022 17.0607 4.41554 20.868C6.27219 24.4011 8.99842 27.0333 12.6569 28.6707C12.8919 28.7725 13.0878 28.7803 13.3228 28.6785C16.4642 27.2762 18.9476 25.114 20.7886 22.2155C22.9116 18.8782 23.883 15.2119 23.9221 10.7857Z" fill="#848484"/>
<path d="M23.9224 10.7835C23.8754 15.2097 22.904 18.8839 20.781 22.2133C18.94 25.1119 16.4566 27.2741 13.3152 28.6763C13.0802 28.7782 12.8765 28.7704 12.6493 28.6685C8.99085 27.0312 6.26462 24.399 4.40797 20.8659C2.40247 17.0507 1.73658 12.9849 2.20662 8.7232C2.31629 7.75962 2.19095 7.86146 3.1937 7.68911C4.94851 7.38358 6.58581 6.73336 8.16044 5.9108C9.72724 5.08823 11.1922 4.09331 12.6023 3.02789C12.9548 2.76154 13.0175 2.76154 13.37 3.02789C15.2894 4.46934 17.2792 5.77762 19.504 6.70203C20.6948 7.2034 21.9247 7.57943 23.2095 7.75178C23.5229 7.79095 23.6796 7.94763 23.7031 8.26099C23.7971 9.26374 23.8832 10.2665 23.9224 10.7835ZM2.76283 11.3241C2.80984 13.3296 3.06836 15.3037 3.67941 17.2152C5.1522 21.8294 7.90192 25.3939 12.2419 27.6658C12.7825 27.9478 13.2055 27.9478 13.7461 27.6658C18.0234 25.4252 20.7732 21.9235 22.2538 17.3797C23.1704 14.5595 23.3819 11.6688 23.0293 8.7232C23.0058 8.54301 22.951 8.48034 22.7708 8.44901C21.3372 8.21399 19.9741 7.75178 18.6501 7.14857C16.7152 6.26333 14.9368 5.11956 13.2369 3.85046C13.0567 3.70945 12.9392 3.72512 12.759 3.85046C12.0774 4.344 11.3959 4.82971 10.6908 5.29191C8.37196 6.79604 5.92776 8.00247 3.1702 8.47251C3.09186 8.48818 2.99002 8.62135 2.98218 8.69969C2.89601 9.56927 2.83334 10.4467 2.76283 11.3241Z" fill="white"/>
<path d="M2.76562 11.3265C2.83613 10.4491 2.8988 9.57165 2.97714 8.70208C2.98498 8.6159 3.08682 8.48273 3.16516 8.47489C5.92272 8.00485 8.36692 6.80625 10.6858 5.29429C11.3908 4.83992 12.0724 4.34638 12.7539 3.85284C12.9341 3.71966 13.0438 3.71183 13.2318 3.85284C14.9318 5.12195 16.7101 6.27354 18.6451 7.15095C19.9612 7.75416 21.3322 8.20854 22.7658 8.45139C22.946 8.48273 23.0086 8.55323 23.0243 8.72558C23.3847 11.6633 23.1731 14.5619 22.2487 17.3821C20.7681 21.9258 18.0262 25.4276 13.741 27.6681C13.2005 27.9502 12.7853 27.9502 12.2369 27.6681C7.89688 25.3963 5.14716 21.8318 3.67437 17.2176C3.07115 15.2983 2.81263 13.332 2.76562 11.3265ZM15.5115 18.0794C15.6525 18.0794 15.7622 18.0794 15.864 18.0794C16.7806 18.0794 17.6972 18.0872 18.6216 18.0794C19.4677 18.0715 20.0317 17.5075 20.0395 16.6614C20.0474 15.9563 20.0395 15.2513 20.0395 14.5541C20.0395 13.614 19.4912 13.0656 18.5433 13.0656C17.6424 13.0656 16.7493 13.0656 15.8484 13.0656C15.7465 13.0656 15.6369 13.0578 15.5115 13.0499C15.5115 12.9246 15.5115 12.8149 15.5115 12.7131C15.5115 11.8043 15.5115 10.8956 15.5115 9.98685C15.5037 9.10944 14.9318 8.53756 14.0622 8.52973C13.3572 8.52973 12.6521 8.52973 11.9549 8.52973C11.0618 8.52973 10.4899 9.10161 10.4821 9.99468C10.4821 10.9034 10.4821 11.8122 10.4821 12.7209C10.4821 12.8228 10.4821 12.9324 10.4821 13.0656C10.3411 13.0656 10.2392 13.0656 10.1374 13.0656C9.22082 13.0656 8.30425 13.0578 7.37984 13.0656C6.51027 13.0734 5.95405 13.6375 5.95405 14.5071C5.94622 15.2199 5.94622 15.9328 5.95405 16.6457C5.96189 17.531 6.5181 18.0794 7.41118 18.0872C8.29641 18.0872 9.18949 18.0872 10.0747 18.0872C10.2001 18.0872 10.3254 18.0872 10.4821 18.0872C10.4821 18.2204 10.4821 18.3222 10.4821 18.4319C10.4821 19.3328 10.4821 20.2259 10.4821 21.1268C10.4821 22.059 11.0383 22.6231 11.9784 22.6309C12.6364 22.6387 13.2867 22.6309 13.9447 22.6309C14.9788 22.6309 15.5193 22.0904 15.5193 21.0641C15.5115 20.077 15.5115 19.0978 15.5115 18.0794Z" fill="#848484"/>
<path d="M15.5087 18.0809C15.5087 19.0993 15.5087 20.0786 15.5087 21.05C15.5087 22.0762 14.9681 22.6168 13.934 22.6168C13.276 22.6168 12.6258 22.6246 11.9677 22.6168C11.0276 22.609 10.4792 22.0449 10.4714 21.1127C10.4714 20.2118 10.4714 19.3187 10.4714 18.4178C10.4714 18.3159 10.4714 18.2063 10.4714 18.0731C10.3147 18.0731 10.1894 18.0731 10.064 18.0731C9.17881 18.0731 8.28574 18.0731 7.4005 18.0731C6.50742 18.0731 5.95121 17.5169 5.94338 16.6316C5.93554 15.9187 5.93554 15.2058 5.94338 14.493C5.95121 13.6234 6.49959 13.0593 7.36916 13.0515C8.28574 13.0437 9.20231 13.0515 10.1267 13.0515C10.2286 13.0515 10.3382 13.0515 10.4714 13.0515C10.4714 12.9183 10.4714 12.8086 10.4714 12.7068C10.4714 11.7981 10.4714 10.8893 10.4714 9.98058C10.4714 9.08751 11.0511 8.51562 11.9442 8.51562C12.6493 8.51562 13.3543 8.51562 14.0515 8.51562C14.9211 8.51562 15.493 9.09534 15.5008 9.97275C15.5087 10.8815 15.5008 11.7902 15.5008 12.699C15.5008 12.8008 15.5008 12.9105 15.5008 13.0358C15.634 13.0437 15.7359 13.0515 15.8377 13.0515C16.7386 13.0515 17.6317 13.0515 18.5326 13.0515C19.4805 13.0593 20.0289 13.5999 20.0289 14.54C20.0289 15.245 20.0367 15.9501 20.0289 16.6473C20.021 17.4934 19.457 18.0574 18.6109 18.0652C17.6943 18.0731 16.7778 18.0652 15.8534 18.0652C15.7594 18.0809 15.6497 18.0809 15.5087 18.0809ZM11.2313 11.6335C11.2313 12.1819 11.2313 12.7303 11.2313 13.2709C11.2313 13.6782 11.1138 13.7957 10.7143 13.7957C9.63318 13.7957 8.54426 13.7957 7.46317 13.7957C6.92262 13.7957 6.69544 14.0151 6.69544 14.5635C6.6876 15.2215 6.69544 15.8717 6.69544 16.5298C6.69544 17.133 6.89912 17.3289 7.51017 17.3289C8.55209 17.3289 9.60184 17.3289 10.6438 17.3289C11.1295 17.3289 11.2313 17.4307 11.2313 17.9086C11.2313 18.974 11.2313 20.0394 11.2313 21.1048C11.2313 21.6454 11.4507 21.8804 11.9912 21.8804C12.6571 21.8804 13.323 21.8804 13.981 21.8804C14.5373 21.8804 14.7566 21.6532 14.7566 21.0892C14.7566 20.0316 14.7566 18.9818 14.7566 17.9242C14.7566 17.4229 14.8506 17.3367 15.3598 17.3367C16.4174 17.3367 17.4672 17.3367 18.5247 17.3367C19.081 17.3367 19.2925 17.1252 19.2925 16.5768C19.3003 15.9109 19.2925 15.245 19.2925 14.587C19.2925 14.0229 19.0731 13.8114 18.5091 13.8114C17.4358 13.8114 16.3626 13.8114 15.2893 13.8114C14.8663 13.8114 14.7566 13.7017 14.7566 13.2709C14.7566 12.1663 14.7566 11.0617 14.7566 9.95708C14.7566 9.51837 14.5216 9.28335 14.0907 9.28335C13.37 9.27552 12.6414 9.27552 11.9207 9.28335C11.4663 9.28335 11.2391 9.51837 11.2391 9.97275C11.2235 10.5211 11.2313 11.0773 11.2313 11.6335Z" fill="white"/>
<path d="M11.2312 11.6295C11.2312 11.0733 11.2312 10.5171 11.2312 9.96089C11.2312 9.50652 11.4662 9.2715 11.9128 9.2715C12.6335 9.26367 13.3621 9.26367 14.0828 9.2715C14.5136 9.2715 14.7487 9.51435 14.7487 9.94522C14.7565 11.0498 14.7487 12.1544 14.7487 13.259C14.7487 13.6899 14.8583 13.7995 15.2814 13.7995C16.3546 13.7995 17.4279 13.7995 18.5011 13.7995C19.0652 13.7995 19.2845 14.0189 19.2845 14.5751C19.2845 15.241 19.2924 15.9069 19.2845 16.5649C19.2845 17.1133 19.0652 17.3248 18.5168 17.3248C17.4592 17.3248 16.4095 17.3248 15.3519 17.3248C14.8427 17.3248 14.7487 17.4188 14.7487 17.9124C14.7487 18.97 14.7487 20.0197 14.7487 21.0773C14.7487 21.6414 14.5293 21.8685 13.9731 21.8685C13.3072 21.8685 12.6413 21.8685 11.9833 21.8685C11.4506 21.8685 11.2234 21.6335 11.2234 21.093C11.2234 20.0276 11.2234 18.9621 11.2234 17.8967C11.2234 17.4188 11.1215 17.317 10.6358 17.317C9.59391 17.317 8.54415 17.317 7.50223 17.317C6.89118 17.317 6.6875 17.1211 6.6875 16.5179C6.6875 15.8599 6.6875 15.2097 6.6875 14.5516C6.6875 14.0111 6.91469 13.7839 7.45523 13.7839C8.53632 13.7839 9.62524 13.7839 10.7063 13.7839C11.1137 13.7839 11.2234 13.6664 11.2234 13.259C11.2312 12.7263 11.2312 12.1779 11.2312 11.6295Z" fill="#848484"/>
</svg>
