<svg width="22" height="21" viewBox="0 0 22 21" fill="none" xmlns="http://www.w3.org/2000/svg">
<path d="M21 2.56712C21 6.47978 21 10.3873 21 14.3C20.9896 14.3102 20.9791 14.3154 20.9739 14.3307C20.6972 15.3704 20.076 15.8364 18.9744 15.8364C17.0794 15.8364 15.1843 15.8364 13.2892 15.8364C13.2109 15.8364 13.1378 15.8364 13.0439 15.8364C13.0647 16.1949 13.0856 16.5329 13.1117 16.8914C13.4354 16.8914 13.7538 16.8863 14.0723 16.8914C14.8136 16.9119 15.2991 17.3984 15.3044 18.1205C15.3096 18.5097 15.3044 18.8989 15.3044 19.2881C15.3044 19.7695 15.0642 20 14.5683 20C13.3362 20 12.1042 20 10.8773 20C9.71313 20 8.54372 20 7.37954 20C6.94101 20 6.69042 19.7542 6.69042 19.324C6.69042 18.8938 6.6852 18.4687 6.69564 18.0385C6.7113 17.4957 7.0663 17.0553 7.60402 16.9272C7.76586 16.8863 7.93814 16.8914 8.10519 16.8863C8.361 16.8811 8.62203 16.8863 8.88828 16.8863C8.90916 16.5226 8.93004 16.1898 8.95615 15.8313C8.85696 15.8313 8.78387 15.8313 8.70556 15.8313C6.76873 15.8313 4.83712 15.8313 2.90029 15.8313C1.79353 15.8313 1 15.058 1 13.9774C1 10.2695 1 6.56685 1 2.85903C1 2.69003 1.02088 2.51078 1.06265 2.3469C1.28191 1.51725 2.00235 1 2.94205 1C8.31402 1 13.686 1 19.0632 1C19.1154 1 19.1676 1 19.2198 1C20.0081 1.03585 20.6659 1.51213 20.9112 2.23423C20.9426 2.3469 20.9687 2.45957 21 2.56712ZM10.9817 14.6073C13.6651 14.6073 16.3485 14.6073 19.0318 14.6073C19.533 14.6073 19.7471 14.3973 19.7471 13.9159C19.7471 10.2542 19.7471 6.59245 19.7471 2.93585C19.7471 2.44933 19.5278 2.23423 19.0371 2.23423C13.6755 2.23423 8.31924 2.23423 2.95771 2.23423C2.46176 2.23423 2.2425 2.44933 2.2425 2.93073C2.2425 6.59245 2.2425 10.2542 2.2425 13.9108C2.2425 14.4024 2.45654 14.6073 2.95249 14.6073C5.63064 14.6073 8.3088 14.6073 10.9817 14.6073ZM14.0462 18.1256C12.005 18.1256 9.97938 18.1256 7.9538 18.1256C7.9538 18.3458 7.9538 18.5507 7.9538 18.7606C9.99504 18.7606 12.0154 18.7606 14.0462 18.7606C14.0462 18.5456 14.0462 18.3458 14.0462 18.1256ZM10.136 16.876C10.7207 16.876 11.2845 16.876 11.8588 16.876C11.8379 16.5226 11.8118 16.1898 11.7909 15.8364C11.3367 15.8364 10.893 15.8364 10.4545 15.8364C10.3761 15.8364 10.3031 15.8364 10.2091 15.8364C10.183 16.1898 10.1569 16.5226 10.136 16.876Z" fill="white" stroke="white" stroke-width="0.5"/>
</svg>
