<svg width="32" height="32" viewBox="0 0 32 32" fill="none" xmlns="http://www.w3.org/2000/svg">
<path d="M23.3966 23.2128C22.853 22.8218 22.3094 22.7073 21.68 22.8885C21.68 22.7264 21.68 22.6024 21.68 22.4689C21.68 21.458 21.6895 20.4471 21.68 19.4362C21.6704 18.4634 20.9075 17.71 19.9538 17.7195C19.0192 17.7291 18.2658 18.4729 18.2658 19.4362C18.2562 21.582 18.2658 23.7182 18.2658 25.864C18.2658 25.988 18.2658 26.1215 18.2658 26.2455C17.8461 26.3695 17.5409 26.2646 17.3025 25.9117C17.0164 25.5016 16.654 25.1488 16.139 25.0152C15.2235 24.7768 14.4224 25.1678 14.0504 26.0452C14.0218 26.1215 13.9837 26.1978 13.9551 26.2741C12.6771 26.2741 11.3992 26.3027 10.1308 26.2646C9.28201 26.236 8.60489 25.5016 8.56674 24.6433C8.5572 24.5384 8.56674 24.4335 8.56674 24.3191C8.56674 16.8707 8.56674 9.42244 8.56674 1.97414C8.56674 0.667582 9.23432 0 10.5409 0C14.1935 0 17.8461 0 21.4988 0C22.7195 0 23.4157 0.686656 23.4157 1.8883C23.4157 8.85977 23.4157 15.8312 23.4157 22.8027C23.3966 22.9362 23.3966 23.0411 23.3966 23.2128ZM14.2603 7.43877C14.2603 8.00145 14.2603 8.52598 14.2603 9.0505C14.2603 9.51781 14.4701 9.71809 14.9374 9.72762C15.605 9.73716 16.2725 9.72762 16.9306 9.72762C17.4933 9.72762 17.6745 9.53688 17.684 8.97421C17.684 8.46875 17.684 7.9633 17.684 7.43877C18.2371 7.43877 18.7331 7.43877 19.229 7.43877C19.763 7.43877 19.9633 7.24803 19.9633 6.71397C19.9633 6.33249 19.9633 5.95102 19.9633 5.56954C19.9824 3.94827 20.0301 3.98642 18.4183 4.00549C18.1704 4.00549 17.932 4.00549 17.6745 4.00549C17.6745 3.43328 17.6745 2.92782 17.6745 2.41283C17.6745 1.92645 17.4647 1.72618 16.9783 1.71664C16.3107 1.71664 15.6431 1.71664 14.9851 1.71664C14.451 1.71664 14.2603 1.90738 14.2507 2.45098C14.2507 2.95643 14.2507 3.46189 14.2507 4.00549C13.688 4.00549 13.1731 4.00549 12.6485 4.00549C12.1812 4.00549 11.9714 4.2153 11.9619 4.67307C11.9523 5.35973 11.9619 6.05592 11.9619 6.74258C11.9619 7.22896 12.1717 7.42923 12.6676 7.42923C13.1921 7.44831 13.6976 7.43877 14.2603 7.43877ZM21.6609 14.2863C21.6609 13.8857 21.6609 13.5328 21.6609 13.1704C18.6186 13.1704 15.605 13.1704 12.5722 13.1704C12.5722 13.5519 12.5722 13.9048 12.5722 14.2863C15.605 14.2863 18.6186 14.2863 21.6609 14.2863ZM21.6704 15.4593C18.6186 15.4593 15.5954 15.4593 12.5818 15.4593C12.5818 15.8408 12.5818 16.2032 12.5818 16.556C15.624 16.556 18.6377 16.556 21.6704 16.556C21.6704 16.1936 21.6704 15.8408 21.6704 15.4593ZM12.5627 18.8353C14.0981 18.8353 15.5954 18.8353 17.0832 18.8353C17.0832 18.4443 17.0832 18.0915 17.0832 17.7386C15.5573 17.7386 14.0695 17.7386 12.5627 17.7386C12.5627 18.1105 12.5627 18.4634 12.5627 18.8353ZM17.1023 20.037C15.5668 20.037 14.0695 20.037 12.5818 20.037C12.5818 20.4185 12.5818 20.7809 12.5818 21.1337C14.1077 21.1337 15.5954 21.1337 17.1023 21.1337C17.1023 20.7618 17.1023 20.4089 17.1023 20.037ZM12.5627 23.4131C14.0886 23.4131 15.5954 23.4131 17.0832 23.4131C17.0832 23.0316 17.0832 22.6692 17.0832 22.3163C15.5573 22.3163 14.0695 22.3163 12.5627 22.3163C12.5627 22.6787 12.5627 23.0316 12.5627 23.4131ZM19.3816 10.8911C18.2467 10.8911 17.1213 10.8911 15.996 10.8911C15.996 11.2726 15.996 11.635 15.996 11.9879C17.1404 11.9879 18.2658 11.9879 19.3816 11.9879C19.3816 11.6064 19.3816 11.2535 19.3816 10.8911ZM12.5532 11.9879C13.3256 11.9879 14.0695 11.9879 14.8039 11.9879C14.8039 11.6064 14.8039 11.244 14.8039 10.9007C14.0409 10.9007 13.297 10.9007 12.5532 10.9007C12.5532 11.2726 12.5532 11.6159 12.5532 11.9879ZM11.3897 13.18C10.9986 13.18 10.6362 13.18 10.2834 13.18C10.2834 13.5615 10.2834 13.9048 10.2834 14.2767C10.6649 14.2767 11.0177 14.2767 11.3897 14.2767C11.3897 13.9048 11.3897 13.5519 11.3897 13.18ZM10.2834 17.7291C10.2834 18.1201 10.2834 18.4825 10.2834 18.8353C10.6649 18.8353 11.0273 18.8353 11.3706 18.8353C11.3706 18.4443 11.3706 18.0915 11.3706 17.7291C11.0082 17.7291 10.6649 17.7291 10.2834 17.7291ZM10.2834 20.0179C10.2834 20.4089 10.2834 20.7618 10.2834 21.1242C10.6649 21.1242 11.0177 21.1242 11.3897 21.1242C11.3897 20.7427 11.3897 20.3803 11.3897 20.0179C11.0082 20.0179 10.6553 20.0179 10.2834 20.0179ZM10.2834 23.4131C10.6744 23.4131 11.0273 23.4131 11.3801 23.4131C11.3801 23.0316 11.3801 22.6692 11.3801 22.3163C10.9986 22.3163 10.6458 22.3163 10.2834 22.3163C10.2834 22.6787 10.2834 23.0316 10.2834 23.4131ZM10.2738 16.556C10.6649 16.556 11.0273 16.556 11.3801 16.556C11.3801 16.1746 11.3801 15.8312 11.3801 15.4593C10.9986 15.4593 10.6458 15.4593 10.2738 15.4593C10.2738 15.8312 10.2738 16.1841 10.2738 16.556Z" fill="#848484"/>
<path d="M7.39109 2.30893C7.39109 3.65363 7.39109 4.96018 7.39109 6.28581C7.02868 6.28581 6.67582 6.28581 6.26573 6.28581C6.26573 5.97109 6.26573 5.64684 6.26573 5.31304C6.26573 4.79805 6.06546 4.59778 5.56 4.58824C5.47417 4.58824 5.39788 4.58824 5.31205 4.58824C4.74937 4.58824 4.55863 4.77898 4.55863 5.33212C4.55863 5.6373 4.55863 5.95202 4.55863 6.30488C4.19623 6.30488 3.86244 6.30488 3.51911 6.30488C3.0518 6.31442 2.85153 6.51469 2.84199 6.982C2.84199 7.12505 2.83246 7.26811 2.84199 7.41116C2.86107 7.79263 3.07088 8.00245 3.45235 8.01198C3.80522 8.02152 4.15808 8.01198 4.55863 8.01198C4.55863 8.38392 4.55863 8.72725 4.55863 9.06104C4.56817 9.50927 4.77798 9.70955 5.21668 9.71909C5.36927 9.71909 5.52186 9.72862 5.68398 9.71909C6.04639 9.70001 6.2562 9.4902 6.26573 9.1278C6.27527 8.77493 6.26573 8.41253 6.26573 8.03106C6.63767 8.03106 7.00007 8.03106 7.39109 8.03106C7.39109 13.5243 7.39109 19.0271 7.39109 24.568C7.27664 24.568 7.17174 24.568 7.07637 24.568C5.33112 24.568 3.57633 24.568 1.83108 24.568C0.715266 24.568 0 23.8527 0 22.7465C0 16.538 0 10.3294 0 4.12093C0 3.02419 0.724804 2.30893 1.81201 2.30893C3.64309 2.29939 5.50278 2.30893 7.39109 2.30893ZM4.00549 11.4453C4.00549 11.8172 4.00549 12.1891 4.00549 12.5515C4.75891 12.5515 5.50278 12.5515 6.23712 12.5515C6.23712 12.1701 6.23712 11.8077 6.23712 11.4453C5.48371 11.4453 4.75891 11.4453 4.00549 11.4453ZM6.2562 13.7532C5.48371 13.7532 4.73983 13.7532 4.00549 13.7532C4.00549 14.1347 4.00549 14.4971 4.00549 14.8404C4.76844 14.8404 5.51232 14.8404 6.2562 14.8404C6.2562 14.4685 6.2562 14.1251 6.2562 13.7532ZM4.00549 16.023C4.00549 16.414 4.00549 16.7764 4.00549 17.1292C4.76844 17.1292 5.49325 17.1292 6.24666 17.1292C6.24666 16.7478 6.24666 16.3949 6.24666 16.023C5.49325 16.023 4.75891 16.023 4.00549 16.023ZM6.24666 19.4181C6.24666 19.0271 6.24666 18.6742 6.24666 18.3118C5.48371 18.3118 4.74937 18.3118 4.00549 18.3118C4.00549 18.6933 4.00549 19.0557 4.00549 19.4181C4.75891 19.4181 5.49325 19.4181 6.24666 19.4181ZM6.23712 21.707C6.23712 21.3159 6.23712 20.9631 6.23712 20.6102C5.47417 20.6102 4.7303 20.6102 3.99596 20.6102C3.99596 20.9917 3.99596 21.3445 3.99596 21.707C4.74937 21.707 5.48371 21.707 6.23712 21.707ZM2.81338 12.5706C2.81338 12.1796 2.81338 11.8267 2.81338 11.4643C2.43191 11.4643 2.0695 11.4643 1.71664 11.4643C1.71664 11.8458 1.71664 12.2082 1.71664 12.5706C2.09811 12.5706 2.45098 12.5706 2.81338 12.5706ZM1.72618 13.7437C1.72618 14.1442 1.72618 14.4971 1.72618 14.8499C2.10765 14.8499 2.46052 14.8499 2.82292 14.8499C2.82292 14.4685 2.82292 14.1156 2.82292 13.7437C2.44144 13.7437 2.08858 13.7437 1.72618 13.7437ZM2.81338 19.4181C2.81338 19.0366 2.81338 18.6838 2.81338 18.3214C2.43191 18.3214 2.0695 18.3214 1.71664 18.3214C1.71664 18.7028 1.71664 19.0652 1.71664 19.4181C2.09811 19.4181 2.45098 19.4181 2.81338 19.4181ZM1.7071 21.6974C2.09811 21.6974 2.45098 21.6974 2.80384 21.6974C2.80384 21.3159 2.80384 20.9535 2.80384 20.6007C2.42237 20.6007 2.0695 20.6007 1.7071 20.6007C1.7071 20.9631 1.7071 21.3159 1.7071 21.6974ZM1.7071 17.1292C2.08858 17.1292 2.45098 17.1292 2.80384 17.1292C2.80384 16.7478 2.80384 16.3854 2.80384 16.0325C2.42237 16.0325 2.0695 16.0325 1.7071 16.0325C1.7071 16.3949 1.7071 16.7478 1.7071 17.1292Z" fill="#848484"/>
<path d="M25.7295 23.1731C25.3003 23.011 24.9379 22.8775 24.5469 22.7249C24.5469 17.8706 24.5469 12.9591 24.5469 8.02854C24.9188 8.02854 25.2717 8.02854 25.6722 8.02854C25.6722 8.36233 25.6722 8.70566 25.6722 9.04899C25.6818 9.5163 25.882 9.71657 26.3493 9.72611C26.4924 9.72611 26.6355 9.73565 26.7785 9.72611C27.16 9.70703 27.3698 9.49722 27.3793 9.11575C27.3889 8.76288 27.3793 8.41002 27.3793 8.00947C27.7513 8.00947 28.0851 8.00947 28.4284 8.00947C28.8766 7.99993 29.0769 7.79966 29.0864 7.35142C29.0864 7.20837 29.096 7.06532 29.0864 6.92226C29.0674 6.52172 28.8671 6.3119 28.4665 6.30237C28.1232 6.29283 27.7799 6.30237 27.3793 6.30237C27.3793 5.9495 27.3793 5.61571 27.3793 5.27238C27.3698 4.80508 27.1695 4.59526 26.7117 4.58573C26.5973 4.58573 26.4733 4.58573 26.3589 4.58573C25.8916 4.59526 25.6818 4.79554 25.6722 5.25331C25.6627 5.57756 25.6627 5.89228 25.6627 6.21653C25.6627 6.22607 25.6532 6.23561 25.6341 6.27376C25.2812 6.27376 24.9284 6.27376 24.5469 6.27376C24.5469 4.95767 24.5469 3.66065 24.5469 2.29688C24.6518 2.29688 24.7662 2.29688 24.8807 2.29688C26.6164 2.29688 28.3521 2.29688 30.0878 2.29688C31.2513 2.29688 31.9475 3.0026 31.9475 4.17564C31.9475 10.346 31.9475 16.5259 31.9475 22.6963C31.9475 23.8598 31.2418 24.5655 30.0878 24.5655C29.5824 24.5655 29.0674 24.5655 28.5619 24.5655C28.209 22.8775 27.0742 22.3529 25.7295 23.1731ZM25.7104 11.4523C25.7104 11.8433 25.7104 12.2057 25.7104 12.549C27.2363 12.549 28.7431 12.549 30.2309 12.549C30.2309 12.1676 30.2309 11.8147 30.2309 11.4523C28.7145 11.4523 27.2267 11.4523 25.7104 11.4523ZM30.2213 14.857C30.2213 14.485 30.2213 14.1131 30.2213 13.7411C28.705 13.7411 27.2077 13.7411 25.7104 13.7411C25.7104 14.1226 25.7104 14.485 25.7104 14.857C27.2172 14.857 28.705 14.857 30.2213 14.857ZM25.7104 16.0109C25.7104 16.3829 25.7104 16.7548 25.7104 17.1267C27.2267 17.1267 28.724 17.1267 30.2213 17.1267C30.2213 16.7453 30.2213 16.3829 30.2213 16.0109C28.705 16.0109 27.2267 16.0109 25.7104 16.0109ZM25.7008 18.3093C25.7008 18.7003 25.7008 19.0532 25.7008 19.4156C27.2172 19.4156 28.724 19.4156 30.2213 19.4156C30.2213 19.0341 30.2213 18.6717 30.2213 18.3093C28.705 18.3093 27.2172 18.3093 25.7008 18.3093ZM30.2213 21.7044C30.2213 21.3134 30.2213 20.951 30.2213 20.6077C28.6954 20.6077 27.1886 20.6077 25.7008 20.6077C25.7008 20.9892 25.7008 21.342 25.7008 21.7044C27.2077 21.7044 28.705 21.7044 30.2213 21.7044Z" fill="#848484"/>
<path d="M27.3897 32.0006C26.312 32.0006 25.2916 32.0006 24.2711 32.0006C22.6403 32.0006 21.0095 32.0101 19.3787 31.9911C19.2261 31.9911 19.0354 31.9052 18.94 31.7908C17.7002 30.2553 16.4604 28.7199 15.2301 27.1749C14.8773 26.7362 15.0585 26.1449 15.5639 26.1259C15.7737 26.1163 16.0503 26.2594 16.1934 26.4215C16.8991 27.194 17.5667 27.9951 18.2438 28.7962C18.4441 29.0346 18.6634 29.2349 19.0068 29.1014C19.3405 28.9679 19.3787 28.6913 19.3787 28.367C19.3787 25.4869 19.3787 22.6068 19.3787 19.7266C19.3787 19.6122 19.3692 19.4882 19.3882 19.3738C19.4359 19.0686 19.6266 18.8874 19.9414 18.8683C20.237 18.8492 20.485 19.0781 20.5231 19.3833C20.5327 19.4977 20.5327 19.6217 20.5327 19.7362C20.5327 21.7103 20.5327 23.6844 20.5327 25.6872C20.9141 25.6872 21.267 25.6872 21.6771 25.6872C21.6771 25.3248 21.6771 24.9624 21.6771 24.5904C21.6866 24.1708 21.906 23.9228 22.2588 23.9228C22.5926 23.9324 22.812 24.1803 22.8215 24.5714C22.831 24.9338 22.8215 25.3057 22.8215 25.6872C23.203 25.6872 23.5558 25.6872 23.9659 25.6872C23.9659 25.4583 23.9659 25.2199 23.9659 24.991C23.9659 24.1994 24.1185 23.9228 24.5477 23.9324C24.9673 23.9324 25.1104 24.2185 25.1104 25.0101C25.1104 25.2199 25.1104 25.4392 25.1104 25.6776C25.4823 25.6776 25.8447 25.6776 26.2548 25.6776C26.2548 25.3343 26.2548 24.9814 26.2548 24.6286C26.2548 24.1994 26.4646 23.9419 26.8079 23.9324C27.1417 23.9228 27.3992 24.209 27.3992 24.6381C27.3992 26.4597 27.3992 28.2812 27.3992 30.0932C27.3897 30.7322 27.3897 31.3425 27.3897 32.0006Z" fill="#848484"/>
<path d="M14.254 7.43916C13.6914 7.43916 13.1859 7.43916 12.6709 7.43916C12.175 7.43916 11.9747 7.23888 11.9652 6.7525C11.9652 6.06585 11.9556 5.36965 11.9652 4.683C11.9652 4.21569 12.175 4.01541 12.6518 4.01541C13.1764 4.01541 13.6914 4.01541 14.254 4.01541C14.254 3.48135 14.254 2.96636 14.254 2.4609C14.254 1.92684 14.4448 1.7361 14.9884 1.72656C15.656 1.72656 16.3235 1.72656 16.9816 1.72656C17.468 1.72656 17.6778 1.92684 17.6778 2.42276C17.6778 2.93775 17.6778 3.4432 17.6778 4.01541C17.9353 4.01541 18.1737 4.01541 18.4216 4.01541C20.0334 3.99634 19.9857 3.95819 19.9666 5.57946C19.9666 5.96094 19.9666 6.34241 19.9666 6.72389C19.9666 7.25796 19.7663 7.44869 19.2323 7.44869C18.7364 7.44869 18.2404 7.44869 17.6873 7.44869C17.6873 7.97322 17.6873 8.47868 17.6873 8.98413C17.6873 9.54681 17.4966 9.72801 16.9339 9.73755C16.2663 9.73755 15.5987 9.73755 14.9407 9.73755C14.4734 9.73755 14.2636 9.52773 14.2636 9.06043C14.254 8.52636 14.254 8.01137 14.254 7.43916ZM16.5429 8.56451C16.5429 8.03998 16.5429 7.54406 16.5429 7.04814C16.5429 6.48547 16.7336 6.29473 17.2868 6.29473C17.7922 6.29473 18.2977 6.29473 18.7936 6.29473C18.7936 5.88464 18.7936 5.52224 18.7936 5.1503C18.2691 5.1503 17.7731 5.1503 17.2677 5.1503C16.7336 5.1503 16.5333 4.95957 16.5333 4.4255C16.5333 3.92005 16.5333 3.41459 16.5333 2.89006C16.1423 2.89006 15.7799 2.89006 15.3889 2.89006C15.3889 3.40505 15.3889 3.90097 15.3889 4.39689C15.3889 4.95957 15.1982 5.1503 14.645 5.1503C14.1396 5.1503 13.6341 5.1503 13.1382 5.1503C13.1382 5.56039 13.1382 5.92279 13.1382 6.29473C13.6627 6.29473 14.1587 6.29473 14.6641 6.29473C15.1982 6.29473 15.3985 6.48547 15.3985 7.01953C15.3985 7.52499 15.3985 8.03044 15.3985 8.55497C15.7799 8.56451 16.1328 8.56451 16.5429 8.56451Z" fill="white"/>
<path d="M21.659 14.2877C18.6262 14.2877 15.6126 14.2877 12.5703 14.2877C12.5703 13.9158 12.5703 13.5534 12.5703 13.1719C15.5935 13.1719 18.6167 13.1719 21.659 13.1719C21.659 13.5247 21.659 13.8871 21.659 14.2877Z" fill="white"/>
<path d="M21.6668 15.4609C21.6668 15.8424 21.6668 16.1953 21.6668 16.5577C18.634 16.5577 15.6204 16.5577 12.5781 16.5577C12.5781 16.2048 12.5781 15.8424 12.5781 15.4609C15.5918 15.4609 18.615 15.4609 21.6668 15.4609Z" fill="white"/>
<path d="M12.5625 18.8389C12.5625 18.467 12.5625 18.1141 12.5625 17.7422C14.0693 17.7422 15.5666 17.7422 17.083 17.7422C17.083 18.0951 17.083 18.4575 17.083 18.8389C15.5952 18.8389 14.0979 18.8389 12.5625 18.8389Z" fill="white"/>
<path d="M17.0986 20.0391C17.0986 20.411 17.0986 20.7639 17.0986 21.1358C15.5918 21.1358 14.0945 21.1358 12.5781 21.1358C12.5781 20.7829 12.5781 20.4205 12.5781 20.0391C14.0659 20.0391 15.5632 20.0391 17.0986 20.0391Z" fill="white"/>
<path d="M12.5625 23.4171C12.5625 23.0356 12.5625 22.6923 12.5625 22.3203C14.0693 22.3203 15.5666 22.3203 17.083 22.3203C17.083 22.6732 17.083 23.0356 17.083 23.4171C15.5952 23.4171 14.0979 23.4171 12.5625 23.4171Z" fill="white"/>
<path d="M19.3778 10.8906C19.3778 11.253 19.3778 11.6059 19.3778 11.9874C18.262 11.9874 17.1366 11.9874 15.9922 11.9874C15.9922 11.6345 15.9922 11.2721 15.9922 10.8906C17.1175 10.8906 18.2429 10.8906 19.3778 10.8906Z" fill="white"/>
<path d="M12.5469 11.9856C12.5469 11.6137 12.5469 11.2704 12.5469 10.8984C13.2908 10.8984 14.0346 10.8984 14.7976 10.8984C14.7976 11.2513 14.7976 11.6042 14.7976 11.9856C14.0632 11.9856 13.3194 11.9856 12.5469 11.9856Z" fill="white"/>
<path d="M11.3875 13.1797C11.3875 13.5516 11.3875 13.9045 11.3875 14.2764C11.0156 14.2764 10.6532 14.2764 10.2812 14.2764C10.2812 13.914 10.2812 13.5612 10.2812 13.1797C10.6341 13.1797 10.9965 13.1797 11.3875 13.1797Z" fill="white"/>
<path d="M10.2812 17.7344C10.6532 17.7344 10.9965 17.7344 11.3685 17.7344C11.3685 18.0968 11.3685 18.4592 11.3685 18.8407C11.0251 18.8407 10.6627 18.8407 10.2812 18.8407C10.2812 18.4878 10.2812 18.1254 10.2812 17.7344Z" fill="white"/>
<path d="M10.2812 20.0156C10.6532 20.0156 11.0061 20.0156 11.3875 20.0156C11.3875 20.3876 11.3875 20.7404 11.3875 21.1219C11.0251 21.1219 10.6627 21.1219 10.2812 21.1219C10.2812 20.7595 10.2812 20.4066 10.2812 20.0156Z" fill="white"/>
<path d="M10.2812 23.4171C10.2812 23.0356 10.2812 22.6827 10.2812 22.3203C10.6437 22.3203 10.9965 22.3203 11.378 22.3203C11.378 22.6732 11.378 23.0356 11.378 23.4171C11.0251 23.4171 10.6627 23.4171 10.2812 23.4171Z" fill="white"/>
<path d="M10.2734 16.5577C10.2734 16.1857 10.2734 15.8329 10.2734 15.4609C10.6454 15.4609 11.0078 15.4609 11.3797 15.4609C11.3797 15.8233 11.3797 16.1762 11.3797 16.5577C11.0269 16.5577 10.674 16.5577 10.2734 16.5577Z" fill="white"/>
<path d="M4.00781 11.4453C4.76123 11.4453 5.48603 11.4453 6.23944 11.4453C6.23944 11.8077 6.23944 12.1701 6.23944 12.5516C5.5051 12.5516 4.76123 12.5516 4.00781 12.5516C4.00781 12.1892 4.00781 11.8173 4.00781 11.4453Z" fill="white"/>
<path d="M6.25852 13.75C6.25852 14.1219 6.25852 14.4653 6.25852 14.8372C5.51464 14.8372 4.7803 14.8372 4.00781 14.8372C4.00781 14.4939 4.00781 14.1315 4.00781 13.75C4.74215 13.75 5.48603 13.75 6.25852 13.75Z" fill="white"/>
<path d="M4.00781 16.0234C4.76123 16.0234 5.49557 16.0234 6.24898 16.0234C6.24898 16.3954 6.24898 16.7578 6.24898 17.1297C5.5051 17.1297 4.77076 17.1297 4.00781 17.1297C4.00781 16.7769 4.00781 16.4144 4.00781 16.0234Z" fill="white"/>
<path d="M6.24898 19.4188C5.5051 19.4188 4.77076 19.4188 4.00781 19.4188C4.00781 19.0564 4.00781 18.7035 4.00781 18.3125C4.74215 18.3125 5.48603 18.3125 6.24898 18.3125C6.24898 18.6749 6.24898 19.0278 6.24898 19.4188Z" fill="white"/>
<path d="M6.23336 21.7061C5.4704 21.7061 4.7456 21.7061 3.99219 21.7061C3.99219 21.3437 3.99219 20.9909 3.99219 20.6094C4.72653 20.6094 5.4704 20.6094 6.23336 20.6094C6.23336 20.9622 6.23336 21.3151 6.23336 21.7061Z" fill="white"/>
<path d="M2.81549 12.5672C2.45309 12.5672 2.10023 12.5672 1.71875 12.5672C1.71875 12.2048 1.71875 11.8519 1.71875 11.4609C2.07161 11.4609 2.43402 11.4609 2.81549 11.4609C2.81549 11.8233 2.81549 12.1667 2.81549 12.5672Z" fill="white"/>
<path d="M1.72656 13.7422C2.0985 13.7422 2.45137 13.7422 2.8233 13.7422C2.8233 14.1141 2.8233 14.4765 2.8233 14.8485C2.4609 14.8485 2.10804 14.8485 1.72656 14.8485C1.72656 14.4956 1.72656 14.1332 1.72656 13.7422Z" fill="white"/>
<path d="M2.81549 19.4171C2.45309 19.4171 2.10023 19.4171 1.71875 19.4171C1.71875 19.0642 1.71875 18.7018 1.71875 18.3203C2.07161 18.3203 2.43402 18.3203 2.81549 18.3203C2.81549 18.6827 2.81549 19.0451 2.81549 19.4171Z" fill="white"/>
<path d="M1.70312 21.6983C1.70312 21.3168 1.70312 20.964 1.70312 20.6016C2.06553 20.6016 2.41839 20.6016 2.79987 20.6016C2.79987 20.9544 2.79987 21.3168 2.79987 21.6983C2.45654 21.6983 2.09414 21.6983 1.70312 21.6983Z" fill="white"/>
<path d="M1.70312 17.128C1.70312 16.7465 1.70312 16.3937 1.70312 16.0312C2.07506 16.0312 2.41839 16.0312 2.79987 16.0312C2.79987 16.3841 2.79987 16.7465 2.79987 17.128C2.447 17.128 2.09414 17.128 1.70312 17.128Z" fill="white"/>
<path d="M25.7109 11.4531C27.2273 11.4531 28.7246 11.4531 30.2314 11.4531C30.2314 11.8155 30.2314 12.1684 30.2314 12.5499C28.7341 12.5499 27.2368 12.5499 25.7109 12.5499C25.7109 12.2065 25.7109 11.8441 25.7109 11.4531Z" fill="white"/>
<path d="M30.2219 14.858C28.7055 14.858 27.2273 14.858 25.7109 14.858C25.7109 14.4956 25.7109 14.1332 25.7109 13.7422C27.2082 13.7422 28.7055 13.7422 30.2219 13.7422C30.2219 14.1237 30.2219 14.4861 30.2219 14.858Z" fill="white"/>
<path d="M25.7109 16.0156C27.2273 16.0156 28.7055 16.0156 30.2219 16.0156C30.2219 16.378 30.2219 16.7404 30.2219 17.1314C28.7246 17.1314 27.2273 17.1314 25.7109 17.1314C25.7109 16.7595 25.7109 16.3876 25.7109 16.0156Z" fill="white"/>
<path d="M25.7031 18.3125C27.2195 18.3125 28.7072 18.3125 30.2236 18.3125C30.2236 18.6749 30.2236 19.0373 30.2236 19.4188C28.7168 19.4188 27.2195 19.4188 25.7031 19.4188C25.7031 19.0564 25.7031 18.7035 25.7031 18.3125Z" fill="white"/>
<path d="M30.2236 21.7061C28.7072 21.7061 27.21 21.7061 25.7031 21.7061C25.7031 21.3437 25.7031 20.9909 25.7031 20.6094C27.2004 20.6094 28.6977 20.6094 30.2236 20.6094C30.2236 20.9527 30.2236 21.3151 30.2236 21.7061Z" fill="white"/>
<path d="M16.5453 8.56335C16.1447 8.56335 15.7919 8.56335 15.4009 8.56335C15.4009 8.03882 15.4009 7.53336 15.4009 7.02791C15.4009 6.49384 15.2006 6.30311 14.6665 6.30311C14.1706 6.30311 13.6652 6.30311 13.1406 6.30311C13.1406 5.93117 13.1406 5.56876 13.1406 5.15868C13.6365 5.15868 14.142 5.15868 14.6475 5.15868C15.2006 5.15868 15.3913 4.96794 15.3913 4.40526C15.3913 3.90935 15.3913 3.41343 15.3913 2.89844C15.7823 2.89844 16.1352 2.89844 16.5358 2.89844C16.5358 3.42297 16.5358 3.92842 16.5358 4.43388C16.5358 4.96794 16.736 5.15868 17.2701 5.15868C17.766 5.15868 18.2619 5.15868 18.796 5.15868C18.796 5.53062 18.796 5.89302 18.796 6.30311C18.3001 6.30311 17.7946 6.30311 17.2892 6.30311C16.736 6.30311 16.5453 6.49384 16.5453 7.05652C16.5358 7.55244 16.5453 8.04836 16.5453 8.56335Z" fill="#848484"/>
</svg>
