<svg width="28" height="28" viewBox="0 0 28 28" fill="none" xmlns="http://www.w3.org/2000/svg">
<path d="M2.58532 4.72266C1.92177 4.57682 1.41136 4.22682 1.31657 3.57057C1.22907 2.95807 1.22907 2.31641 1.30927 1.70391C1.40407 1.00391 2.04573 0.544531 2.76032 0.544531C5.19573 0.53724 7.63844 0.53724 10.0739 0.544531C10.9124 0.544531 11.5541 1.17891 11.5832 2.02474C11.5978 2.35286 11.5905 2.68099 11.5905 3.00911C11.5905 3.97161 11.2186 4.46016 10.2562 4.73724C10.2562 5.0362 10.2562 5.34245 10.2562 5.6487C10.2562 6.24661 10.2489 6.85182 10.2634 7.44974C10.2634 7.61745 10.2197 7.71953 10.0739 7.79245C9.89157 7.88724 9.72386 8.0112 9.5124 8.14245C9.5124 7.00495 9.5124 5.88932 9.5124 4.75911C7.44886 4.75911 5.42177 4.75911 3.37282 4.75911C3.37282 5.59766 3.37282 6.44349 3.37282 7.31849C3.70094 7.31849 4.02177 7.3112 4.3499 7.31849C4.67073 7.32578 4.88219 7.60286 4.73636 7.84349C4.67073 7.96016 4.48844 8.05495 4.3499 8.06953C4.03636 8.10599 3.71552 8.07682 3.38011 8.07682C3.38011 8.71849 3.38011 9.33828 3.38011 9.99453C3.78844 9.99453 4.18948 9.99453 4.58323 9.99453C4.94052 9.99453 5.29052 9.99453 5.64782 9.99453C5.96136 9.99453 6.13636 10.1477 6.12907 10.3883C6.12177 10.6216 5.96136 10.7529 5.65511 10.7529C4.99886 10.7529 4.34261 10.7529 3.68636 10.7529C3.59157 10.7529 3.48948 10.7529 3.37282 10.7529C3.37282 11.4018 3.37282 12.0216 3.37282 12.6706C3.68636 12.6706 3.98532 12.6706 4.28427 12.6706C4.60511 12.6779 4.77282 12.8164 4.76552 13.0643C4.75823 13.3049 4.60511 13.4289 4.29157 13.4362C3.99261 13.4362 3.69365 13.4362 3.37282 13.4362C3.37282 14.4133 3.37282 15.3758 3.37282 16.3674C3.54052 16.3674 3.70094 16.3674 3.86136 16.3674C4.74365 16.3674 5.62594 16.3747 6.50823 16.3602C6.68323 16.3602 6.76344 16.4112 6.81448 16.5789C7.40511 18.3289 8.50615 19.6706 10.0811 20.6331C10.1614 20.6841 10.2562 20.7862 10.2562 20.8664C10.2562 21.9674 10.3072 23.0758 10.2051 24.1622C10.0447 25.9779 8.44782 27.4143 6.63219 27.4945C4.74365 27.5747 3.05198 26.2987 2.6874 24.4904C2.62177 24.1549 2.59261 23.8049 2.59261 23.4622C2.58532 17.3372 2.58532 11.2195 2.58532 5.09453C2.58532 4.98516 2.58532 4.8612 2.58532 4.72266Z" fill="#FFFCFC"/>
<path d="M19.2533 18.2525C19.6105 18.5952 19.9533 18.9233 20.3033 19.2587C19.8512 19.7108 19.4137 20.141 18.9689 20.5858C18.6408 20.2504 18.3126 19.9004 17.9699 19.5504C16.096 20.8702 14.0762 21.2566 11.9105 20.6077C10.3283 20.1337 9.08867 19.1639 8.20638 17.7639C6.43451 14.9421 7.00326 11.2744 9.54805 9.09414C12.0272 6.96498 15.7751 6.97227 18.247 9.09414C20.8283 11.3035 21.4553 15.241 19.2533 18.2525ZM13.872 8.70768C10.7585 8.74414 8.35951 11.2014 8.39596 14.3004C8.43242 17.3119 10.9408 19.7254 14.0033 19.6889C16.9928 19.6525 19.4283 17.1441 19.3845 14.1327C19.3408 11.1066 16.8689 8.67123 13.872 8.70768Z" fill="#FFFCFC"/>
<path d="M26.8758 25.2533C26.7664 25.4721 26.6935 25.6981 26.555 25.8585C26.2414 26.2085 25.8987 26.5367 25.556 26.8648C25.1769 27.2221 24.681 27.2221 24.3164 26.8575C22.7779 25.3262 21.2393 23.7877 19.7081 22.2492C19.3289 21.87 19.3289 21.3742 19.6935 20.9877C20.0144 20.6523 20.3425 20.3242 20.6779 20.0033C21.0425 19.6533 21.5456 19.6387 21.9029 19.996C23.4633 21.5492 25.0237 23.1023 26.5696 24.6627C26.7081 24.8085 26.7664 25.0346 26.8758 25.2533Z" fill="#FFFCFC"/>
<path d="M13.9255 9.47658C16.5141 9.48387 18.6287 11.6057 18.6214 14.187C18.6141 16.8193 16.5068 18.9412 13.9037 18.9339C11.2495 18.9266 9.15679 16.812 9.16408 14.1505C9.17137 11.562 11.3078 9.46929 13.9255 9.47658ZM13.8964 11.8099C13.5318 12.4005 13.1964 12.9474 12.861 13.5016C12.8026 13.6037 12.737 13.7057 12.686 13.8078C12.4891 14.2235 12.3797 14.661 12.4016 15.1276C12.438 15.9662 13.0068 16.5568 13.7943 16.5932C14.6401 16.6297 15.2599 16.1193 15.3693 15.2662C15.4349 14.7485 15.3328 14.2453 15.0849 13.7932C14.713 13.1297 14.312 12.4953 13.8964 11.8099Z" fill="#FFFCFC"/>
</svg>
