<svg width="20" height="20" viewBox="0 0 20 20" fill="none" xmlns="http://www.w3.org/2000/svg">
<path d="M13.8478 8.00341C13.8478 8.62989 13.8478 9.23027 13.8478 9.83064C13.357 9.83064 12.8715 9.87241 12.3912 9.8202C11.9422 9.768 11.6655 9.30336 11.7073 8.82828C11.749 8.39496 12.1197 8.02429 12.5582 8.00863C12.9811 7.99297 13.404 8.00341 13.8478 8.00341Z" fill="white"/>
<path d="M15.0391 9.83783C15.0391 9.22701 15.0391 8.62664 15.0391 8.01582C15.5089 8.01582 15.9788 7.97405 16.4382 8.02626C16.9028 8.07846 17.2056 8.517 17.1848 8.97642C17.1587 9.43584 16.8036 9.81173 16.3338 9.83783C15.937 9.86393 15.5402 9.84827 15.1435 9.84827C15.1122 9.85349 15.0808 9.84305 15.0391 9.83783Z" fill="white"/>
<path d="M20.0004 16.207C19.8803 16.5934 19.5984 16.7918 19.2277 16.9379C16.8784 17.8411 14.5396 18.7652 12.1903 19.6684C11.4385 19.9555 10.645 19.9607 9.86185 19.8198C7.76836 19.4439 5.67487 19.0628 3.58138 18.6869C3.50307 18.6712 3.42476 18.6764 3.34645 18.6764C2.30232 18.6764 1.2634 18.6764 0.219268 18.6764C0.151399 18.6764 0.0783101 18.6764 0 18.6764C0 16.9954 0 15.33 0 13.6333C0.0626481 13.6333 0.130517 13.6333 0.198386 13.6333C1.04936 13.6333 1.90555 13.6385 2.75652 13.628C2.85049 13.628 2.97578 13.5811 3.03843 13.5132C3.55528 12.9963 4.17132 12.7457 4.89699 12.751C5.18413 12.7562 5.47126 12.7562 5.7584 12.751C6.62503 12.7301 7.33505 13.0485 7.86755 13.7377C7.99285 13.8995 8.12337 13.9517 8.32697 13.9517C9.20405 13.9413 10.0863 13.9674 10.9634 13.9413C11.6317 13.9204 12.0911 14.3903 12.0859 14.9489C12.0806 15.5179 11.6212 15.9617 10.953 15.9512C9.7731 15.9304 8.59323 15.946 7.41858 15.946C7.34549 15.946 7.27762 15.946 7.18887 15.946C7.18887 16.3376 7.18887 16.7135 7.18887 17.1207C7.25674 17.1207 7.3246 17.1207 7.39769 17.1207C8.57757 17.1207 9.75744 17.1154 10.9321 17.1259C11.5742 17.1311 12.1328 16.9484 12.6079 16.5046C12.6497 16.4629 12.7176 16.4315 12.775 16.4211C14.8163 16.0139 16.8576 15.6067 18.8988 15.2047C19.4157 15.1055 19.7811 15.3248 19.9586 15.8259C19.9639 15.8416 19.9795 15.8573 19.99 15.8729C20.0004 15.9721 20.0004 16.0922 20.0004 16.207Z" fill="white"/>
<path d="M11.1611 10.4395C10.7591 10.8415 10.3727 11.2331 9.97597 11.6298C9.94464 11.6037 9.90288 11.562 9.86111 11.5254C8.22704 9.89136 6.58253 8.26251 4.9589 6.618C3.88866 5.53732 3.53888 4.23215 3.96697 2.77558C4.39507 1.31901 5.40266 0.415837 6.88533 0.0921553C7.95035 -0.142775 8.95272 0.0764933 9.86111 0.692533C9.96031 0.760401 10.0282 0.765622 10.1326 0.692533C12.5393 -0.936317 15.7709 0.494147 16.1572 3.37074C16.3347 4.70723 15.8805 5.84534 14.8938 6.75895C14.8469 6.80594 14.7581 6.82682 14.685 6.82682C14.0272 6.83204 13.3694 6.82682 12.7116 6.83204C11.7823 6.83726 11.0828 7.24448 10.7121 8.09545C10.3466 8.94119 10.5137 9.7243 11.135 10.4082C11.1506 10.4186 11.1611 10.4343 11.1611 10.4395ZM9.40692 5.861C9.81413 5.861 10.1848 5.861 10.5816 5.861C10.5816 5.46423 10.5816 5.0779 10.5816 4.67068C10.9888 4.67068 11.3751 4.67068 11.7562 4.67068C11.7562 4.27391 11.7562 3.89803 11.7562 3.50125C11.3594 3.50125 10.9731 3.50125 10.5711 3.50125C10.5711 3.09404 10.5711 2.71293 10.5711 2.3266C10.1796 2.3266 9.80369 2.3266 9.40692 2.3266C9.40692 2.72337 9.40692 3.1097 9.40692 3.5117C8.9997 3.5117 8.61859 3.5117 8.23226 3.5117C8.23226 3.90847 8.23226 4.28436 8.23226 4.68113C8.62903 4.68113 9.01014 4.68113 9.40692 4.68113C9.40692 5.0779 9.40692 5.45901 9.40692 5.861Z" fill="white"/>
<rect x="7" y="2.26562" width="5" height="4" fill="white"/>
</svg>
