<svg width="24" height="21" viewBox="0 0 24 21" fill="none" xmlns="http://www.w3.org/2000/svg">
<path fill-rule="evenodd" clip-rule="evenodd" d="M3.50001 0H19.8334L7.95201 11.8814C7.76014 11.3898 7.44807 10.9542 7.04434 10.6143C6.77834 10.3833 6.40618 10.1745 5.66418 9.75568L2.26567 7.84235C1.1585 7.22051 0.605501 6.90901 0.303334 6.40734C0 5.90451 0 5.29784 0 4.08684V3.28184C0 1.73484 6.95389e-08 0.960168 0.513334 0.479501C1.02434 0 1.84917 0 3.50001 0Z" fill="#787878"/>
<path opacity="0.5" d="M23.3357 4.08801V3.28301C23.3357 1.736 23.3356 0.961335 22.8223 0.480667C22.3113 -6.95389e-08 21.4865 0 19.8356 0L7.95312 11.8814C8.01146 12.0319 8.05813 12.1882 8.09429 12.3515C8.16896 12.684 8.16896 13.0737 8.16896 13.8519V16.9669C8.16896 18.0274 8.16896 18.5582 8.46296 18.9712C8.75696 19.3854 9.27963 19.5895 10.3226 19.9979C12.5148 20.8542 13.6103 21.2824 14.3896 20.7947C15.169 20.3082 15.169 19.194 15.169 16.9657V13.8507C15.169 13.0737 15.169 12.684 15.2425 12.3515C15.3893 11.6714 15.7588 11.0597 16.2925 10.6132C16.5573 10.3834 16.9283 10.1745 17.6715 9.75568L21.07 7.84235C22.176 7.22051 22.7301 6.90901 23.0323 6.40734C23.3356 5.90568 23.3357 5.29901 23.3357 4.08801Z" fill="#1E1D1D"/>
</svg>
