<svg width="31" height="31" viewBox="0 0 31 31" fill="none" xmlns="http://www.w3.org/2000/svg">
<path d="M5.81921 0C6.35788 0.159326 6.9269 0.242783 7.42006 0.485566C7.98908 0.766284 8.54293 1.13046 9.00573 1.5705C10.2121 2.71614 11.3729 3.91488 12.5488 5.09086C12.5868 5.12879 12.6095 5.16673 12.6247 5.1819C10.1438 7.66284 7.67043 10.1362 5.18949 12.6171C5.18949 12.6171 5.15914 12.6095 5.13638 12.5868C3.87694 11.3198 2.60233 10.0679 1.36565 8.78571C0.614545 8.01184 0.204848 7.0483 0.0531088 5.98612C0.0455218 5.92542 0.0151739 5.87231 0 5.81921C0 5.45503 0 5.09086 0 4.72668C0.0227609 4.6584 0.0455218 4.5977 0.0606958 4.52942C0.356588 2.68579 1.32772 1.32772 3.01203 0.531088C3.54312 0.273131 4.15007 0.1745 4.72668 0C5.09086 0 5.45503 0 5.81921 0ZM2.98168 3.10307C2.89822 3.17135 2.71614 3.26998 2.61751 3.42172C1.78294 4.62805 1.89674 6.31995 2.89064 7.40488C3.3762 7.92838 3.8997 8.42154 4.40044 8.92986C4.49907 9.02849 4.5977 9.13471 4.70392 9.22576C4.9467 9.43819 5.23501 9.43819 5.43986 9.23334C5.63712 9.03608 5.62953 8.74019 5.43227 8.49741C5.37916 8.43671 5.31847 8.3836 5.26536 8.32291C4.77979 7.83734 4.29423 7.35177 3.80866 6.86621C3.21688 6.27442 2.98168 5.55366 3.17135 4.73427C3.23964 4.43838 3.40655 4.15766 3.53553 3.88453C3.71003 3.50518 3.49001 3.09548 2.98168 3.10307Z" fill="#A40E0E"/>
<path d="M5.99219 13.4346C8.48071 10.946 10.9541 8.47268 13.4502 5.97656C13.7612 6.29522 14.0875 6.62904 14.4213 6.97046C15.3697 7.934 16.3712 8.85202 17.2664 9.86109C18.6548 11.4316 18.9811 13.2676 18.2376 15.2251C17.5168 17.1218 16.0904 18.2371 14.0723 18.5406C12.3501 18.7985 10.8554 18.275 9.61876 17.0687C8.41243 15.8927 7.22886 14.6864 6.03771 13.4952C6.01495 13.4649 5.99219 13.4346 5.99219 13.4346ZM16.5305 13.3511C16.5153 12.82 16.4243 12.2586 16.1056 11.7806C15.8477 11.4012 15.5442 11.0447 15.2331 10.7108C14.8082 10.2556 14.3606 9.81557 13.9054 9.38311C13.6626 9.1555 13.3819 9.16309 13.1695 9.36035C12.9646 9.55761 12.9646 9.84592 13.1695 10.0963C13.2226 10.157 13.2833 10.2101 13.3364 10.2708C13.8219 10.7564 14.3075 11.2419 14.7931 11.7275C15.2862 12.2131 15.5669 12.8124 15.4835 13.4952C15.4304 13.9125 15.2331 14.3146 15.0738 14.7092C14.9524 15.0202 15.0055 15.3009 15.2635 15.4451C15.5062 15.5817 15.787 15.4906 15.9615 15.2251C16.3332 14.6636 16.5153 14.0567 16.5305 13.3511Z" fill="#A40E0E"/>
<path d="M18.6106 19.0156C21.524 20.7303 24.4222 22.4373 27.3356 24.152C27.2976 24.2279 27.2749 24.2962 27.2445 24.3493C26.4024 25.806 25.583 27.2778 24.7029 28.7118C23.5876 30.5175 21.4026 31.352 19.2782 30.8665C17.2753 30.4037 15.7199 28.6738 15.4468 26.6178C15.2951 25.4721 15.4999 24.41 16.0689 23.4085C16.8807 21.9821 17.7077 20.5634 18.5271 19.137C18.5423 19.1067 18.5726 19.0687 18.6106 19.0156ZM20.6135 28.947C21.5619 28.8787 22.3661 28.4614 22.9427 27.6344C23.2917 27.1261 23.6483 26.6254 24.0049 26.1246C24.2401 25.7908 24.498 25.4797 24.6877 25.1307C24.7712 24.9714 24.7712 24.7134 24.6953 24.5465C24.6422 24.4251 24.3918 24.3113 24.2477 24.3265C24.0884 24.3493 23.9063 24.4934 23.8 24.63C23.2462 25.3887 22.6999 26.1474 22.1764 26.9288C21.7667 27.5358 21.2281 27.8696 20.4997 27.9227C20.1355 27.9531 19.9231 28.1731 19.9459 28.469C19.9686 28.7649 20.219 28.9546 20.6135 28.947Z" fill="#A40E0E"/>
<path d="M19.1016 18.1063C19.9817 16.5965 20.801 15.1171 21.6887 13.6755C22.7509 11.9533 24.8449 11.0884 26.8782 11.4602C28.8356 11.8243 30.4593 13.3948 30.8765 15.3447C31.1497 16.6193 30.9752 17.8332 30.3303 18.9713C29.5336 20.3748 28.7218 21.7708 27.9176 23.1668C27.9024 23.1896 27.8797 23.2124 27.8418 23.2655C24.9435 21.5508 22.0377 19.8362 19.1016 18.1063ZM26.3547 13.9563C26.3547 13.6604 26.1347 13.4479 25.8009 13.4479C25.1408 13.4479 24.549 13.668 24.0559 14.0928C23.8358 14.2825 23.6386 14.5025 23.4717 14.7453C22.9178 15.5647 22.3791 16.3917 21.848 17.2263C21.5977 17.6132 21.7646 18.0381 22.1667 18.0912C22.4322 18.1291 22.5992 17.9698 22.7281 17.7649C23.1985 17.0366 23.6917 16.3234 24.1469 15.5875C24.549 14.935 25.0649 14.5025 25.8616 14.4798C26.165 14.457 26.3547 14.2294 26.3547 13.9563Z" fill="#A40E0E"/>
</svg>
