<svg width="29" height="25" viewBox="0 0 29 25" fill="none" xmlns="http://www.w3.org/2000/svg">
<path d="M28.8023 23.8095C28.7798 23.8696 28.7497 23.9297 28.7272 23.9823C28.5167 24.4859 27.9981 24.7866 27.487 24.6964C26.9533 24.6062 26.5625 24.1778 26.5399 23.6291C26.5174 23.0503 26.5324 22.464 26.5324 21.8853C26.5324 21.7725 26.5324 21.6598 26.5324 21.532C18.4374 21.532 10.3724 21.532 2.27743 21.532C2.27743 21.968 2.27743 22.3964 2.27743 22.8248C2.27743 23.1029 2.28495 23.3885 2.2624 23.6666C2.2173 24.2755 1.71371 24.7189 1.11241 24.7039C0.518622 24.6889 0.0300651 24.2153 0 23.614C0 23.5689 0 23.5238 0 23.4712C0 18.5105 0 13.5498 0 8.58901C0 7.82235 0.50359 7.32628 1.22515 7.36386C1.75881 7.39393 2.19475 7.80732 2.2624 8.34098C2.27743 8.46875 2.27743 8.60405 2.27743 8.73182C2.27743 10.6334 2.28495 12.5351 2.26991 14.4442C2.26991 14.6546 2.33004 14.7674 2.52547 14.8425C2.89376 14.9854 3.26206 15.1582 3.67545 15.3311C2.75847 14.1135 2.68331 13.1063 3.41239 12.2419C4.0663 11.4677 5.17871 11.2423 6.06563 11.7158C6.96006 12.1893 7.41104 13.2115 7.14797 14.1961C6.86987 15.2334 5.96792 15.8272 4.75028 15.8046C5.07348 15.9474 5.39668 16.0902 5.7274 16.2406C6.29863 16.4961 6.47151 16.8043 6.38131 17.4131C6.39634 17.4206 6.41138 17.4507 6.41889 17.4432C6.96758 17.3154 7.29078 17.7964 7.73424 17.9543C7.77934 17.9693 7.80188 18.0971 7.8094 18.1723C7.81692 18.4654 7.8094 18.751 7.81692 19.0441C7.83195 19.4951 8.09502 19.7507 8.55351 19.7507C14.311 19.7507 20.0684 19.7507 25.8259 19.7507C26.3145 19.7507 26.57 19.4726 26.5625 18.9314C26.5625 16.2706 26.555 13.6024 26.555 10.9416C26.555 10.1825 26.5475 9.42332 26.5475 8.66418C26.5475 7.96516 26.8782 7.49164 27.4419 7.3789C28.0357 7.25864 28.4942 7.53674 28.7798 8.18314C28.7873 8.19817 28.8099 8.20568 28.8174 8.22072C28.8023 13.4145 28.8023 18.6082 28.8023 23.8095Z" fill="white"/>
<path d="M25.84 19.0572C20.06 19.0572 14.2875 19.0572 8.5 19.0572C8.5 18.719 8.5 18.3882 8.5 18.0275C8.62026 18.0275 8.733 18.0275 8.83823 18.0275C11.4163 18.0275 13.9944 18.0275 16.5725 18.0275C17.5496 18.0275 18.2336 17.4412 18.3613 16.5092C18.4816 15.5772 17.745 14.6827 16.8055 14.6301C16.6777 14.6226 16.5424 14.6226 16.4146 14.6226C13.9192 14.6226 11.4238 14.6226 8.93594 14.6226C8.8232 14.6226 8.71046 14.6226 8.59771 14.6226C8.67287 14.0814 9.25163 13.6229 9.90554 13.5778C9.98822 13.5703 10.0709 13.5703 10.1611 13.5703C14.8362 13.5703 19.5188 13.5703 24.194 13.5703C24.7201 13.5703 25.1711 13.7131 25.5168 14.1265C25.7498 14.4046 25.8626 14.7278 25.8626 15.0886C25.8701 16.3739 25.8626 17.6592 25.8626 18.9444C25.8626 18.9745 25.8475 19.0121 25.84 19.0572Z" fill="white"/>
<path d="M12.464 17.3999C11.096 17.3999 9.72809 17.3999 8.36013 17.3999C7.6536 17.3999 7.18007 16.964 7.18759 16.3176C7.1951 15.6862 7.66111 15.2578 8.35261 15.2578C11.1111 15.2578 13.862 15.2578 16.6205 15.2578C17.2068 15.2578 17.6653 15.6411 17.7254 16.1748C17.793 16.7385 17.4698 17.2346 16.9287 17.3699C16.8009 17.3999 16.6656 17.3999 16.5378 17.3999C15.1774 17.3999 13.8169 17.3999 12.464 17.3999Z" fill="white"/>
<path d="M24.4298 7.98775C24.312 8.30317 24.0807 8.40831 23.7569 8.40411C23.0755 8.39149 22.3984 8.3999 21.7171 8.3999C21.326 8.3999 21.1788 8.29897 21.04 7.92887C20.8382 7.38635 20.6363 6.84383 20.4344 6.3013C20.4176 6.25504 20.3966 6.20457 20.3671 6.13728C20.1863 6.55784 20.0139 6.96158 19.8414 7.36112C19.6816 7.73962 19.5218 8.11813 19.3578 8.49243C19.2022 8.83729 18.8405 8.94663 18.5545 8.74897C18.4157 8.65224 18.3611 8.50925 18.3232 8.35785C18.0078 7.18869 17.6966 6.01952 17.3811 4.85036C17.3685 4.8041 17.3517 4.75363 17.3139 4.70317C17.2718 4.90924 17.2297 5.11111 17.1919 5.31719C16.7461 7.63448 16.3003 9.95598 15.8545 12.2733C15.7998 12.5677 15.6106 12.7443 15.3456 12.7527C15.0807 12.7611 14.8788 12.5971 14.8031 12.3111C14.4162 10.7887 14.0335 9.27046 13.6466 7.74803C13.6382 7.70598 13.6255 7.66813 13.6045 7.59242C13.5162 7.82373 13.4405 8.0256 13.3648 8.23168C13.2218 8.61018 13.0872 8.70271 12.6793 8.70271C11.9475 8.70271 11.2157 8.70691 10.4839 8.70271C10.1012 8.6985 9.84889 8.35785 9.96665 8.00878C10.0424 7.79009 10.2358 7.65551 10.4924 7.65551C11.1022 7.65551 11.712 7.6513 12.3176 7.65971C12.4269 7.65971 12.4732 7.62186 12.5068 7.52513C12.7297 6.91532 12.961 6.30551 13.1881 5.6999C13.2723 5.48121 13.411 5.3298 13.6592 5.30878C13.8989 5.28775 14.1092 5.4013 14.1807 5.63261C14.29 5.97747 14.3741 6.33074 14.4625 6.68401C14.7232 7.70177 14.9797 8.71953 15.2447 9.77934C15.2657 9.71205 15.2783 9.67841 15.2868 9.64476C15.762 7.18448 16.233 4.71999 16.7082 2.2597C16.7545 2.01578 16.8765 1.83494 17.1288 1.78026C17.3391 1.734 17.5283 1.79709 17.6545 1.97372C17.7134 2.05363 17.7512 2.15877 17.7765 2.2555C18.1676 3.69802 18.5503 5.14055 18.9414 6.58308C18.9498 6.62093 18.9625 6.65457 18.9835 6.71345C19.0129 6.65037 19.034 6.6041 19.055 6.55784C19.3368 5.90177 19.6185 5.24149 19.9003 4.5812C19.9844 4.38775 20.1064 4.24055 20.3251 4.2069C20.5984 4.16485 20.8129 4.29943 20.9223 4.57279C21.0232 4.82513 21.1157 5.08588 21.2083 5.34242C21.4438 5.97326 21.6793 6.6041 21.9106 7.23495C21.9442 7.32747 21.9863 7.3527 22.083 7.3527C22.6466 7.3485 23.2059 7.35691 23.7695 7.3485C24.0933 7.34009 24.3288 7.45364 24.4382 7.76906C24.4298 7.83635 24.4298 7.91205 24.4298 7.98775Z" fill="white"/>
</svg>
