<svg width="25" height="24" viewBox="0 0 25 24" fill="none" xmlns="http://www.w3.org/2000/svg">
<path d="M12.4716 0C5.58374 0 0 5.37258 0 12C0 18.6274 5.58374 24 12.4716 24C19.3596 24 24.9433 18.6274 24.9433 12C24.9433 5.37258 19.3595 0 12.4716 0ZM6.0822 18.1478C4.37553 16.5057 3.43563 14.3223 3.43563 12C3.43563 10.2168 3.99039 8.51579 5.02039 7.07856L17.5865 19.1695C16.0928 20.1605 14.3249 20.6943 12.4716 20.6943C10.058 20.6943 7.78888 19.7899 6.0822 18.1478ZM19.9985 16.8152L7.4671 4.75781C8.93716 3.81313 10.6639 3.30571 12.4716 3.30571C14.8852 3.30571 17.1544 4.21005 18.8611 5.85219C20.5678 7.49432 21.5077 9.67765 21.5077 12C21.5077 13.7394 20.9803 15.4008 19.9985 16.8152Z" fill="#848484"/>
</svg>
