<svg width="24" height="22" viewBox="0 0 24 22" fill="none" xmlns="http://www.w3.org/2000/svg">
<path d="M16.342 20.8022C14.3846 20.8022 12.4272 20.8022 10.4624 20.8022C10.0307 20.8022 9.68837 20.564 9.56185 20.1919C9.44277 19.8347 9.55441 19.4253 9.88932 19.2095C10.0456 19.1053 10.2466 19.0309 10.4326 19.0309C14.3772 19.0234 18.3217 19.0234 22.2737 19.0234C22.7946 19.0234 23.1891 19.4179 23.1891 19.9091C23.1891 20.4152 22.7872 20.8022 22.2513 20.8022C20.2791 20.8022 18.3068 20.8022 16.342 20.8022Z" fill="#DB6C05"/>
<path d="M16.3403 4.15339C14.3904 4.15339 12.4404 4.15339 10.4905 4.15339C9.94719 4.15339 9.56018 3.82592 9.53041 3.3496C9.49319 2.87328 9.79834 2.47882 10.2672 2.38951C10.3863 2.36719 10.5054 2.36719 10.6245 2.36719C14.4425 2.36719 18.253 2.36719 22.0711 2.36719C22.1157 2.36719 22.1604 2.36719 22.2125 2.36719C22.7781 2.38207 23.1874 2.7542 23.1874 3.26029C23.1874 3.77382 22.7855 4.14595 22.2199 4.14595C20.2551 4.15339 18.2977 4.15339 16.3403 4.15339Z" fill="#DB6C05"/>
<path d="M16.3644 10.6953C18.2921 10.6953 20.2271 10.6953 22.1547 10.6953C22.4301 10.6953 22.6906 10.7325 22.899 10.9409C23.1371 11.1791 23.2488 11.4693 23.152 11.8042C23.0553 12.1466 22.8394 12.3699 22.4896 12.4517C22.3929 12.4741 22.2887 12.4815 22.1845 12.4815C18.2921 12.4815 14.4071 12.4815 10.5146 12.4815C9.94155 12.4815 9.54709 12.1392 9.51732 11.648C9.48755 11.1344 9.85224 10.7251 10.3658 10.7102C10.8198 10.6953 11.2738 10.7028 11.7278 10.7028C13.2832 10.6953 14.8238 10.6953 16.3644 10.6953Z" fill="#DB6C05"/>
<path d="M2.05063 19.9003C2.3781 19.5654 2.63859 19.29 2.90652 19.0221C3.59867 18.3225 4.29083 17.6229 4.99787 16.9382C5.36999 16.5661 5.92074 16.5661 6.27054 16.9159C6.62034 17.2582 6.62778 17.8239 6.25565 18.1885C5.07973 19.3793 3.89637 20.5553 2.71301 21.7312C2.34089 22.1033 1.81247 22.0884 1.44034 21.7237C1.04589 21.3442 0.658877 20.9572 0.279309 20.5627C-0.0853749 20.1831 -0.0853749 19.6398 0.264424 19.29C0.614222 18.9402 1.15753 18.9402 1.53709 19.3124C1.72316 19.4835 1.87201 19.6845 2.05063 19.9003Z" fill="#DB6C05"/>
<path d="M2.09682 11.5904C2.19357 11.449 2.24567 11.3522 2.31265 11.2852C3.19087 10.407 4.06909 9.52137 4.9473 8.65059C5.36409 8.23381 5.90739 8.21148 6.27952 8.58361C6.63676 8.94085 6.61443 9.49904 6.21998 9.90094C5.07383 11.0545 3.92768 12.2007 2.77409 13.3468C2.32754 13.7934 1.82889 13.7859 1.38234 13.3394C1.0251 12.9896 0.667855 12.6323 0.318057 12.2751C-0.0838392 11.8658 -0.106167 11.3299 0.258517 10.9578C0.615758 10.5931 1.17395 10.6154 1.5684 11.0099C1.74702 11.1736 1.88843 11.3522 2.09682 11.5904Z" fill="#DB6C05"/>
<path d="M2.0516 3.23639C3.0489 2.23909 3.98666 1.28645 4.9393 0.348689C5.09559 0.192396 5.31887 0.0658729 5.52726 0.0212178C5.90683 -0.0680925 6.25663 0.132856 6.43525 0.467769C6.61387 0.802682 6.56921 1.21946 6.29384 1.50228C5.09559 2.70797 3.89735 3.90621 2.69166 5.10446C2.3493 5.44682 1.83577 5.43937 1.48597 5.10446C1.06175 4.70256 0.644965 4.29322 0.243069 3.869C-0.0844016 3.5192 -0.0695164 2.99078 0.250512 2.65587C0.577983 2.31351 1.12129 2.28374 1.47853 2.60377C1.68692 2.78984 1.8581 3.01311 2.0516 3.23639Z" fill="#DB6C05"/>
</svg>
