<svg width="29" height="29" viewBox="0 0 29 29" fill="none" xmlns="http://www.w3.org/2000/svg">
<g clip-path="url(#clip0_1_68858)">
<path d="M18.263 28.999C17.7053 28.999 17.0082 28.999 16.4505 28.999C15.8928 28.8596 15.3351 28.8596 14.7775 28.7201C12.2678 28.3019 10.1765 27.0471 8.78226 24.8163C6.96976 22.3067 5.29669 19.6576 3.48419 17.0086C3.34476 16.8692 3.34476 16.7298 3.34476 16.5903C2.92649 15.7538 3.06592 14.9173 3.62361 14.2201C4.1813 13.6624 5.01784 13.523 5.85438 13.9413C6.27265 14.0807 6.69092 14.499 6.96976 14.9173C7.66688 15.8932 8.36399 16.7298 8.92169 17.7057C8.92169 17.7057 9.06111 17.8451 9.06111 17.9846C9.06111 17.8451 9.06111 17.8451 9.06111 17.7057C9.06111 13.2442 9.06111 8.78264 9.06111 4.3211C9.06111 4.18168 9.06111 3.90283 9.06111 3.76341C9.20053 2.92687 10.0371 2.36918 10.8736 2.5086C11.8496 2.36918 12.5467 3.0663 12.5467 4.04226C12.5467 6.6913 12.5467 9.34033 12.5467 11.9894C12.5467 12.1288 12.5467 12.2682 12.5467 12.4076C12.5467 12.6865 12.8255 12.8259 13.1044 12.8259C13.3832 12.8259 13.5226 12.6865 13.6621 12.4076C13.6621 12.2682 13.6621 12.1288 13.6621 11.9894C13.6621 8.64322 13.6621 5.29706 13.6621 1.81149C13.6621 1.67206 13.6621 1.67206 13.6621 1.53264C13.8015 0.417256 14.7775 -0.279859 15.8928 -0.00101279C16.59 0.277833 17.0082 0.835526 17.0082 1.67206C17.0082 5.01822 17.0082 8.50379 17.0082 11.8499C17.0082 11.9894 17.0082 12.1288 17.0082 12.2682C17.0082 12.5471 17.2871 12.6865 17.5659 12.6865C17.8448 12.6865 17.9842 12.5471 18.1236 12.2682C18.1236 12.1288 18.1236 12.1288 18.1236 11.9894C18.1236 8.92206 18.1236 5.85476 18.1236 2.78745C18.1236 2.22976 18.263 1.81149 18.6813 1.39322C19.239 0.974949 19.7967 0.835526 20.4938 1.11437C21.1909 1.39322 21.4698 2.09033 21.4698 2.78745C21.4698 6.1336 21.4698 9.61918 21.4698 12.9653C21.4698 13.523 21.6092 13.8019 22.0275 13.8019C22.4457 13.8019 22.5851 13.523 22.5851 12.9653C22.5851 10.874 22.5851 8.64322 22.5851 6.55187C22.5851 6.27303 22.5851 6.1336 22.5851 5.85476C22.7246 5.01822 23.2823 4.46053 24.1188 4.3211C24.9553 4.3211 25.6525 4.73937 25.9313 5.57591C26.0707 5.85476 25.9313 6.27303 25.9313 6.55187C25.9313 11.2923 25.9313 16.0326 25.9313 20.773C25.9313 21.3307 25.9313 22.0278 25.7919 22.5855C25.2342 25.9317 23.1428 28.023 19.7967 28.5807C19.239 28.8596 18.8207 28.8596 18.263 28.999Z" fill="#00690E"/>
</g>
<defs>
<clipPath id="clip0_1_68858">
<rect width="29" height="29" fill="white"/>
</clipPath>
</defs>
</svg>
