<svg width="22" height="22" viewBox="0 0 22 22" fill="none" xmlns="http://www.w3.org/2000/svg">
<path d="M21.0641 5.44531C21.0641 5.54271 21.0641 5.62292 21.0641 5.70885C21.0641 9.82813 21.0526 13.9417 21.0755 18.0609C21.0813 19.0177 20.3938 19.7052 19.4885 19.6422C19.2307 19.625 18.9729 19.6422 18.6807 19.6422C19.2536 18.3073 19.2651 16.9896 18.6177 15.7005C17.9703 14.4115 16.9161 13.6151 15.4953 13.2542C15.6958 13.1167 15.713 12.9391 15.7073 12.7385C15.7016 12.3089 15.7073 11.8792 15.7016 11.4495C15.7016 11.1687 15.587 11.0599 15.312 11.0542C14.762 11.0542 14.212 11.0542 13.662 11.0542C13.3984 11.0542 13.2839 11.1688 13.2839 11.4323C13.2781 11.8849 13.2724 12.3318 13.2896 12.7844C13.2953 12.9391 13.3583 13.0938 13.4042 13.2714C12.0807 13.6208 11.0438 14.4229 10.4021 15.7005C9.76042 16.9839 9.76615 18.2958 10.3505 19.6365C10.2417 19.6365 10.1672 19.6365 10.0927 19.6365C7.55469 19.6365 5.01667 19.6365 2.47865 19.6365C1.51042 19.6365 0.9375 19.0635 0.9375 18.0896C0.9375 13.9589 0.9375 9.82813 0.9375 5.6974C0.9375 5.61719 0.9375 5.54271 0.9375 5.44531C7.64063 5.44531 14.338 5.44531 21.0641 5.44531ZM10.8432 9.04896C11.124 9.04896 11.399 9.04896 11.6797 9.04896C11.9432 9.04896 12.0807 8.91719 12.0865 8.65937C12.0922 8.18958 12.0922 7.71979 12.0865 7.24427C12.0865 6.98646 11.9604 6.85469 11.7083 6.85469C11.1469 6.84896 10.5797 6.84896 10.0182 6.85469C9.7776 6.85469 9.66302 6.96927 9.65729 7.2099C9.65156 7.7026 9.65156 8.19531 9.65729 8.68802C9.66302 8.9401 9.7776 9.04323 10.0354 9.04323C10.3047 9.04896 10.574 9.04896 10.8432 9.04896ZM17.8443 9.04896C18.125 9.04896 18.4 9.04896 18.6807 9.04896C18.9328 9.04896 19.0703 8.91719 19.076 8.67083C19.0818 8.19531 19.0818 7.71406 19.076 7.23854C19.0703 6.98646 18.9443 6.86042 18.6865 6.86042C18.1307 6.85469 17.575 6.85469 17.0193 6.86042C16.7672 6.86042 16.6526 6.975 16.6469 7.22708C16.6411 7.71406 16.6411 8.19531 16.6469 8.68229C16.6469 8.9401 16.7615 9.04896 17.0135 9.04896C17.2828 9.04896 17.5635 9.04896 17.8443 9.04896ZM4.16875 17.4708C4.44948 17.4708 4.72448 17.4766 5.00521 17.4708C5.26875 17.4651 5.39479 17.3333 5.40052 17.0698C5.40625 16.6057 5.40625 16.1417 5.40052 15.6776C5.40052 15.4198 5.26302 15.2766 5.00521 15.2766C4.45521 15.2708 3.90521 15.2708 3.35521 15.2766C3.0974 15.2766 2.97135 15.4083 2.96563 15.6604C2.9599 16.1359 2.9599 16.6172 2.96563 17.0927C2.97135 17.3505 3.09167 17.4651 3.35521 17.4708C3.62448 17.4708 3.89375 17.4708 4.16875 17.4708ZM4.01979 11.0542C3.7276 11.0542 3.43542 11.0484 3.14323 11.0542C2.91979 11.0599 2.80521 11.1573 2.79948 11.3807C2.78802 11.8849 2.78802 12.3948 2.79948 12.9047C2.80521 13.1224 2.93698 13.2427 3.16042 13.2484C3.73333 13.2542 4.30052 13.2542 4.87344 13.2484C5.09115 13.2484 5.22292 13.1167 5.22292 12.899C5.22865 12.4005 5.22865 11.8964 5.22292 11.3979C5.22292 11.1688 5.10833 11.0599 4.87344 11.0542C4.59271 11.0484 4.30625 11.0542 4.01979 11.0542ZM11.0151 11.0542C10.7286 11.0542 10.4422 11.0542 10.1557 11.0542C9.89792 11.0599 9.78906 11.163 9.78333 11.4151C9.7776 11.9021 9.7776 12.3891 9.78333 12.8703C9.78906 13.1167 9.9151 13.237 10.1615 13.2427C10.7172 13.2484 11.2729 13.2484 11.8344 13.2427C12.0865 13.2427 12.2125 13.1167 12.2182 12.8589C12.224 12.3776 12.224 11.9021 12.2182 11.4208C12.2182 11.163 12.1036 11.0542 11.8516 11.0542C11.5708 11.0484 11.2958 11.0542 11.0151 11.0542ZM18.0219 11.0542C17.7354 11.0542 17.449 11.0484 17.1625 11.0542C16.9219 11.0599 16.8073 11.1688 16.8073 11.4094C16.8016 11.8964 16.8016 12.3833 16.8073 12.8703C16.8073 13.1167 16.9333 13.2427 17.174 13.2427C17.7297 13.2484 18.2911 13.2484 18.8469 13.2427C19.0875 13.2427 19.2307 13.1109 19.2307 12.876C19.2365 12.3891 19.2365 11.9021 19.2307 11.4151C19.225 11.1688 19.1047 11.0542 18.8526 11.0484C18.5776 11.0484 18.3026 11.0542 18.0219 11.0542ZM7.52604 11.0542C7.24531 11.0542 6.97031 11.0542 6.68958 11.0542C6.41458 11.0542 6.29427 11.1688 6.29427 11.438C6.28854 11.9078 6.29427 12.3776 6.29427 12.8531C6.29427 13.1224 6.41458 13.2427 6.68385 13.2484C7.23385 13.2542 7.78385 13.2542 8.33385 13.2484C8.59167 13.2484 8.71198 13.1281 8.71771 12.8646C8.72344 12.3891 8.72344 11.9078 8.71771 11.4323C8.71198 11.1573 8.60886 11.0599 8.33958 11.0542C8.07031 11.0484 7.80104 11.0542 7.52604 11.0542ZM14.3609 9.04896C14.6302 9.04896 14.9052 9.04896 15.1745 9.04896C15.4438 9.04896 15.5698 8.92292 15.5698 8.65937C15.5755 8.18958 15.5755 7.71979 15.5698 7.24427C15.5698 6.98073 15.4495 6.86042 15.1917 6.86042C14.6359 6.85469 14.0802 6.85469 13.5245 6.86042C13.2781 6.86042 13.1521 6.98073 13.1521 7.22708C13.1464 7.71406 13.1464 8.19531 13.1521 8.68229C13.1521 8.92292 13.2839 9.04896 13.5302 9.04896C13.8052 9.04896 14.0859 9.04896 14.3609 9.04896ZM7.68073 17.4708C7.96146 17.4708 8.23646 17.4766 8.51719 17.4708C8.76927 17.4651 8.87813 17.3505 8.88386 17.0984C8.88958 16.6115 8.88958 16.1302 8.88386 15.6432C8.88386 15.4083 8.76354 15.2823 8.52865 15.2766C7.96719 15.2708 7.4 15.2708 6.83854 15.2766C6.59792 15.2823 6.46615 15.4198 6.46615 15.6547C6.46042 16.1302 6.46042 16.6115 6.46615 17.087C6.46615 17.3391 6.59792 17.4651 6.85 17.4708C7.125 17.4708 7.40573 17.4708 7.68073 17.4708Z" fill="white"/>
<path d="M21.087 4.74323C14.3724 4.74323 7.66927 4.74323 0.948958 4.74323C0.943229 4.68594 0.9375 4.62292 0.9375 4.56562C0.9375 4.01562 0.9375 3.46562 0.9375 2.91562C0.943229 2.125 1.47031 1.5349 2.25521 1.47187C2.61042 1.44323 2.97135 1.46615 3.35521 1.46615C3.36094 1.54635 3.36667 1.62083 3.36667 1.69531C3.36667 2.07917 3.36094 2.46875 3.36667 2.8526C3.37813 3.47708 3.79063 3.89531 4.38073 3.88958C4.95365 3.88385 5.35469 3.45417 5.36042 2.84115C5.36042 2.40573 5.36042 1.97031 5.36615 1.5349C5.36615 1.52344 5.37188 1.50625 5.3776 1.4776C6.91302 1.4776 8.45417 1.4776 10.0125 1.4776C10.0182 1.55208 10.024 1.62656 10.024 1.70104C10.024 2.11354 10.0182 2.53177 10.0297 2.94427C10.0469 3.48854 10.4766 3.88958 11.0208 3.88958C11.5651 3.88958 11.9948 3.48281 12.012 2.93854C12.0234 2.45156 12.012 1.97031 12.012 1.47187C13.576 1.47187 15.1115 1.47187 16.6813 1.47187C16.6813 1.95312 16.6755 2.43437 16.6813 2.9099C16.687 3.48281 17.1339 3.90677 17.7068 3.88958C18.2224 3.87812 18.6406 3.49427 18.6635 2.97865C18.6865 2.56042 18.6693 2.13646 18.675 1.7125C18.675 1.63802 18.675 1.55781 18.675 1.4375C19.1505 1.46042 19.6031 1.4375 20.0443 1.51198C20.6 1.60937 21.0526 2.10781 21.087 2.675C21.1214 3.3625 21.087 4.04427 21.087 4.74323Z" fill="white"/>
<path d="M14.5182 21.6615C12.3469 21.6615 10.588 19.9026 10.5938 17.737C10.5938 15.5714 12.3641 13.8068 14.524 13.8125C16.6839 13.8182 18.4485 15.5886 18.4427 17.7542C18.437 19.9083 16.6781 21.6615 14.5182 21.6615ZM13.6761 18.6479C13.4182 18.3844 13.1776 18.1323 12.937 17.8917C12.7537 17.7083 12.5589 17.6969 12.4156 17.8458C12.2724 17.9948 12.2896 18.1667 12.4672 18.3557C12.7651 18.6537 13.063 18.9516 13.361 19.2495C13.6188 19.5073 13.7448 19.5073 14.0083 19.2438C14.8448 18.4073 15.687 17.5651 16.5235 16.7287C16.5693 16.6828 16.6151 16.637 16.6495 16.5854C16.7412 16.4365 16.724 16.299 16.6037 16.1787C16.4833 16.0583 16.3401 16.0469 16.1969 16.1443C16.1339 16.1901 16.0766 16.2474 16.025 16.3047C15.2458 17.0724 14.4781 17.8458 13.6761 18.6479Z" fill="white"/>
<path d="M11.35 1.8132C11.35 2.15122 11.35 2.48351 11.35 2.82153C11.35 3.07935 11.2182 3.22257 11.0062 3.22257C10.7885 3.22257 10.6797 3.08507 10.6797 2.8158C10.6797 2.13976 10.6797 1.45799 10.6797 0.78195C10.6797 0.50695 10.7885 0.375179 11.0062 0.375179C11.2354 0.36945 11.35 0.501221 11.35 0.787679C11.35 1.13143 11.35 1.46945 11.35 1.8132Z" fill="white"/>
<path d="M17.3417 1.81321C17.3417 1.46373 17.3359 1.11425 17.3417 0.76477C17.3474 0.495499 17.462 0.369458 17.6854 0.375187C17.8974 0.380916 18.0063 0.506958 18.0063 0.770499C18.0063 1.458 18.0063 2.13977 18.0063 2.82727C18.0063 3.09654 17.8917 3.22831 17.6682 3.22831C17.4505 3.22831 17.3359 3.09654 17.3359 2.82154C17.3417 2.48352 17.3417 2.1455 17.3417 1.81321Z" fill="white"/>
<path d="M4.03268 1.79029C4.03268 1.44654 4.03268 1.10279 4.03268 0.76477C4.03268 0.506958 4.14154 0.380916 4.35924 0.375187C4.58268 0.369458 4.70299 0.495499 4.70299 0.76477C4.70872 1.45227 4.70872 2.13404 4.70299 2.82154C4.70299 3.08508 4.57695 3.22258 4.36497 3.22831C4.14727 3.22831 4.03841 3.09654 4.03841 2.82154C4.02695 2.47206 4.03268 2.13404 4.03268 1.79029Z" fill="white"/>
<path d="M15.0693 11.7578C15.0693 12.0385 15.0693 12.3078 15.0693 12.5885C14.7083 12.5885 14.3589 12.5885 13.9922 12.5885C13.9922 12.3193 13.9922 12.0443 13.9922 11.7578C14.3417 11.7578 14.6911 11.7578 15.0693 11.7578Z" fill="white"/>
<path d="M11.3901 8.38125C11.0349 8.38125 10.6969 8.38125 10.3359 8.38125C10.3359 8.10625 10.3359 7.83125 10.3359 7.53906C10.6797 7.53906 11.0234 7.53906 11.3901 7.53906C11.3901 7.80833 11.3901 8.08333 11.3901 8.38125Z" fill="white"/>
<path d="M17.3359 7.53906C17.6969 7.53906 18.0349 7.53906 18.3958 7.53906C18.3958 7.81979 18.3958 8.09479 18.3958 8.38698C18.0521 8.38698 17.7026 8.38698 17.3359 8.38698C17.3359 8.11198 17.3359 7.83698 17.3359 7.53906Z" fill="white"/>
<path d="M4.71406 16.7974C4.3474 16.7974 4.00365 16.7974 3.64844 16.7974C3.64844 16.5167 3.64844 16.2474 3.64844 15.9609C3.99792 15.9609 4.3474 15.9609 4.71406 15.9609C4.71406 16.2359 4.71406 16.5109 4.71406 16.7974Z" fill="white"/>
<path d="M4.55365 11.7656C4.55365 12.0464 4.55365 12.3156 4.55365 12.5964C4.19271 12.5964 3.84323 12.5964 3.47656 12.5964C3.47656 12.3156 3.47656 12.0464 3.47656 11.7656C3.82604 11.7656 4.18125 11.7656 4.55365 11.7656Z" fill="white"/>
<path d="M10.5078 11.7266C10.8573 11.7266 11.2068 11.7266 11.5677 11.7266C11.5677 12.0187 11.5677 12.3052 11.5677 12.6031C11.2182 12.6031 10.8745 12.6031 10.5078 12.6031C10.5078 12.3109 10.5078 12.0245 10.5078 11.7266Z" fill="white"/>
<path d="M17.4844 12.5974C17.4844 12.3109 17.4844 12.0302 17.4844 11.7266C17.8453 11.7266 18.1948 11.7266 18.5557 11.7266C18.5557 12.013 18.5557 12.2995 18.5557 12.5974C18.2005 12.5974 17.851 12.5974 17.4844 12.5974Z" fill="white"/>
<path d="M8.05365 11.7656C8.05365 12.0521 8.05365 12.3214 8.05365 12.6021C7.69271 12.6021 7.3375 12.6021 6.97656 12.6021C6.97656 12.3156 6.97656 12.0464 6.97656 11.7656C7.34323 11.7656 7.69844 11.7656 8.05365 11.7656Z" fill="white"/>
<path d="M13.8281 7.53906C14.2005 7.53906 14.5443 7.53906 14.8995 7.53906C14.8995 7.82552 14.8995 8.10052 14.8995 8.38698C14.5443 8.38698 14.1948 8.38698 13.8281 8.38698C13.8281 8.10625 13.8281 7.82552 13.8281 7.53906Z" fill="white"/>
<path d="M7.14062 15.9609C7.50156 15.9609 7.85104 15.9609 8.21198 15.9609C8.21198 16.2359 8.21198 16.5109 8.21198 16.8031C7.8625 16.8031 7.50729 16.8031 7.14062 16.8031C7.14063 16.5339 7.14062 16.2589 7.14062 15.9609Z" fill="white"/>
</svg>
