<svg width="21" height="21" viewBox="0 0 21 21" fill="none" xmlns="http://www.w3.org/2000/svg">
<path d="M20.8992 9.52736C20.8448 9.77222 20.8067 10.0225 20.7306 10.2565C20.4803 11.0455 20.0286 11.6658 19.1907 11.8998C18.4779 12.1011 17.8303 11.8943 17.2536 11.4753C16.3286 10.8061 15.8225 9.86472 15.6049 8.76014C15.4416 7.94939 15.4906 7.14952 15.8497 6.39318C16.1871 5.67493 16.7258 5.19065 17.5474 5.09815C18.1568 5.03285 18.701 5.23418 19.1852 5.58787C20.0939 6.26259 20.5945 7.19305 20.8176 8.28675C20.8448 8.42278 20.872 8.56425 20.8992 8.70028C20.8992 8.98323 20.8992 9.2553 20.8992 9.52736ZM17.0414 6.0667C17.0142 6.06126 16.9869 6.05582 16.9652 6.05038C16.9325 6.11023 16.8836 6.1592 16.8618 6.2245C16.5516 7.14407 16.5952 8.06909 16.889 8.97779C17.1774 9.8756 17.678 10.6374 18.4507 11.1978C18.4996 11.2305 18.5758 11.225 18.6411 11.2359C18.6139 11.1761 18.603 11.0999 18.5595 11.0618C17.2699 10.0388 16.7421 8.6894 16.8618 7.07334C16.8836 6.79583 16.9815 6.51833 17.0359 6.24082C17.0522 6.18641 17.0414 6.12655 17.0414 6.0667Z" fill="#1E1D1D"/>
<path d="M14.0967 20.8933C13.8519 20.8443 13.607 20.8008 13.3676 20.7409C12.2793 20.4471 11.4523 19.7778 10.7558 18.9235C9.77633 17.721 9.16691 16.328 8.68807 14.8698C8.62822 14.6902 8.57925 14.5052 8.52484 14.3256C8.51395 14.2876 8.50851 14.244 8.49219 14.1842C8.92749 14.0536 9.36824 13.923 9.8253 13.787C9.89604 13.9774 9.96134 14.1515 10.0266 14.3256C10.4511 15.4302 10.9517 16.4967 11.6427 17.4598C12.0399 18.0148 12.5024 18.5046 13.0629 18.9018C14.6953 20.0608 17.22 19.3371 17.6444 16.9864C17.8403 15.8982 17.7315 14.8208 17.4975 13.7543C17.3615 13.1394 17.1874 12.5355 17.0241 11.9206C17.2472 11.839 17.4594 11.839 17.7206 11.9206C18.0906 12.0403 18.2212 12.2634 18.3083 12.6116C18.5803 13.6727 18.798 14.7392 18.8415 15.8383C18.8687 16.6219 18.8143 17.4 18.5695 18.1509C18.0961 19.62 17.0513 20.4471 15.5713 20.7681C15.3537 20.8171 15.136 20.8497 14.9184 20.8878C14.6408 20.8933 14.3688 20.8933 14.0967 20.8933Z" fill="#1E1D1D"/>
<path d="M7.0261 14.2807C5.57872 14.2535 4.4034 13.9161 3.41308 13.0564C2.83631 12.5612 2.401 11.9573 2.11805 11.2553C1.50863 9.75353 0.915529 8.24629 0.322429 6.73905C0.28434 6.64655 0.316987 6.52684 0.333311 6.41802C0.344194 6.3636 0.387724 6.30919 0.420372 6.25478C0.904647 5.46035 1.55216 5.60182 2.11805 6.05889C2.16703 6.09698 2.18879 6.17316 2.21056 6.23301C2.68395 7.42466 3.14102 8.62174 3.64162 9.79706C4.13133 10.9506 4.96385 11.7559 6.19358 12.0987C6.71595 12.2456 7.24375 12.213 7.76612 12.0878C8.39186 11.9355 9.02305 11.8049 9.63792 11.6199C11.0527 11.1846 11.5696 10.3249 11.3138 8.86116C11.0962 7.59878 10.6609 6.40169 10.1929 5.21549C10.0841 4.94343 9.96984 4.68225 10.1222 4.38297C10.2854 4.05106 10.5194 3.86605 10.8894 3.89326C11.1234 3.90958 11.3519 3.9912 11.575 4.0565C11.6294 4.07282 11.6893 4.13812 11.7111 4.19253C12.2715 5.61271 12.8211 7.03832 13.1802 8.51836C13.4142 9.48691 13.387 10.4772 12.9952 11.4186C12.598 12.3708 11.8634 12.9639 10.9003 13.2686C9.88822 13.5896 8.86526 13.8889 7.84229 14.1719C7.52126 14.2644 7.18934 14.2644 7.0261 14.2807Z" fill="#1E1D1D"/>
<path d="M7.35859 3.36394C7.01579 3.27688 6.65122 3.23335 6.32474 3.09732C5.699 2.8307 5.42693 2.30289 5.43781 1.63361C5.44325 0.953453 5.76429 0.469178 6.40636 0.256968C6.76549 0.137259 7.15726 0.0828463 7.53815 0.0501985C7.88639 0.0175508 8.15302 0.229761 8.35979 0.496384C8.82774 1.10037 8.89303 2.06348 8.5067 2.72731C8.25096 3.16262 7.88639 3.37483 7.36947 3.31497C7.36403 3.32586 7.36403 3.34762 7.35859 3.36394Z" fill="#1E1D1D"/>
<path d="M1.31999 5.49793C0.933654 5.49793 0.639825 5.67206 0.384084 5.97133C0.0902542 5.10616 -0.100191 4.26276 0.166432 3.39215C0.394966 2.62493 0.91733 2.11889 1.64646 1.81962C1.69544 1.79786 1.77161 1.78697 1.81514 1.80874C2.17971 1.96654 2.41913 2.46714 2.31574 2.84803C2.29942 2.90788 2.24501 2.98406 2.18515 3.00582C1.32543 3.34318 1.06425 4.05055 1.20572 4.94292C1.23293 5.12249 1.27646 5.30205 1.31999 5.49793Z" fill="#1E1D1D"/>
<path d="M15.5481 6.57031C15.0366 8.62168 15.5644 10.3194 17.2022 11.7123C16.9519 11.7123 16.718 11.7613 16.5166 11.7014C16.2065 11.6035 15.8854 11.4729 15.6297 11.277C14.5741 10.4608 14.1225 8.83933 14.5904 7.62048C14.77 7.14709 15.0638 6.77708 15.5481 6.57031Z" fill="#1E1D1D"/>
<path d="M8.85938 2.46228C8.88658 2.10316 8.91923 1.72227 8.95188 1.33594C9.68645 1.34682 10.9162 2.69082 11.0849 3.69202C10.4754 3.74643 10.4754 3.74643 10.149 3.97496C9.96396 3.69746 9.79528 3.39819 9.58307 3.14245C9.37086 2.89759 9.10423 2.69082 8.85938 2.46228Z" fill="#1E1D1D"/>
<path d="M2.99199 3.72968C3.31302 2.48363 3.01375 1.55861 2.02344 0.742416C2.71448 0.437704 3.67759 0.905655 3.96598 1.6892C4.2979 2.57613 3.86804 3.47939 2.99199 3.72968Z" fill="#1E1D1D"/>
<path d="M1.5765 3.59677C1.82136 3.44441 2.02269 3.2975 2.24578 3.19956C2.38725 3.13426 2.45799 3.05264 2.49064 2.91117C2.62667 2.3888 2.33828 1.89909 1.83768 1.61614C1.79415 1.59437 1.71798 1.59982 1.669 1.62158C1.43503 1.72497 1.20649 1.83379 0.945312 1.9535C0.945312 1.59982 0.972519 1.2679 1.22282 0.995833C1.38062 0.821712 1.58738 0.789064 1.7996 0.870683C1.92474 0.919655 2.04989 0.98495 2.14784 1.07745C2.80623 1.73041 3.07286 2.51939 2.87697 3.42809C2.75726 4.01031 2.27299 4.15722 1.7996 3.79266C1.74518 3.74913 1.69077 3.70015 1.5765 3.59677Z" fill="#1E1D1D"/>
</svg>
