<svg width="21" height="21" viewBox="0 0 21 21" fill="none" xmlns="http://www.w3.org/2000/svg">
<path d="M15.2846 19.9901C14.9515 19.9124 14.6018 19.868 14.2854 19.7459C12.6589 19.1353 11.6819 17.9695 11.4321 16.2432C11.1102 13.995 12.6978 11.8245 14.9182 11.447C17.1886 11.0585 19.3258 12.4684 19.8642 14.7166C19.9086 14.9054 19.9419 15.0996 19.9808 15.2939C19.9808 15.5548 19.9808 15.8102 19.9808 16.0711C19.9697 16.1321 19.953 16.1877 19.9419 16.2487C19.6644 17.9529 18.7318 19.1297 17.1109 19.7348C16.7723 19.8625 16.4059 19.9069 16.0562 19.9901C15.8008 19.9901 15.5399 19.9901 15.2846 19.9901ZM13.6304 18.3914C14.9016 19.4128 16.9943 19.374 18.2655 17.914C19.4534 16.5485 19.2536 14.6334 18.3821 13.6397C16.8 15.2218 15.218 16.8038 13.6304 18.3914ZM17.727 12.968C16.5391 11.9966 14.5185 11.9799 13.2307 13.3178C11.9151 14.6833 12.0816 16.6761 12.9642 17.7197C14.5518 16.1377 16.1394 14.5501 17.727 12.968Z" fill="#1E1D1D" stroke="#1E1D1D" stroke-width="0.3"/>
<path d="M5.20543 17.0475C3.29032 17.042 1.50842 15.5987 1.11985 13.5726C0.825644 12.0405 1.26973 10.7082 2.36884 9.60356C3.50681 8.46004 4.65588 7.31652 5.7994 6.17855C7.07059 4.90736 8.33624 3.64172 9.60743 2.37052C10.2403 1.73215 10.9841 1.28806 11.8723 1.12153C13.4155 0.832876 14.7755 1.23255 15.8524 2.37607C17.0736 3.68057 17.3567 5.21822 16.7628 6.90574C16.5518 7.51081 16.1799 8.01596 15.7303 8.46559C13.3155 10.8914 10.9008 13.3172 8.48056 15.7375C7.62015 16.5924 6.571 17.0309 5.20543 17.0475ZM11.1617 11.7796C9.52971 10.1587 7.91435 8.54886 6.27124 6.91129C6.24348 6.95015 6.21573 7.00566 6.17132 7.05007C5.5607 7.66069 4.95009 8.27131 4.33947 8.88192C3.80657 9.42038 3.25146 9.94218 2.74631 10.5028C1.36965 12.0516 1.78043 14.5995 3.55677 15.6487C4.97229 16.4869 6.66536 16.2815 7.83664 15.1213C8.92465 14.0444 9.996 12.9564 11.0785 11.8739C11.1062 11.8462 11.1284 11.8184 11.1617 11.7796ZM11.8112 11.1412C12.9991 9.94218 14.2259 8.782 15.3528 7.53301C16.7294 6.00092 16.2743 3.47518 14.509 2.43158C13.099 1.59892 11.4282 1.80986 10.2514 2.98114C9.18555 4.04139 8.11974 5.1072 7.05949 6.173C7.02063 6.21186 6.98733 6.25072 6.95957 6.28402C8.57493 7.90493 10.1792 9.51474 11.8112 11.1412Z" fill="#1E1D1D" stroke="#1E1D1D" stroke-width="0.3"/>
<path d="M9.94284 6.55401C9.68749 6.55401 9.55427 6.48185 9.47655 6.32087C9.39884 6.16544 9.39884 6.01001 9.50986 5.87123C9.59867 5.76021 9.69859 5.66029 9.79851 5.56037C10.2037 5.15514 10.6145 4.75547 11.0253 4.35579C11.2473 4.1393 11.4749 4.11709 11.6692 4.27252C11.8358 4.4113 11.8802 4.64999 11.7636 4.83318C11.7247 4.89424 11.6748 4.94975 11.6248 5.00526C11.1641 5.46045 10.7033 5.91564 10.237 6.36527C10.1316 6.45964 9.99835 6.51515 9.94284 6.55401Z" fill="#1E1D1D" stroke="#1E1D1D" stroke-width="0.5"/>
</svg>
