<svg width="25" height="24" viewBox="0 0 25 24" fill="none" xmlns="http://www.w3.org/2000/svg">
<path d="M8.33698 2.59873C7.5553 2.59873 6.85178 2.59873 6.0701 2.59873C6.0701 1.75796 6.0701 0.917198 6.0701 0C10.3693 0 14.5904 0 18.8897 0C18.8897 0.840764 18.8897 1.68153 18.8897 2.59873C18.108 2.59873 17.4045 2.59873 16.701 2.59873C16.701 2.67516 16.701 2.75159 16.701 2.75159C16.701 3.89809 16.701 5.04459 16.701 6.11465C16.701 6.26752 16.7791 6.42038 16.8573 6.49682C19.3587 10.3949 21.86 14.3694 24.3614 18.2675C25.1431 19.4904 25.2213 20.7898 24.5178 22.0892C23.8142 23.3885 22.6417 24 21.1565 24C15.3721 24 9.58767 24 3.80323 24C0.989184 24 -0.80868 21.2484 0.36384 18.7261C0.442008 18.5732 0.520176 18.4204 0.598344 18.2675C3.09972 14.3694 5.6011 10.3949 8.10247 6.49682C8.18064 6.34395 8.25881 6.11465 8.25881 5.96178C8.25881 4.96815 8.25881 3.89809 8.25881 2.90446C8.33698 2.82803 8.33698 2.75159 8.33698 2.59873ZM18.4207 14.0637C18.3425 13.9108 18.2643 13.8344 18.1861 13.758C16.8573 11.6178 15.4503 9.47771 14.1214 7.33758C14.0432 7.10828 13.9651 6.87898 13.9651 6.72612C13.9651 5.50319 13.9651 4.20382 13.9651 2.98089C13.9651 2.90446 13.9651 2.75159 13.9651 2.67516C12.9489 2.67516 11.9327 2.67516 10.9165 2.67516C10.9165 2.82803 10.9165 2.90446 10.9165 3.05733C10.9165 4.28026 10.9165 5.57962 10.9165 6.80255C10.9165 7.03185 10.8384 7.26115 10.7602 7.41401C9.43133 9.55414 8.02431 11.6943 6.69545 13.8344C6.61728 13.9108 6.61728 13.9873 6.53911 14.1401C10.5257 14.0637 14.4341 14.0637 18.4207 14.0637Z" fill="#0210E3"/>
</svg>
