<svg width="89" height="84" viewBox="0 0 89 84" fill="none" xmlns="http://www.w3.org/2000/svg">
<g filter="url(#filter0_d_1_86086)">
<rect x="4" y="3" width="80.6061" height="76" rx="5" fill="#1D57AD"/>
</g>
<path d="M44.112 69.5C40.7526 69.5 37.5308 68.1911 35.1553 65.8614C32.7798 63.5316 31.4453 60.3717 31.4453 57.0769V38.0769C31.4453 35.945 32.3088 33.9004 33.8459 32.3929C35.383 30.8854 37.4677 30.0385 39.6414 30.0385C41.8151 30.0385 43.8998 30.8854 45.4369 32.3929C46.974 33.9004 47.8375 35.945 47.8375 38.0769V55.6154H43.3669V38.0769C43.3669 37.1079 42.9744 36.1785 42.2757 35.4933C41.577 34.808 40.6295 34.4231 39.6414 34.4231C38.6533 34.4231 37.7057 34.808 37.0071 35.4933C36.3084 36.1785 35.9159 37.1079 35.9159 38.0769V57.0769C35.9159 59.2089 36.7794 61.2535 38.3165 62.761C39.8535 64.2685 41.9382 65.1154 44.112 65.1154C46.2857 65.1154 48.3704 64.2685 49.9075 62.761C51.4445 61.2535 52.3081 59.2089 52.3081 57.0769V23.4615C52.3081 21.7172 51.6015 20.0444 50.344 18.811C49.0864 17.5775 47.3807 16.8846 45.6022 16.8846C43.8237 16.8846 42.118 17.5775 40.8604 18.811C39.6028 20.0444 38.8963 21.7172 38.8963 23.4615V26.3846H34.4257V23.4615C34.4257 20.5544 35.6032 17.7662 37.6992 15.7106C39.7952 13.6549 42.638 12.5 45.6022 12.5C48.5664 12.5 51.4091 13.6549 53.5051 15.7106C55.6011 17.7662 56.7786 20.5544 56.7786 23.4615V57.0769C56.7786 58.7083 56.451 60.3238 55.8145 61.831C55.1779 63.3383 54.2449 64.7078 53.0687 65.8614C51.8925 67.0149 50.4961 67.93 48.9593 68.5544C47.4225 69.1787 45.7754 69.5 44.112 69.5Z" fill="white"/>
<defs>
<filter id="filter0_d_1_86086" x="0" y="0" width="88.6094" height="84" filterUnits="userSpaceOnUse" color-interpolation-filters="sRGB">
<feFlood flood-opacity="0" result="BackgroundImageFix"/>
<feColorMatrix in="SourceAlpha" type="matrix" values="0 0 0 0 0 0 0 0 0 0 0 0 0 0 0 0 0 0 127 0" result="hardAlpha"/>
<feOffset dy="1"/>
<feGaussianBlur stdDeviation="2"/>
<feComposite in2="hardAlpha" operator="out"/>
<feColorMatrix type="matrix" values="0 0 0 0 0 0 0 0 0 0 0 0 0 0 0 0 0 0 0.25 0"/>
<feBlend mode="normal" in2="BackgroundImageFix" result="effect1_dropShadow_1_86086"/>
<feBlend mode="normal" in="SourceGraphic" in2="effect1_dropShadow_1_86086" result="shape"/>
</filter>
</defs>
</svg>
