<svg width="36" height="36" viewBox="0 0 36 36" fill="none" xmlns="http://www.w3.org/2000/svg">
<g clip-path="url(#clip0_180_168)">
<path d="M15.279 27.2678C10.8786 27.2678 6.49893 27.2678 2.11927 27.2678C1.39279 24.4582 4.09116 19.4563 7.3292 17.7109C7.3292 18.7113 7.34995 19.6478 7.30844 20.5844C7.30844 20.7121 7.08012 20.8398 6.93482 20.9249C6.20834 21.2655 5.87623 21.8827 5.71018 22.649C5.64791 22.9257 5.60639 23.2237 5.48185 23.4791C5.25353 24.0325 5.37807 24.4795 5.83472 24.7987C6.27061 25.0967 6.74801 25.0329 7.10087 24.6285C7.47449 24.2028 7.51601 23.6707 7.12163 23.2662C6.64423 22.798 6.81028 22.4149 7.1839 22.0743C7.59903 21.6912 8.49157 21.7976 8.69914 22.2659C8.80292 22.5 8.78216 22.9257 8.63686 23.1385C8.26325 23.6281 8.15946 24.0963 8.55384 24.5646C8.9067 25.0116 9.40486 25.0967 9.86151 24.7562C10.3597 24.4156 10.4427 23.9261 10.1729 23.3514C10.0691 23.1385 10.0483 22.9044 10.0068 22.6703C9.88227 21.904 9.57092 21.2868 8.86519 20.9036C8.67838 20.7972 8.47081 20.4992 8.47081 20.2864C8.4293 19.3924 8.47081 18.4772 8.4293 17.5832C8.40854 17.0511 8.69914 16.8382 9.09351 16.7957C9.32184 16.7744 9.65394 16.9659 9.79924 17.1575C10.6918 18.4559 11.5428 19.7968 12.3938 21.1165C12.5391 21.3293 12.6844 21.5422 12.892 21.8189C13.7845 20.2012 14.6355 18.6687 15.4866 17.1362C15.6526 16.8382 15.7564 16.4338 16.2753 16.6041C16.732 16.7318 17.0018 16.9872 16.9603 17.4768C16.9188 18.2856 16.8565 19.1157 16.732 19.9032C16.6905 20.1374 16.4621 20.3928 16.2546 20.5418C15.2998 21.1378 14.9054 21.9466 15.1545 22.9257C15.362 23.7132 16.0885 24.3305 16.898 24.3731C17.8113 24.4369 18.5793 23.9261 18.8907 23.0534C19.2228 22.1381 18.9114 21.308 18.0189 20.6482C17.9359 20.5844 17.8528 20.5418 17.8113 20.4992C17.9151 19.4563 18.0189 18.4559 18.1434 17.3704C18.6831 17.7322 19.1813 18.0728 19.7209 18.4346C20.1568 16.9872 21.2362 16.668 22.2948 16.7531C22.7099 16.2848 23.0005 15.9656 23.2911 15.6463C23.5194 15.9443 23.7477 16.2635 24.0798 16.7105C24.4119 16.7105 24.9931 16.7105 25.3252 16.7105C25.6781 16.2635 25.9272 15.9443 26.1762 15.625C26.4253 15.923 26.6952 16.1997 26.9442 16.4977C26.9027 16.5615 26.8405 16.6254 26.7989 16.6892C27.3801 16.6892 27.9406 16.6892 28.3142 16.6892C28.6463 16.2423 28.8954 15.923 29.1237 15.625C29.3935 15.9443 29.6634 16.2423 29.9332 16.5615C29.8917 16.6254 29.8502 16.6892 29.8087 16.7531C30.1615 16.7531 30.5144 16.7318 30.888 16.7531C32.1542 16.8169 32.9637 17.6471 32.9844 18.9241C33.0052 21.6273 33.0052 24.3305 32.9844 27.0337C32.9844 28.2682 32.2579 28.9493 30.9918 28.9493C28.1066 28.9706 25.2007 28.9493 22.3155 28.9706C22.0457 28.9706 21.6721 29.1408 21.5268 29.375C20.5927 30.8011 19.202 31.4183 17.7283 30.9926C16.2961 30.5882 15.3828 29.3111 15.3205 27.5871C15.3205 27.5445 15.2998 27.4381 15.279 27.2678ZM18.8699 25.6714L18.8907 25.6927C18.8491 25.6501 18.8076 25.6076 18.7661 25.6076C17.6245 25.4586 16.5452 26.3738 16.4206 27.5871C16.2961 28.779 17.1886 29.8858 18.3717 30.0135C19.5964 30.1199 20.6342 29.2686 20.7588 28.0553C20.8833 26.7782 20.0945 25.7778 18.8699 25.6714ZM31.8428 19.3073C31.9258 18.7113 31.8013 18.1792 31.2409 18.0728C30.722 17.9876 30.0577 17.5619 29.6219 18.392C29.3935 18.839 28.9992 18.8177 28.6878 18.4133C28.2312 17.7961 27.1311 17.7748 26.6952 18.392C26.3631 18.839 26.031 18.839 25.7196 18.3707C25.3252 17.796 24.1421 17.7748 23.7477 18.3707C23.4571 18.7964 23.042 18.9029 22.8344 18.4559C22.4816 17.6896 21.9211 17.9663 21.4645 18.0728C20.8833 18.2217 20.8003 18.7326 20.9248 19.3073C24.5572 19.3073 28.1896 19.3073 31.8428 19.3073ZM24.0591 25.8204C24.0591 25.6927 24.0591 25.5863 24.0591 25.4586C23.7477 25.267 23.4364 24.9052 23.1458 24.9265C22.8967 24.9477 22.5023 25.416 22.5023 25.6714C22.5023 25.9268 22.9175 26.3738 23.1665 26.3951C23.4571 26.4164 23.7685 26.0333 24.0591 25.8204ZM27.5877 22.1594C27.1103 21.7976 26.8197 21.3932 26.5706 21.4358C26.2593 21.4783 26.0102 21.8827 25.7404 22.1381C26.0102 22.3936 26.2385 22.8193 26.5291 22.8831C26.7782 22.9044 27.0895 22.5 27.5877 22.1594ZM27.4009 25.8417C27.4009 25.7353 27.3801 25.6076 27.3801 25.5011C27.1103 25.3096 26.7782 24.9052 26.5499 24.9477C26.2385 25.0116 26.031 25.4373 25.7611 25.6927C26.0102 25.9481 26.2593 26.3738 26.5084 26.3951C26.7989 26.4164 27.0895 26.0333 27.4009 25.8417ZM30.7012 25.8417C30.7012 25.7353 30.7012 25.6076 30.7012 25.5011C30.4314 25.3096 30.1615 24.969 29.8709 24.9265C29.4143 24.8413 29.0407 25.2032 29.1445 25.6714C29.2067 25.9694 29.5803 26.3738 29.8294 26.3951C30.0785 26.4164 30.3899 26.0546 30.7012 25.8417ZM24.2874 22.1594C23.7892 21.7763 23.4986 21.3932 23.2288 21.4145C22.959 21.4358 22.5438 21.7763 22.4816 22.0743C22.357 22.5638 22.7099 22.9257 23.1873 22.8831C23.4779 22.8405 23.7685 22.5213 24.2874 22.1594ZM29.6841 23.0321C29.7879 23.0321 29.8917 23.0321 30.0162 23.0321C30.203 22.7341 30.5144 22.4574 30.5767 22.1594C30.6389 21.6699 30.2861 21.308 29.8294 21.4145C29.5596 21.4783 29.186 21.8827 29.1652 22.1807C29.1237 22.4361 29.4973 22.7341 29.6841 23.0321Z" fill="#1B56AE"/>
<path d="M19.0484 9.80245C19.0484 13.0372 16.3144 15.625 12.8916 15.625C9.42562 15.625 6.62703 13.017 6.64856 9.78223C6.67009 6.60813 9.46867 3.9799 12.87 4.00012C16.2714 4.00012 19.0269 6.58792 19.0484 9.80245Z" fill="#1B56AE"/>
<path d="M11.2969 17.1719C12.3579 17.1719 13.315 17.1719 14.3969 17.1719C13.8767 18.2052 13.419 19.1559 12.8573 20.2719C12.3163 19.1559 11.817 18.2052 11.2969 17.1719Z" fill="#1B56AE"/>
<path d="M18.9104 25.7031C18.984 25.9464 19.1166 26.2099 19.1166 26.4531C19.0871 27.1221 19.1755 27.6086 19.6614 27.9126C19.7645 27.9734 19.7793 28.3586 19.8234 28.6018C19.632 28.6626 19.4111 28.8653 19.2638 28.7843C18.4539 28.3586 18.071 27.2234 18.3802 26.1491C18.4391 25.9464 18.7484 25.8653 18.9251 25.7437C18.9398 25.7234 18.9104 25.7031 18.9104 25.7031Z" fill="#1B56AE"/>
</g>
<defs>
<clipPath id="clip0_180_168">
<rect width="36" height="36" fill="white"/>
</clipPath>
</defs>
</svg>
