<svg width="40" height="35" viewBox="0 0 40 35" fill="none" xmlns="http://www.w3.org/2000/svg">
<path fill-rule="evenodd" clip-rule="evenodd" d="M15.4028 2.56466C17.4205 -0.854885 22.5821 -0.854885 24.5972 2.56466L39.3146 27.5072C41.2927 30.8614 38.7528 35 34.72 35H5.28259C1.24717 35 -1.29277 30.8614 0.685377 27.5072L15.4028 2.56466ZM22.6375 27.4594C22.6375 28.1263 22.3596 28.7658 21.865 29.2373C21.3704 29.7089 20.6995 29.9738 20 29.9738C19.3005 29.9738 18.6296 29.7089 18.135 29.2373C17.6403 28.7658 17.3625 28.1263 17.3625 27.4594C17.3625 26.7926 17.6403 26.153 18.135 25.6815C18.6296 25.21 19.3005 24.945 20 24.945C20.6995 24.945 21.3704 25.21 21.865 25.6815C22.3596 26.153 22.6375 26.7926 22.6375 27.4594ZM20 7.34447C19.3005 7.34447 18.6296 7.60937 18.135 8.08091C17.6403 8.55245 17.3625 9.19198 17.3625 9.85884V17.4019C17.3625 18.0688 17.6403 18.7083 18.135 19.1799C18.6296 19.6514 19.3005 19.9163 20 19.9163C20.6995 19.9163 21.3704 19.6514 21.865 19.1799C22.3596 18.7083 22.6375 18.0688 22.6375 17.4019V9.85884C22.6375 9.19198 22.3596 8.55245 21.865 8.08091C21.3704 7.60937 20.6995 7.34447 20 7.34447Z" fill="white"/>
</svg>
