<svg width="56" height="56" viewBox="0 0 56 56" fill="none" xmlns="http://www.w3.org/2000/svg">
<rect width="56" height="56" rx="10" fill="#1855B0"/>
<path d="M18.5529 26.5938H34.6117C34.8247 26.5938 35.0289 26.6828 35.1795 26.8414C35.3301 27 35.4146 27.2151 35.4146 27.4394C35.4146 27.6637 35.3301 27.8788 35.1795 28.0374C35.0289 28.196 34.8247 28.285 34.6117 28.285H18.5529C18.34 28.285 18.1358 28.196 17.9852 28.0374C17.8346 27.8788 17.75 27.6637 17.75 27.4394C17.75 27.2151 17.8346 27 17.9852 26.8414C18.1358 26.6828 18.34 26.5938 18.5529 26.5938Z" fill="white"/>
<path d="M18.9392 27.4398L25.5969 34.0615C25.7476 34.2115 25.8323 34.4148 25.8323 34.6269C25.8323 34.839 25.7476 35.0423 25.5969 35.1923C25.4462 35.3422 25.2418 35.4265 25.0286 35.4265C24.8154 35.4265 24.611 35.3422 24.4603 35.1923L17.2358 28.0052C17.1611 27.931 17.1018 27.8429 17.0613 27.7459C17.0208 27.6488 17 27.5448 17 27.4398C17 27.3348 17.0208 27.2308 17.0613 27.1337C17.1018 27.0367 17.1611 26.9486 17.2358 26.8744L24.4603 19.6873C24.611 19.5374 24.8154 19.4531 25.0286 19.4531C25.2418 19.4531 25.4462 19.5374 25.5969 19.6873C25.7476 19.8373 25.8323 20.0406 25.8323 20.2527C25.8323 20.4648 25.7476 20.6681 25.5969 20.8181L18.9392 27.4398Z" fill="white"/>
<rect x="37.25" y="19" width="1.6875" height="18.5625" rx="0.5" fill="white"/>
</svg>
