<svg width="37" height="37" viewBox="0 0 37 37" fill="none" xmlns="http://www.w3.org/2000/svg">
<path d="M34.245 26.9746C31.6306 26.9746 29.0676 26.9746 26.4634 26.9746C26.4532 27.0878 26.4429 27.1907 26.4429 27.3039C26.4429 27.9215 26.412 28.5391 26.4429 29.1567C26.5355 30.9683 26.062 31.38 24.2916 31.2976C23.4579 31.2565 22.6241 31.2874 21.7492 31.2874C21.7492 31.8535 21.7492 32.3887 21.7492 32.924C21.7492 33.4489 21.7492 33.9738 21.7492 34.54C21.9139 34.54 22.058 34.54 22.1918 34.54C23.3344 34.54 24.4769 34.54 25.6194 34.54C26.3605 34.54 26.9163 35.0855 26.906 35.7854C26.8958 36.4751 26.3502 37 25.6194 37C20.7817 37 15.9337 37 11.0959 37C10.3548 37 9.79899 36.4545 9.80928 35.7545C9.81958 35.0649 10.3548 34.5503 11.0856 34.54C12.362 34.5297 13.628 34.54 14.9352 34.54C14.9352 33.4695 14.9352 32.4093 14.9352 31.2874C14.8117 31.2874 14.6779 31.2874 14.5441 31.2874C13.5765 31.2874 12.6193 31.2874 11.6517 31.2874C10.7665 31.2874 10.2725 30.7933 10.2725 29.8978C10.2725 28.9405 10.2725 27.973 10.2725 26.9643C10.0872 26.9643 9.94309 26.9643 9.7887 26.9643C7.03016 26.9643 4.26133 26.9643 1.50279 26.9643C0.452895 26.9643 0 26.5114 0 25.4718C0 24.1954 0 22.9294 0 21.6531C0 19.9959 1.00872 18.9872 2.65561 18.9872C4.38484 18.9872 6.12437 19.0077 7.8536 18.9769C9.15053 18.9563 10.3857 19.121 11.4871 19.9547C11.9399 19.4503 12.4546 19.0901 13.1236 19.018C13.3398 18.9974 13.556 18.9872 13.7721 18.9872C20.4111 18.9872 27.0502 18.9872 33.6995 18.9872C33.8642 18.9872 34.0288 18.9872 34.2347 18.9872C34.2347 18.8122 34.2347 18.6784 34.2347 18.5445C34.2347 14.6229 34.2347 10.7115 34.2347 6.78988C34.2347 5.1224 33.2466 4.13427 31.5791 4.13427C30.6939 4.13427 29.819 4.13427 28.8926 4.13427C29.0161 4.57687 29.1602 4.95772 29.2426 5.34885C29.7366 7.66479 29.2117 9.7234 27.6369 11.5041C27.1943 11.9982 26.7002 12.4614 26.2267 12.9348C25.5474 13.6142 24.9092 13.6142 24.2196 12.9451C24.1784 12.904 24.1269 12.8628 24.0652 12.801C23.8902 12.9657 23.7255 13.1304 23.5505 13.2745C23.0564 13.7068 22.3771 13.6965 21.9036 13.2539C21.4198 12.801 21.3684 12.1011 21.7801 11.5864C21.9345 11.4012 22.1095 11.2365 22.2948 11.0409C21.9242 10.7012 21.564 10.3719 21.1214 9.96014C21.039 10.0631 20.9361 10.2483 20.792 10.3822C20.2876 10.8659 19.5259 10.8762 19.0627 10.4027C18.5687 9.90867 18.5584 9.16757 19.0627 8.64263C19.1965 8.50882 19.3612 8.39559 19.6083 8.20003C19.3407 7.97358 19.1245 7.82948 18.9495 7.6442C18.7745 7.46922 18.6407 7.27365 18.4657 7.0575C18.0128 7.53098 17.6423 8.00446 17.0144 7.91182C16.7365 7.87065 16.438 7.73684 16.2424 7.55156C16.0572 7.37658 15.9234 7.06779 15.9028 6.81046C15.8822 6.55314 15.9645 6.25464 16.0983 6.0179C16.2219 5.78116 16.4586 5.59588 16.6542 5.36944C16.5409 5.24592 16.438 5.14299 16.3351 5.02977C15.9439 4.56658 15.9028 3.87694 16.3248 3.44464C16.9938 2.755 17.6526 2.04478 18.404 1.44778C20.8023 -0.456433 24.1372 -0.477019 26.5973 1.35515C26.8958 1.5713 27.1737 1.66394 27.5442 1.66394C29.1396 1.65364 30.7351 1.61247 32.3202 1.70511C34.667 1.83892 36.6227 3.949 36.705 6.29581C36.705 6.40904 36.7153 6.52226 36.7153 6.64578C36.7153 16.2904 36.7153 25.935 36.7153 35.5796C36.7153 36.0736 36.5815 36.4956 36.1595 36.7736C35.7684 37.0412 35.3361 37.0721 34.9243 36.8456C34.4612 36.5986 34.245 36.1971 34.245 35.6825C34.245 34.3341 34.245 32.9857 34.245 31.6373C34.245 30.1037 34.245 28.57 34.245 26.9746ZM34.245 21.4678C27.2972 21.4678 20.4008 21.4678 13.5045 21.4678C13.5045 22.4868 13.5045 23.4749 13.5045 24.4733C20.4317 24.4733 27.3281 24.4733 34.2347 24.4733C34.245 24.3498 34.2553 24.2469 34.2553 24.144C34.245 23.2588 34.245 22.3736 34.245 21.4678ZM10.9724 24.4631C11.1988 22.6618 10.1387 21.4472 8.36825 21.4472C6.54638 21.4472 4.72451 21.4472 2.90264 21.4472C2.76883 21.4472 2.62473 21.4472 2.47033 21.4472C2.47033 22.4765 2.47033 23.4543 2.47033 24.4631C5.32151 24.4631 8.13151 24.4631 10.9724 24.4631ZM19.2583 34.5194C19.2583 33.418 19.2583 32.3681 19.2583 31.3182C18.6407 31.3182 18.0437 31.3182 17.457 31.3182C17.457 32.399 17.457 33.4592 17.457 34.5194C18.0643 34.5194 18.651 34.5194 19.2583 34.5194Z" fill="white"/>
</svg>
