<svg width="29" height="29" viewBox="0 0 29 29" fill="none" xmlns="http://www.w3.org/2000/svg">
<path d="M1.82764 16.1457C1.87295 14.9903 2.37894 14.152 3.39847 13.6913C4.43311 13.2231 5.41488 13.4043 6.26071 14.1595C7.55212 15.315 8.82842 16.4931 10.1123 17.6561C10.3539 17.8752 10.5956 18.1017 10.8448 18.3207C11.2149 18.653 11.5396 18.6379 11.8719 18.2603C14.6511 15.1186 17.4302 11.977 20.2094 8.83531C22.0899 6.71318 23.9703 4.59104 25.8508 2.46136C26.0849 2.19703 26.3493 2.06865 26.7042 2.18193C26.9987 2.28011 27.2253 2.54443 27.2102 2.86162C27.2026 3.02776 27.1347 3.20901 27.044 3.3525C24.9144 6.79625 22.7771 10.2324 20.6399 13.6762C18.1854 17.6335 15.7235 21.5983 13.269 25.5556C12.8386 26.2504 12.2571 26.7186 11.4414 26.847C10.5125 26.9981 9.74222 26.696 9.15316 25.9785C7.04613 23.4108 4.94665 20.828 2.83962 18.2528C2.44691 17.7694 2.02399 17.3088 1.91071 16.6593C1.87295 16.4856 1.85029 16.3043 1.82764 16.1457Z" fill="#1855B0"/>
</svg>
