<svg width="26" height="21" viewBox="0 0 26 21" fill="none" xmlns="http://www.w3.org/2000/svg">
<path d="M22.6802 10.1436C23.0448 9.76431 23.3888 9.37121 23.7672 9.01949C24.4413 8.385 25.5145 8.66776 25.7829 9.54362C25.9204 9.9988 25.8379 10.4264 25.5077 10.7643C24.3725 11.916 23.2374 13.0609 22.0817 14.1919C21.607 14.654 20.8778 14.654 20.4031 14.1919C19.2542 13.0609 18.1122 11.9091 16.9839 10.7574C16.5093 10.2678 16.5368 9.50914 17.0183 9.04018C17.4999 8.56431 18.236 8.55052 18.7382 9.02638C19.1304 9.3988 19.5019 9.7919 19.8871 10.1712C19.949 10.2333 20.0109 10.2885 20.0935 10.3643C20.0935 9.92294 20.1348 9.51604 20.0866 9.11604C19.7014 5.82638 17.3623 3.26086 14.1221 2.61258C12.1201 2.21258 10.2489 2.61258 8.54966 3.75051C8.25384 3.94362 7.95802 4.09534 7.5934 4.06086C7.0568 4.00569 6.63715 3.64706 6.50644 3.14361C6.36885 2.62637 6.5546 2.12292 7.00177 1.80568C8.17816 0.971198 9.47839 0.40568 10.9025 0.157403C16.1034 -0.752943 20.9809 2.3643 22.2881 7.46776C22.4876 8.24017 22.5082 9.06087 22.6045 9.86087C22.6114 9.94363 22.6045 10.0264 22.6045 10.1022C22.632 10.116 22.6595 10.1298 22.6802 10.1436Z" fill="#EC671C"/>
<path d="M3.19911 10.819C2.82068 11.2051 2.4973 11.536 2.17391 11.86C1.63035 12.3978 0.859731 12.4185 0.357452 11.9152C-0.137947 11.4119 -0.117305 10.6535 0.412496 10.1158C1.48586 9.04029 2.55922 7.96478 3.63947 6.88928C4.20367 6.32395 4.92613 6.31706 5.49033 6.87549C6.58434 7.96478 7.67834 9.06097 8.76547 10.1641C9.18518 10.5846 9.28151 11.1155 9.05445 11.605C8.84116 12.06 8.37328 12.3426 7.871 12.3151C7.54073 12.3013 7.26551 12.1565 7.03157 11.9221C6.61186 11.4946 6.18527 11.0741 5.73115 10.626C5.73115 11.0672 5.68987 11.4809 5.73803 11.8807C6.11646 15.1762 8.48337 17.7615 11.731 18.3889C13.7332 18.775 15.6047 18.3751 17.3042 17.2376C17.6138 17.0307 17.9303 16.8791 18.3088 16.9342C18.8317 17.0101 19.2239 17.3755 19.3477 17.8787C19.4716 18.3682 19.2789 18.8715 18.8386 19.1886C17.6689 20.0228 16.3753 20.5813 14.958 20.8364C9.75627 21.7671 4.85044 18.6302 3.5225 13.5353C3.31608 12.7425 3.21976 11.929 3.21288 11.1086C3.21288 11.0396 3.20599 10.9638 3.19911 10.819Z" fill="#EC671C"/>
</svg>
