<svg width="26" height="21" viewBox="0 0 26 21" fill="none" xmlns="http://www.w3.org/2000/svg">
<path d="M22.6792 10.1436C23.0438 9.76431 23.3878 9.37121 23.7662 9.01949C24.4404 8.385 25.5136 8.66776 25.7819 9.54362C25.9195 9.9988 25.8369 10.4264 25.5067 10.7643C24.3716 11.916 23.2365 13.0609 22.0807 14.1919C21.606 14.654 20.8768 14.654 20.4021 14.1919C19.2532 13.0609 18.1112 11.9091 16.983 10.7574C16.5083 10.2678 16.5358 9.50914 17.0174 9.04018C17.4989 8.56431 18.235 8.55052 18.7372 9.02638C19.1294 9.3988 19.5009 9.7919 19.8861 10.1712C19.948 10.2333 20.01 10.2885 20.0925 10.3643C20.0925 9.92294 20.1338 9.51604 20.0856 9.11604C19.7004 5.82638 17.3613 3.26086 14.1211 2.61258C12.1192 2.21258 10.2479 2.61258 8.54868 3.75051C8.25286 3.94362 7.95704 4.09534 7.59243 4.06086C7.05583 4.00569 6.63618 3.64706 6.50546 3.14361C6.36787 2.62637 6.55362 2.12292 7.00079 1.80568C8.17719 0.971198 9.47742 0.40568 10.9015 0.157403C16.1024 -0.752943 20.98 2.3643 22.2871 7.46776C22.4866 8.24017 22.5072 9.06087 22.6035 9.86087C22.6104 9.94363 22.6035 10.0264 22.6035 10.1022C22.6311 10.116 22.6586 10.1298 22.6792 10.1436Z" fill="#EC671C"/>
<path d="M3.19911 10.819C2.82068 11.2051 2.4973 11.536 2.17391 11.86C1.63035 12.3978 0.859731 12.4185 0.357452 11.9152C-0.137947 11.4119 -0.117305 10.6535 0.412496 10.1158C1.48586 9.04029 2.55922 7.96478 3.63947 6.88928C4.20367 6.32395 4.92613 6.31706 5.49033 6.87549C6.58434 7.96478 7.67834 9.06097 8.76547 10.1641C9.18518 10.5846 9.28151 11.1155 9.05445 11.605C8.84116 12.06 8.37328 12.3426 7.871 12.3151C7.54073 12.3013 7.26551 12.1565 7.03157 11.9221C6.61186 11.4946 6.18527 11.0741 5.73115 10.626C5.73115 11.0672 5.68987 11.4809 5.73803 11.8807C6.11646 15.1762 8.48337 17.7615 11.731 18.3889C13.7332 18.775 15.6047 18.3751 17.3042 17.2376C17.6138 17.0307 17.9303 16.8791 18.3088 16.9342C18.8317 17.0101 19.2239 17.3755 19.3477 17.8787C19.4716 18.3682 19.2789 18.8715 18.8386 19.1886C17.6689 20.0228 16.3753 20.5813 14.958 20.8364C9.75627 21.7671 4.85044 18.6302 3.5225 13.5353C3.31608 12.7425 3.21976 11.929 3.21288 11.1086C3.21288 11.0396 3.20599 10.9638 3.19911 10.819Z" fill="#EC671C"/>
</svg>
