<svg width="37" height="37" viewBox="0 0 37 37" fill="none" xmlns="http://www.w3.org/2000/svg">
<rect width="37" height="37" fill="white"/>
<path d="M9.79221 27.2113V27.6112C9.79221 27.7583 9.79258 27.8508 9.79873 27.9247L9.80046 27.9454V27.9662C9.80046 28.3816 9.79953 28.7949 9.79862 29.2072C9.79679 30.0285 9.79496 30.846 9.80044 31.6691L9.80047 31.6724C9.80046 32.137 10.0949 32.4528 10.5504 32.4952L10.5593 32.4961L10.5593 32.4961C10.7532 32.5177 10.9427 32.4485 11.2073 32.2718C13.6063 30.6703 15.9973 29.077 18.3965 27.4836C18.6222 27.3332 18.9234 27.2352 19.2082 27.235M9.79221 27.2113L19.2089 27.735M9.79221 27.2113L9.40202 27.1234C8.40206 26.8983 7.53775 26.5075 6.79219 25.8892C5.3099 24.6586 4.53997 23.0954 4.52471 21.1853L4.52471 21.1846C4.49176 17.6467 4.49176 14.1088 4.52471 10.5709M9.79221 27.2113L4.52471 10.5709M19.2082 27.235C19.2084 27.235 19.2087 27.235 19.2089 27.235V27.735M19.2082 27.235C19.2078 27.235 19.2075 27.235 19.2072 27.235L19.2089 27.735M19.2082 27.235C20.3794 27.2309 21.5485 27.2309 22.7154 27.2309H22.717C23.8841 27.2309 25.0491 27.2309 26.214 27.2268L26.2157 27.2268C26.6609 27.2268 27.0907 27.21 27.4942 27.1292L27.4981 27.1284L27.4981 27.1285C30.4808 26.5555 32.492 24.0993 32.5 21.0155V21.016H33M19.2089 27.735C20.3795 27.7309 21.548 27.7309 22.7154 27.7309C23.8829 27.7309 25.0493 27.7309 26.2157 27.7268C26.6691 27.7268 27.139 27.7103 27.5924 27.6195C30.8155 27.0004 32.9918 24.3342 33 21.016M33 21.016V21.0136C33 17.5888 33 14.1558 32.9918 10.731M33 21.016L32.9918 10.731M26.2735 4.00367C22.8226 3.99817 19.3753 4 15.9269 4.00183C14.2022 4.00275 12.4772 4.00367 10.7513 4.00367C10.4051 4.00367 10.0506 4.02018 9.70438 4.0697C6.42354 4.56497 4.0577 7.23939 4.02473 10.5659C3.99176 14.107 3.99176 17.6482 4.02473 21.1893L26.2735 4.00367ZM26.2735 4.00367C29.5378 4.00367 32.1922 6.1333 32.8516 9.28648M26.2735 4.00367L32.8516 9.28648M4.52471 10.5709C4.5552 7.49452 6.73587 5.02439 9.77709 4.56439C10.0919 4.51949 10.4206 4.50367 10.7513 4.50367C12.4778 4.50367 14.203 4.50275 15.9279 4.50183C19.376 4.5 22.8223 4.49817 26.2727 4.50367H26.2735C29.3061 4.50367 31.7522 6.47222 32.3622 9.38883L32.3623 9.38935C32.4528 9.81978 32.4918 10.2715 32.4918 10.731L32.4918 10.7322C32.5 14.1563 32.5 17.5887 32.5 21.0136L32.5 21.0147L4.52471 10.5709ZM32.8516 9.28648C32.9505 9.75698 32.9918 10.244 32.9918 10.731M32.8516 9.28648L32.9918 10.731M26.4357 15.0527L26.4366 15.0527C27.3171 15.0413 28.067 14.3733 28.194 13.5293L28.194 13.5294L28.1949 13.523C28.3147 12.6505 27.8451 11.7852 26.9707 11.5236C26.6876 11.4368 26.4003 11.4197 26.1589 11.4196C22.7566 11.4141 19.3539 11.416 15.9518 11.4178C14.2511 11.4187 12.5505 11.4196 10.8502 11.4196C10.8431 11.4196 10.8322 11.4193 10.8182 11.419C10.7491 11.4172 10.6053 11.4136 10.4806 11.4319C10.1383 11.469 9.81165 11.5745 9.53183 11.7759C9.24549 11.982 9.03579 12.2688 8.90586 12.6207C8.44463 13.8581 9.36903 15.0584 10.6646 15.0693V15.0693L10.6704 15.0693C13.2754 15.061 15.8878 15.0528 18.5 15.0528H18.5112H18.5224H18.5336H18.5448H18.556H18.5672H18.5784H18.5896H18.6009H18.6121H18.6233H18.6345H18.6457H18.6569H18.6681H18.6793H18.6905H18.7017H18.7129H18.7241H18.7353H18.7465H18.7577H18.7689H18.7801H18.7914H18.8026H18.8138H18.825H18.8362H18.8474H18.8586H18.8698H18.881H18.8922H18.9034H18.9146H18.9258H18.937H18.9482H18.9594H18.9706H18.9818H18.9931H19.0043H19.0155H19.0267H19.0379H19.0491H19.0603H19.0715H19.0827H19.0939H19.1051H19.1163H19.1275H19.1387H19.1499H19.1611H19.1723H19.1836H19.1948H19.206H19.2172H19.2284H19.2396H19.2508H19.262H19.2732H19.2844H19.2956H19.3068H19.318H19.3292H19.3404H19.3516H19.3628H19.3741H19.3853H19.3965H19.4077H19.4189H19.4301H19.4413H19.4525H19.4637H19.4749H19.4861H19.4973H19.5085H19.5197H19.5309H19.5421H19.5533H19.5645H19.5758H19.587H19.5982H19.6094H19.6206H19.6318H19.643H19.6542H19.6654H19.6766H19.6878H19.699H19.7102H19.7214H19.7326H19.7438H19.755H19.7663H19.7775H19.7887H19.7999H19.8111H19.8223H19.8335H19.8447H19.8559H19.8671H19.8783H19.8895H19.9007H19.9119H19.9231H19.9343H19.9455H19.9567H19.968H19.9792H19.9904H20.0016H20.0128H20.024H20.0352H20.0464H20.0576H20.0688H20.08H20.0912H20.1024H20.1136H20.1248H20.136H20.1472H20.1585H20.1697H20.1809H20.1921H20.2033H20.2145H20.2257H20.2369H20.2481H20.2593H20.2705H20.2817H20.2929H20.3041H20.3153H20.3265H20.3377H20.349H20.3602H20.3714H20.3826H20.3938H20.405H20.4162H20.4274H20.4386H20.4498H20.461H20.4722H20.4834H20.4946H20.5058H20.517H20.5282H20.5394H20.5507H20.5619H20.5731H20.5843H20.5955H20.6067H20.6179H20.6291H20.6403H20.6515H20.6627H20.6739H20.6851H20.6963H20.7075H20.7187H20.7299H20.7412H20.7524H20.7636H20.7748H20.786H20.7972H20.8084H20.8196H20.8308H20.842H20.8532H20.8644H20.8756H20.8868H20.898H20.9092H20.9204H20.9317H20.9429H20.9541H20.9653H20.9765H20.9877H20.9989H21.0101H21.0213H21.0325H21.0437H21.0549H21.0661H21.0773H21.0885H21.0997H21.1109H21.1221H21.1334H21.1446H21.1558H21.167H21.1782H21.1894H21.2006H21.2118H21.223H21.2342H21.2454H21.2566H21.2678H21.279H21.2902H21.3014H21.3126H21.3239H21.3351H21.3463H21.3575H21.3687H21.3799H21.3911H21.4023H21.4135H21.4247H21.4359H21.4471H21.4583H21.4695H21.4807H21.4919H21.5031H21.5144H21.5256H21.5368H21.548H21.5592H21.5704H21.5816H21.5928H21.604H21.6152H21.6264H21.6376H21.6488H21.66H21.6712H21.6824H21.6936H21.7048H21.7161H21.7273H21.7385H21.7497H21.7609H21.7721H21.7833H21.7945H21.8057H21.8169H21.8281H21.8393H21.8505H21.8617H21.8729H21.8841H21.8953H21.9066H21.9178H21.929H21.9402H21.9514H21.9626H21.9738H21.985H21.9962H22.0074H22.0186H22.0298H22.041H22.0522H22.0634H22.0746H22.0858H22.0971H22.1083H22.1195H22.1307H22.1419H22.1531H22.1643H22.1755H22.1867H22.1979H22.2091H22.2203H22.2315H22.2427H22.2539H22.2651H22.2763H22.2875H22.2988H22.31H22.3212H22.3324H22.3436H22.3548H22.366H22.3772H22.3884H22.3996H22.4108H22.422H22.4332H22.4444H22.4556H22.4668H22.478H22.4893H22.5005H22.5117H22.5229H22.5341H22.5453H22.5565H22.5677H22.5789H22.5901H22.6013H22.6125H22.6237H22.6349H22.6461H22.6573H22.6685H22.6798H22.691H22.7022H22.7134H22.7246H22.7358H22.747H22.7582H22.7694H22.7806H22.7918H22.803H22.8142H22.8254H22.8366H22.8478H22.859H22.8702H22.8815H22.8927H22.9039H22.9151H22.9263H22.9375H22.9487H22.9599H22.9711H22.9823H22.9935H23.0047H23.0159H23.0271H23.0383H23.0495H23.0607H23.072H23.0832H23.0944H23.1056H23.1168H23.128H23.1392H23.1504H23.1616H23.1728H23.184H23.1952H23.2064H23.2176H23.2288H23.24H23.2512H23.2625H23.2737H23.2849H23.2961H23.3073H23.3185H23.3297H23.3409H23.3521H23.3633H23.3745H23.3857H23.3969H23.4081H23.4193H23.4305H23.4417H23.4529H23.4642H23.4754H23.4866H23.4978H23.509H23.5202H23.5314H23.5426H23.5538H23.565H23.5762H23.5874H23.5986H23.6098H23.621H23.6322H23.6434H23.6547H23.6659H23.6771H23.6883H23.6995H23.7107H23.7219H23.7331H23.7443H23.7555H23.7667H23.7779H23.7891H23.8003H23.8115H23.8227H23.8339H23.8451H23.8564H23.8676H23.8788H23.89H23.9012H23.9124H23.9236H23.9348H23.946H23.9572H23.9684H23.9796H23.9908H24.002H24.0132H24.0244H24.0356H24.0469H24.0581H24.0693H24.0805H24.0917H24.1029H24.1141H24.1253H24.1365H24.1477H24.1589H24.1701H24.1813H24.1925H24.2037H24.2149H24.2261H24.2374C24.4781 15.0528 24.7201 15.0537 24.9627 15.0546C25.4514 15.0564 25.9433 15.0583 26.4357 15.0527ZM18.4646 20.3273H18.467L23.8334 19.8191L23.8487 20.3188C23.8491 20.3188 23.8495 20.3188 23.8499 20.3188C24.98 20.2835 25.7467 19.2527 25.5449 18.1752L25.5449 18.1752L25.544 18.1705C25.4565 17.7272 25.2331 17.3485 24.8836 17.0849C24.5379 16.8242 24.1044 16.7024 23.6356 16.7024H23.6155H23.5955H23.5755H23.5554H23.5354H23.5153H23.4953H23.4752H23.4552H23.4351H23.4151H23.395H23.375H23.3549H23.3349H23.3148H23.2948H23.2748H23.2547H23.2347H23.2146H23.1946H23.1745H23.1545H23.1344H23.1144H23.0943H23.0743H23.0542H23.0342H23.0141H22.9941H22.974H22.954H22.9339H22.9139H22.8938H22.8738H22.8537H22.8337H22.8136H22.7936H22.7735H22.7534H22.7334H22.7133H22.6933H22.6732H22.6532H22.6331H22.6131H22.593H22.573H22.5529H22.5329H22.5128H22.4928H22.4727H22.4526H22.4326H22.4125H22.3925H22.3724H22.3524H22.3323H22.3123H22.2922H22.2721H22.2521H22.232H22.212H22.1919H22.1719H22.1518H22.1318H22.1117H22.0916H22.0716H22.0515H22.0315H22.0114H21.9914H21.9713H21.9512H21.9312H21.9111H21.8911H21.871H21.8509H21.8309H21.8108H21.7908H21.7707H21.7506H21.7306H21.7105H21.6905H21.6704H21.6503H21.6303H21.6102H21.5902H21.5701H21.55H21.53H21.5099H21.4899H21.4698H21.4497H21.4297H21.4096H21.3896H21.3695H21.3494H21.3294H21.3093H21.2893H21.2692H21.2491H21.2291H21.209H21.1889H21.1689H21.1488H21.1288H21.1087H21.0886H21.0686H21.0485H21.0284H21.0084H20.9883H20.9683H20.9482H20.9281H20.9081H20.888H20.8679H20.8479H20.8278H20.8077H20.7877H20.7676H20.7475H20.7275H20.7074H20.6874H20.6673H20.6472H20.6272H20.6071H20.587H20.567H20.5469H20.5268H20.5068H20.4867H20.4666H20.4466H20.4265H20.4064H20.3864H20.3663H20.3462H20.3262H20.3061H20.2861H20.266H20.2459H20.2259H20.2058H20.1857H20.1657H20.1456H20.1255H20.1055H20.0854H20.0653H20.0453H20.0252H20.0051H19.9851H19.965H19.9449H19.9249H19.9048H19.8847H19.8646H19.8446H19.8245H19.8044H19.7844H19.7643H19.7442H19.7242H19.7041H19.684H19.664H19.6439H19.6238H19.6038H19.5837H19.5636H19.5436H19.5235H19.5034H19.4834H19.4633H19.4432H19.4232H19.4031H19.383H19.363H19.3429H19.3228H19.3028H19.2827H19.2626H19.2425H19.2225H19.2024H19.1823H19.1623H19.1422H19.1221H19.1021H19.082H19.0619H19.0419H19.0218H19.0017H18.9817H18.9616H18.9415H18.9214H18.9014H18.8813H18.8612H18.8412H18.8211H18.801H18.781H18.7609H18.7408H18.7208H18.7007H18.6806H18.6606H18.6405H18.6204H18.6003H18.5803H18.5602H18.5401H18.5201H18.5H18.4799H18.4599H18.4398H18.4197H18.3997H18.3796H18.3595H18.3394H18.3194H18.2993H18.2792H18.2592H18.2391H18.219H18.199H18.1789H18.1588H18.1388H18.1187H18.0986H18.0786H18.0585H18.0384H18.0183H17.9983H17.9782H17.9581H17.9381H17.918H17.8979H17.8779H17.8578H17.8377H17.8177H17.7976H17.7775H17.7575H17.7374H17.7173H17.6973H17.6772H17.6571H17.637H17.617H17.5969H17.5768H17.5568H17.5367H17.5166H17.4966H17.4765H17.4564H17.4364H17.4163H17.3962H17.3762H17.3561H17.336H17.316H17.2959H17.2758H17.2558H17.2357H17.2156H17.1956H17.1755H17.1554H17.1354H17.1153H17.0952H17.0751H17.0551H17.035H17.0149H16.9949H16.9748H16.9547H16.9347H16.9146H16.8945H16.8745H16.8544H16.8343H16.8143H16.7942H16.7741H16.7541H16.734H16.714H16.6939H16.6738H16.6538H16.6337H16.6136H16.5936H16.5735H16.5534H16.5334H16.5133H16.4932H16.4732H16.4531H16.433H16.413H16.3929H16.3728H16.3528H16.3327H16.3126H16.2926H16.2725H16.2525H16.2324H16.2123H16.1923H16.1722H16.1521H16.1321H16.112H16.0919H16.0719H16.0518H16.0317H16.0117H15.9916H15.9716H15.9515H15.9314H15.9114H15.8913H15.8712H15.8512H15.8311H15.8111H15.791H15.7709H15.7509H15.7308H15.7107H15.6907H15.6706H15.6506H15.6305H15.6104H15.5904H15.5703H15.5503H15.5302H15.5101H15.4901H15.47H15.45H15.4299H15.4098H15.3898H15.3697H15.3497H15.3296H15.3095H15.2895H15.2694H15.2494H15.2293H15.2092H15.1892H15.1691H15.1491H15.129H15.1089H15.0889H15.0688H15.0488H15.0287H15.0087H14.9886H14.9685H14.9485H14.9284H14.9084H14.8883H14.8683H14.8482H14.8281H14.8081H14.788H14.768H14.7479H14.7279H14.7078H14.6877H14.6677H14.6476H14.6276H14.6075H14.5875H14.5674H14.5474H14.5273H14.5072H14.4872H14.4671H14.4471H14.427H14.407H14.3869H14.3669H14.3468H14.3268H14.3067H14.2867H14.2666H14.2466H14.2265H14.2065H14.1864H14.1663H14.1463H14.1262H14.1062H14.0861H14.0661H14.046H14.026H14.0059H13.9859H13.9658H13.9458H13.9257H13.9057H13.8856H13.8656H13.8455H13.8255H13.8054H13.7854H13.7653H13.7453H13.7252H13.7052H13.6852H13.6651H13.6451H13.625H13.605H13.5849H13.5649H13.5448H13.5248H13.5047H13.4847H13.4646H13.4446H13.4245H13.4045H13.3845H13.3644L13.3563 16.7024C13.2804 16.7024 13.1791 16.7024 13.0739 16.7125C12.3018 16.7722 11.6402 17.3287 11.4673 18.0903C11.1956 19.2814 12.049 20.3163 13.2775 20.3273V20.3273H13.282C13.861 20.3273 14.4392 20.3264 15.0167 20.3255C16.1688 20.3237 17.3179 20.3218 18.4646 20.3273Z" stroke="#324BA5"/>
</svg>
