<svg width="21" height="30" viewBox="0 0 21 30" fill="none" xmlns="http://www.w3.org/2000/svg">
<path d="M10.5 4.5V7.5C9.0148 7.49734 7.56225 7.93577 6.3265 8.7597C5.09076 9.58362 4.12746 10.756 3.55874 12.1281C2.99002 13.5002 2.84148 15.0102 3.13196 16.4669C3.42244 17.9235 4.13886 19.2611 5.19039 20.31L3.07554 22.425C1.60704 20.9565 0.606964 19.0856 0.201786 17.0487C-0.203392 15.0118 0.00452921 12.9004 0.799254 10.9817C1.59398 9.063 2.93981 7.42307 4.66654 6.26933C6.39327 5.11558 8.42334 4.49985 10.5 4.5ZM17.9245 7.575C19.393 9.04346 20.393 10.9144 20.7982 12.9513C21.2034 14.9882 20.9955 17.0996 20.2007 19.0183C19.406 20.937 18.0602 22.5769 16.3335 23.7307C14.6067 24.8844 12.5767 25.5002 10.5 25.5V22.5C11.9852 22.5027 13.4377 22.0642 14.6735 21.2403C15.9092 20.4164 16.8725 19.244 17.4413 17.8719C18.01 16.4998 18.1585 14.9898 17.868 13.5331C17.5776 12.0765 16.8611 10.7389 15.8096 9.69L17.9245 7.575ZM10.5 30L4.50044 24L10.5 18V30ZM10.5 12V0L16.4996 6L10.5 12Z" fill="#1C56AE"/>
</svg>
