<svg width="25" height="24" viewBox="0 0 25 24" fill="none" xmlns="http://www.w3.org/2000/svg">
<path d="M23.3073 4.70144L19.3488 0.753224C19.1099 0.513678 18.8259 0.323763 18.5129 0.194472C18.2 0.0651822 17.8645 -0.000914251 17.5258 9.55148e-06H3.43749C2.52581 9.55148e-06 1.65147 0.361233 1.00682 1.00421C0.362163 1.6472 0 2.51927 0 3.42858V20.5714C0 21.4807 0.362163 22.3528 1.00682 22.9958C1.65147 23.6388 2.52581 24 3.43749 24H20.6249C21.5366 24 22.411 23.6388 23.0556 22.9958C23.7003 22.3528 24.0624 21.4807 24.0624 20.5714V6.51965C24.0634 6.18183 23.9971 5.84719 23.8675 5.53509C23.7378 5.22299 23.5474 4.93964 23.3073 4.70144ZM4.72655 4.28572H14.1796C14.2936 4.28572 14.4029 4.33087 14.4835 4.41125C14.5641 4.49162 14.6093 4.60063 14.6093 4.71429V7.28572C14.6093 7.39939 14.5641 7.50839 14.4835 7.58877C14.4029 7.66914 14.2936 7.71429 14.1796 7.71429H4.72655C4.61259 7.71429 4.5033 7.66914 4.42271 7.58877C4.34213 7.50839 4.29686 7.39939 4.29686 7.28572V4.71429C4.29686 4.60063 4.34213 4.49162 4.42271 4.41125C4.5033 4.33087 4.61259 4.28572 4.72655 4.28572ZM12.2326 21.4238C11.3666 21.4643 10.5085 21.2426 9.77107 20.7878C9.03367 20.3329 8.45148 19.6662 8.10099 18.8752C7.7505 18.0843 7.6481 17.2061 7.80727 16.356C7.96643 15.5059 8.37969 14.7238 8.99277 14.1123C9.60584 13.5008 10.39 13.0886 11.2423 12.9299C12.0946 12.7711 12.9751 12.8733 13.7681 13.2228C14.5611 13.5724 15.2296 14.1531 15.6856 14.8886C16.1416 15.6241 16.3639 16.4799 16.3232 17.3438C16.2723 18.4095 15.825 19.418 15.0686 20.1724C14.3123 20.9268 13.3011 21.373 12.2326 21.4238Z" fill="white"/>
<path d="M12.0312 19.7132C13.4551 19.7132 14.6094 18.5619 14.6094 17.1417C14.6094 15.7216 13.4551 14.5703 12.0312 14.5703C10.6074 14.5703 9.45312 15.7216 9.45312 17.1417C9.45312 18.5619 10.6074 19.7132 12.0312 19.7132Z" fill="white"/>
</svg>
