<svg width="25" height="24" viewBox="0 0 25 24" fill="none" xmlns="http://www.w3.org/2000/svg">
<path d="M23.3541 4.70144L19.3956 0.753224C19.1568 0.513678 18.8727 0.323763 18.5598 0.194472C18.2469 0.0651822 17.9114 -0.000914251 17.5727 9.55148e-06H3.48436C2.57269 9.55148e-06 1.69835 0.361233 1.05369 1.00421C0.409038 1.6472 0.046875 2.51927 0.046875 3.42858V20.5714C0.046875 21.4807 0.409038 22.3528 1.05369 22.9958C1.69835 23.6388 2.57269 24 3.48436 24H20.6718C21.5835 24 22.4578 23.6388 23.1025 22.9958C23.7471 22.3528 24.1093 21.4807 24.1093 20.5714V6.51965C24.1102 6.18183 24.044 5.84719 23.9143 5.53509C23.7847 5.22299 23.5943 4.93964 23.3541 4.70144ZM4.77342 4.28572H14.2265C14.3405 4.28572 14.4498 4.33087 14.5304 4.41125C14.6109 4.49162 14.6562 4.60063 14.6562 4.71429V7.28572C14.6562 7.39939 14.6109 7.50839 14.5304 7.58877C14.4498 7.66914 14.3405 7.71429 14.2265 7.71429H4.77342C4.65946 7.71429 4.55017 7.66914 4.46959 7.58877C4.38901 7.50839 4.34374 7.39939 4.34374 7.28572V4.71429C4.34374 4.60063 4.38901 4.49162 4.46959 4.41125C4.55017 4.33087 4.65946 4.28572 4.77342 4.28572ZM12.2795 21.4238C11.4134 21.4643 10.5553 21.2426 9.81794 20.7878C9.08054 20.3329 8.49835 19.6662 8.14786 18.8752C7.79737 18.0843 7.69498 17.2061 7.85414 16.356C8.0133 15.5059 8.42657 14.7238 9.03964 14.1123C9.65271 13.5008 10.4369 13.0886 11.2892 12.9299C12.1415 12.7711 13.022 12.8733 13.815 13.2228C14.608 13.5724 15.2764 14.1531 15.7325 14.8886C16.1885 15.6241 16.4108 16.4799 16.3701 17.3438C16.3192 18.4095 15.8719 19.418 15.1155 20.1724C14.3591 20.9268 13.348 21.373 12.2795 21.4238Z" fill="#1855B0"/>
<path d="M12.0781 19.7132C13.502 19.7132 14.6562 18.5619 14.6562 17.1417C14.6562 15.7216 13.502 14.5703 12.0781 14.5703C10.6543 14.5703 9.5 15.7216 9.5 17.1417C9.5 18.5619 10.6543 19.7132 12.0781 19.7132Z" fill="#1855B0"/>
</svg>
