<svg width="43" height="43" viewBox="0 0 43 43" fill="none" xmlns="http://www.w3.org/2000/svg">
<g clip-path="url(#clip0_183_358)">
<path d="M20.2098 36.0025C19.6083 35.915 19.0012 35.8548 18.4051 35.74C15.4684 35.1767 12.9583 33.8095 10.8965 31.6439C8.81296 29.4564 7.57702 26.8423 7.17233 23.8564C6.40671 18.2236 9.19577 12.6564 14.1614 9.8564C14.9051 9.44078 15.7692 9.65406 16.1794 10.3595C16.595 11.0759 16.3708 11.9236 15.6216 12.3556C13.7348 13.4384 12.2583 14.9205 11.2411 16.84C7.83405 23.2658 11.4325 31.1736 18.5145 32.8361C24.7215 34.2908 30.863 30.2111 31.9512 23.9056C32.9739 17.983 29.0528 12.3009 23.1575 11.1634C22.9442 11.1252 22.7309 11.0869 22.4739 11.0431C22.4739 11.1798 22.4739 11.2837 22.4739 11.3931C22.4739 12.6509 22.4794 13.9033 22.4739 15.1611C22.4684 15.9541 22.0419 16.5228 21.3364 16.6978C20.538 16.8947 19.7012 16.3205 19.6028 15.5002C19.5864 15.3744 19.5864 15.2486 19.5864 15.1173C19.5864 13.3181 19.5864 11.5134 19.5864 9.71422C19.5864 8.62047 20.1606 8.05172 21.2598 8.06265C27.4887 8.11187 33.0231 12.4705 34.5544 18.5572C34.7512 19.3447 34.8223 20.165 34.9536 20.9744C34.9645 21.0509 34.9864 21.133 35.0028 21.2095C35.0028 21.7564 35.0028 22.3033 35.0028 22.8447C34.9864 22.9158 34.9645 22.9869 34.9591 23.0525C34.8114 25.1634 34.2208 27.1431 33.1489 28.9642C30.9395 32.7103 27.6856 34.9908 23.409 35.7837C22.895 35.8822 22.37 35.9314 21.8505 36.0025C21.3036 36.0025 20.7567 36.0025 20.2098 36.0025Z" fill="#178B3E"/>
<path d="M23.9153 22.4014C23.9153 23.4842 23.3466 24.3428 22.4935 24.7037C21.5474 25.103 20.4482 24.9389 19.7864 24.1733C19.1411 23.4295 18.5669 22.6147 18.031 21.7889C17.1614 20.4436 16.4396 19.0217 15.8161 17.5452C15.7177 17.3045 15.6575 17.0694 15.8708 16.867C16.0732 16.6702 16.2974 16.7248 16.5271 16.8233C18.5997 17.7092 20.5685 18.7702 22.3786 20.11C22.663 20.3178 22.931 20.553 23.188 20.7991C23.6747 21.2694 23.9044 21.8545 23.9153 22.4014Z" fill="#178B3E"/>
</g>
<defs>
<clipPath id="clip0_183_358">
<rect width="28" height="28" fill="white" transform="translate(7 8)"/>
</clipPath>
</defs>
</svg>
