<svg width="36" height="36" viewBox="0 0 36 36" fill="none" xmlns="http://www.w3.org/2000/svg">
<path d="M32.0986 30.5681C32.0766 30.6194 32.0546 30.6708 32.04 30.7221C31.6587 32.0347 30.1261 32.4306 29.1362 31.47C28.029 30.3921 26.9291 29.3142 25.8365 28.2217C25.3745 27.7597 24.9272 27.2757 24.502 26.8284C25.2719 26.0585 26.0712 25.2592 26.8777 24.4453C26.9144 24.482 26.9877 24.5406 27.0537 24.6066C28.4836 26.0072 29.9062 27.4151 31.3434 28.8083C31.688 29.1382 31.952 29.5049 32.0913 29.9595C32.0986 30.1648 32.0986 30.3628 32.0986 30.5681Z" fill="white"/>
<path d="M27.846 15.9084C27.868 22.4712 22.5518 27.8021 15.9377 27.8387C9.38227 27.8754 4.01473 22.5299 4.00007 15.9451C3.97807 9.36766 9.29428 4.02212 15.8864 4.00012C22.4711 3.97079 27.824 9.29433 27.846 15.9084ZM15.923 7.3145C11.1714 7.3145 7.32178 11.1568 7.31445 15.9158C7.30712 20.66 11.1641 24.5244 15.9084 24.5244C20.6526 24.5317 24.517 20.6747 24.517 15.9231C24.5243 11.1715 20.6746 7.3145 15.923 7.3145Z" fill="white"/>
</svg>
