<svg width="56" height="56" viewBox="0 0 56 56" fill="none" xmlns="http://www.w3.org/2000/svg">
<rect width="56" height="56" rx="10" fill="#1855B0"/>
<path d="M42.1031 40.5218C42.0803 40.5749 42.0575 40.6281 42.0423 40.6813C41.6474 42.0408 40.06 42.451 39.0346 41.456C37.8877 40.3395 36.7484 39.223 35.6167 38.0913C35.1382 37.6128 34.6749 37.1115 34.2344 36.6482C35.0319 35.8507 35.8598 35.0228 36.6953 34.1797C36.7332 34.2177 36.8092 34.2784 36.8775 34.3468C38.3586 35.7975 39.8321 37.2558 41.3208 38.6989C41.6778 39.0407 41.9512 39.4204 42.0955 39.8914C42.1031 40.104 42.1031 40.3091 42.1031 40.5218Z" fill="white"/>
<path d="M37.7 25.3349C37.7228 32.1327 32.2162 37.6545 25.3652 37.6925C18.575 37.7304 13.0153 32.1935 13.0001 25.3729C12.9773 18.5599 18.4839 13.0229 25.3121 13.0001C32.1326 12.9697 37.6772 18.4839 37.7 25.3349ZM25.35 16.4332C20.4283 16.4332 16.4407 20.4131 16.4331 25.3425C16.4256 30.2566 20.4207 34.2594 25.3348 34.2594C30.249 34.267 34.2517 30.2718 34.2517 25.3501C34.2593 20.4283 30.2718 16.4332 25.35 16.4332Z" fill="white"/>
</svg>
