<svg width="21" height="20" viewBox="0 0 21 20" fill="none" xmlns="http://www.w3.org/2000/svg">
<path d="M20.0668 18.975C20.0511 19.0117 20.0354 19.0483 20.0249 19.085C19.7526 20.0225 18.6579 20.3054 17.9508 19.6192C17.1599 18.8493 16.3743 18.0794 15.5939 17.2989C15.2639 16.969 14.9444 16.6233 14.6406 16.3038C15.1906 15.7538 15.7615 15.1829 16.3376 14.6016C16.3638 14.6278 16.4162 14.6697 16.4633 14.7168C17.4847 15.7172 18.5008 16.7228 19.5273 17.718C19.7735 17.9537 19.9621 18.2155 20.0616 18.5403C20.0668 18.6869 20.0668 18.8283 20.0668 18.975Z" fill="#292929"/>
<path d="M17.0329 8.50602C17.0486 13.1937 13.2513 17.0015 8.52693 17.0277C3.84448 17.0539 0.0105239 13.2356 4.85887e-05 8.53221C-0.0156643 3.83404 3.78163 0.0157991 8.49027 8.6158e-05C13.1937 -0.0208644 17.0172 3.78167 17.0329 8.50602ZM8.51646 2.3675C5.12246 2.3675 2.3727 5.11203 2.36746 8.51126C2.36223 11.9 5.11723 14.6603 8.50598 14.6603C11.8947 14.6655 14.655 11.9105 14.655 8.5165C14.6602 5.1225 11.9105 2.3675 8.51646 2.3675Z" fill="#292929"/>
</svg>
