<svg width="60" height="60" viewBox="0 0 60 60" fill="none" xmlns="http://www.w3.org/2000/svg">
<circle cx="30" cy="30" r="30" fill="#1C56AD"/>
<path d="M45 16.334C44.9507 16.4413 44.8828 16.5391 44.7994 16.6228L25.8339 35.583L31.1901 44.5115C31.285 44.6703 31.422 44.7997 31.5859 44.8855C31.7497 44.9714 31.9342 45.0102 32.1187 44.9977C32.3033 44.9853 32.4808 44.922 32.6317 44.815C32.7825 44.7079 32.9009 44.5612 32.9735 44.3911L45 16.334ZM24.4176 34.1668L15.4886 28.8069C15.3298 28.712 15.2003 28.5751 15.1145 28.4112C15.0286 28.2474 14.9898 28.063 15.0023 27.8784C15.0147 27.6938 15.078 27.5163 15.1851 27.3655C15.2921 27.2146 15.4388 27.0963 15.6089 27.0236L43.674 15C43.565 15.0495 43.4659 15.1181 43.3811 15.2026L24.4176 34.1668Z" fill="white"/>
</svg>
