<svg width="25" height="27" viewBox="0 0 25 27" fill="none" xmlns="http://www.w3.org/2000/svg">
<path d="M23.099 20.25H22.7656V19.575C22.7656 19.0379 22.5549 18.5229 22.1798 18.1431C21.8048 17.7633 21.2961 17.55 20.7656 17.55C20.2352 17.55 19.7265 17.7633 19.3514 18.1431C18.9763 18.5229 18.7656 19.0379 18.7656 19.575V20.25H18.4323C17.9903 20.25 17.5663 20.4278 17.2538 20.7443C16.9412 21.0607 16.7656 21.4899 16.7656 21.9375V25.3125C16.7656 25.7601 16.9412 26.1893 17.2538 26.5057C17.5663 26.8222 17.9903 27 18.4323 27H23.099C23.541 27 23.9649 26.8222 24.2775 26.5057C24.59 26.1893 24.7656 25.7601 24.7656 25.3125V21.9375C24.7656 21.4899 24.59 21.0607 24.2775 20.7443C23.9649 20.4278 23.541 20.25 23.099 20.25ZM20.7656 24.3C20.6338 24.3 20.5049 24.2604 20.3952 24.1862C20.2856 24.1121 20.2002 24.0067 20.1497 23.8833C20.0992 23.76 20.086 23.6243 20.1118 23.4933C20.1375 23.3624 20.201 23.2421 20.2942 23.1477C20.3875 23.0533 20.5062 22.989 20.6356 22.963C20.7649 22.9369 20.8989 22.9503 21.0207 23.0014C21.1426 23.0525 21.2467 23.139 21.3199 23.25C21.3932 23.361 21.4323 23.4915 21.4323 23.625C21.4323 23.804 21.3621 23.9757 21.237 24.1023C21.112 24.2289 20.9424 24.3 20.7656 24.3ZM21.4323 20.25H20.099V19.575C20.099 19.396 20.1692 19.2243 20.2942 19.0977C20.4192 18.9711 20.5888 18.9 20.7656 18.9C20.9424 18.9 21.112 18.9711 21.237 19.0977C21.3621 19.2243 21.4323 19.396 21.4323 19.575V20.25ZM17.4708 19.0598C17.5388 18.6078 17.6969 18.1746 17.9356 17.7865C18.1743 17.3985 18.4886 17.0637 18.8593 16.8027C19.23 16.5417 19.6493 16.3598 20.0916 16.2683C20.534 16.1767 20.9902 16.1773 21.4323 16.2701V8.1L13.4396 0H4.09896C3.2149 0 2.36706 0.355579 1.74194 0.988515C1.11681 1.62145 0.765625 2.47989 0.765625 3.375V23.625C0.765625 24.5201 1.11681 25.3785 1.74194 26.0115C2.36706 26.6444 3.2149 27 4.09896 27H15.9396C15.6084 26.5012 15.4317 25.9136 15.4323 25.3125V21.9375C15.4331 21.3024 15.63 20.6835 15.9956 20.1675C16.3611 19.6515 16.877 19.2641 17.4708 19.0598ZM6.76563 12.825H10.099C10.2758 12.825 10.4453 12.8961 10.5704 13.0227C10.6954 13.1493 10.7656 13.321 10.7656 13.5C10.7656 13.679 10.6954 13.8507 10.5704 13.9773C10.4453 14.1039 10.2758 14.175 10.099 14.175H6.76563C6.58881 14.175 6.41925 14.1039 6.29422 13.9773C6.1692 13.8507 6.09896 13.679 6.09896 13.5C6.09896 13.321 6.1692 13.1493 6.29422 13.0227C6.41925 12.8961 6.58881 12.825 6.76563 12.825ZM14.0792 19.575H6.76563C6.58881 19.575 6.41925 19.5039 6.29422 19.3773C6.1692 19.2507 6.09896 19.079 6.09896 18.9C6.09896 18.721 6.1692 18.5493 6.29422 18.4227C6.41925 18.2961 6.58881 18.225 6.76563 18.225H14.0792C14.256 18.225 14.4255 18.2961 14.5506 18.4227C14.6756 18.5493 14.7458 18.721 14.7458 18.9C14.7458 19.079 14.6756 19.2507 14.5506 19.3773C14.4255 19.5039 14.256 19.575 14.0792 19.575ZM14.099 16.875H6.76563C6.58881 16.875 6.41925 16.8039 6.29422 16.6773C6.1692 16.5507 6.09896 16.379 6.09896 16.2C6.09896 16.021 6.1692 15.8493 6.29422 15.7227C6.41925 15.5961 6.58881 15.525 6.76563 15.525H14.099C14.2758 15.525 14.4453 15.5961 14.5704 15.7227C14.6954 15.8493 14.7656 16.021 14.7656 16.2C14.7656 16.379 14.6954 16.5507 14.5704 16.6773C14.4453 16.8039 14.2758 16.875 14.099 16.875ZM12.7656 5.4V1.35L20.099 8.775H16.099C15.2149 8.775 14.3671 8.41942 13.7419 7.78649C13.1168 7.15355 12.7656 6.29511 12.7656 5.4Z" fill="white"/>
</svg>
