<svg width="27" height="27" viewBox="0 0 27 27" fill="none" xmlns="http://www.w3.org/2000/svg">
<circle cx="13.5" cy="13.5" r="13" fill="white" stroke="#1D57AD"/>
<circle cx="13.5" cy="13.5" r="11.25" fill="#1D57AD"/>
<path d="M12.798 16.172C12.798 17.712 11.566 19.098 9.34 19.098C7.31 19.098 5.742 18.034 5.714 16.186H7.814C7.87 16.97 8.388 17.488 9.298 17.488C10.222 17.488 10.768 16.998 10.768 16.298C10.768 14.184 5.728 15.458 5.742 11.916C5.742 10.152 7.17 9.088 9.186 9.088C11.188 9.088 12.56 10.11 12.686 11.874H10.53C10.488 11.23 9.97 10.726 9.13 10.712C8.36 10.684 7.786 11.062 7.786 11.86C7.786 13.82 12.798 12.728 12.798 16.172ZM19.3973 12.266C19.3973 11.398 18.9073 10.852 17.8153 10.852H16.1773V13.722H17.8153C18.9073 13.722 19.3973 13.148 19.3973 12.266ZM14.2173 9.228H17.8853C20.2373 9.228 21.4133 10.586 21.4133 12.224C21.4133 13.414 20.7553 14.618 19.1873 15.038L21.5253 19H19.2573L17.1013 15.192H16.1773V19H14.2173V9.228Z" fill="white"/>
</svg>
