<svg width="43" height="43" viewBox="0 0 43 43" fill="none" xmlns="http://www.w3.org/2000/svg">
<circle cx="21" cy="21" r="17.5" stroke="#379E1E"/>
<circle cx="21" cy="21" r="15" fill="#379E1E"/>
<path d="M15.96 27.112C15.1813 27.112 14.4773 26.9787 13.848 26.712C13.2293 26.4453 12.7387 26.0613 12.376 25.56C12.0133 25.0587 11.8267 24.4667 11.816 23.784H14.216C14.248 24.2427 14.408 24.6053 14.696 24.872C14.9947 25.1387 15.4 25.272 15.912 25.272C16.4347 25.272 16.8453 25.1493 17.144 24.904C17.4427 24.648 17.592 24.3173 17.592 23.912C17.592 23.5813 17.4907 23.3093 17.288 23.096C17.0853 22.8827 16.8293 22.7173 16.52 22.6C16.2213 22.472 15.8053 22.3333 15.272 22.184C14.5467 21.9707 13.9547 21.7627 13.496 21.56C13.048 21.3467 12.6587 21.032 12.328 20.616C12.008 20.1893 11.848 19.624 11.848 18.92C11.848 18.2587 12.0133 17.6827 12.344 17.192C12.6747 16.7013 13.1387 16.328 13.736 16.072C14.3333 15.8053 15.016 15.672 15.784 15.672C16.936 15.672 17.8693 15.9547 18.584 16.52C19.3093 17.0747 19.7093 17.8533 19.784 18.856H17.32C17.2987 18.472 17.1333 18.1573 16.824 17.912C16.5253 17.656 16.1253 17.528 15.624 17.528C15.1867 17.528 14.8347 17.64 14.568 17.864C14.312 18.088 14.184 18.4133 14.184 18.84C14.184 19.1387 14.28 19.3893 14.472 19.592C14.6747 19.784 14.92 19.944 15.208 20.072C15.5067 20.1893 15.9227 20.328 16.456 20.488C17.1813 20.7013 17.7733 20.9147 18.232 21.128C18.6907 21.3413 19.0853 21.6613 19.416 22.088C19.7467 22.5147 19.912 23.0747 19.912 23.768C19.912 24.3653 19.7573 24.92 19.448 25.432C19.1387 25.944 18.6853 26.3547 18.088 26.664C17.4907 26.9627 16.7813 27.112 15.96 27.112ZM27.294 27L24.83 22.648H23.774V27H21.534V15.832H25.726C26.59 15.832 27.326 15.9867 27.934 16.296C28.542 16.5947 28.9953 17.0053 29.294 17.528C29.6033 18.04 29.758 18.616 29.758 19.256C29.758 19.992 29.5447 20.6587 29.118 21.256C28.6913 21.8427 28.0567 22.248 27.214 22.472L29.886 27H27.294ZM23.774 20.968H25.646C26.254 20.968 26.7073 20.824 27.006 20.536C27.3047 20.2373 27.454 19.8267 27.454 19.304C27.454 18.792 27.3047 18.3973 27.006 18.12C26.7073 17.832 26.254 17.688 25.646 17.688H23.774V20.968Z" fill="white"/>
</svg>
