<svg width="25" height="24" viewBox="0 0 25 24" fill="none" xmlns="http://www.w3.org/2000/svg">
<path d="M5.77288 15.3939L4.47601 22.9616C4.35413 23.6704 5.03851 24.2256 5.64163 23.9088L5.40913 23.4662M5.77288 15.3939L5.40913 23.4662M5.77288 15.3939L0.268208 10.0245C-0.245853 9.52208 0.0213334 8.60371 0.710394 8.50452L5.77288 15.3939ZM5.40913 23.4662L12.2649 19.8569L12.4978 19.7343L12.7307 19.8568L19.5913 23.4662C19.6975 23.5219 19.8056 23.507 19.8983 23.4317C19.994 23.3539 20.0609 23.2166 20.0316 23.0464L20.0316 23.0461L18.7347 15.4783L18.6903 15.2194L18.8784 15.036L24.3815 9.66659L24.3817 9.66635C24.4909 9.55997 24.5256 9.4032 24.4819 9.25269C24.4384 9.10276 24.3366 9.01638 24.2188 8.99942L24.218 8.99931L16.5649 7.88574L16.3047 7.84788L16.1884 7.61202L12.776 0.689186C12.7072 0.549719 12.597 0.5 12.5002 0.5C12.4034 0.5 12.2932 0.549719 12.2244 0.689186L8.81197 7.61202L8.69571 7.84788L8.43549 7.88574L0.782388 8.99931L0.78164 8.99942C0.663848 9.01637 0.561925 9.10277 0.518226 9.25297C0.474361 9.40375 0.50902 9.56048 0.617402 9.66661C0.617493 9.6667 0.617585 9.66679 0.617676 9.66688L6.12201 15.036L6.31007 15.2194L6.2657 15.4783L4.96882 23.0461L4.96878 23.0464C4.9395 23.2166 5.00642 23.3539 5.10214 23.4317C5.19477 23.5069 5.3027 23.5219 5.40882 23.4663C5.40893 23.4663 5.40903 23.4662 5.40913 23.4662Z" stroke="#FFDB1F"/>
</svg>
