<svg width="21" height="26" viewBox="0 0 21 26" fill="none" xmlns="http://www.w3.org/2000/svg">
<path d="M17.4234 25.9976C12.9199 25.9976 8.41645 25.9976 3.91299 25.9976C3.85195 25.9772 3.79091 25.9569 3.72308 25.9433C1.93933 25.6449 0.569301 24.0714 0.562519 22.2741C0.548954 16.916 0.555737 11.5648 0.562519 6.20675C0.562519 5.18262 0.976241 4.30092 1.70873 3.58199C1.74943 3.5413 1.80368 3.50738 1.87829 3.45312C1.87829 3.76511 1.87151 4.03641 1.87829 4.30092C1.92577 6.24744 3.57387 7.94303 5.5204 7.96337C8.94548 7.9905 12.3773 7.9905 15.8024 7.96337C17.5862 7.94981 19.1732 6.49839 19.397 4.7282C19.4513 4.31448 19.4445 3.89398 19.4716 3.45312C19.5463 3.51417 19.6005 3.56164 19.6548 3.6159C20.3669 4.34161 20.7603 5.21653 20.7603 6.23388C20.7671 11.5716 20.7671 16.9093 20.7603 22.247C20.7603 23.9222 19.6073 25.394 17.9931 25.8484C17.8168 25.9026 17.6201 25.9501 17.4234 25.9976ZM5.59501 19.7918C5.73065 19.9817 5.83917 20.1377 5.95447 20.2936C6.24611 20.687 6.70053 20.7752 7.05999 20.5107C7.41267 20.253 7.46693 19.8053 7.19564 19.4052C7.01929 19.1474 6.83617 18.8897 6.64627 18.6455C6.5581 18.5302 6.54453 18.4421 6.63948 18.3132C6.83617 18.0623 7.0193 17.7977 7.20242 17.5332C7.47371 17.1399 7.40589 16.6854 7.04642 16.4345C6.68696 16.1836 6.23933 16.2717 5.96125 16.6583C5.84595 16.8211 5.72387 16.9771 5.59501 17.1602C5.45258 16.9635 5.33728 16.8007 5.22198 16.6448C4.9439 16.2717 4.4827 16.1903 4.13002 16.4548C3.78412 16.7058 3.72308 17.1534 3.98759 17.54C4.1775 17.8113 4.38097 18.069 4.55731 18.3471C4.598 18.4149 4.598 18.5574 4.55731 18.6252C4.37419 18.9101 4.16393 19.1746 3.97403 19.4526C3.72308 19.8257 3.79091 20.2597 4.13002 20.5107C4.47592 20.7684 4.92356 20.7006 5.20841 20.3411C5.32371 20.1716 5.44579 19.9952 5.59501 19.7918ZM5.55431 12.4194C5.43901 12.2023 5.35762 12.0192 5.25589 11.8429C5.03886 11.4563 4.61157 11.3138 4.23854 11.5037C3.86551 11.6869 3.70952 12.1277 3.89942 12.5211C4.16393 13.0705 4.42845 13.6131 4.7133 14.1489C4.97781 14.6508 5.59501 14.7254 5.96125 14.2981C6.64627 13.4978 7.31772 12.6839 7.99595 11.87C8.15194 11.6801 8.21977 11.4563 8.15873 11.2053C8.08412 10.9001 7.88743 10.7034 7.57545 10.6356C7.26346 10.5678 7.01251 10.6763 6.80904 10.9137C6.4021 11.402 5.98838 11.8971 5.55431 12.4194ZM14.5273 11.8293C13.8152 11.8293 13.1098 11.8293 12.3977 11.8293C11.8822 11.8293 11.5363 12.1345 11.5295 12.5821C11.5295 13.0298 11.8754 13.3485 12.3841 13.3485C13.8152 13.3485 15.2395 13.3485 16.6705 13.3485C17.1792 13.3485 17.5251 13.0298 17.5251 12.5821C17.5183 12.1413 17.1792 11.8293 16.6841 11.8293C15.9652 11.8293 15.2463 11.8293 14.5273 11.8293ZM14.5205 19.2966C15.2395 19.2966 15.9584 19.2966 16.6773 19.2966C17.1792 19.2966 17.5183 18.9982 17.5251 18.5506C17.5319 18.103 17.186 17.7706 16.6773 17.7706C15.2395 17.7706 13.8016 17.7706 12.3706 17.7706C11.8822 17.7706 11.5363 18.0962 11.5363 18.5302C11.5363 18.9779 11.8754 19.2899 12.3706 19.2899C13.0827 19.3034 13.8016 19.2966 14.5205 19.2966Z" fill="white"/>
<path d="M10.6698 6.45339C9.06234 6.45339 7.45493 6.45339 5.84752 6.45339C4.36897 6.45339 3.40588 5.49029 3.41266 4.00496C3.41266 3.29282 3.37875 2.58068 3.46692 1.87531C3.60257 0.817271 4.55209 0.0169558 5.6237 0.0101735C8.99452 -0.00339116 12.3586 -0.00339116 15.7294 0.0101735C16.801 0.0169558 17.7641 0.817271 17.8794 1.87531C17.9743 2.75023 17.9811 3.65228 17.8861 4.5272C17.7641 5.65985 16.7942 6.43982 15.6548 6.4466C13.9863 6.46017 12.3314 6.45339 10.6698 6.45339Z" fill="white"/>
</svg>
