<svg width="43" height="43" viewBox="0 0 43 43" fill="none" xmlns="http://www.w3.org/2000/svg">
<path d="M28.3966 29.2128C27.853 28.8218 27.3094 28.7073 26.68 28.8885C26.68 28.7264 26.68 28.6024 26.68 28.4689C26.68 27.458 26.6895 26.4471 26.68 25.4362C26.6704 24.4634 25.9075 23.71 24.9538 23.7195C24.0192 23.7291 23.2658 24.4729 23.2658 25.4362C23.2562 27.582 23.2658 29.7182 23.2658 31.864C23.2658 31.988 23.2658 32.1215 23.2658 32.2455C22.8461 32.3695 22.5409 32.2646 22.3025 31.9117C22.0164 31.5016 21.654 31.1488 21.139 31.0152C20.2235 30.7768 19.4224 31.1678 19.0504 32.0452C19.0218 32.1215 18.9837 32.1978 18.9551 32.2741C17.6771 32.2741 16.3992 32.3027 15.1308 32.2646C14.282 32.236 13.6049 31.5016 13.5667 30.6433C13.5572 30.5384 13.5667 30.4335 13.5667 30.3191C13.5667 22.8707 13.5667 15.4224 13.5667 7.97414C13.5667 6.66758 14.2343 6 15.5409 6C19.1935 6 22.8461 6 26.4988 6C27.7195 6 28.4157 6.68666 28.4157 7.8883C28.4157 14.8598 28.4157 21.8312 28.4157 28.8027C28.3966 28.9362 28.3966 29.0411 28.3966 29.2128ZM19.2603 13.4388C19.2603 14.0014 19.2603 14.526 19.2603 15.0505C19.2603 15.5178 19.4701 15.7181 19.9374 15.7276C20.605 15.7372 21.2725 15.7276 21.9306 15.7276C22.4933 15.7276 22.6745 15.5369 22.684 14.9742C22.684 14.4688 22.684 13.9633 22.684 13.4388C23.2371 13.4388 23.7331 13.4388 24.229 13.4388C24.763 13.4388 24.9633 13.248 24.9633 12.714C24.9633 12.3325 24.9633 11.951 24.9633 11.5695C24.9824 9.94827 25.0301 9.98642 23.4183 10.0055C23.1704 10.0055 22.932 10.0055 22.6745 10.0055C22.6745 9.43328 22.6745 8.92782 22.6745 8.41283C22.6745 7.92645 22.4647 7.72618 21.9783 7.71664C21.3107 7.71664 20.6431 7.71664 19.9851 7.71664C19.451 7.71664 19.2603 7.90738 19.2507 8.45098C19.2507 8.95643 19.2507 9.46189 19.2507 10.0055C18.688 10.0055 18.1731 10.0055 17.6485 10.0055C17.1812 10.0055 16.9714 10.2153 16.9619 10.6731C16.9523 11.3597 16.9619 12.0559 16.9619 12.7426C16.9619 13.229 17.1717 13.4292 17.6676 13.4292C18.1921 13.4483 18.6976 13.4388 19.2603 13.4388ZM26.6609 20.2863C26.6609 19.8857 26.6609 19.5328 26.6609 19.1704C23.6186 19.1704 20.605 19.1704 17.5722 19.1704C17.5722 19.5519 17.5722 19.9048 17.5722 20.2863C20.605 20.2863 23.6186 20.2863 26.6609 20.2863ZM26.6704 21.4593C23.6186 21.4593 20.5954 21.4593 17.5818 21.4593C17.5818 21.8408 17.5818 22.2032 17.5818 22.556C20.624 22.556 23.6377 22.556 26.6704 22.556C26.6704 22.1936 26.6704 21.8408 26.6704 21.4593ZM17.5627 24.8353C19.0981 24.8353 20.5954 24.8353 22.0832 24.8353C22.0832 24.4443 22.0832 24.0915 22.0832 23.7386C20.5573 23.7386 19.0695 23.7386 17.5627 23.7386C17.5627 24.1105 17.5627 24.4634 17.5627 24.8353ZM22.1023 26.037C20.5668 26.037 19.0695 26.037 17.5818 26.037C17.5818 26.4185 17.5818 26.7809 17.5818 27.1337C19.1077 27.1337 20.5954 27.1337 22.1023 27.1337C22.1023 26.7618 22.1023 26.4089 22.1023 26.037ZM17.5627 29.4131C19.0886 29.4131 20.5954 29.4131 22.0832 29.4131C22.0832 29.0316 22.0832 28.6692 22.0832 28.3163C20.5573 28.3163 19.0695 28.3163 17.5627 28.3163C17.5627 28.6787 17.5627 29.0316 17.5627 29.4131ZM24.3816 16.8911C23.2467 16.8911 22.1213 16.8911 20.996 16.8911C20.996 17.2726 20.996 17.635 20.996 17.9879C22.1404 17.9879 23.2658 17.9879 24.3816 17.9879C24.3816 17.6064 24.3816 17.2535 24.3816 16.8911ZM17.5532 17.9879C18.3256 17.9879 19.0695 17.9879 19.8039 17.9879C19.8039 17.6064 19.8039 17.244 19.8039 16.9007C19.0409 16.9007 18.297 16.9007 17.5532 16.9007C17.5532 17.2726 17.5532 17.6159 17.5532 17.9879ZM16.3897 19.18C15.9986 19.18 15.6362 19.18 15.2834 19.18C15.2834 19.5615 15.2834 19.9048 15.2834 20.2767C15.6649 20.2767 16.0177 20.2767 16.3897 20.2767C16.3897 19.9048 16.3897 19.5519 16.3897 19.18ZM15.2834 23.7291C15.2834 24.1201 15.2834 24.4825 15.2834 24.8353C15.6649 24.8353 16.0273 24.8353 16.3706 24.8353C16.3706 24.4443 16.3706 24.0915 16.3706 23.7291C16.0082 23.7291 15.6649 23.7291 15.2834 23.7291ZM15.2834 26.0179C15.2834 26.4089 15.2834 26.7618 15.2834 27.1242C15.6649 27.1242 16.0177 27.1242 16.3897 27.1242C16.3897 26.7427 16.3897 26.3803 16.3897 26.0179C16.0082 26.0179 15.6553 26.0179 15.2834 26.0179ZM15.2834 29.4131C15.6744 29.4131 16.0273 29.4131 16.3801 29.4131C16.3801 29.0316 16.3801 28.6692 16.3801 28.3163C15.9986 28.3163 15.6458 28.3163 15.2834 28.3163C15.2834 28.6787 15.2834 29.0316 15.2834 29.4131ZM15.2738 22.556C15.6649 22.556 16.0273 22.556 16.3801 22.556C16.3801 22.1746 16.3801 21.8312 16.3801 21.4593C15.9986 21.4593 15.6458 21.4593 15.2738 21.4593C15.2738 21.8312 15.2738 22.1841 15.2738 22.556Z" fill="#848484"/>
<path d="M12.3911 8.30893C12.3911 9.65363 12.3911 10.9602 12.3911 12.2858C12.0287 12.2858 11.6758 12.2858 11.2657 12.2858C11.2657 11.9711 11.2657 11.6468 11.2657 11.313C11.2657 10.7981 11.0655 10.5978 10.56 10.5882C10.4742 10.5882 10.3979 10.5882 10.312 10.5882C9.74937 10.5882 9.55863 10.779 9.55863 11.3321C9.55863 11.6373 9.55863 11.952 9.55863 12.3049C9.19623 12.3049 8.86244 12.3049 8.51911 12.3049C8.0518 12.3144 7.85153 12.5147 7.84199 12.982C7.84199 13.1251 7.83246 13.2681 7.84199 13.4112C7.86107 13.7926 8.07088 14.0024 8.45235 14.012C8.80522 14.0215 9.15808 14.012 9.55863 14.012C9.55863 14.3839 9.55863 14.7273 9.55863 15.061C9.56817 15.5093 9.77798 15.7095 10.2167 15.7191C10.3693 15.7191 10.5219 15.7286 10.684 15.7191C11.0464 15.7 11.2562 15.4902 11.2657 15.1278C11.2753 14.7749 11.2657 14.4125 11.2657 14.0311C11.6377 14.0311 12.0001 14.0311 12.3911 14.0311C12.3911 19.5243 12.3911 25.0271 12.3911 30.568C12.2766 30.568 12.1717 30.568 12.0764 30.568C10.3311 30.568 8.57633 30.568 6.83108 30.568C5.71527 30.568 5 29.8527 5 28.7465C5 22.538 5 16.3294 5 10.1209C5 9.02419 5.7248 8.30893 6.81201 8.30893C8.64309 8.29939 10.5028 8.30893 12.3911 8.30893ZM9.00549 17.4453C9.00549 17.8172 9.00549 18.1891 9.00549 18.5515C9.75891 18.5515 10.5028 18.5515 11.2371 18.5515C11.2371 18.1701 11.2371 17.8077 11.2371 17.4453C10.4837 17.4453 9.75891 17.4453 9.00549 17.4453ZM11.2562 19.7532C10.4837 19.7532 9.73983 19.7532 9.00549 19.7532C9.00549 20.1347 9.00549 20.4971 9.00549 20.8404C9.76844 20.8404 10.5123 20.8404 11.2562 20.8404C11.2562 20.4685 11.2562 20.1251 11.2562 19.7532ZM9.00549 22.023C9.00549 22.414 9.00549 22.7764 9.00549 23.1292C9.76844 23.1292 10.4932 23.1292 11.2467 23.1292C11.2467 22.7478 11.2467 22.3949 11.2467 22.023C10.4932 22.023 9.75891 22.023 9.00549 22.023ZM11.2467 25.4181C11.2467 25.0271 11.2467 24.6742 11.2467 24.3118C10.4837 24.3118 9.74937 24.3118 9.00549 24.3118C9.00549 24.6933 9.00549 25.0557 9.00549 25.4181C9.75891 25.4181 10.4932 25.4181 11.2467 25.4181ZM11.2371 27.707C11.2371 27.3159 11.2371 26.9631 11.2371 26.6102C10.4742 26.6102 9.7303 26.6102 8.99596 26.6102C8.99596 26.9917 8.99596 27.3445 8.99596 27.707C9.74937 27.707 10.4837 27.707 11.2371 27.707ZM7.81338 18.5706C7.81338 18.1796 7.81338 17.8267 7.81338 17.4643C7.43191 17.4643 7.0695 17.4643 6.71664 17.4643C6.71664 17.8458 6.71664 18.2082 6.71664 18.5706C7.09811 18.5706 7.45098 18.5706 7.81338 18.5706ZM6.72618 19.7437C6.72618 20.1442 6.72618 20.4971 6.72618 20.8499C7.10765 20.8499 7.46052 20.8499 7.82292 20.8499C7.82292 20.4685 7.82292 20.1156 7.82292 19.7437C7.44144 19.7437 7.08858 19.7437 6.72618 19.7437ZM7.81338 25.4181C7.81338 25.0366 7.81338 24.6838 7.81338 24.3214C7.43191 24.3214 7.0695 24.3214 6.71664 24.3214C6.71664 24.7028 6.71664 25.0652 6.71664 25.4181C7.09811 25.4181 7.45098 25.4181 7.81338 25.4181ZM6.7071 27.6974C7.09811 27.6974 7.45098 27.6974 7.80384 27.6974C7.80384 27.3159 7.80384 26.9535 7.80384 26.6007C7.42237 26.6007 7.0695 26.6007 6.7071 26.6007C6.7071 26.9631 6.7071 27.3159 6.7071 27.6974ZM6.7071 23.1292C7.08858 23.1292 7.45098 23.1292 7.80384 23.1292C7.80384 22.7478 7.80384 22.3854 7.80384 22.0325C7.42237 22.0325 7.0695 22.0325 6.7071 22.0325C6.7071 22.3949 6.7071 22.7478 6.7071 23.1292Z" fill="#848484"/>
<path d="M30.7295 29.1731C30.3003 29.011 29.9379 28.8775 29.5469 28.7249C29.5469 23.8706 29.5469 18.9591 29.5469 14.0285C29.9188 14.0285 30.2717 14.0285 30.6722 14.0285C30.6722 14.3623 30.6722 14.7057 30.6722 15.049C30.6818 15.5163 30.882 15.7166 31.3493 15.7261C31.4924 15.7261 31.6355 15.7356 31.7785 15.7261C32.16 15.707 32.3698 15.4972 32.3793 15.1157C32.3889 14.7629 32.3793 14.41 32.3793 14.0095C32.7513 14.0095 33.0851 14.0095 33.4284 14.0095C33.8766 13.9999 34.0769 13.7997 34.0864 13.3514C34.0864 13.2084 34.096 13.0653 34.0864 12.9223C34.0674 12.5217 33.8671 12.3119 33.4665 12.3024C33.1232 12.2928 32.7799 12.3024 32.3793 12.3024C32.3793 11.9495 32.3793 11.6157 32.3793 11.2724C32.3698 10.8051 32.1695 10.5953 31.7117 10.5857C31.5973 10.5857 31.4733 10.5857 31.3589 10.5857C30.8916 10.5953 30.6818 10.7955 30.6722 11.2533C30.6627 11.5776 30.6627 11.8923 30.6627 12.2165C30.6627 12.2261 30.6532 12.2356 30.6341 12.2738C30.2812 12.2738 29.9284 12.2738 29.5469 12.2738C29.5469 10.9577 29.5469 9.66065 29.5469 8.29688C29.6518 8.29688 29.7662 8.29688 29.8807 8.29688C31.6164 8.29688 33.3521 8.29688 35.0878 8.29688C36.2513 8.29688 36.9475 9.0026 36.9475 10.1756C36.9475 16.346 36.9475 22.5259 36.9475 28.6963C36.9475 29.8598 36.2418 30.5655 35.0878 30.5655C34.5824 30.5655 34.0674 30.5655 33.5619 30.5655C33.209 28.8775 32.0742 28.3529 30.7295 29.1731ZM30.7104 17.4523C30.7104 17.8433 30.7104 18.2057 30.7104 18.549C32.2363 18.549 33.7431 18.549 35.2309 18.549C35.2309 18.1676 35.2309 17.8147 35.2309 17.4523C33.7145 17.4523 32.2267 17.4523 30.7104 17.4523ZM35.2213 20.857C35.2213 20.485 35.2213 20.1131 35.2213 19.7411C33.705 19.7411 32.2077 19.7411 30.7104 19.7411C30.7104 20.1226 30.7104 20.485 30.7104 20.857C32.2172 20.857 33.705 20.857 35.2213 20.857ZM30.7104 22.0109C30.7104 22.3829 30.7104 22.7548 30.7104 23.1267C32.2267 23.1267 33.724 23.1267 35.2213 23.1267C35.2213 22.7453 35.2213 22.3829 35.2213 22.0109C33.705 22.0109 32.2267 22.0109 30.7104 22.0109ZM30.7008 24.3093C30.7008 24.7003 30.7008 25.0532 30.7008 25.4156C32.2172 25.4156 33.724 25.4156 35.2213 25.4156C35.2213 25.0341 35.2213 24.6717 35.2213 24.3093C33.705 24.3093 32.2172 24.3093 30.7008 24.3093ZM35.2213 27.7044C35.2213 27.3134 35.2213 26.951 35.2213 26.6077C33.6954 26.6077 32.1886 26.6077 30.7008 26.6077C30.7008 26.9892 30.7008 27.342 30.7008 27.7044C32.2077 27.7044 33.705 27.7044 35.2213 27.7044Z" fill="#848484"/>
<path d="M32.3897 38.0006C31.312 38.0006 30.2916 38.0006 29.2711 38.0006C27.6403 38.0006 26.0095 38.0101 24.3787 37.9911C24.2261 37.9911 24.0354 37.9052 23.94 37.7908C22.7002 36.2553 21.4604 34.7199 20.2301 33.1749C19.8773 32.7362 20.0585 32.1449 20.5639 32.1259C20.7737 32.1163 21.0503 32.2594 21.1934 32.4215C21.8991 33.194 22.5667 33.9951 23.2438 34.7962C23.4441 35.0346 23.6634 35.2349 24.0068 35.1014C24.3405 34.9679 24.3787 34.6913 24.3787 34.367C24.3787 31.4869 24.3787 28.6068 24.3787 25.7266C24.3787 25.6122 24.3692 25.4882 24.3882 25.3738C24.4359 25.0686 24.6266 24.8874 24.9414 24.8683C25.237 24.8492 25.485 25.0781 25.5231 25.3833C25.5327 25.4977 25.5327 25.6217 25.5327 25.7362C25.5327 27.7103 25.5327 29.6844 25.5327 31.6872C25.9141 31.6872 26.267 31.6872 26.6771 31.6872C26.6771 31.3248 26.6771 30.9624 26.6771 30.5904C26.6866 30.1708 26.906 29.9228 27.2588 29.9228C27.5926 29.9324 27.812 30.1803 27.8215 30.5714C27.831 30.9338 27.8215 31.3057 27.8215 31.6872C28.203 31.6872 28.5558 31.6872 28.9659 31.6872C28.9659 31.4583 28.9659 31.2199 28.9659 30.991C28.9659 30.1994 29.1185 29.9228 29.5477 29.9324C29.9673 29.9324 30.1104 30.2185 30.1104 31.0101C30.1104 31.2199 30.1104 31.4392 30.1104 31.6776C30.4823 31.6776 30.8447 31.6776 31.2548 31.6776C31.2548 31.3343 31.2548 30.9814 31.2548 30.6286C31.2548 30.1994 31.4646 29.9419 31.8079 29.9324C32.1417 29.9228 32.3992 30.209 32.3992 30.6381C32.3992 32.4597 32.3992 34.2812 32.3992 36.0932C32.3897 36.7322 32.3897 37.3425 32.3897 38.0006Z" fill="#848484"/>
<path d="M21.5453 14.5633C21.1447 14.5633 20.7919 14.5633 20.4009 14.5633C20.4009 14.0388 20.4009 13.5334 20.4009 13.0279C20.4009 12.4938 20.2006 12.3031 19.6665 12.3031C19.1706 12.3031 18.6652 12.3031 18.1406 12.3031C18.1406 11.9312 18.1406 11.5688 18.1406 11.1587C18.6365 11.1587 19.142 11.1587 19.6475 11.1587C20.2006 11.1587 20.3913 10.9679 20.3913 10.4053C20.3913 9.90935 20.3913 9.41343 20.3913 8.89844C20.7823 8.89844 21.1352 8.89844 21.5358 8.89844C21.5358 9.42297 21.5358 9.92842 21.5358 10.4339C21.5358 10.9679 21.736 11.1587 22.2701 11.1587C22.766 11.1587 23.2619 11.1587 23.796 11.1587C23.796 11.5306 23.796 11.893 23.796 12.3031C23.3001 12.3031 22.7946 12.3031 22.2892 12.3031C21.736 12.3031 21.5453 12.4938 21.5453 13.0565C21.5358 13.5524 21.5453 14.0484 21.5453 14.5633Z" fill="#848484"/>
</svg>
