<svg width="26" height="32" viewBox="0 0 26 32" fill="none" xmlns="http://www.w3.org/2000/svg">
<path d="M19.222 31.2549C18.9187 31.1997 18.6085 31.1721 18.319 31.0963C16.0512 30.4966 14.5692 29.0767 14.0109 26.802C13.3974 24.3205 14.4313 21.8942 16.582 20.5225C18.6567 19.199 21.5104 19.4058 23.3784 21.0257C24.5709 22.0596 25.2602 23.3624 25.4119 24.934C25.4188 24.9685 25.4326 25.0029 25.4395 25.0374C25.4395 25.3131 25.4395 25.5888 25.4395 25.8645C25.4119 26.0644 25.3843 26.2643 25.3498 26.4573C24.9638 28.7251 23.213 30.5794 20.9728 31.0894C20.6695 31.1584 20.3593 31.1997 20.0491 31.248C19.7734 31.2549 19.4977 31.2549 19.222 31.2549ZM19.0841 26.4573C18.5602 26.0369 18.0571 25.6302 17.5539 25.2304C17.1334 24.8926 16.582 24.9409 16.2649 25.3407C15.9478 25.7405 16.0236 26.285 16.4441 26.6228C17.1403 27.1811 17.8365 27.7394 18.5327 28.2909C19.0496 28.7045 19.5115 28.6631 19.9526 28.1668C20.5179 27.5326 21.0831 26.8985 21.6483 26.2643C22.2342 25.6026 22.827 24.9409 23.4129 24.2723C23.7713 23.8656 23.7369 23.3141 23.3371 22.9833C22.9511 22.6593 22.4272 22.7007 22.0688 23.1005C21.4346 23.8035 20.8142 24.5135 20.187 25.2166C19.8217 25.6302 19.4563 26.0369 19.0841 26.4573Z" fill="white"/>
<path d="M4.94228 3.13281C4.94228 3.40853 4.91471 3.67736 4.94917 3.93929C5.08014 4.95946 6.0038 5.8004 7.03775 5.80729C9.04361 5.82108 11.0564 5.82797 13.0622 5.80729C14.3374 5.79351 15.3438 4.55966 15.1577 3.29824C15.1508 3.24999 15.1439 3.20174 15.137 3.13281C15.1991 3.13281 15.2473 3.13281 15.2956 3.13281C16.1365 3.13281 16.9774 3.13281 17.8115 3.13281C18.2389 3.13281 18.6593 3.18796 19.0522 3.37407C19.7209 3.69804 20.0793 4.22191 20.0793 4.97324C20.0793 9.37097 20.0793 13.7618 20.0793 18.1595C20.0793 18.2147 20.0793 18.2629 20.0793 18.3319C19.3211 18.2698 18.5835 18.3663 17.846 18.5456C17.846 15.037 17.846 11.5492 17.846 8.05441C12.6418 8.05441 7.44443 8.05441 2.24022 8.05441C2.24022 13.9962 2.24022 19.9379 2.24022 25.8935C5.65915 25.8935 9.07118 25.8935 12.5108 25.8935C12.5659 26.6655 12.7245 27.4031 13.0209 28.1337C12.945 28.1337 12.8899 28.1337 12.8348 28.1337C9.18147 28.1337 5.52818 28.1337 1.868 28.1337C0.772016 28.1337 0 27.3686 0 26.2726C0 19.1797 0 12.0868 0 4.99392C0 4.33219 0.255041 3.78765 0.772016 3.37407C0.965019 3.21553 1.19249 3.13971 1.44753 3.13971C2.55041 3.1466 3.66018 3.13971 4.76306 3.13971C4.8251 3.13281 4.88024 3.13281 4.94228 3.13281Z" fill="white"/>
<path d="M10.0376 4.91811C9.06571 4.91811 8.09379 4.925 7.12188 4.91811C6.50151 4.91811 5.97075 4.48385 5.83978 3.89795C5.70192 3.27068 5.97764 2.65721 6.53598 2.38838C6.7083 2.30566 6.9082 2.2712 7.1012 2.25052C7.32178 2.22984 7.54925 2.24363 7.76982 2.24363C8.20408 2.24363 8.47291 1.9748 8.48669 1.54054C8.52116 0.348054 9.76879 -0.375711 10.8027 0.203301C11.3059 0.47902 11.5679 0.927065 11.6023 1.49918C11.6299 2.01616 11.8712 2.24363 12.3881 2.24363C12.657 2.24363 12.9327 2.22984 13.1946 2.2712C13.8701 2.38149 14.332 2.99496 14.2768 3.68426C14.2217 4.37356 13.6702 4.90432 12.9809 4.91122C12.0021 4.925 11.0233 4.91811 10.0376 4.91811ZM10.0514 0.899493C9.68607 0.899493 9.38278 1.19589 9.37589 1.56122C9.37589 1.92655 9.67229 2.22984 10.0376 2.23673C10.4029 2.23673 10.7062 1.94034 10.7131 1.57501C10.72 1.20968 10.4167 0.906386 10.0514 0.899493Z" fill="white"/>
<path d="M12.0529 11.6116C10.8949 11.6116 9.73688 11.6116 8.57886 11.6116C8.19975 11.6116 8.03431 11.4462 8.03431 11.0739C8.03431 10.9499 8.02742 10.8327 8.03431 10.7086C8.0481 10.4674 8.22042 10.295 8.46168 10.2812C8.50993 10.2812 8.55818 10.2812 8.60643 10.2812C10.9018 10.2812 13.1972 10.2812 15.4856 10.2812C15.9061 10.2812 16.0647 10.4329 16.0647 10.8534C16.0647 10.943 16.0647 11.0326 16.0647 11.1222C16.0578 11.4393 15.8854 11.6185 15.5684 11.6185C14.9618 11.6185 14.3552 11.6185 13.7555 11.6185C13.1903 11.6116 12.6182 11.6116 12.0529 11.6116Z" fill="white"/>
<path d="M12.046 15.6302C10.888 15.6302 9.72999 15.6302 8.57197 15.6302C8.19285 15.6302 8.03431 15.4648 8.03431 15.0857C8.03431 14.9685 8.02742 14.8513 8.03431 14.7341C8.0481 14.486 8.22042 14.3068 8.46857 14.293C8.51682 14.293 8.56507 14.293 8.61333 14.293C10.9087 14.293 13.2041 14.293 15.4925 14.293C15.913 14.293 16.0647 14.4446 16.0647 14.872C16.0647 14.9409 16.0647 15.0098 16.0647 15.0788C16.0647 15.4717 15.8992 15.6302 15.5201 15.6302C14.7343 15.6302 13.9485 15.6302 13.1627 15.6302C12.7905 15.6302 12.4183 15.6302 12.046 15.6302Z" fill="white"/>
<path d="M10.941 19.1997C10.1483 19.1997 9.35562 19.1997 8.56982 19.1997C8.21139 19.1997 8.04596 19.0274 8.03906 18.6758C8.03906 18.5517 8.03906 18.4346 8.03906 18.3105C8.04596 18.0554 8.22517 17.8693 8.48711 17.8624C8.73526 17.8555 8.9834 17.8624 9.23844 17.8624C10.5895 17.8624 11.9474 17.8624 13.2984 17.8624C13.6775 17.8624 13.843 18.0279 13.843 18.4001C13.843 18.5035 13.843 18.6 13.843 18.7034C13.8361 19.0205 13.6637 19.1997 13.3467 19.1997C12.5471 19.1997 11.7406 19.1997 10.941 19.1997Z" fill="white"/>
<path d="M10.492 23.2181C9.851 23.2181 9.20995 23.2181 8.56201 23.2181C8.20357 23.2181 8.03814 23.0458 8.03125 22.6942C8.03125 22.5839 8.03125 22.4737 8.03125 22.3565C8.03814 22.0601 8.21736 21.8809 8.50687 21.8809C9.03073 21.8809 9.5546 21.8809 10.0854 21.8809C10.8574 21.8809 11.6363 21.8809 12.4083 21.8809C12.7667 21.8809 12.9322 22.0532 12.9391 22.4047C12.9391 22.515 12.9391 22.6253 12.9391 22.7425C12.9322 23.0389 12.753 23.2181 12.4634 23.2181C11.8086 23.2181 11.1538 23.2181 10.492 23.2181Z" fill="white"/>
<path d="M5.18923 14.9478C5.64417 14.4377 6.08532 13.9414 6.51958 13.4451C6.62986 13.3211 6.75394 13.2383 6.91937 13.259C7.07102 13.2797 7.1882 13.3555 7.25023 13.5003C7.31227 13.6519 7.29848 13.8036 7.1882 13.9345C7.00898 14.1413 6.82976 14.3412 6.65054 14.5411C6.299 14.9409 5.94746 15.3338 5.58902 15.7336C5.37534 15.968 5.16855 15.9887 4.9204 15.7888C4.59643 15.5268 4.27246 15.2718 3.95538 15.0098C3.78995 14.872 3.75548 14.679 3.84509 14.5067C3.92781 14.3412 4.11392 14.2447 4.30003 14.293C4.37585 14.3137 4.44478 14.355 4.50682 14.4033C4.7274 14.5756 4.94797 14.7548 5.18923 14.9478Z" fill="white"/>
<path d="M5.18915 18.7377C5.5338 18.3517 5.87155 17.9657 6.20931 17.5866C6.32649 17.4556 6.43678 17.3247 6.56085 17.1937C6.72628 17.0145 6.97443 16.9938 7.14676 17.1385C7.31219 17.2833 7.33976 17.5452 7.18122 17.7245C6.63667 18.3448 6.08523 18.9652 5.5269 19.5787C5.38215 19.7441 5.15468 19.7579 4.97546 19.62C4.63081 19.3512 4.29306 19.0824 3.9553 18.7998C3.7623 18.6412 3.73472 18.4 3.88637 18.2207C4.03112 18.0415 4.27238 18.014 4.46538 18.1656C4.70664 18.3517 4.941 18.5447 5.18915 18.7377Z" fill="white"/>
<path d="M5.1881 22.5705C5.53275 22.1776 5.8774 21.7985 6.21516 21.4194C6.33234 21.2884 6.44263 21.1575 6.5667 21.0265C6.73213 20.8473 6.98028 20.8266 7.15261 20.9782C7.31804 21.123 7.34561 21.3849 7.18707 21.5642C6.64252 22.1845 6.09798 22.798 5.54654 23.4115C5.39489 23.5838 5.16742 23.5976 4.98821 23.4597C4.64356 23.1909 4.3058 22.9221 3.96804 22.6395C3.77504 22.4809 3.75436 22.2397 3.89911 22.0604C4.04386 21.8812 4.28512 21.8537 4.47812 22.0053C4.70559 22.1776 4.93306 22.3706 5.1881 22.5705Z" fill="white"/>
<path d="M5.19324 10.971C5.64129 10.4678 6.08244 9.96465 6.53048 9.47525C6.60631 9.39253 6.7097 9.3236 6.8131 9.28914C6.98542 9.24089 7.14396 9.3236 7.23357 9.47525C7.32318 9.6269 7.30939 9.8199 7.18532 9.96465C6.95785 10.2335 6.72349 10.4885 6.48913 10.7505C6.18583 11.0882 5.88944 11.426 5.58614 11.7637C5.37935 11.9912 5.17256 12.005 4.93131 11.812C4.62112 11.5638 4.31094 11.3157 4.00075 11.0606C3.78018 10.8814 3.74571 10.6402 3.89736 10.4472C4.04901 10.2611 4.29026 10.2473 4.50394 10.4127C4.73141 10.6057 4.95199 10.7849 5.19324 10.971Z" fill="white"/>
</svg>
