<svg width="43" height="27" viewBox="0 0 43 27" fill="none" xmlns="http://www.w3.org/2000/svg">
<rect x="0.5" y="0.5" width="42" height="26" rx="2.5" fill="white" stroke="#1855B0"/>
<rect x="3" y="3" width="36" height="21" rx="3" fill="white"/>
<path d="M23.4978 15.6484C23.3353 16.0836 23.0161 16.2287 22.5693 16.2229C21.6292 16.2055 20.6948 16.2171 19.7547 16.2171C19.215 16.2171 19.0119 16.0778 18.8204 15.5671C18.5418 14.8185 18.2632 14.0699 17.9847 13.3213C17.9615 13.2574 17.9324 13.1878 17.8918 13.0949C17.6423 13.6753 17.4043 14.2324 17.1664 14.7837C16.9459 15.306 16.7254 15.8283 16.499 16.3448C16.2843 16.8207 15.7852 16.9716 15.3906 16.6988C15.1991 16.5653 15.1236 16.368 15.0714 16.1591C14.6362 14.5458 14.2067 12.9324 13.7715 11.3191C13.7541 11.2553 13.7308 11.1856 13.6786 11.116C13.6206 11.4004 13.5625 11.6789 13.5103 11.9633C12.8952 15.1609 12.28 18.3643 11.6649 21.562C11.5894 21.9682 11.3283 22.2119 10.9627 22.2236C10.5971 22.2352 10.3185 22.0088 10.214 21.6142C9.68013 19.5134 9.15203 17.4184 8.61812 15.3176C8.60652 15.2596 8.58911 15.2073 8.56009 15.1029C8.43822 15.4221 8.33376 15.7006 8.2293 15.985C8.03199 16.5073 7.84628 16.635 7.28336 16.635C6.27359 16.635 5.26381 16.6408 4.25403 16.635C3.72593 16.6292 3.37773 16.1591 3.54022 15.6774C3.64468 15.3756 3.91164 15.1899 4.26564 15.1899C5.10712 15.1899 5.9486 15.1841 6.78428 15.1957C6.93516 15.1957 6.999 15.1435 7.04543 15.01C7.353 14.1685 7.67218 13.3271 7.98556 12.4914C8.10163 12.1896 8.29314 11.9807 8.63553 11.9517C8.96632 11.9227 9.25649 12.0794 9.35515 12.3985C9.50603 12.8744 9.6221 13.3619 9.74397 13.8494C10.1038 15.2538 10.4578 16.6582 10.8234 18.1206C10.8524 18.0278 10.8698 17.9813 10.8814 17.9349C11.5372 14.54 12.1872 11.1392 12.8429 7.74428C12.9068 7.40769 13.0751 7.15814 13.4233 7.0827C13.7134 7.01886 13.9746 7.10591 14.1487 7.34965C14.2299 7.45992 14.2822 7.605 14.317 7.73848C14.8567 9.72901 15.3848 11.7196 15.9245 13.7101C15.9361 13.7623 15.9535 13.8087 15.9825 13.89C16.0232 13.8029 16.0522 13.7391 16.0812 13.6753C16.47 12.77 16.8588 11.8588 17.2477 10.9477C17.3637 10.6808 17.532 10.4776 17.8338 10.4312C18.211 10.3732 18.507 10.5589 18.6579 10.9361C18.7971 11.2843 18.9248 11.6441 19.0525 11.9981C19.3775 12.8686 19.7025 13.7391 20.0216 14.6096C20.0681 14.7373 20.1261 14.7721 20.2596 14.7721C21.0372 14.7663 21.8091 14.7779 22.5867 14.7663C23.0336 14.7547 23.3585 14.9114 23.5094 15.3466C23.4978 15.4395 23.4978 15.5439 23.4978 15.6484Z" fill="#1855B0"/>
</svg>
