<svg width="38" height="38" viewBox="0 0 38 38" fill="none" xmlns="http://www.w3.org/2000/svg">
<path d="M29.9218 2.77101C26.8838 2.22674 23.6083 3.80018 22.0645 6.57101C21.8963 6.86789 21.7281 6.97674 21.3817 6.97674C15.9093 6.96685 10.4468 6.95695 4.97442 6.97674C4.45984 6.97674 3.90567 7.06581 3.43067 7.25383C2.14421 7.77831 1.66921 8.86685 1.64942 10.1929C1.62963 11.4497 1.64942 12.7064 1.64942 13.9731C1.64942 18.3668 1.64942 22.7606 1.64942 27.1543C1.64942 28.609 2.37182 29.757 3.63848 30.2418C4.064 30.4002 4.5489 30.4497 5.014 30.4793C5.7265 30.5189 6.439 30.4892 7.18119 30.4892C7.18119 30.6674 7.18119 30.796 7.18119 30.9346C7.18119 31.9835 7.1713 33.0325 7.18119 34.0814C7.19109 34.7642 7.61661 35.2788 8.25984 35.3976C8.70515 35.4767 9.08119 35.3184 9.41765 35.0314C11.0208 33.6262 12.6338 32.221 14.2369 30.8059C14.4843 30.5882 14.7218 30.4892 15.0583 30.4892C19.452 30.4991 23.8458 30.4991 28.2395 30.4892C28.5562 30.4892 28.8828 30.4793 29.1994 30.4101C30.7234 30.0637 31.6833 28.8168 31.6833 27.1642C31.6932 24.057 31.6833 20.9398 31.6833 17.8325C31.6833 17.595 31.7328 17.4564 31.9703 17.3476C35.1567 15.8335 36.8687 12.558 36.3046 9.09445C35.7801 5.86841 33.2468 3.36476 29.9218 2.77101Z" fill="#033F65"/>
<path d="M28.7172 4.25488C25.3328 4.25488 22.5917 7.00592 22.6016 10.3804C22.6115 13.7648 25.3724 16.5059 28.737 16.4861C32.1214 16.4663 34.8229 13.7549 34.8229 10.3705C34.8328 6.98613 32.1115 4.25488 28.7172 4.25488Z" fill="white"/>
<path d="M14.7429 18.1689C12.3184 18.1689 9.90383 18.1689 7.47935 18.1689C6.77675 18.1689 6.40071 18.4361 6.39081 18.9507C6.38091 19.4752 6.76685 19.7622 7.48925 19.7622C12.2887 19.7622 17.0981 19.7622 21.8976 19.7622C22.0559 19.7622 22.2241 19.7622 22.3726 19.7226C22.7585 19.6335 22.9762 19.3268 22.9663 18.9408C22.9564 18.4559 22.6002 18.1689 21.9866 18.1689C19.582 18.1689 17.1575 18.1689 14.7429 18.1689Z" fill="white"/>
<path d="M12.7042 13.4287C10.9526 13.4287 9.20104 13.4287 7.44948 13.4287C7.29115 13.4287 7.12292 13.4386 6.97448 13.4683C6.61823 13.5574 6.39062 13.8839 6.39062 14.2303C6.40052 14.5667 6.62813 14.8735 6.96458 14.9626C7.11302 15.0021 7.28125 15.012 7.43958 15.012C10.9526 15.012 14.4755 15.012 17.9885 15.012C18.1568 15.012 18.3349 15.0021 18.5031 14.9527C18.8396 14.8339 19.0177 14.5766 19.0276 14.2204C19.0276 13.8641 18.8495 13.6068 18.513 13.4881C18.3547 13.4287 18.1766 13.4287 17.9984 13.4287C16.237 13.4287 14.4755 13.4287 12.7042 13.4287Z" fill="white"/>
<path d="M12.7023 22.9087C10.9705 22.9087 9.24867 22.9087 7.5169 22.9087C7.39815 22.9087 7.2695 22.8988 7.15075 22.9186C6.71534 22.9681 6.40857 23.2848 6.39867 23.6905C6.38877 24.0962 6.69555 24.4327 7.12107 24.4921C7.22992 24.5118 7.33877 24.502 7.45752 24.502C10.9606 24.502 14.4638 24.502 17.9768 24.502C18.145 24.502 18.3231 24.4921 18.4914 24.4525C18.8278 24.3634 19.0455 24.0566 19.0455 23.7103C19.0455 23.3639 18.8278 23.0572 18.4815 22.9681C18.333 22.9285 18.1648 22.9186 18.0065 22.9186C16.2252 22.9087 14.4638 22.9087 12.7023 22.9087Z" fill="white"/>
<path d="M29.9252 2.77104C33.2502 3.36479 35.7836 5.86843 36.308 9.08458C36.8721 12.5481 35.1502 15.8236 31.9737 17.3377C31.7461 17.4466 31.6867 17.5851 31.6867 17.8226C31.6966 20.9299 31.6966 24.0471 31.6867 27.1544C31.6867 28.7971 30.7268 30.0538 29.2028 30.4002C28.8961 30.4695 28.5695 30.4794 28.2429 30.4794C23.8492 30.4794 19.4554 30.4893 15.0617 30.4794C14.7252 30.4794 14.4877 30.5783 14.2403 30.796C12.6372 32.2111 11.0341 33.6163 9.42106 35.0216C9.08461 35.3184 8.70856 35.4669 8.26325 35.3877C7.62002 35.2788 7.1945 34.7544 7.18461 34.0716C7.17471 33.0226 7.18461 31.9736 7.18461 30.9247C7.18461 30.796 7.18461 30.6575 7.18461 30.4794C6.44242 30.4794 5.72002 30.5091 5.01742 30.4695C4.55231 30.4497 4.07731 30.4002 3.6419 30.232C2.37523 29.757 1.65284 28.5992 1.65284 27.1445C1.65284 22.7507 1.65284 18.357 1.65284 13.9632C1.65284 12.7065 1.64294 11.4497 1.65284 10.183C1.67263 8.85697 2.13773 7.77833 3.43409 7.24395C3.90909 7.04604 4.46325 6.96687 4.97784 6.96687C10.4502 6.94708 15.9127 6.94708 21.3851 6.96687C21.7315 6.96687 21.8997 6.85802 22.0679 6.56114C23.6117 3.8002 26.8872 2.22677 29.9252 2.77104Z" fill="white"/>
<path d="M28.7172 4.25586C32.1115 4.25586 34.8328 6.98711 34.8229 10.3814C34.813 13.7658 32.1214 16.4772 28.737 16.497C25.3625 16.5168 22.6016 13.7658 22.6016 10.3913C22.6016 7.0069 25.3328 4.25586 28.7172 4.25586ZM27.9354 9.56992C27.2625 9.56992 26.6292 9.56003 26.0057 9.56992C25.8276 9.56992 25.6297 9.58971 25.4615 9.64909C25.1349 9.76784 24.9271 10.1439 24.9865 10.4803C25.0557 10.8762 25.3526 11.1434 25.7979 11.1533C26.5005 11.1632 27.1932 11.1533 27.9156 11.1533C27.9255 11.2522 27.9354 11.3116 27.9354 11.3611C27.9354 12.0142 27.9255 12.6673 27.9453 13.3204C27.9552 13.7757 28.3016 14.1022 28.7271 14.1022C29.1427 14.1121 29.4891 13.7855 29.5089 13.3303C29.5286 13.0236 29.5187 12.7168 29.5187 12.41C29.5187 11.9944 29.5187 11.5887 29.5187 11.1434C29.9245 11.1434 30.2708 11.1434 30.6172 11.1434C30.9833 11.1434 31.3594 11.1632 31.7255 11.1335C32.1708 11.1038 32.4677 10.7871 32.4677 10.3616C32.4776 9.94596 32.2203 9.63919 31.7948 9.56992C31.6167 9.54023 31.4286 9.55013 31.2406 9.55013C30.6766 9.55013 30.1125 9.55013 29.5187 9.55013C29.5187 8.85742 29.5286 8.22409 29.5089 7.58086C29.5089 7.37305 29.4693 7.15534 29.3901 6.97721C29.2417 6.67044 28.8755 6.5418 28.5292 6.63086C28.1729 6.71992 27.9453 7.0168 27.9354 7.42253C27.9255 8.14492 27.9354 8.82773 27.9354 9.56992Z" fill="#2359AA"/>
<path d="M14.7465 18.1689C17.171 18.1689 19.5856 18.1689 22.0101 18.1689C22.6236 18.1689 22.97 18.446 22.9898 18.9408C22.9997 19.3268 22.7721 19.6335 22.396 19.7226C22.2377 19.7622 22.0793 19.7622 21.921 19.7622C17.1215 19.7622 12.3122 19.7622 7.51268 19.7622C6.80018 19.7622 6.40435 19.4752 6.41424 18.9507C6.42414 18.4361 6.80018 18.1689 7.50279 18.1689C9.90747 18.1689 12.3221 18.1689 14.7465 18.1689Z" fill="#2158AB"/>
<path d="M12.7045 13.4287C14.4659 13.4287 16.2373 13.4287 17.9987 13.4287C18.167 13.4287 18.355 13.4386 18.5133 13.4881C18.8498 13.6068 19.0279 13.8641 19.0279 14.2204C19.0279 14.5766 18.8498 14.8339 18.5034 14.9527C18.3451 15.0021 18.167 15.012 17.9888 15.012C14.4758 15.012 10.9529 15.012 7.43988 15.012C7.28155 15.012 7.11332 15.0021 6.96488 14.9626C6.62842 14.8735 6.40082 14.5667 6.39092 14.2303C6.38103 13.874 6.61853 13.5574 6.97478 13.4683C7.12321 13.4287 7.29144 13.4287 7.44978 13.4287C9.20134 13.4287 10.9529 13.4287 12.7045 13.4287Z" fill="#2158AB"/>
<path d="M12.7044 22.9093C14.4659 22.9093 16.2372 22.9093 17.9987 22.9093C18.157 22.9093 18.3252 22.9192 18.4737 22.9588C18.8101 23.0479 19.0377 23.3546 19.0377 23.701C19.0377 24.0473 18.82 24.3541 18.4836 24.4432C18.3153 24.4827 18.1471 24.4926 17.969 24.4926C14.4659 24.4926 10.9627 24.4926 7.44972 24.4926C7.34087 24.4926 7.22212 24.4926 7.11326 24.4827C6.67784 24.4234 6.38097 24.0869 6.39087 23.6812C6.40076 23.2755 6.70753 22.9588 7.14295 22.9093C7.2617 22.8994 7.39034 22.8994 7.50909 22.8994C9.25076 22.9093 10.9726 22.9093 12.7044 22.9093Z" fill="#2259AB"/>
<path d="M27.936 9.56888C27.936 8.8267 27.9261 8.13399 27.936 7.45118C27.9459 7.03555 28.1735 6.74857 28.5297 6.65951C28.8662 6.57045 29.2422 6.69909 29.3907 7.00586C29.4797 7.18399 29.5094 7.4017 29.5094 7.60951C29.5292 8.25274 29.5193 8.88607 29.5193 9.57878C30.1131 9.57878 30.6771 9.57878 31.2412 9.57878C31.4292 9.57878 31.6172 9.56889 31.7954 9.59857C32.2209 9.66784 32.4782 9.97461 32.4683 10.3902C32.4584 10.8059 32.1714 11.1324 31.7261 11.1621C31.3599 11.1918 30.9839 11.172 30.6178 11.172C30.2714 11.172 29.925 11.172 29.5193 11.172C29.5193 11.6074 29.5193 12.0231 29.5193 12.4387C29.5193 12.7454 29.5292 13.0522 29.5094 13.359C29.4797 13.8142 29.1433 14.1309 28.7277 14.1309C28.3021 14.121 27.9657 13.8043 27.9459 13.3491C27.9261 12.696 27.936 12.0428 27.936 11.3897C27.936 11.3303 27.9261 11.271 27.9162 11.1819C27.2037 11.1819 26.5011 11.1918 25.7985 11.1819C25.3532 11.172 25.0563 10.9048 24.987 10.509C24.9277 10.1725 25.1256 9.78659 25.462 9.67774C25.6303 9.61836 25.8282 9.59857 26.0063 9.59857C26.6297 9.56889 27.2532 9.56888 27.936 9.56888Z" fill="white"/>
</svg>
