<svg width="13" height="28" viewBox="0 0 13 28" fill="none" xmlns="http://www.w3.org/2000/svg">
<path d="M8.28222 27.9932C8.00826 27.9247 7.73429 27.8699 7.46718 27.7808C4.67276 26.8425 3.74814 23.4522 5.67273 21.2194C5.76176 21.1167 5.80971 20.9455 5.80971 20.8085C5.81656 14.8772 5.81656 8.94592 5.81656 3.01463C5.81656 1.65852 6.58365 0.562665 7.80963 0.151722C9.56299 -0.437298 11.4259 0.754439 11.6246 2.58999C11.6451 2.78861 11.652 2.98723 11.652 3.1927C11.652 9.04865 11.652 14.9114 11.652 20.7674C11.652 20.9797 11.7067 21.1372 11.8437 21.3085C12.8368 22.5344 13.0971 23.9043 12.5355 25.3768C11.9876 26.8014 10.9123 27.6438 9.41231 27.9452C9.34382 27.9589 9.27533 27.9863 9.20684 28C8.90548 27.9932 8.59727 27.9932 8.28222 27.9932ZM9.32328 17.1922C9.32328 15.6101 9.32328 14.0211 9.32328 12.4389C9.32328 12.3157 9.31643 12.1787 9.28218 12.0622C9.20684 11.802 8.96027 11.6513 8.70001 11.6718C8.42605 11.6992 8.22058 11.8842 8.18633 12.1513C8.17263 12.2677 8.17263 12.3841 8.17263 12.5074C8.17263 15.658 8.17263 18.8154 8.17263 21.966C8.17263 22.1646 8.13154 22.281 7.92607 22.3838C7.21376 22.7399 6.85761 23.5618 7.04254 24.3221C7.24116 25.1165 7.95346 25.6645 8.76165 25.6508C9.57669 25.6371 10.2616 25.0823 10.4465 24.2741C10.6177 23.5344 10.2479 22.7194 9.54245 22.3701C9.36437 22.281 9.31643 22.1851 9.31643 22.0002C9.32328 20.4044 9.32328 18.7949 9.32328 17.1922Z" fill="#1855B0"/>
<path d="M2.31918 5.83048C1.77126 5.83048 1.23018 5.83733 0.682259 5.83048C0.278164 5.82363 0.0384472 5.63186 0.00420193 5.30311C-0.0300434 5.01545 0.148032 4.76203 0.428844 4.69354C0.52473 4.67299 0.627466 4.65929 0.723353 4.65929C1.78496 4.65929 2.85341 4.65244 3.91501 4.65929C4.05885 4.65929 4.20952 4.67984 4.33281 4.74148C4.55883 4.85107 4.66156 5.04969 4.62732 5.30311C4.59307 5.56337 4.44924 5.74145 4.18898 5.78939C4.01775 5.82363 3.84652 5.82363 3.6753 5.82363C3.22326 5.83733 2.77122 5.83048 2.31918 5.83048Z" fill="#1855B0"/>
<path d="M2.30851 12.8305C1.76058 12.8305 1.21951 12.8373 0.671584 12.8305C0.212697 12.8236 -0.0475672 12.5428 0.00722531 12.1593C0.0483197 11.9059 0.19215 11.7483 0.438716 11.6935C0.527754 11.673 0.616792 11.6593 0.705829 11.6593C1.78113 11.6593 2.85643 11.6524 3.92489 11.6593C4.07557 11.6593 4.23994 11.6935 4.36323 11.762C4.5824 11.8785 4.66459 12.0908 4.62349 12.3374C4.5824 12.5908 4.43172 12.7483 4.18515 12.7894C4.00023 12.8168 3.80845 12.8236 3.61668 12.8236C3.18519 12.8373 2.74685 12.8305 2.30851 12.8305Z" fill="#1855B0"/>
<path d="M2.31918 19.8305C1.77126 19.8305 1.23018 19.8373 0.682259 19.8305C0.278164 19.8236 0.0384472 19.6319 0.00420193 19.3031C-0.0300434 19.0154 0.148032 18.762 0.428844 18.6935C0.52473 18.673 0.627466 18.6593 0.723353 18.6593C1.78496 18.6593 2.85341 18.6524 3.91501 18.6593C4.05885 18.6593 4.20952 18.6798 4.33281 18.7415C4.55883 18.8511 4.66156 19.0497 4.62732 19.3031C4.59307 19.5634 4.44924 19.7414 4.18898 19.7894C4.0383 19.8168 3.88077 19.8236 3.73009 19.8236C3.26435 19.8373 2.79177 19.8305 2.31918 19.8305Z" fill="#1855B0"/>
<path d="M3.47167 8.14208C3.25935 8.14208 3.05387 8.15578 2.84155 8.13523C2.54704 8.10784 2.33472 7.87497 2.32103 7.59416C2.30733 7.33389 2.49225 7.04623 2.76621 7.02568C3.24565 6.99144 3.72508 6.99144 4.20452 7.02568C4.48533 7.04623 4.65656 7.32704 4.64286 7.60101C4.62916 7.88867 4.42369 8.11468 4.12233 8.13523C3.91001 8.15578 3.69084 8.14208 3.47167 8.14208Z" fill="#1855B0"/>
<path d="M3.50099 9.34203C3.71331 9.34203 3.91878 9.32833 4.1311 9.34203C4.43246 9.36942 4.63109 9.58859 4.65163 9.87625C4.67218 10.1571 4.48726 10.4379 4.19275 10.4584C3.72701 10.4927 3.24758 10.4927 2.78184 10.4516C2.50788 10.431 2.32295 10.1434 2.33665 9.8831C2.35035 9.60229 2.56267 9.36257 2.85033 9.34203C3.06265 9.32833 3.28182 9.34203 3.50099 9.34203Z" fill="#1855B0"/>
<path d="M3.48482 15.1464C3.2725 15.1464 3.06703 15.1601 2.85471 15.1464C2.5465 15.119 2.32733 14.8793 2.32048 14.5917C2.31364 14.3177 2.51226 14.0437 2.80677 14.0232C3.25881 13.9958 3.71769 13.9889 4.16973 14.0232C4.46424 14.0437 4.65601 14.3177 4.64916 14.5917C4.64232 14.8862 4.42999 15.119 4.11494 15.1464C3.90262 15.1601 3.69715 15.1533 3.48482 15.1464Z" fill="#1855B0"/>
<path d="M3.47951 16.3404C3.69868 16.3404 3.91785 16.3267 4.13701 16.3473C4.43152 16.3747 4.637 16.6007 4.65069 16.8883C4.66439 17.1623 4.48632 17.4363 4.20551 17.4568C3.72607 17.4911 3.24664 17.4911 2.7672 17.4568C2.49324 17.4363 2.31517 17.1417 2.32886 16.8815C2.34941 16.6007 2.56173 16.3747 2.85624 16.3473C3.06171 16.3267 3.27403 16.3404 3.47951 16.3404Z" fill="#1855B0"/>
</svg>
