<svg width="28" height="28" viewBox="0 0 28 28" fill="none" xmlns="http://www.w3.org/2000/svg">
<path d="M10.5193 24.051C10.5193 20.9813 10.5193 17.9552 10.5193 14.8927C10.2641 14.8927 10.0016 14.8927 9.73906 14.8927C9.29427 14.8927 8.84948 14.8927 8.40469 14.8927C7.84323 14.8854 7.47865 14.5281 7.47865 13.974C7.47865 10.0729 7.47865 6.17188 7.47865 2.26354C7.47865 1.71667 7.84323 1.35938 8.3901 1.35938C10.9859 1.35938 13.5745 1.35938 16.1703 1.35938C16.7099 1.35938 17.0818 1.72396 17.0891 2.26354C17.0891 6.17188 17.0891 10.0875 17.0891 13.9958C17.0891 14.5208 16.7172 14.8854 16.1922 14.8927C15.4849 14.9 14.7776 14.8927 14.0484 14.8927C14.0484 17.3865 14.0484 19.8656 14.0484 22.3958C14.3401 21.5135 14.9089 21.0031 15.8203 21.0177C16.7172 21.0396 17.2568 21.5719 17.5266 22.4615C17.8182 21.5281 18.387 20.9885 19.3349 21.0177C20.2245 21.0469 20.7568 21.5719 21.0193 22.4688C21.0703 22.3302 21.0995 22.2427 21.1359 22.1552C21.4203 21.3823 22.2297 20.901 23.0172 21.0323C23.8557 21.1708 24.4974 21.8417 24.512 22.6656C24.5339 23.9927 24.5193 25.3198 24.5193 26.6688C17.9786 26.6688 11.438 26.6688 4.88281 26.6688C4.88281 23.3438 4.88281 20.0115 4.88281 16.65C5.45156 16.6354 5.98385 16.7521 6.48698 16.9927C7.94531 17.7073 8.72552 18.8885 8.79115 20.5146C8.82031 21.1781 8.80573 21.8417 8.79115 22.5052C8.79115 22.6948 8.84948 22.8042 8.99531 22.9063C9.49115 23.2781 9.98698 23.6573 10.5193 24.051ZM9.24323 3.11667C9.24323 5.30417 9.24323 7.46979 9.24323 9.63542C11.2849 9.63542 13.3047 9.63542 15.3245 9.63542C15.3245 7.45521 15.3245 5.28958 15.3245 3.11667C13.2974 3.11667 11.2776 3.11667 9.24323 3.11667ZM12.2911 11.4C11.8172 11.3927 11.4161 11.7792 11.4089 12.2531C11.4016 12.7271 11.7807 13.1281 12.2547 13.1427C12.7432 13.1573 13.1516 12.7563 13.1516 12.275C13.1589 11.801 12.7651 11.4073 12.2911 11.4Z" fill="#1855B0"/>
<path d="M18.4062 5.28031C18.4062 4.98135 18.4062 4.71156 18.4062 4.44177C21.0021 4.3251 23.6562 6.61468 23.6198 9.63343C23.3427 9.63343 23.0656 9.63343 22.7667 9.63343C22.7302 8.45218 22.3219 7.41677 21.4833 6.57093C20.6448 5.73239 19.6094 5.31677 18.4062 5.28031Z" fill="#1855B0"/>
<path d="M21.8703 9.64671C21.5786 9.64671 21.3089 9.64671 21.0245 9.64671C20.988 8.93213 20.7474 8.31234 20.2443 7.80921C19.7411 7.31338 19.1359 7.06546 18.4141 7.03629C18.4141 6.75921 18.4141 6.48213 18.4141 6.20504C19.9891 6.05921 21.9141 7.56859 21.8703 9.64671Z" fill="#1855B0"/>
<path d="M18.4062 8.76844C18.4062 8.48407 18.4062 8.19969 18.4062 7.92261C19.3396 7.89344 20.1854 8.73928 20.1125 9.64344C19.8427 9.64344 19.5729 9.64344 19.2813 9.64344C19.2156 9.14032 18.9313 8.83407 18.4062 8.76844Z" fill="#1855B0"/>
<path d="M13.2583 4.57031C13.499 4.77448 13.7031 4.94948 13.9219 5.13906C13.0469 6.1599 12.1865 7.16615 11.3042 8.18698C11.0854 8.00469 10.874 7.8224 10.6406 7.62552C11.5156 6.60469 12.376 5.59844 13.2583 4.57031Z" fill="#1855B0"/>
<path d="M11.8302 4.86719C11.8302 5.14427 11.8302 5.41406 11.8302 5.70573C11.5531 5.70573 11.2833 5.70573 10.9844 5.70573C10.9844 5.43594 10.9844 5.15885 10.9844 4.86719C11.2615 4.86719 11.5313 4.86719 11.8302 4.86719Z" fill="#1855B0"/>
<path d="M13.5729 7.89271C13.2885 7.89271 13.0188 7.89271 12.7344 7.89271C12.7344 7.60833 12.7344 7.33125 12.7344 7.04688C13.0115 7.04688 13.2813 7.04688 13.5729 7.04688C13.5729 7.32396 13.5729 7.59375 13.5729 7.89271Z" fill="#1855B0"/>
</svg>
