<svg width="15" height="33" viewBox="0 0 15 33" fill="none" xmlns="http://www.w3.org/2000/svg">
<path d="M9.49508 32.1093C9.18083 32.0308 8.86658 31.9679 8.56019 31.8658C5.35488 30.7895 4.2943 26.9007 6.50188 24.3396C6.60401 24.2217 6.659 24.0253 6.659 23.8682C6.66686 17.0648 6.66686 10.2613 6.66686 3.45791C6.66686 1.90239 7.54675 0.645401 8.953 0.174031C10.9642 -0.501599 13.1011 0.865374 13.3289 2.97083C13.3525 3.19865 13.3603 3.42648 13.3603 3.66217C13.3603 10.3792 13.3603 17.1041 13.3603 23.8211C13.3603 24.0646 13.4232 24.2453 13.5803 24.4417C14.7194 25.848 15.018 27.4192 14.3738 29.1083C13.7453 30.7424 12.5118 31.7087 10.7913 32.0543C10.7128 32.07 10.6342 32.1015 10.5557 32.1172C10.21 32.1093 9.85646 32.1093 9.49508 32.1093ZM10.6892 19.7202C10.6892 17.9054 10.6892 16.0828 10.6892 14.268C10.6892 14.1266 10.6814 13.9695 10.6421 13.8359C10.5557 13.5374 10.2728 13.3645 9.9743 13.3881C9.66006 13.4195 9.42437 13.6316 9.38509 13.938C9.36938 14.0716 9.36938 14.2051 9.36938 14.3465C9.36938 17.9604 9.36938 21.5821 9.36938 25.1959C9.36938 25.4237 9.32224 25.5573 9.08656 25.6751C8.26951 26.0837 7.86099 27.0264 8.07311 27.8984C8.30094 28.8097 9.11798 29.4382 10.045 29.4225C10.9799 29.4068 11.7655 28.7705 11.9776 27.8434C12.174 26.995 11.7498 26.0601 10.9406 25.6594C10.7364 25.5573 10.6814 25.4473 10.6814 25.2352C10.6892 23.4047 10.6892 21.5585 10.6892 19.7202Z" fill="#1855B0"/>
<path d="M2.6602 6.68283C2.03171 6.68283 1.41107 6.69069 0.78258 6.68283C0.319066 6.67498 0.0441006 6.455 0.00481979 6.07791C-0.034461 5.74795 0.169799 5.45727 0.491902 5.37871C0.601888 5.35514 0.719731 5.33943 0.829717 5.33943C2.04742 5.33943 3.27298 5.33157 4.49069 5.33943C4.65567 5.33943 4.8285 5.363 4.96991 5.4337C5.22917 5.5594 5.34701 5.78723 5.30773 6.07791C5.26845 6.37644 5.10347 6.5807 4.80493 6.6357C4.60853 6.67498 4.41213 6.67498 4.21572 6.67498C3.69722 6.69069 3.17871 6.68283 2.6602 6.68283Z" fill="#1855B0"/>
<path d="M2.64796 14.7141C2.01947 14.7141 1.39883 14.7219 0.770335 14.7141C0.243973 14.7062 -0.0545616 14.3841 0.00828774 13.9442C0.0554247 13.6535 0.220404 13.4728 0.503226 13.41C0.605356 13.3864 0.707486 13.3707 0.809616 13.3707C2.04303 13.3707 3.27645 13.3628 4.50201 13.3707C4.67485 13.3707 4.8634 13.41 5.00481 13.4885C5.2562 13.6221 5.35048 13.8656 5.30334 14.1484C5.2562 14.4391 5.08337 14.6198 4.80055 14.6669C4.58843 14.6984 4.36846 14.7062 4.14849 14.7062C3.65355 14.7219 3.15075 14.7141 2.64796 14.7141Z" fill="#1855B0"/>
<path d="M2.6602 22.7453C2.03171 22.7453 1.41107 22.7532 0.78258 22.7453C0.319066 22.7375 0.0441006 22.5175 0.00481979 22.1404C-0.034461 21.8105 0.169799 21.5198 0.491902 21.4412C0.601888 21.4176 0.719731 21.4019 0.829717 21.4019C2.04742 21.4019 3.27298 21.3941 4.49069 21.4019C4.65567 21.4019 4.8285 21.4255 4.96991 21.4962C5.22917 21.6219 5.34701 21.8497 5.30773 22.1404C5.26845 22.4389 5.10347 22.6432 4.80493 22.6982C4.6321 22.7296 4.45141 22.7375 4.27857 22.7375C3.74435 22.7532 3.20228 22.7453 2.6602 22.7453Z" fill="#1855B0"/>
<path d="M3.98472 9.34127C3.74117 9.34127 3.50549 9.35698 3.26195 9.33341C2.92413 9.30198 2.68059 9.03487 2.66488 8.71277C2.64917 8.41424 2.86128 8.08428 3.17553 8.06071C3.72546 8.02143 4.27539 8.02143 4.82533 8.06071C5.14743 8.08428 5.34383 8.40638 5.32812 8.72063C5.31241 9.05059 5.07672 9.30984 4.73105 9.33341C4.48751 9.35698 4.23611 9.34127 3.98472 9.34127Z" fill="#1855B0"/>
<path d="M4.01605 10.7179C4.25959 10.7179 4.49528 10.7022 4.73882 10.7179C5.08449 10.7493 5.31232 11.0007 5.33589 11.3307C5.35946 11.6528 5.14734 11.9749 4.80953 11.9985C4.27531 12.0378 3.72538 12.0378 3.19116 11.9906C2.87691 11.9671 2.66479 11.6371 2.68051 11.3386C2.69622 11.0165 2.93976 10.7415 3.26972 10.7179C3.51326 10.7022 3.76466 10.7179 4.01605 10.7179Z" fill="#1855B0"/>
<path d="M3.99981 17.3697C3.75627 17.3697 3.52058 17.3854 3.27704 17.3697C2.92351 17.3383 2.67212 17.0633 2.66426 16.7333C2.6564 16.4191 2.88423 16.1049 3.22205 16.0813C3.74055 16.0499 4.26692 16.042 4.78542 16.0813C5.12324 16.1049 5.34321 16.4191 5.33535 16.7333C5.3275 17.0712 5.08396 17.3383 4.72257 17.3697C4.47903 17.3854 4.24335 17.3775 3.99981 17.3697Z" fill="#1855B0"/>
<path d="M3.99256 18.7473C4.24395 18.7473 4.49535 18.7316 4.74675 18.7552C5.08456 18.7866 5.32025 19.0459 5.33596 19.3758C5.35167 19.6901 5.14741 20.0043 4.82531 20.0279C4.27538 20.0672 3.72545 20.0672 3.17552 20.0279C2.86127 20.0043 2.65701 19.6665 2.67272 19.368C2.69629 19.0459 2.93983 18.7866 3.27765 18.7552C3.51333 18.7316 3.75687 18.7473 3.99256 18.7473Z" fill="#1855B0"/>
</svg>
