<svg width="27" height="27" viewBox="0 0 27 27" fill="none" xmlns="http://www.w3.org/2000/svg">
<path d="M10.7906 19.3295C10.9121 19.1852 11.0093 19.065 11.1064 18.9327C14.5069 14.5199 17.9196 10.119 21.3079 5.70614C21.7087 5.17708 22.2066 4.90052 22.8746 5.03279C23.9312 5.24922 24.3441 6.43962 23.6761 7.34143C22.656 8.68814 21.6237 10.0108 20.5914 11.3455C17.7981 14.9648 15.017 18.5961 12.2237 22.2153C11.4586 23.2133 10.5478 23.2614 9.67334 22.3476C7.9488 20.5319 6.2364 18.7163 4.51186 16.9006C3.8439 16.2032 3.83176 15.3375 4.46328 14.7483C5.0948 14.1591 5.95707 14.2313 6.63717 14.9287C8.00952 16.3836 9.39401 17.8385 10.7906 19.3295Z" fill="white" stroke="white" stroke-width="0.3"/>
</svg>
