<svg width="34" height="34" viewBox="0 0 34 34" fill="none" xmlns="http://www.w3.org/2000/svg">
<rect width="34" height="34" fill="white"/>
<path d="M8.22161 10.0648C7.98203 10.0648 7.75443 10.0648 7.53281 10.0648C7.0776 10.0588 6.75417 9.75931 6.75417 9.34603C6.75417 8.92676 7.0776 8.63327 7.53281 8.63327C10.7911 8.63327 14.0495 8.63327 17.3078 8.63926C17.5055 8.63926 17.6073 8.57937 17.7151 8.41765C19.0089 6.51296 20.8117 5.59655 23.1057 5.81218C25.6633 6.05176 27.6578 7.89056 28.1729 10.3882C28.8198 13.5208 26.6456 16.6653 23.4951 17.1624C22.0276 17.396 20.674 17.1085 19.3982 16.3119C18.9849 16.6893 18.5596 17.0606 18.3141 17.5877C18.1643 17.9111 18.2003 18.2286 18.4039 18.5041C18.6375 18.8275 18.8951 19.145 19.1885 19.4145C19.7815 19.9596 20.4224 20.4507 21.0214 20.9958C21.4826 21.421 21.9198 21.8703 22.3391 22.3374C23.2375 23.3317 23.7526 24.5057 23.9263 25.8593C24.1599 25.8593 24.3875 25.8593 24.6151 25.8593C25.0763 25.8593 25.3997 26.1528 25.3997 26.5721C25.4057 26.9854 25.0823 27.2968 24.6271 27.2968C18.925 27.2968 13.2229 27.2968 7.52083 27.2968C7.06562 27.2968 6.74219 26.9913 6.74219 26.5781C6.74219 26.1588 7.06562 25.8653 7.52083 25.8653C7.74245 25.8653 7.97005 25.8653 8.20365 25.8653C8.24557 25.6317 8.28151 25.4041 8.32943 25.1825C8.65286 23.727 9.46146 22.5591 10.5276 21.5588C11.2823 20.846 12.0909 20.1932 12.8635 19.4984C13.1451 19.2468 13.4146 18.9653 13.6422 18.6658C14.0135 18.1687 14.0375 17.7434 13.6362 17.2762C13.2049 16.7731 12.7078 16.3299 12.2227 15.8807C11.6536 15.3536 11.0367 14.8744 10.4797 14.3354C9.31172 13.1734 8.46719 11.9036 8.22161 10.0648ZM9.70703 10.0768C9.70703 10.1127 9.70104 10.1426 9.70703 10.1726C9.71901 10.2385 9.725 10.3044 9.74297 10.3703C9.93464 11.2687 10.3779 12.0354 10.9648 12.7301C11.6177 13.4968 12.4023 14.1257 13.163 14.7726C13.7919 15.3057 14.4268 15.8268 14.894 16.5216C15.2773 17.0966 15.463 17.7195 15.3253 18.4143C15.2234 18.9413 14.9779 19.4085 14.6065 19.7859C14.0435 20.3549 13.4445 20.882 12.8576 21.421C12.5521 21.7025 12.2286 21.9601 11.8753 22.2596C14.7023 22.2596 17.4755 22.2596 20.2906 22.2596C20.1648 22.1458 20.069 22.0559 19.9672 21.9721C19.4401 21.5229 18.8951 21.0916 18.3859 20.6124C17.9846 20.2351 17.5953 19.8338 17.2779 19.3906C16.7089 18.588 16.631 17.7135 17.1102 16.833C17.2958 16.4976 17.5474 16.1921 17.793 15.8986C17.9487 15.713 18.1464 15.5692 18.326 15.4015C16.9724 13.8203 16.5292 12.0653 16.9844 10.0828C14.5466 10.0768 12.1328 10.0768 9.70703 10.0768ZM18.2362 11.5023C18.2482 13.8801 20.1768 15.8088 22.5427 15.8028C24.9385 15.7968 26.8492 13.8622 26.8432 11.4484C26.8312 9.10046 24.8846 7.18978 22.5128 7.18978C20.1648 7.20176 18.2302 9.14838 18.2362 11.5023ZM22.4768 25.8413C22.363 25.1106 22.0935 24.4697 21.7102 23.8768C21.6203 23.739 21.5305 23.6971 21.3687 23.6971C19.3622 23.7031 17.3497 23.7031 15.3432 23.7031C13.8219 23.7031 12.2945 23.7031 10.7732 23.7091C10.6893 23.7091 10.5635 23.733 10.5216 23.7929C10.0784 24.4098 9.80885 25.0926 9.69505 25.8533C13.9596 25.8413 18.2062 25.8413 22.4768 25.8413Z" fill="#848484"/>
<path d="M23.2581 10.7813C23.7613 10.7813 24.2344 10.7753 24.7136 10.7813C25.079 10.7873 25.3725 11.0688 25.4084 11.4162C25.4443 11.7696 25.2167 12.1589 24.8633 12.1769C24.0368 12.2188 23.2102 12.2128 22.3837 12.1829C22.0662 12.1709 21.8326 11.8475 21.8326 11.5181C21.8266 10.7873 21.8266 10.0566 21.8326 9.31988C21.8386 8.93055 22.1561 8.63107 22.5394 8.62508C22.9287 8.6191 23.2521 8.93055 23.2581 9.33186C23.2641 9.80503 23.2581 10.2722 23.2581 10.7813Z" fill="#5A5A5A"/>
</svg>
