<svg width="43" height="43" viewBox="0 0 43 43" fill="none" xmlns="http://www.w3.org/2000/svg">
<path d="M10 20.8072C10 16.8162 10 12.8445 10 8.85348C10 7.02185 11.0219 6 12.8535 6C18.4255 6 23.9975 6 29.5695 6C31.4782 6 32.4808 7.00257 32.4808 8.94988C32.4808 16.8548 32.4808 24.7404 32.4808 32.6453C32.4808 34.6505 31.5168 35.5952 29.5309 35.5952C24.0167 35.5952 18.4833 35.5952 12.9692 35.5952C10.9833 35.5952 10.0193 34.6312 10.0193 32.626C10 28.6736 10 24.7404 10 20.8072ZM27.8921 13.7699C27.8921 13.0951 27.9114 12.4203 27.8921 11.7455C27.8535 10.1838 26.7738 8.94988 25.2314 8.85348C23.8239 8.77636 22.3972 8.77636 20.9897 8.85348C19.5244 8.94988 18.4062 10.1453 18.3676 11.6298C18.3291 13.018 18.3291 14.4255 18.3676 15.8137C18.4255 17.3561 19.6594 18.5707 21.2018 18.6093C22.4743 18.6478 23.7468 18.6286 25.0193 18.6093C26.6389 18.5707 27.8535 17.3368 27.8921 15.698C27.9114 15.081 27.8921 14.4255 27.8921 13.7699ZM14.5309 10.608C14.5116 9.74037 14.1453 9.3162 13.509 9.1234C12.8728 8.9306 12.3715 9.20052 12.0244 9.72109C11.6581 10.2609 11.6774 10.8586 12.1208 11.3021C12.4872 11.6684 12.5257 12.054 12.5257 12.536C12.5257 17.9152 12.5257 23.2751 12.5064 28.6543C12.5064 29.0013 12.3329 29.4255 12.1015 29.6954C11.6003 30.3124 11.5617 31.1029 12.0823 31.662C12.6028 32.2211 13.4512 32.2597 14.0296 31.7777C14.5887 31.315 14.6465 30.4666 14.2224 29.8304C14.0296 29.5219 13.8561 29.117 13.8561 28.7507C13.8368 23.3715 13.8368 18.0116 13.8368 12.6324C13.8368 12.1118 13.8368 11.6491 14.2802 11.2635C14.4537 11.0707 14.473 10.7429 14.5309 10.608ZM23.2648 30.6016C25.0964 30.6016 26.9088 30.6016 28.7404 30.6016C29.2031 30.6016 29.6851 30.5245 29.6851 29.9654C29.6851 29.3677 29.2031 29.2713 28.7211 29.2713C25.1157 29.2713 21.5103 29.2713 17.9242 29.2713C17.4615 29.2713 16.9987 29.3484 16.9795 29.9268C16.9602 30.563 17.4615 30.6016 17.9435 30.6016C19.7172 30.6016 21.491 30.6016 23.2648 30.6016ZM23.3227 27.054C24.6723 27.054 26.0026 27.054 27.3522 27.054C27.7957 27.054 28.2006 26.9384 28.2198 26.4178C28.2391 25.8587 27.8342 25.7237 27.333 25.743C24.653 25.743 21.9538 25.743 19.2738 25.743C18.8111 25.743 18.3484 25.7815 18.3291 26.3792C18.3098 27.0155 18.7918 27.0733 19.2738 27.0733C20.6234 27.054 21.973 27.054 23.3227 27.054Z" fill="#1C56AD"/>
<path d="M24.2303 14.6942C24.2303 15.1954 24.2496 15.6003 24.2303 16.0052C24.211 16.6029 23.9025 16.9692 23.3048 16.9692C22.7072 16.9692 22.3987 16.6029 22.3794 16.0052C22.3023 14.7713 22.3023 14.7713 21.1069 14.6942C20.4321 14.6556 20.0658 14.3278 20.1043 13.7494C20.1236 13.1325 20.4899 12.8625 21.0876 12.8433C21.4925 12.8433 21.8974 12.8433 22.3987 12.8433C22.3987 12.342 22.3987 11.9178 22.3987 11.4936C22.3987 10.8959 22.7072 10.5489 23.3048 10.5103C23.864 10.4718 24.2303 10.8767 24.2496 11.5322C24.2689 11.9371 24.2496 12.342 24.2496 12.8433C24.7316 12.8433 25.1558 12.8433 25.5799 12.8433C26.1776 12.8625 26.5632 13.171 26.5632 13.7494C26.5632 14.3278 26.2162 14.6749 25.5992 14.6749C25.1558 14.6942 24.7702 14.6942 24.2303 14.6942Z" fill="#1C56AD"/>
</svg>
