<svg width="20" height="11" viewBox="0 0 20 11" fill="none" xmlns="http://www.w3.org/2000/svg">
<path d="M10.0404 3.30641C10.1568 3.43556 10.2284 3.5475 10.3269 3.6336C12.7078 5.92398 15.0978 8.21435 17.4698 10.5133C17.8905 10.918 18.3828 11.0988 18.9556 10.9439C19.9313 10.6942 20.3162 9.5748 19.7075 8.79986C19.618 8.67931 19.5017 8.57599 19.3942 8.47267C16.6642 5.84648 13.9341 3.2203 11.2041 0.59412C10.3806 -0.19804 9.6287 -0.19804 8.80521 0.59412C6.03935 3.25474 3.28244 5.90676 0.51658 8.55877C0.0958824 8.96346 -0.10104 9.42842 0.0511269 9.9881C0.301755 10.918 1.46539 11.3055 2.27098 10.7286C2.40524 10.6339 2.5216 10.5133 2.63797 10.4014C5.00103 8.12825 7.35515 5.8637 9.71821 3.59055C9.80772 3.51306 9.89723 3.43556 10.0404 3.30641Z" fill="#1855B0"/>
</svg>
