<svg width="19" height="24" viewBox="0 0 19 24" fill="none" xmlns="http://www.w3.org/2000/svg">
<path d="M0.374291 23.9299C0.0995939 23.7926 0.0121902 23.5616 0.0121902 23.2619C0.0309196 21.9196 -0.0502412 20.5774 0.0558919 19.2413C0.318103 16.0199 1.94756 13.66 4.78818 12.1242C4.80067 12.1179 4.8194 12.1179 4.8631 12.1117C4.75072 12.4301 4.63835 12.7298 4.53846 13.0357C4.09519 14.378 3.77055 15.7452 3.56453 17.1374C3.53956 17.2872 3.47712 17.3372 3.34602 17.3871C2.38458 17.7118 1.81645 18.6607 1.97253 19.6471C2.12861 20.6211 2.97143 21.3515 3.95784 21.364C4.96923 21.3827 5.83078 20.6773 6.01808 19.6784C6.19288 18.7481 5.66846 17.7992 4.76945 17.4308C4.70078 17.3996 4.62586 17.3747 4.50724 17.3247C4.71326 16.4007 4.88183 15.4643 5.14404 14.559C5.41874 13.6038 5.78708 12.6798 6.11172 11.7371C6.16167 11.5935 6.24283 11.5186 6.38642 11.4936C6.99825 11.3937 7.61007 11.2377 8.22814 11.2002C9.47052 11.1315 10.7191 11.1128 11.949 11.3937C12.1738 11.4437 12.2987 11.5248 12.3361 11.7683C12.4735 12.6736 12.6233 13.5788 12.7731 14.4841C12.8044 14.6651 12.7294 14.7588 12.5609 14.8399C11.6119 15.3082 10.7379 15.8888 10.0262 16.6817C9.55793 17.1998 9.23328 17.7929 9.14588 18.4984C9.04599 19.31 9.57666 20.3214 10.3071 20.6898C10.5256 20.8021 10.7941 20.7397 10.9377 20.5462C11.0875 20.3464 11.0688 20.0842 10.894 19.9031C10.8253 19.8344 10.7379 19.7783 10.6567 19.7096C10.1385 19.2726 10.0074 18.7419 10.2759 18.1176C10.5006 17.5932 10.8565 17.1686 11.306 16.8377C11.8304 16.4507 12.3861 16.1073 12.9355 15.7577C12.9916 15.7202 13.1165 15.714 13.154 15.7452C13.9156 16.4382 14.5899 17.1998 14.9707 18.1675C15.0394 18.3486 15.0893 18.5359 15.1206 18.7294C15.2392 19.4411 14.9645 19.9343 14.2965 20.2215C14.234 20.2465 14.1654 20.2715 14.1029 20.3027C13.8532 20.4275 13.7533 20.6835 13.8532 20.9332C13.9468 21.1767 14.2028 21.3016 14.465 21.2267C15.62 20.902 16.3192 19.7845 16.1194 18.5921C15.9634 17.6618 15.5076 16.8814 14.9208 16.1697C14.6024 15.7827 14.234 15.433 13.8907 15.0585C13.8345 14.996 13.7658 14.9086 13.7658 14.8337C13.8033 13.866 13.6035 12.9295 13.4099 11.9931C13.4037 11.9556 13.3974 11.9182 13.4287 11.8308C13.8969 12.0992 14.3901 12.3302 14.8271 12.6424C17.3556 14.4092 18.6417 16.844 18.6916 19.9281C18.7103 21.0331 18.6916 22.1382 18.6979 23.2494C18.6979 23.5491 18.6105 23.7801 18.3358 23.9174C12.3424 23.9299 6.3552 23.9299 0.374291 23.9299Z" fill="#1D57AD"/>
<path d="M9.33647 10.3886C6.46464 10.3824 4.14844 8.05368 4.14844 5.18184C4.15468 2.31625 6.48961 -0.0124363 9.36145 4.99793e-05C12.227 0.0062931 14.5495 2.35371 14.537 5.2193C14.5245 8.0849 12.1958 10.3949 9.33647 10.3886Z" fill="#1D57AD"/>
</svg>
