<svg width="23" height="23" viewBox="0 0 23 23" fill="none" xmlns="http://www.w3.org/2000/svg">
<path d="M11.9453 22.9934C11.9453 20.7933 11.9498 18.5932 11.9453 16.393C11.9453 16.2086 11.9948 16.0691 12.0983 15.9206C13.0746 14.5574 14.0374 13.1896 15.0183 11.8308C15.1353 11.6689 15.3107 11.5384 15.4817 11.4169C15.6302 11.3089 16.0441 11.5564 16.0486 11.7454C16.0486 13.2256 16.0486 14.7103 16.0531 16.1906C16.0531 16.3391 15.9811 16.3885 15.8641 16.447C15.0948 16.816 14.6763 17.5988 14.7753 18.4582C14.8698 19.2456 15.4952 19.9159 16.3006 20.0869C17.2409 20.2849 18.1812 19.763 18.5097 18.8586C18.8381 17.9543 18.4602 16.9465 17.6098 16.501C17.4434 16.411 17.3804 16.3256 17.3804 16.1321C17.3939 14.9578 17.3849 13.7835 17.3849 12.6092C17.3849 12.5372 17.3849 12.4652 17.3849 12.3573C17.4659 12.4022 17.5243 12.4292 17.5783 12.4652C20.2734 14.3459 21.9201 16.8925 22.433 20.1409C22.5365 20.8023 22.5275 21.4817 22.5635 22.152C22.577 22.4355 22.577 22.7189 22.586 23.0024C19.0406 22.9934 15.4907 22.9934 11.9453 22.9934ZM13.52 20.8428C13.88 20.8518 14.1994 20.5593 14.2039 20.2174C14.2129 19.8349 13.916 19.5155 13.547 19.511C13.1916 19.5065 12.8722 19.808 12.8722 20.1499C12.8722 20.5323 13.1556 20.8383 13.52 20.8428Z" fill="white"/>
<path d="M0.00295165 22.9913C-0.00154756 21.9205 -0.0240436 20.8497 0.18292 19.7924C0.808312 16.5754 2.50902 14.0874 5.24004 12.2922C5.27603 12.2697 5.31653 12.2472 5.37952 12.2157C5.38402 12.2877 5.39301 12.3462 5.39301 12.4002C5.39301 13.588 5.39301 14.7802 5.39751 15.968C5.39751 16.1165 5.36602 16.184 5.20405 16.2245C3.7598 16.5754 2.73398 17.8532 2.69798 19.347C2.68898 19.7789 2.69798 20.2108 2.69798 20.6607C3.14341 20.6607 3.57083 20.6607 4.03425 20.6607C4.03425 20.5527 4.02975 20.4538 4.03425 20.3503C4.05225 19.8959 4.01175 19.4279 4.09724 18.987C4.29071 18.0017 5.23104 17.3628 6.22987 17.4753C7.1882 17.5833 7.93507 18.4021 7.95757 19.3784C7.96657 19.7789 7.95757 20.1838 7.95757 20.5977C8.41199 20.5977 8.84391 20.5977 9.27584 20.5977C9.40182 19.1715 9.29833 17.8217 8.05655 16.8634C7.67412 16.5664 7.2107 16.3775 6.78327 16.139C6.76527 16.157 6.75178 16.175 6.73378 16.193C6.73378 16.103 6.73378 16.013 6.73378 15.9275C6.73378 14.5193 6.73378 13.1155 6.73828 11.7073C6.73828 11.6218 6.78327 11.5093 6.84626 11.4553C6.94974 11.3608 7.07122 11.3698 7.1792 11.4823C7.32768 11.6353 7.50765 11.7658 7.62912 11.9412C8.58296 13.273 9.53229 14.6093 10.4771 15.9455C10.5446 16.0445 10.6076 16.1705 10.6076 16.2875C10.6166 18.4876 10.6121 20.6877 10.6121 22.8878C10.6121 22.9238 10.6076 22.9598 10.6031 23.0003C7.06672 22.9913 3.53484 22.9913 0.00295165 22.9913Z" fill="white"/>
<path d="M16.9893 5.70051C16.9983 8.84997 14.4428 11.41 11.2888 11.4145C8.13937 11.419 5.57482 8.86346 5.57032 5.71851C5.56582 2.57356 8.12587 0.00450516 11.2753 5.9422e-06C14.4203 -0.00449328 16.9803 2.54656 16.9893 5.70051Z" fill="white"/>
<path d="M12.7945 12.6406C12.2726 13.3785 11.7867 14.0534 11.2873 14.7598C10.7879 14.0579 10.3065 13.3785 9.78906 12.6496C10.8014 12.8431 11.7687 12.8566 12.7945 12.6406Z" fill="white"/>
<path d="M16.7002 17.6016C17.0241 17.6061 17.2851 17.8626 17.2851 18.1865C17.2896 18.5195 17.0196 18.7849 16.6867 18.7804C16.3537 18.7759 16.0928 18.5105 16.1018 18.173C16.1108 17.8491 16.3762 17.5971 16.7002 17.6016Z" fill="white"/>
</svg>
