<svg width="42" height="42" viewBox="0 0 42 42" fill="none" xmlns="http://www.w3.org/2000/svg">
<path d="M14.8068 11.0046C17.5561 11.0046 20.2948 10.9943 23.0441 11.0046C25.8357 11.0149 28.1409 12.7315 28.7964 15.3269C28.9233 15.8336 28.9868 16.3713 28.9868 16.8987C29.0079 20.4764 28.9974 24.0439 28.9974 27.6217C28.9974 29.1211 28.0986 30 26.5653 30C21.0456 30 15.5364 30 10.0167 30C6.5378 30 4 27.5079 4 24.1059C4 20.5075 4 16.909 4 13.3105C4 11.9042 4.89881 11.0149 6.34747 11.0149C9.1602 10.9943 11.9835 11.0046 14.8068 11.0046Z" fill="white"/>
<path d="M38 20.5149C38 23.0138 38 25.5127 38 28.0116C38 28.8377 37.7269 29.4779 36.9684 29.829C36.22 30.1697 35.5526 29.9839 34.9458 29.4263C33.6007 28.2078 32.2455 26.979 30.87 25.7915C30.2632 25.2649 29.9902 24.6556 30.0003 23.8399C30.0306 21.6095 30.0205 19.379 30.0003 17.1486C29.9902 16.3639 30.243 15.7649 30.8296 15.259C32.2556 14.0198 33.6512 12.7601 35.0469 11.5003C35.6132 10.9943 36.2504 10.8498 36.9381 11.1699C37.6359 11.49 37.9899 12.0786 37.9899 12.8633C38 15.4139 38 17.9644 38 20.5149Z" fill="white"/>
</svg>
