<svg width="60" height="29" viewBox="0 0 60 29" fill="none" xmlns="http://www.w3.org/2000/svg">
<g filter="url(#filter0_d_183_257)">
<path d="M56 10C56 4.47715 51.5228 0 46 0L14 0C8.47715 0 4 4.47715 4 10V10.6575C4 16.1804 8.47715 20.6575 14 20.6575L46 20.6575C51.5228 20.6575 56 16.1804 56 10.6575V10Z" fill="#0C5725"/>
</g>
<path d="M24.272 12.284L26.564 5.624H28.352L25.28 14H23.24L20.168 5.624H21.968L24.272 12.284ZM29.9593 14V5.624H31.6393V14H29.9593ZM35.5791 9.428H36.9111C37.8591 9.428 38.2791 8.96 38.2791 8.216C38.2791 7.448 37.8591 6.992 36.9111 6.992H35.5791V9.428ZM40.0071 8.216C40.0071 9.488 39.1431 10.784 36.9831 10.784H35.5791V14H33.8991V5.624H36.9831C38.9991 5.624 40.0071 6.764 40.0071 8.216Z" fill="white"/>
<defs>
<filter id="filter0_d_183_257" x="0" y="0" width="60" height="28.6562" filterUnits="userSpaceOnUse" color-interpolation-filters="sRGB">
<feFlood flood-opacity="0" result="BackgroundImageFix"/>
<feColorMatrix in="SourceAlpha" type="matrix" values="0 0 0 0 0 0 0 0 0 0 0 0 0 0 0 0 0 0 127 0" result="hardAlpha"/>
<feOffset dy="4"/>
<feGaussianBlur stdDeviation="2"/>
<feComposite in2="hardAlpha" operator="out"/>
<feColorMatrix type="matrix" values="0 0 0 0 0 0 0 0 0 0 0 0 0 0 0 0 0 0 0.25 0"/>
<feBlend mode="normal" in2="BackgroundImageFix" result="effect1_dropShadow_183_257"/>
<feBlend mode="normal" in="SourceGraphic" in2="effect1_dropShadow_183_257" result="shape"/>
</filter>
</defs>
</svg>
