<svg width="91" height="86" viewBox="0 0 91 86" fill="none" xmlns="http://www.w3.org/2000/svg">
<g filter="url(#filter0_d_1_86064)">
<rect x="4" y="3" width="82.7273" height="78" rx="5" fill="#1D57AD"/>
</g>
<path d="M26.466 43.3752C24.9904 39.2585 24.6929 35.179 26.3916 31.0871C27.4952 28.4211 29.566 26.71 32.1947 25.6808C35.431 24.416 38.6922 24.2424 41.9161 25.7428C43.2181 26.3504 44.3464 27.206 45.326 28.2599C45.9088 27.7639 46.4296 27.2556 47.0248 26.8216C49.5419 24.9864 52.3443 24.3788 55.407 24.8252C57.5026 25.1352 59.4617 25.7924 61.1605 27.1068C63.5909 28.9915 64.8432 31.5335 65.3144 34.5218C65.7484 37.287 65.3888 39.9777 64.5456 42.6188C64.4464 42.9164 64.31 43.0156 63.9876 43.0156C61.2969 43.0032 58.6062 43.0156 55.9154 43.0032C55.0226 42.9908 54.2662 43.1892 53.6587 43.9704C53.3115 43.4 52.9767 42.8668 52.6543 42.3336C52.4311 41.9741 52.2203 41.6269 51.9971 41.2673C51.0175 39.7297 49.0831 39.7049 48.0912 41.2301C47.0124 42.8668 45.9584 44.5284 44.892 46.1776C44.7928 46.3264 44.6936 46.4876 44.5324 46.7232C44.4456 46.5 44.3836 46.3636 44.334 46.2024C43.4165 43.5116 42.4865 40.8333 41.5689 38.1425C41.2341 37.163 40.6017 36.5554 39.5725 36.4562C38.5806 36.357 37.8614 36.853 37.353 37.6837C36.2618 39.4817 35.1458 41.2673 34.0299 43.0404C33.9431 43.1892 33.7447 43.3628 33.5959 43.3628C31.2523 43.3876 28.884 43.3752 26.466 43.3752Z" fill="white"/>
<path d="M44.1204 50.094C44.2568 49.8832 44.356 49.7468 44.4428 49.6104C46.0424 47.1304 47.642 44.6505 49.2539 42.1705C49.7871 41.3521 50.3203 41.3521 50.8287 42.1829C51.6099 43.4601 52.4035 44.7373 53.1846 46.0144C53.2714 46.1632 53.3706 46.2996 53.4822 46.4732C53.941 45.9276 54.3502 45.3696 54.8338 44.8985C55.0446 44.6877 55.4042 44.5017 55.7018 44.5017C58.8761 44.4769 62.0505 44.4893 65.2248 44.4893C65.8076 44.4893 66.1548 44.7621 66.1672 45.2209C66.1672 45.6796 65.82 45.9648 65.2496 45.9772C64.6792 45.9772 64.1088 45.9648 63.5384 45.9896C63.3772 46.002 63.154 46.1136 63.0796 46.25C59.8061 52.5491 55.057 57.6206 49.7995 62.2581C48.5223 63.3865 47.1708 64.4157 45.8688 65.5192C45.4968 65.8292 45.1744 65.8044 44.8272 65.5192C39.6193 61.2785 34.6842 56.7526 30.7659 51.2471C29.7367 49.8088 28.8687 48.2464 27.9512 46.7212C27.8024 46.4608 27.666 46.3368 27.3436 46.3492C26.7236 46.374 26.1036 46.3616 25.4836 46.3616C24.9256 46.3616 24.5908 46.0888 24.5784 45.6548C24.566 45.2085 24.9256 44.8861 25.4836 44.8861C28.3976 44.8861 31.2991 44.8737 34.213 44.8985C34.5726 44.8985 34.7586 44.7869 34.9446 44.4893C36.1598 42.4929 37.3874 40.5089 38.6149 38.525C38.8133 38.1902 39.0489 37.8926 39.4829 37.9422C39.9169 37.9918 40.0781 38.3142 40.2021 38.6986C41.4545 42.3689 42.7193 46.0268 43.9716 49.6972C44.0088 49.784 44.046 49.8956 44.1204 50.094Z" fill="white"/>
<defs>
<filter id="filter0_d_1_86064" x="0" y="0" width="90.7266" height="86" filterUnits="userSpaceOnUse" color-interpolation-filters="sRGB">
<feFlood flood-opacity="0" result="BackgroundImageFix"/>
<feColorMatrix in="SourceAlpha" type="matrix" values="0 0 0 0 0 0 0 0 0 0 0 0 0 0 0 0 0 0 127 0" result="hardAlpha"/>
<feOffset dy="1"/>
<feGaussianBlur stdDeviation="2"/>
<feComposite in2="hardAlpha" operator="out"/>
<feColorMatrix type="matrix" values="0 0 0 0 0 0 0 0 0 0 0 0 0 0 0 0 0 0 0.25 0"/>
<feBlend mode="normal" in2="BackgroundImageFix" result="effect1_dropShadow_1_86064"/>
<feBlend mode="normal" in="SourceGraphic" in2="effect1_dropShadow_1_86064" result="shape"/>
</filter>
</defs>
</svg>
