<svg width="39" height="38" viewBox="0 0 39 38" fill="none" xmlns="http://www.w3.org/2000/svg">
<path d="M1.73846 17.2623C0.376398 13.4622 0.101696 9.69651 1.66979 5.91936C2.68847 3.45849 4.59994 1.87895 7.02647 0.928939C10.0139 -0.238544 13.0241 -0.398787 16.0001 0.986169C17.2019 1.54702 18.2435 2.33679 19.1477 3.30969C19.6857 2.85185 20.1664 2.38257 20.7158 1.98196C23.0393 0.287968 25.6261 -0.272882 28.4532 0.139171C30.3876 0.425319 32.196 1.03195 33.7641 2.24522C36.0075 3.985 37.1636 6.33141 37.5985 9.08988C37.9991 11.6423 37.6672 14.1261 36.8889 16.5641C36.7973 16.8388 36.6714 16.9303 36.3738 16.9303C33.89 16.9189 31.4063 16.9303 28.9225 16.9189C28.0984 16.9074 27.4002 17.0906 26.8394 17.8117C26.5189 17.2852 26.2098 16.793 25.9122 16.3008C25.7062 15.9689 25.5116 15.6484 25.3056 15.3165C24.4014 13.8972 22.6158 13.8743 21.7001 15.2821C20.7043 16.793 19.7314 18.3267 18.7471 19.849C18.6555 19.9864 18.564 20.1352 18.4152 20.3527C18.335 20.1466 18.2778 20.0207 18.232 19.8719C17.385 17.3882 16.5266 14.9159 15.6796 12.4321C15.3706 11.5279 14.7868 10.967 13.8368 10.8754C12.9211 10.7839 12.2573 11.2417 11.788 12.0086C10.7807 13.6682 9.7506 15.3165 8.72047 16.9532C8.64035 17.0906 8.45722 17.2508 8.31986 17.2508C6.15659 17.2737 3.97042 17.2623 1.73846 17.2623Z" fill="white"/>
<path d="M18.0391 23.4642C18.165 23.2696 18.2565 23.1437 18.3366 23.0178C19.8132 20.7286 21.2897 18.4394 22.7777 16.1503C23.2698 15.3948 23.762 15.3948 24.2313 16.1617C24.9524 17.3406 25.6849 18.5196 26.406 19.6985C26.4861 19.8358 26.5777 19.9618 26.6807 20.122C27.1042 19.6184 27.4819 19.1033 27.9283 18.6684C28.1229 18.4738 28.4548 18.3021 28.7295 18.3021C31.6597 18.2792 34.5899 18.2906 37.52 18.2906C38.058 18.2906 38.3785 18.5425 38.3899 18.966C38.3899 19.3895 38.0694 19.6527 37.5429 19.6642C37.0164 19.6642 36.4899 19.6527 35.9634 19.6756C35.8146 19.687 35.6085 19.7901 35.5399 19.916C32.5181 25.7305 28.1344 30.4119 23.2813 34.6926C22.1024 35.7342 20.8548 36.6842 19.6529 37.7029C19.3096 37.9891 19.012 37.9662 18.6915 37.7029C13.8842 33.7884 9.32871 29.6107 5.7118 24.5287C4.76179 23.2009 3.96057 21.7588 3.11358 20.3509C2.97623 20.1105 2.85032 19.9961 2.55273 20.0075C1.98043 20.0304 1.40813 20.019 0.835839 20.019C0.320773 20.019 0.0117328 19.7672 0.000286894 19.3666C-0.011159 18.9545 0.320773 18.6569 0.835839 18.6569C3.52563 18.6569 6.20397 18.6455 8.89377 18.6684C9.2257 18.6684 9.39739 18.5653 9.56908 18.2906C10.6908 16.4479 11.8239 14.6165 12.9571 12.7852C13.1402 12.4761 13.3577 12.2014 13.7583 12.2472C14.1589 12.293 14.3077 12.5906 14.4221 12.9454C15.5782 16.3334 16.7457 19.7099 17.9017 23.0979C17.936 23.1781 17.9704 23.2811 18.0391 23.4642Z" fill="white"/>
</svg>
