<svg width="43" height="43" viewBox="0 0 43 43" fill="none" xmlns="http://www.w3.org/2000/svg">
<path d="M9.26671 19.8482C8.27327 17.0766 8.07292 14.33 9.21662 11.5751C9.95961 9.78029 11.3538 8.62824 13.1236 7.93534C15.3024 7.08383 17.498 6.96695 19.6685 7.97708C20.5451 8.38614 21.3048 8.96217 21.9643 9.67176C22.3567 9.33784 22.7073 8.99556 23.108 8.70337C24.8027 7.46784 26.6894 7.05878 28.7514 7.35932C30.1622 7.56802 31.4812 8.01048 32.6249 8.89538C34.2612 10.1643 35.1043 11.8757 35.4215 13.8876C35.7137 15.7492 35.4716 17.5608 34.904 19.339C34.8372 19.5393 34.7453 19.6061 34.5283 19.6061C32.7167 19.5977 30.9052 19.6061 29.0936 19.5977C28.4926 19.5894 27.9833 19.723 27.5743 20.2489C27.3405 19.8649 27.1151 19.5059 26.8981 19.1469C26.7478 18.9048 26.6059 18.6711 26.4556 18.429C25.7961 17.3938 24.4938 17.3771 23.8259 18.404C23.0996 19.5059 22.39 20.6246 21.6721 21.7349C21.6053 21.8351 21.5385 21.9436 21.43 22.1022C21.3716 21.9519 21.3298 21.8601 21.2964 21.7516C20.6787 19.94 20.0526 18.1368 19.4348 16.3253C19.2094 15.6658 18.7836 15.2567 18.0907 15.1899C17.4229 15.1231 16.9387 15.4571 16.5964 16.0164C15.8618 17.2269 15.1104 18.429 14.3591 19.6228C14.3007 19.723 14.1671 19.8398 14.0669 19.8398C12.4891 19.8565 10.8946 19.8482 9.26671 19.8482Z" fill="#1C56AD"/>
<path d="M21.1569 24.3724C21.2488 24.2305 21.3156 24.1386 21.374 24.0468C22.4509 22.3772 23.5278 20.7075 24.6131 19.0379C24.9721 18.4869 25.331 18.4869 25.6733 19.0462C26.1992 19.9061 26.7335 20.766 27.2595 21.6258C27.3179 21.726 27.3847 21.8178 27.4598 21.9347C27.7687 21.5674 28.0442 21.1917 28.3698 20.8745C28.5117 20.7326 28.7538 20.6073 28.9541 20.6073C31.0913 20.5906 33.2284 20.599 35.3655 20.599C35.7579 20.599 35.9917 20.7827 36 21.0915C36 21.4004 35.7662 21.5924 35.3822 21.6008C34.9982 21.6008 34.6142 21.5924 34.2302 21.6091C34.1217 21.6175 33.9714 21.6926 33.9213 21.7844C31.7174 26.0253 28.52 29.4397 24.9804 32.5619C24.1205 33.3216 23.2106 34.0145 22.334 34.7575C22.0836 34.9662 21.8665 34.9495 21.6328 34.7575C18.1266 31.9024 14.804 28.8553 12.1659 25.1488C11.4731 24.1804 10.8887 23.1285 10.2709 22.1017C10.1707 21.9264 10.0789 21.8429 9.86185 21.8512C9.44444 21.8679 9.02704 21.8596 8.60963 21.8596C8.23396 21.8596 8.00856 21.6759 8.00021 21.3837C7.99186 21.0832 8.23396 20.8661 8.60963 20.8661C10.5714 20.8661 12.5249 20.8578 14.4867 20.8745C14.7288 20.8745 14.8541 20.7994 14.9793 20.599C15.7974 19.2549 16.6239 17.9192 17.4503 16.5835C17.5839 16.3581 17.7425 16.1578 18.0347 16.1912C18.3269 16.2246 18.4354 16.4416 18.5189 16.7004C19.3621 19.1715 20.2136 21.6342 21.0568 24.1052C21.0818 24.1637 21.1068 24.2388 21.1569 24.3724Z" fill="#1C56AD"/>
</svg>
