<svg width="30" height="29" viewBox="0 0 30 29" fill="none" xmlns="http://www.w3.org/2000/svg">
<path d="M1.33061 13.2048C0.288697 10.298 0.0785634 7.41737 1.27808 4.52803C2.05732 2.64558 3.51951 1.43731 5.37569 0.710594C7.66089 -0.182475 9.96361 -0.305053 12.2401 0.754372C13.1594 1.1834 13.9562 1.78753 14.6478 2.53175C15.0594 2.18153 15.4271 1.82255 15.8474 1.51611C17.6247 0.220282 19.6035 -0.208742 21.7661 0.106459C23.2458 0.325349 24.6292 0.789394 25.8287 1.71749C27.5448 3.04833 28.4291 4.84323 28.7618 6.95332C29.0683 8.90582 28.8144 10.8058 28.219 12.6707C28.149 12.8809 28.0526 12.9509 27.825 12.9509C25.925 12.9421 24.0251 12.9509 22.1251 12.9421C21.4947 12.9334 20.9606 13.0735 20.5316 13.6251C20.2864 13.2223 20.05 12.8458 19.8224 12.4693C19.6648 12.2154 19.5159 11.9703 19.3583 11.7164C18.6667 10.6307 17.3008 10.6132 16.6003 11.6901C15.8386 12.8458 15.0944 14.0191 14.3414 15.1836C14.2714 15.2886 14.2013 15.4025 14.0875 15.5688C14.0262 15.4112 13.9824 15.3149 13.9474 15.2011C13.2995 13.3011 12.6428 11.4099 11.9949 9.50995C11.7585 8.81826 11.312 8.38924 10.5853 8.31919C9.88481 8.24915 9.37699 8.59937 9.01801 9.186C8.24752 10.4556 7.45952 11.7164 6.67151 12.9684C6.61023 13.0735 6.47014 13.1961 6.36507 13.1961C4.71026 13.2136 3.03795 13.2048 1.33061 13.2048Z" fill="#1855B0"/>
<path d="M13.799 17.9515C13.8953 17.8026 13.9654 17.7063 14.0267 17.61C15.1561 15.8589 16.2856 14.1078 17.4238 12.3567C17.8003 11.7788 18.1768 11.7788 18.5358 12.3654C19.0874 13.2673 19.6477 14.1691 20.1993 15.0709C20.2606 15.176 20.3307 15.2723 20.4095 15.3949C20.7334 15.0096 21.0224 14.6156 21.3638 14.2829C21.5127 14.1341 21.7666 14.0027 21.9767 14.0027C24.2182 13.9852 26.4596 13.994 28.701 13.994C29.1125 13.994 29.3577 14.1866 29.3664 14.5105C29.3664 14.8345 29.1213 15.0359 28.7185 15.0446C28.3158 15.0446 27.913 15.0359 27.5103 15.0534C27.3964 15.0622 27.2388 15.141 27.1863 15.2373C24.8748 19.6851 21.5214 23.2661 17.8091 26.5407C16.9072 27.3375 15.9529 28.0642 15.0336 28.8434C14.7709 29.0623 14.5432 29.0448 14.2981 28.8434C10.6207 25.849 7.13602 22.6532 4.36925 18.7658C3.64254 17.7501 3.02965 16.6469 2.38174 15.57C2.27667 15.3861 2.18036 15.2986 1.95271 15.3073C1.51494 15.3248 1.07716 15.3161 0.639377 15.3161C0.245376 15.3161 0.00897504 15.1234 0.00021946 14.817C-0.00853612 14.5018 0.245376 14.2741 0.639377 14.2741C2.69694 14.2741 4.74574 14.2654 6.80331 14.2829C7.05722 14.2829 7.18855 14.2041 7.31989 13.994C8.17793 12.5843 9.04474 11.1834 9.91154 9.78254C10.0516 9.54614 10.218 9.336 10.5244 9.37102C10.8309 9.40605 10.9447 9.63369 11.0323 9.90511C11.9166 12.4968 12.8096 15.0797 13.6939 17.6713C13.7202 17.7326 13.7465 17.8114 13.799 17.9515Z" fill="#1855B0"/>
</svg>
