<svg width="43" height="43" viewBox="0 0 43 43" fill="none" xmlns="http://www.w3.org/2000/svg">
<path d="M25.6822 37.3066C25.6585 37.2908 25.6348 37.275 25.6032 37.2671C24.6784 36.9984 24.2041 36.3581 24.1962 35.3937C24.1962 32.6034 24.1962 29.8132 24.1962 27.0229C24.1962 26.2719 23.8721 25.9478 23.1133 25.9478C21.066 25.9478 19.0108 25.9478 16.9635 25.9478C15.5961 25.9478 14.7266 25.0862 14.7266 23.7188C14.7266 21.4344 14.7266 19.1421 14.7266 16.8576C14.7266 16.2016 14.9163 15.6166 15.3194 15.1028C15.4222 14.9685 15.517 14.9368 15.6909 15.0001C16.8134 15.4111 17.9516 15.4111 19.074 15.0001C19.2559 14.9368 19.3586 14.9685 19.4693 15.1186C19.8566 15.6245 20.0463 16.1858 20.0463 16.8181C20.0463 18.3674 20.0463 19.9167 20.0463 21.466C20.0463 21.5687 20.0463 21.6794 20.0463 21.8138C20.3941 21.8138 20.7182 21.8059 21.0423 21.8138C22.0066 21.8296 22.9789 21.7743 23.9353 21.877C26.03 22.1141 27.7058 23.9638 27.7295 26.0664C27.7611 29.244 27.7453 32.4137 27.7374 35.5914C27.7374 36.3423 27.2473 36.9746 26.5359 37.2197C26.4411 37.2513 26.3541 37.2829 26.2593 37.3145C26.0775 37.3066 25.8798 37.3066 25.6822 37.3066Z" fill="#0210E3"/>
<path d="M13.0176 37.3032C12.5038 37.0661 12.3536 36.663 12.3615 36.1096C12.3852 34.4102 12.3694 32.7186 12.3694 31.0191C12.3694 30.9164 12.3694 30.8057 12.3694 30.703C12.1164 30.6476 11.8793 30.6239 11.658 30.5528C10.6936 30.2603 10.0059 29.3829 10.0059 28.3711C9.99802 24.4979 9.99802 20.6168 10.0059 16.7436C10.0059 15.9215 10.6778 15.2812 11.4841 15.2891C12.3061 15.2891 12.9543 15.9373 12.9543 16.7831C12.9622 20.2927 12.9543 23.8023 12.9543 27.3198C12.9543 27.4384 12.9543 27.557 12.9543 27.715C13.0808 27.715 13.1915 27.715 13.31 27.715C15.8474 27.715 18.3768 27.715 20.9142 27.715C21.5465 27.715 22.0208 28.0075 22.2817 28.5766C22.5346 29.13 22.4714 29.6675 22.0761 30.1259C21.8706 30.3631 21.5702 30.5132 21.3094 30.703C21.2857 30.6871 21.262 30.6634 21.2383 30.6476C21.2383 30.7504 21.2383 30.861 21.2383 30.9638C21.2383 32.6791 21.2224 34.3944 21.2462 36.1096C21.2541 36.663 21.096 37.0661 20.5901 37.3032C20.432 37.3032 20.2739 37.3032 20.1158 37.3032C19.602 37.0661 19.4202 36.663 19.4597 36.1096C19.4914 35.6828 19.4676 35.256 19.4676 34.8291C17.6733 34.8291 15.9185 34.8291 14.14 34.8291C14.14 35.2639 14.1163 35.6907 14.1479 36.1096C14.1874 36.663 14.0056 37.0661 13.4918 37.3032C13.3337 37.3032 13.1756 37.3032 13.0176 37.3032ZM14.1558 33.019C15.9343 33.019 17.6891 33.019 19.4439 33.019C19.4439 32.2285 19.4439 31.4539 19.4439 30.6871C17.6733 30.6871 15.9185 30.6871 14.1558 30.6871C14.1558 31.4697 14.1558 32.2364 14.1558 33.019Z" fill="#0210E3"/>
<path d="M20.654 10.2488C20.654 12.0431 19.1995 13.5054 17.4052 13.5133C15.6109 13.5133 14.1485 12.0589 14.1406 10.2646C14.1406 8.47024 15.5951 7.0079 17.3894 7C19.1837 7 20.646 8.46234 20.654 10.2488Z" fill="#0210E3"/>
<path fill-rule="evenodd" clip-rule="evenodd" d="M24.5156 13.1674C24.5156 11.7348 25.068 10.3608 26.0512 9.34778C27.0345 8.33474 28.368 7.76563 29.7586 7.76562C31.1491 7.76563 32.4826 8.33474 33.4659 9.34778C34.4491 10.3608 35.0015 11.7348 35.0015 13.1674C35.0015 14.6001 34.4491 15.9741 33.4659 16.9871C32.4826 18.0001 31.1491 18.5693 29.7586 18.5693C28.368 18.5693 27.0345 18.0001 26.0512 16.9871C25.068 15.9741 24.5156 14.6001 24.5156 13.1674ZM29.4594 15.4794L30.9686 13.5355L32.4779 11.5916L31.9326 11.1421L29.3587 14.456L27.5356 12.8909L27.0882 13.444L29.4594 15.4801V15.4794Z" fill="#0210E3"/>
</svg>
