<svg width="24" height="24" viewBox="0 0 24 24" fill="none" xmlns="http://www.w3.org/2000/svg">
<path d="M11.3255 23.9936C9.76307 23.9936 8.20693 23.9936 6.64454 23.9936C6.45706 23.9561 6.26332 23.9186 6.07583 23.8811C3.98223 23.3937 2.56358 21.6875 2.38235 19.4814C2.2636 18.0628 2.09487 16.6441 1.94488 15.2255C1.78239 13.6443 1.61365 12.0632 1.45116 10.4821C1.28242 8.89468 1.11994 7.3073 0.951198 5.71366C0.888702 5.10745 0.832456 4.50125 0.957447 3.89504C1.42616 1.5952 3.31353 0.0390625 5.66336 0.0390625C9.90681 0.0390625 14.1503 0.0390625 18.3875 0.0390625C18.6062 0.0390625 18.8249 0.0578112 19.0374 0.0765598C21.5435 0.35779 23.4184 2.71387 23.1496 5.21994C22.8809 7.68227 22.6309 10.1508 22.3747 12.6132C22.1247 15.0068 21.906 17.4066 21.6185 19.7939C21.3872 21.7125 20.3186 23.0187 18.5125 23.7061C18.1625 23.8374 17.775 23.8936 17.4125 23.9874C15.8501 23.9874 14.294 23.9874 12.7316 23.9874C12.7316 22.8062 12.7316 21.6188 12.7316 20.4376C12.7316 19.7439 12.7379 19.0502 12.7316 18.3565C12.7254 17.8315 12.2129 17.4941 11.7504 17.7128C11.4505 17.8503 11.3317 18.1003 11.3317 18.4315C11.3255 20.2876 11.3255 22.1437 11.3255 23.9936ZM12.0067 12.3507C13.1941 12.3507 14.3752 12.3507 15.5627 12.3507C15.8314 12.3507 16.0439 12.2569 16.2189 12.057C17.4625 10.6258 18.7062 9.20091 19.9499 7.76976C20.2436 7.42604 20.2561 7.06981 19.9373 6.74484C19.4124 6.21362 18.8937 5.66991 18.3062 5.2137C16.0126 3.43882 13.4128 2.71387 10.538 3.13884C7.9632 3.52007 5.8696 4.78873 4.15097 6.71359C3.80725 7.09481 3.81349 7.41979 4.15097 7.80726C5.36963 9.20716 6.5883 10.6008 7.80071 12.007C8.00695 12.2444 8.23818 12.3569 8.55066 12.3507C9.70058 12.3444 10.8505 12.3507 12.0067 12.3507Z" fill="#1855B0"/>
<path d="M11.3262 4.46875C11.3262 4.74373 11.3262 4.99996 11.3262 5.25619C11.3262 5.70616 11.6199 6.03114 12.0199 6.03114C12.4261 6.03739 12.7198 5.71241 12.7261 5.26244C12.7261 5.00621 12.7261 4.74998 12.7261 4.46875C13.901 4.55624 14.9821 4.88122 16.0321 5.42493C15.8758 5.61242 15.7383 5.78116 15.6071 5.94989C15.3196 6.31237 15.3384 6.72484 15.6571 6.98732C15.9758 7.2498 16.3883 7.19356 16.6883 6.84358C16.8695 6.6311 17.0507 6.41861 17.2632 6.16238C17.682 6.52485 18.0944 6.88733 18.5256 7.25605C18.3132 7.49978 18.1319 7.71852 17.9382 7.93725C17.1007 8.89344 16.2696 9.85587 15.4321 10.8058C15.3634 10.8808 15.2384 10.937 15.1384 10.9433C14.6322 10.9558 14.126 10.9433 13.6197 10.9558C13.4822 10.9558 13.4135 10.912 13.3573 10.7871C13.0385 10.0871 12.7136 9.38715 12.3886 8.6872C12.3136 8.52471 12.2323 8.38097 12.0261 8.37472C11.8074 8.36847 11.7199 8.52471 11.6449 8.69345C11.3262 9.38715 11.0012 10.0746 10.6887 10.7746C10.6325 10.9058 10.5637 10.962 10.4137 10.9558C9.9075 10.9433 9.40129 10.9558 8.89507 10.9495C8.81383 10.9495 8.70759 10.912 8.65134 10.8558C7.62016 9.68713 6.60149 8.50596 5.57656 7.33105C5.56406 7.31855 5.56406 7.30605 5.53906 7.24355C5.93903 6.89358 6.3515 6.5311 6.77647 6.16238C6.98896 6.41236 7.17645 6.63735 7.36393 6.84983C7.66391 7.19356 8.07638 7.24355 8.39511 6.97482C8.70134 6.71234 8.72009 6.30612 8.43886 5.94989C8.30137 5.78116 8.16388 5.61242 8.00764 5.41868C9.06381 4.88747 10.145 4.56874 11.3262 4.46875Z" fill="#1855B0"/>
</svg>
