<svg width="26" height="25" viewBox="0 0 26 25" fill="none" xmlns="http://www.w3.org/2000/svg">
<path d="M12.3001 25.0007C10.6726 25.0007 9.05152 25.0007 7.42395 25.0007C7.22864 24.9616 7.02683 24.9225 6.83152 24.8835C4.65058 24.3757 3.17276 22.5984 2.98396 20.3003C2.86027 18.8224 2.68449 17.3446 2.52824 15.8668C2.35898 14.2197 2.1832 12.5726 2.01393 10.9255C1.83816 9.2719 1.66889 7.6183 1.49311 5.95818C1.42801 5.32669 1.36942 4.69519 1.49962 4.0637C1.98789 1.66793 3.95399 0.046875 6.40184 0.046875C10.8223 0.046875 15.2428 0.046875 19.6567 0.046875C19.8846 0.046875 20.1124 0.0664058 20.3338 0.0859365C22.9444 0.378898 24.8975 2.83326 24.6175 5.44387C24.3376 8.00891 24.0772 10.5805 23.8103 13.1455C23.5498 15.6389 23.322 18.1389 23.0225 20.6258C22.7816 22.6244 21.6684 23.9851 19.7869 24.7012C19.4223 24.8379 19.0187 24.8965 18.6411 24.9942C17.0136 24.9942 15.3925 24.9942 13.7649 24.9942C13.7649 23.7637 13.7649 22.5268 13.7649 21.2963C13.7649 20.5737 13.7714 19.8511 13.7649 19.1284C13.7584 18.5816 13.2246 18.23 12.7428 18.4579C12.4303 18.6011 12.3066 18.8615 12.3066 19.2065C12.3001 21.1401 12.3001 23.0736 12.3001 25.0007ZM13.0097 12.8721C14.2467 12.8721 15.4771 12.8721 16.7141 12.8721C16.994 12.8721 17.2154 12.7744 17.3977 12.5661C18.6932 11.0752 19.9887 9.5909 21.2843 8.10006C21.5903 7.74199 21.6033 7.37091 21.2713 7.03237C20.7244 6.479 20.184 5.91261 19.5721 5.43736C17.1828 3.58845 14.4746 2.83326 11.4798 3.27596C8.79762 3.67308 6.61668 4.99467 4.82636 6.99982C4.4683 7.39695 4.47481 7.73548 4.82636 8.13912C6.09586 9.59741 7.36536 11.0492 8.62835 12.514C8.84319 12.7614 9.08407 12.8786 9.40958 12.8721C10.6075 12.8656 11.8054 12.8721 13.0097 12.8721Z" fill="#1855B0"/>
<path d="M12.2941 4.64844C12.2941 4.93489 12.2941 5.20181 12.2941 5.46873C12.2941 5.93747 12.6001 6.276 13.0168 6.276C13.4399 6.28251 13.7459 5.94398 13.7524 5.47524C13.7524 5.20832 13.7524 4.9414 13.7524 4.64844C14.9763 4.73958 16.1026 5.07811 17.1963 5.64451C17.0336 5.83981 16.8904 6.01559 16.7536 6.19137C16.4542 6.56896 16.4737 6.99864 16.8057 7.27207C17.1377 7.5455 17.5674 7.48691 17.8799 7.12233C18.0687 6.90098 18.2575 6.67964 18.4789 6.41272C18.915 6.79031 19.3447 7.1679 19.7939 7.55201C19.5726 7.80591 19.3838 8.03377 19.182 8.26163C18.3096 9.2577 17.4437 10.2603 16.5714 11.2498C16.4997 11.328 16.3695 11.3865 16.2654 11.3931C15.738 11.4061 15.2107 11.3931 14.6834 11.4061C14.5402 11.4061 14.4685 11.3605 14.4099 11.2303C14.0779 10.5012 13.7394 9.772 13.4009 9.04286C13.3227 8.87359 13.2381 8.72385 13.0233 8.71734C12.7954 8.71083 12.7043 8.87359 12.6261 9.04937C12.2941 9.77201 11.9556 10.4881 11.6301 11.2173C11.5715 11.354 11.4999 11.4126 11.3436 11.4061C10.8163 11.3931 10.289 11.4061 9.76163 11.3996C9.677 11.3996 9.56632 11.3605 9.50773 11.3019C8.43354 10.0845 7.37237 8.85406 6.30469 7.63013C6.29167 7.61711 6.29167 7.60409 6.26562 7.53899C6.68228 7.17442 7.11196 6.79682 7.55465 6.41272C7.776 6.67313 7.97131 6.90749 8.16662 7.12884C8.47911 7.48691 8.90879 7.53899 9.24081 7.25905C9.55981 6.98562 9.57934 6.56245 9.28638 6.19137C9.14316 6.01559 8.99993 5.83981 8.83717 5.638C9.93741 5.08462 11.0637 4.7526 12.2941 4.64844Z" fill="#1855B0"/>
</svg>
