<svg width="14" height="14" viewBox="0 0 14 14" fill="none" xmlns="http://www.w3.org/2000/svg">
<path d="M1.15723 7.76221C1.17812 7.22945 1.41142 6.84293 1.88151 6.63052C2.35857 6.41463 2.81124 6.4982 3.20124 6.84641C3.79669 7.37918 4.38517 7.92239 4.97714 8.45864C5.08857 8.55963 5.19999 8.66409 5.31491 8.76507C5.48553 8.91829 5.63526 8.91132 5.78848 8.73721C7.06991 7.28864 8.35133 5.84007 9.63276 4.3915C10.4998 3.41302 11.3669 2.43454 12.2339 1.45257C12.3419 1.3307 12.4637 1.2715 12.6274 1.32373C12.7632 1.369 12.8677 1.49087 12.8607 1.63712C12.8572 1.71373 12.8259 1.7973 12.7841 1.86346C11.8021 3.45132 10.8167 5.0357 9.83124 6.62355C8.69955 8.4482 7.56437 10.2763 6.43267 12.101C6.23419 12.4213 5.96607 12.6372 5.58999 12.6964C5.16169 12.7661 4.80651 12.6268 4.53491 12.296C3.56339 11.112 2.59535 9.92114 1.62383 8.73373C1.44276 8.51088 1.24776 8.29846 1.19553 7.999C1.17812 7.91891 1.16767 7.83534 1.15723 7.76221Z" fill="white"/>
</svg>
